<?xml version="1.0" encoding="UTF-8" standalone="no"?>
<!-- Created with Inkscape (http://www.inkscape.org/) -->

<svg
   xmlns:dc="http://purl.org/dc/elements/1.1/"
   xmlns:cc="http://creativecommons.org/ns#"
   xmlns:rdf="http://www.w3.org/1999/02/22-rdf-syntax-ns#"
   xmlns:svg="http://www.w3.org/2000/svg"
   xmlns="http://www.w3.org/2000/svg"
   xmlns:sodipodi="http://sodipodi.sourceforge.net/DTD/sodipodi-0.dtd"
   xmlns:inkscape="http://www.inkscape.org/namespaces/inkscape"
   width="272.63266mm"
   height="202.12419mm"
   viewBox="0 0 272.63266 202.12419"
   version="1.1"
   id="svg8"
   sodipodi:docname="model.svg"
   inkscape:version="0.92.4 (unknown)">
  <defs
     id="defs2" />
  <sodipodi:namedview
     id="base"
     pagecolor="#ffffff"
     bordercolor="#666666"
     borderopacity="1.0"
     inkscape:pageopacity="0.0"
     inkscape:pageshadow="2"
     inkscape:zoom="0.7"
     inkscape:cx="463.77769"
     inkscape:cy="500.32741"
     inkscape:document-units="mm"
     inkscape:current-layer="layer3"
     showgrid="true"
     inkscape:window-width="2560"
     inkscape:window-height="1379"
     inkscape:window-x="0"
     inkscape:window-y="27"
     inkscape:window-maximized="1"
     fit-margin-top="0"
     fit-margin-left="0"
     fit-margin-right="0"
     fit-margin-bottom="0">
    <inkscape:grid
       type="xygrid"
       id="grid815"
       originx="-60.352687"
       originy="-10.251899" />
  </sodipodi:namedview>
  <metadata
     id="metadata5">
    <rdf:RDF>
      <cc:Work
         rdf:about="">
        <dc:format>image/svg+xml</dc:format>
        <dc:type
           rdf:resource="http://purl.org/dc/dcmitype/StillImage" />
        <dc:title></dc:title>
      </cc:Work>
    </rdf:RDF>
  </metadata>
  <g
     inkscape:label="Layer 1"
     inkscape:groupmode="layer"
     id="layer1"
     transform="translate(-60.352684,-84.623914)"
     style="display:none" />
  <g
     inkscape:groupmode="layer"
     id="layer6"
     inkscape:label="Serosa"
     style="display:inline"
     transform="translate(-60.352684,2.3760864)">
    <path
       style="fill:#e9c6af;fill-opacity:1;stroke:#000000;stroke-width:0.30498126;stroke-opacity:1"
       d="m 159.31671,-2.2235958 c -54.57214,1.19e-4 -98.811532,45.1788518 -98.811535,100.9096028 0,26.762853 10.410465,52.429573 28.941217,71.353793 18.530748,18.92422 43.663858,29.55576 69.870318,29.55581 26.20656,9e-5 51.3398,-10.63139 69.87066,-29.55562 18.53086,-18.92424 28.9414,-44.59104 28.9414,-71.353983 0,-26.762945 -10.41054,-52.429745 -28.9414,-71.353976 C 210.65651,8.4078012 185.52327,-2.2236778 159.31671,-2.2235958 Z m 0,8.305437 c 48.95199,-1e-5 88.63542,41.4602968 88.63542,92.6041658 0,51.143863 -39.68343,92.604173 -88.63542,92.604173 -48.95199,0 -88.635412,-41.46031 -88.635412,-92.604173 0,-51.143869 39.683422,-92.6041758 88.635412,-92.6041658 z"
       id="epithelium"
       inkscape:connector-curvature="0"
       sodipodi:nodetypes="sssssssssssss"
       inkscape:label="#path2594" />
    <path
       style="fill:#c8b7b7;fill-opacity:1;stroke:#000000;stroke-width:0.26458332;stroke-opacity:1"
       d="M 159.31697,6.0818395 C 110.36498,6.0818375 70.681554,47.542137 70.681554,98.686 c 0,51.14387 39.683426,92.60417 88.635416,92.60417 48.95199,0 88.63542,-41.4603 88.63542,-92.60417 0,-51.143863 -39.68343,-92.6041625 -88.63542,-92.6041605 z m 0,8.8707755 c 44.75617,3.4e-5 81.03814,37.489034 81.03793,83.733905 -5e-5,46.24467 -36.28194,83.73336 -81.03793,83.73339 C 114.56098,182.41989 78.279064,144.9312 78.279011,98.68652 78.2788,52.441638 114.56079,14.952633 159.31697,14.952615 Z"
       id="connectivetissue"
       inkscape:connector-curvature="0"
       sodipodi:nodetypes="sssssccccc"
       inkscape:label="#path2538" />
  </g>
  <g
     inkscape:groupmode="layer"
     id="layer5"
     inkscape:label="Muscularis externa"
     style="display:inline"
     transform="translate(-60.352684,2.3760864)">
    <path
       style="display:inline;fill:#c83737;fill-opacity:1;stroke:#000000;stroke-width:0.32492656;stroke-opacity:1"
       d="m 159.31699,28.621549 a 67.808822,70.064307 0 0 0 -67.808702,70.06446 67.808822,70.064307 0 0 0 67.808702,70.064451 67.808822,70.064307 0 0 0 67.80866,-70.064451 67.808822,70.064307 0 0 0 -67.80866,-70.06446 z m 0,13.22624 a 50.522858,56.838215 0 0 1 50.52286,56.83822 50.522858,56.838215 0 0 1 -50.52286,56.838211 50.522858,56.838215 0 0 1 -50.52287,-56.838211 50.522858,56.838215 0 0 1 50.52287,-56.83822 z"
       id="circularlayer"
       inkscape:connector-curvature="0"
       inkscape:label="#path949-5" />
    <path
       style="display:inline;fill:#a02c2c;fill-opacity:1;stroke:#000000;stroke-width:0.38831812;stroke-opacity:1"
       d="m 159.31697,14.952359 a 81.037993,83.733512 0 0 0 -81.037961,83.73391 81.037993,83.733512 0 0 0 81.037961,83.733381 81.037993,83.733512 0 0 0 81.03796,-83.733381 81.037993,83.733512 0 0 0 -81.03796,-83.73391 z m 0,13.66893 A 67.808821,70.064306 0 0 1 227.12576,98.685749 67.808821,70.064306 0 0 1 159.31697,168.7502 67.808821,70.064306 0 0 1 91.508179,98.685749 67.808821,70.064306 0 0 1 159.31697,28.621289 Z"
       id="longitudinal"
       inkscape:connector-curvature="0"
       inkscape:label="#path949-5-5-6" />
  </g>
  <g
     inkscape:groupmode="layer"
     id="layer4"
     inkscape:label="Submucosa"
     style="display:inline"
     transform="translate(-60.352684,2.3760864)">
    <ellipse
       style="display:inline;fill:#fff6d5;fill-opacity:1;stroke:#000000;stroke-width:0.26458332;stroke-opacity:1"
       id="submucosa"
       cx="159.31697"
       cy="98.686005"
       rx="52.916664"
       ry="59.53125"
       inkscape:label="#path949" />
  </g>
  <g
     inkscape:groupmode="layer"
     id="layer3"
     inkscape:label="Mucosa"
     style="display:inline"
     transform="translate(-60.352684,2.3760864)">
    <path
       style="fill:#fff6d5;fill-opacity:1;stroke:none;stroke-width:0.2965914;stroke-opacity:1"
       d="m 159.87655,56.476549 c -3.53119,0.0111 -6.94143,0.63123 -10.16056,1.77668 -2.60739,0.92778 -5.08941,2.20016 -7.40876,3.77262 -1.90533,1.29176 -3.12554,3.71735 -5.36602,4.45812 -3.38766,1.12006 -4.05238,5.25279 -5.94754,8.73796 -2.20651,4.05773 -2.31377,9.68444 -3.55156,14.64498 -0.81888,3.2817 -3.1953,5.74047 -3.19026,9.16622 0.006,4.151861 2.59171,7.407701 3.53101,11.198751 1.30753,5.27732 1.56591,11.23413 4.10516,15.53328 2.5257,4.27621 7.2558,5.76837 11.21212,8.351 5.3457,3.48959 10.37103,7.33156 16.90198,7.32472 2.00898,-0.002 2.75067,-2.37483 4.66899,-2.756 6.14576,-1.22116 10.50476,-5.34423 15.36826,-9.42557 2.09685,-1.75964 4.58241,-2.82677 6.42586,-4.91792 3.24427,-3.68019 3.91707,-8.93502 5.50959,-14.01461 1.17753,-3.75592 3.71451,-7.07337 3.71453,-11.368071 l -9.95185,-0.0837 -5.84512,0.0837 c -0.46884,1.721661 -2.09462,3.026051 -2.3735,4.796091 -0.1618,1.027 -0.78193,2.76102 -1.47846,3.75223 -0.88356,1.25742 -1.89011,1.75977 -2.24017,2.94556 -0.87373,2.95969 -1.01155,6.08488 -2.09032,8.42687 -0.58528,1.27065 -2.37532,1.78954 -3.14089,2.78743 -1.23007,1.60336 -3.08232,1.86073 -4.48706,2.85667 -1.41401,1.00253 -2.38361,2.73792 -4.51859,2.74092 -5.54435,0.007 -5.77529,-9.59403 -12.2592,-9.94978 -5.0857,-0.27905 -9.32861,-4.84698 -7.63416,-9.5958 0.74153,-2.07821 0.38407,-4.81675 2.18281,-7.14892 1.15961,-1.503491 1.34903,-6.468121 2.16576,-7.816051 2.12526,-3.50754 2.32745,-2.27191 3.56051,-7.42849 0.49479,-2.06922 -2.11826,-2.80163 -0.89194,-5.92315 0.52405,-1.33399 3.42278,-0.44264 4.73098,-1.9787 1.41769,-1.66462 3.9751,-1.94255 5.27255,-3.48557 1.07925,-1.28348 1.39773,-2.33003 3.02358,-2.43809 1.7968,-0.1194 3.80659,-0.82806 5.94899,-0.84646 0.71413,-0.006 1.44272,0.0643 2.18333,0.2589 0.60665,0.15939 0.87354,1.53809 2.24328,1.418 2.90643,-0.25486 3.42108,1.26115 4.67723,1.92029 1.67527,0.87907 2.1183,2.25576 0.91881,3.28972 -2.41214,2.07929 0.48963,4.03952 0.79323,5.7273 0.50836,2.82605 0.16164,4.88841 2.41122,5.4684 3.13215,0.80755 1.12523,6.26509 1.13223,9.19996 v 0.10283 c 0,0.29141 -0.0396,0.56856 -0.10593,0.83613 l 15.77268,-0.0656 c -0.002,-0.83099 -2.77566,-8.63196 -2.83682,-9.41973 -0.2545,-3.27761 -1.14083,-5.05681 -1.29011,-6.506 -0.28688,-2.78498 -0.14211,-3.8422 -3.62296,-8.40349 -1.10721,-1.45088 -2.67556,-6.87348 -3.94011,-8.13068 -2.97909,-2.96177 -7.29117,-3.27773 -11.24704,-4.96673 -1.70133,-0.72639 -3.16696,-2.30791 -4.82723,-3.1545 -2.54384,-1.29713 -5.28992,-1.76034 -8.04853,-1.75169 z"
       id="laminapropria"
       inkscape:connector-curvature="0"
       sodipodi:nodetypes="cssssscssscssssccccccccccccssccccccccsccccsccsssssscc"
       inkscape:label="#path4650" />
    <path
       style="fill:#c83737;fill-opacity:1;stroke:#000000;stroke-width:0.35737503;stroke-opacity:1"
       d="m 159.85536,48.539129 c -4.31975,0.0132 -8.4912,0.74892 -12.42921,2.10839 -3.18966,1.10113 -6.22624,2.61151 -9.06353,4.47777 -2.33082,1.53312 -3.82365,4.41197 -6.56446,5.29115 -4.14417,1.32934 -4.95715,6.23408 -7.27552,10.37042 -2.69926,4.81589 -2.83024,11.49399 -4.34444,17.38137 -1.00175,3.89486 -3.90877,6.8131 -3.90261,10.87892 0.007,4.927611 3.17006,8.791801 4.31912,13.291181 1.59952,6.26335 1.91562,13.33316 5.02192,18.43557 3.08972,5.07519 8.87613,6.84585 13.71596,9.91102 6.53947,4.1416 12.68736,8.70164 20.67677,8.69353 2.45761,-0.002 3.36458,-2.81873 5.71128,-3.27112 7.5182,-1.44933 12.85081,-6.34249 18.8004,-11.1864 2.56511,-2.08842 5.6059,-3.35498 7.86102,-5.83685 3.96878,-4.36781 4.79149,-10.60441 6.73964,-16.63309 1.44049,-4.45769 4.54389,-8.39507 4.54391,-13.492201 l -12.17393,-0.0992 -2.86753,0.0398 7.0652,0.0594 c -1e-5,4.294701 -2.53697,7.611861 -3.7145,11.367781 -1.59252,5.07959 -2.26547,10.33445 -5.50974,14.01465 -1.84345,2.09115 -4.32912,3.1584 -6.42597,4.91804 -4.8635,4.08134 -9.22229,8.20462 -15.36805,9.42578 -1.91832,0.38117 -2.65998,2.75391 -4.66897,2.75591 -6.53094,0.007 -11.55611,-3.83503 -16.90181,-7.32462 -3.95632,-2.58263 -8.68653,-4.07522 -11.21223,-8.35143 -2.53925,-4.29915 -2.79765,-10.25558 -4.10518,-15.5329 -0.9393,-3.79105 -3.52505,-7.04694 -3.53105,-11.198801 -0.005,-3.42575 2.37162,-5.88467 3.19051,-9.16636 1.23779,-4.96055 1.34469,-10.58738 3.5512,-14.64511 1.89516,-3.48517 2.55978,-7.6179 5.94744,-8.73797 2.24048,-0.74076 3.46075,-3.16636 5.36608,-4.45812 2.31935,-1.57246 4.80146,-2.8446 7.40885,-3.77238 3.21913,-1.14545 6.62943,-1.76554 10.16062,-1.77663 2.75861,-0.009 5.50476,0.4547 8.0486,1.75183 1.66027,0.84659 3.12577,2.42794 4.8271,3.15433 3.95587,1.689 8.26777,2.00485 11.24686,4.96662 1.26455,1.2572 2.83312,6.67989 3.94033,8.13077 3.48085,4.56129 3.33615,5.61864 3.62303,8.40362 0.14928,1.44919 1.03535,3.22845 1.28984,6.50606 0.0612,0.78777 2.83504,8.58859 2.83704,9.41958 l -11.31817,0.047 c -2.6e-4,0.001 -2.6e-4,0.002 -5.2e-4,0.003 l 19.29495,-0.078 c -0.002,-0.98625 -3.39525,-10.24472 -3.47007,-11.17968 -0.31133,-3.89 -1.39557,-6.00154 -1.5782,-7.72149 -0.35093,-3.30535 -0.17359,-4.56054 -4.43177,-9.97407 -1.35447,-1.72196 -3.27345,-8.15745 -4.82038,-9.64954 -3.64438,-3.51516 -8.91906,-3.89015 -13.75833,-5.89473 -2.08127,-0.86212 -3.87455,-2.73919 -5.90559,-3.74396 -3.11191,-1.53949 -6.47126,-2.08921 -9.84591,-2.07894 z"
       id="mucosae"
       inkscape:connector-curvature="0"
       inkscape:label="#path4650-3" />
    <path
       style="fill:#d35f8d;fill-opacity:1;stroke:#000000;stroke-width:0.26458332;stroke-opacity:1"
       d="m 177.42453,98.532363 c 0,2.002887 -1.82846,3.299027 -2.1026,5.174627 -0.13589,0.92975 -0.65668,2.49985 -1.24166,3.39721 -0.74207,1.13835 -1.58746,1.59303 -1.88145,2.66652 -0.73382,2.67945 -0.8497,5.50885 -1.75571,7.62908 -0.49155,1.15033 -1.99509,1.61982 -2.63806,2.52322 -1.03308,1.45154 -2.58843,1.68471 -3.7682,2.58635 -1.18757,0.9076 -2.00203,2.47888 -3.79511,2.48131 -4.65646,0.006 -4.85039,-8.68572 -10.29594,-9.00778 -4.27126,-0.25262 -7.83493,-4.38765 -6.41184,-8.68682 0.62278,-1.88141 0.3227,-4.36081 1.83338,-6.47214 0.97391,-1.361137 1.13292,-5.855807 1.81886,-7.076117 1.78491,-3.17541 1.95472,-2.05664 2.99031,-6.72495 0.41556,-1.87329 -1.77907,-2.5366 -0.74914,-5.36255 0.44013,-1.20766 2.875,-0.40055 3.9737,-1.79116 1.19065,-1.50701 3.33823,-1.75846 4.4279,-3.15537 0.90641,-1.16195 1.1739,-2.10969 2.53938,-2.20752 2.01206,-0.14414 4.34221,-1.23624 6.83023,-0.53161 0.5095,0.1443 0.73333,1.39237 1.88372,1.28364 2.44098,-0.23073 2.87322,1.14165 3.92821,1.73838 1.40698,0.79583 1.77934,2.04224 0.77194,2.9783 -2.02585,1.88239 0.41104,3.6569 0.66602,5.18487 0.42695,2.55845 0.13567,4.42569 2.025,4.95076 2.63056,0.73108 0.94489,5.67174 0.95096,8.32871 l 1.1e-4,0.093 z"
       id="lumen"
       inkscape:connector-curvature="0"
       sodipodi:nodetypes="cssssssssssssssssssssssccc"
       inkscape:label="#path4520" />
    <path
       style="fill:#de87aa;fill-opacity:1;stroke:#000000;stroke-width:0.30343181;stroke-opacity:1"
       d="m 166.2757,71.059033 c -2.1424,0.0184 -4.15221,0.72706 -5.949,0.84646 -1.62585,0.10806 -1.94433,1.15462 -3.02358,2.4381 -1.29744,1.54302 -3.85486,1.82094 -5.27255,3.48557 -1.3082,1.53606 -4.20693,0.64471 -4.73098,1.97869 -1.22632,3.12152 1.38673,3.85394 0.89194,5.92316 -1.23306,5.15658 -1.43525,3.92094 -3.56051,7.42848 -0.81673,1.34794 -1.00615,6.31256 -2.16576,7.816057 -1.79874,2.33216 -1.44128,5.07071 -2.18281,7.14892 -1.69445,4.74882 2.54846,9.31675 7.63416,9.5958 6.48391,0.35575 6.71485,9.95678 12.2592,9.94978 2.13498,-0.003 3.10457,-1.73839 4.51858,-2.74092 1.40474,-0.99594 3.257,-1.25331 4.48707,-2.85667 0.76557,-0.99789 2.55561,-1.51678 3.14089,-2.78743 1.07877,-2.34199 1.21658,-5.46719 2.09031,-8.42688 0.35006,-1.18579 1.35662,-1.68813 2.24018,-2.94555 0.69653,-0.99121 1.31666,-2.72523 1.47846,-3.75223 0.32642,-2.07178 2.50372,-3.50355 2.50372,-5.715927 v -0.10283 c -0.007,-2.93487 1.99992,-8.39241 -1.13223,-9.19996 -2.24958,-0.57999 -1.90286,-2.64235 -2.41122,-5.4684 -0.3036,-1.68778 -3.20537,-3.64802 -0.79323,-5.7273 1.19949,-1.03396 0.75646,-2.41065 -0.91881,-3.28972 -1.25615,-0.65914 -1.7708,-2.17516 -4.67723,-1.9203 -1.36974,0.1201 -1.63663,-1.25861 -2.24328,-1.418 -0.74061,-0.19458 -1.46919,-0.26503 -2.18332,-0.2589 z m -0.91106,2.68046 c 0.29988,-0.003 0.60272,0.0118 0.90847,0.0491 0.30576,0.0373 0.61401,0.0969 0.92501,0.185 0.12737,0.0361 0.23717,0.14139 0.34778,0.27699 0.11061,0.1356 0.22226,0.30169 0.35399,0.45992 0.13172,0.15823 0.28367,0.30841 0.47439,0.41238 0.19071,0.10397 0.42036,0.16154 0.70796,0.13436 0.30512,-0.0288 0.57882,-0.0326 0.82631,-0.016 0.24749,0.0166 0.46856,0.0537 0.66869,0.10645 0.40027,0.10554 0.71604,0.27428 0.98857,0.4687 0.27253,0.19443 0.50162,0.41477 0.72864,0.62374 0.22702,0.20897 0.45197,0.40634 0.71572,0.55552 0.35174,0.19896 0.63873,0.42634 0.85576,0.66973 0.21702,0.24339 0.36411,0.50283 0.43563,0.76688 0.0715,0.26404 0.0677,0.53283 -0.017,0.79375 -0.0848,0.26091 -0.25045,0.51426 -0.5023,0.74827 -0.25323,0.2353 -0.43652,0.46856 -0.56327,0.70022 -0.12675,0.23165 -0.19702,0.46137 -0.22324,0.68884 -0.0262,0.22748 -0.009,0.45267 0.0398,0.67541 0.0483,0.22275 0.12731,0.44347 0.22427,0.66095 0.19394,0.43496 0.45929,0.85853 0.69195,1.26917 0.11633,0.20532 0.22453,0.40722 0.31161,0.60565 0.0871,0.19843 0.15313,0.39346 0.185,0.58446 0.10674,0.63961 0.16874,1.23618 0.23099,1.77922 0.0623,0.54304 0.12471,1.0327 0.23307,1.45882 0.0542,0.21307 0.11988,0.41013 0.20257,0.59015 0.0827,0.18002 0.18236,0.34287 0.30489,0.48731 0.12252,0.14443 0.26763,0.27041 0.44132,0.37672 0.17368,0.1063 0.37568,0.19274 0.61184,0.25838 0.32883,0.0914 0.59067,0.24863 0.79634,0.45889 0.20567,0.21025 0.35548,0.47345 0.46147,0.77721 0.10599,0.30375 0.16814,0.6482 0.19792,1.02009 0.0298,0.37189 0.0271,0.77131 0.004,1.18598 -0.0459,0.82933 -0.17382,1.71904 -0.2899,2.56728 -0.11608,0.84825 -0.22011,1.655 -0.21859,2.31924 v 0.093 c 0,0.25036 -0.0285,0.4901 -0.0791,0.72088 -0.0505,0.23079 -0.12299,0.45298 -0.21084,0.66921 -0.1757,0.432477 -0.41318,0.840457 -0.65887,1.244887 -0.24569,0.40442 -0.49955,0.80506 -0.70952,1.22163 -0.20997,0.41657 -0.37588,0.84937 -0.44442,1.31827 -0.0679,0.46487 -0.23186,1.08957 -0.45217,1.71048 -0.2203,0.62092 -0.49712,1.23805 -0.78961,1.68672 -0.37104,0.56918 -0.7676,0.96739 -1.10846,1.35754 -0.17043,0.19508 -0.32721,0.38808 -0.4594,0.59945 -0.1322,0.21137 -0.23967,0.44114 -0.31316,0.70952 -0.18346,0.66986 -0.32861,1.34898 -0.45682,2.02416 -0.12821,0.67519 -0.2396,1.34623 -0.35657,1.99988 -0.11697,0.65366 -0.23939,1.29021 -0.38912,1.89549 -0.14974,0.60528 -0.32696,1.1794 -0.55346,1.70946 -0.12289,0.28758 -0.30904,0.53251 -0.52916,0.75241 -0.22013,0.21989 -0.47444,0.41499 -0.73329,0.60203 -0.25885,0.18704 -0.52214,0.36597 -0.7612,0.555 -0.23905,0.18903 -0.45369,0.38807 -0.61443,0.61392 -0.25827,0.36289 -0.54934,0.64928 -0.85886,0.88935 -0.30953,0.24007 -0.63725,0.43356 -0.96997,0.60978 -0.33272,0.17622 -0.67001,0.33562 -0.99787,0.50695 -0.32786,0.17133 -0.6466,0.35491 -0.94155,0.58032 -0.59378,0.4538 -1.09398,1.07318 -1.67018,1.57975 -0.2881,0.25329 -0.59551,0.47845 -0.94258,0.64027 -0.17353,0.0809 -0.35674,0.14624 -0.55293,0.19121 -0.1962,0.045 -0.40529,0.0695 -0.62942,0.0698 -0.29103,3.7e-4 -0.56467,-0.0332 -0.82321,-0.0966 -0.25853,-0.0634 -0.50198,-0.15657 -0.73277,-0.27543 -0.23079,-0.11886 -0.44903,-0.26346 -0.65681,-0.42943 -0.20778,-0.16598 -0.40527,-0.35335 -0.59479,-0.55811 -0.37904,-0.40951 -0.72595,-0.88836 -1.0604,-1.40301 -0.33446,-0.51465 -0.65611,-1.06488 -0.98392,-1.61799 -0.32781,-0.55311 -0.66202,-1.10911 -1.02113,-1.63401 -0.35911,-0.5249 -0.74314,-1.01899 -1.1715,-1.44901 -0.21418,-0.21501 -0.43939,-0.41394 -0.678,-0.59272 -0.23861,-0.1788 -0.49083,-0.33706 -0.75861,-0.47129 -0.26777,-0.13424 -0.55097,-0.24421 -0.85266,-0.32557 -0.30169,-0.0814 -0.62187,-0.13438 -0.96222,-0.15451 -0.5339,-0.0316 -1.05667,-0.12359 -1.56011,-0.26923 -0.50343,-0.14564 -0.98758,-0.34497 -1.44383,-0.59015 -0.45626,-0.24518 -0.88458,-0.53642 -1.27693,-0.86661 -0.39235,-0.3302 -0.74867,-0.69899 -1.0604,-1.09967 -0.31174,-0.40069 -0.57883,-0.8332 -0.79323,-1.28985 -0.21441,-0.45665 -0.37611,-0.93748 -0.47646,-1.43557 -0.10036,-0.49809 -0.13945,-1.0134 -0.10904,-1.53841 0.0304,-0.525 0.13062,-1.05992 0.30851,-1.59732 0.15569,-0.47035 0.25336,-0.97791 0.33642,-1.50792 0.0831,-0.53 0.15118,-1.08228 0.24701,-1.64175 0.0958,-0.55948 0.21937,-1.12643 0.41341,-1.68517 0.097,-0.27938 0.21174,-0.55639 0.34933,-0.82993 0.13759,-0.27353 0.29796,-0.54327 0.48679,-0.80718 0.12174,-0.17014 0.23081,-0.38938 0.3297,-0.64492 0.0989,-0.255547 0.18794,-0.547587 0.26923,-0.863517 0.16259,-0.63185 0.29496,-1.35938 0.41858,-2.08256 0.12362,-0.72317 0.23825,-1.44195 0.36484,-2.0562 0.12658,-0.61425 0.26518,-1.12378 0.43666,-1.42886 0.44623,-0.79385 0.79177,-1.31966 1.07487,-1.73426 0.28311,-0.4146 0.50375,-0.71828 0.70125,-1.06866 0.19751,-0.35039 0.37177,-0.74755 0.56121,-1.34876 0.18944,-0.60121 0.39429,-1.40641 0.65319,-2.57349 0.0519,-0.23416 0.0632,-0.44922 0.045,-0.65215 -0.0182,-0.20294 -0.0662,-0.3939 -0.13178,-0.57878 -0.13121,-0.36977 -0.33433,-0.71634 -0.51831,-1.09296 -0.092,-0.1883 -0.17912,-0.38398 -0.25012,-0.59376 -0.071,-0.20978 -0.12575,-0.43357 -0.15296,-0.67799 -0.0272,-0.24443 -0.027,-0.50977 0.0124,-0.80202 0.0394,-0.29225 0.11776,-0.61156 0.2465,-0.9648 0.055,-0.15096 0.14134,-0.27068 0.25218,-0.3669 0.11085,-0.0962 0.24631,-0.16892 0.39998,-0.22686 0.30733,-0.11589 0.68725,-0.17156 1.08779,-0.23306 0.40053,-0.0615 0.82164,-0.12893 1.21129,-0.26769 0.19483,-0.0694 0.3819,-0.15637 0.55449,-0.26975 0.17259,-0.11337 0.33085,-0.25302 0.46819,-0.42685 0.29766,-0.37675 0.65496,-0.67492 1.04076,-0.93224 0.3858,-0.25732 0.79981,-0.47385 1.21078,-0.68678 0.41097,-0.21292 0.819,-0.42255 1.19217,-0.66611 0.37318,-0.24356 0.71151,-0.521 0.98392,-0.87023 0.45321,-0.58097 0.74675,-1.10834 1.09761,-1.50275 0.17543,-0.1972 0.36509,-0.36138 0.59635,-0.48214 0.23126,-0.12076 0.50405,-0.19827 0.84542,-0.22272 0.50302,-0.036 1.02605,-0.13124 1.56632,-0.24288 0.54027,-0.11165 1.09766,-0.23959 1.67018,-0.34107 0.57252,-0.10148 1.16033,-0.17635 1.7601,-0.1819 z"
       id="Epithelium"
       inkscape:connector-curvature="0"
       inkscape:label="#path4520-7" />
    <text
       xml:space="preserve"
       style="font-style:normal;font-variant:normal;font-weight:normal;font-stretch:normal;font-size:8.46666622px;line-height:1.25;font-family:Arial;-inkscape-font-specification:Arial;letter-spacing:0px;word-spacing:0px;fill:#000000;fill-opacity:1;stroke:none;stroke-width:0.26458332"
       x="272.52084"
       y="48.604168"
       id="text2659"><tspan
         sodipodi:role="line"
         id="tspan2657"
         x="272.52084"
         y="56.230556"
         style="stroke-width:0.26458332" /></text>
    <flowRoot
       xml:space="preserve"
       id="flowRoot2663"
       style="font-style:normal;font-variant:normal;font-weight:normal;font-stretch:normal;font-size:32px;line-height:1.25;font-family:Arial;-inkscape-font-specification:Arial;letter-spacing:0px;word-spacing:0px;fill:#000000;fill-opacity:1;stroke:none"
       transform="scale(0.26458333)"><flowRegion
         id="flowRegion2665"><rect
           id="rect2667"
           width="210"
           height="130"
           x="1020"
           y="123.70079" /></flowRegion><flowPara
         id="flowPara2669"></flowPara></flowRoot>  </g>
  <g
     inkscape:groupmode="layer"
     id="layer2"
     inkscape:label="Foreground"
     style="display:inline"
     transform="translate(-60.352684,2.3760864)" />
</svg>
