<?xml version="1.0" encoding="UTF-8"?>
<svg xmlns="http://www.w3.org/2000/svg" xmlns:xlink="http://www.w3.org/1999/xlink" width="242" height="261" viewBox="0 0 242 261" version="1.1">
<g id="surface197">
<path style="fill:none;stroke-width:1;stroke-linecap:round;stroke-linejoin:miter;stroke:rgb(0%,0%,0%);stroke-opacity:1;stroke-miterlimit:10;" d="M 158.5 220.5 C 158.5 241.5 141.5 258.5 120.5 258.5 C 100.5 258.5 83.5 241.5 83.5 220.5 C 83.5 199.5 100.5 183.5 120.5 183.5 C 141.5 183.5 158.5 199.5 158.5 220.5 Z M 158.5 220.5 "/>
<path style="fill:none;stroke-width:1;stroke-linecap:round;stroke-linejoin:miter;stroke:rgb(0%,0%,0%);stroke-opacity:1;stroke-miterlimit:10;" d="M 3.5 78.5 C 3.5 78.5 238.5 78.5 238.5 78.5 C 238.5 78.5 238.5 183.5 238.5 183.5 C 238.5 183.5 3.5 183.5 3.5 183.5 C 3.5 183.5 3.5 78.5 3.5 78.5 Z M 3.5 78.5 "/>
<path style="fill:none;stroke-width:1;stroke-linecap:round;stroke-linejoin:miter;stroke:rgb(0%,0%,0%);stroke-opacity:1;stroke-miterlimit:10;" d="M 158.5 40.5 C 158.5 61.5 141.5 78.5 120.5 78.5 C 100.5 78.5 83.5 61.5 83.5 40.5 C 83.5 19.5 100.5 3.5 120.5 3.5 C 141.5 3.5 158.5 19.5 158.5 40.5 Z M 158.5 40.5 "/>
</g>
</svg>
