<?xml version="1.0" encoding="UTF-8"?>
<svg xmlns="http://www.w3.org/2000/svg" xmlns:xlink="http://www.w3.org/1999/xlink" width="206" height="206" viewBox="0 0 206 206" version="1.1">
<defs>
<clipPath id="clip1">
  <path d="M 3 3 L 203 3 L 203 203 L 3 203 Z M 3 3 "/>
</clipPath>
<clipPath id="clip2">
  <path d="M 12 3 L 14 3 L 14 4 L 12 4 Z M 12 3 "/>
</clipPath>
</defs>
<g id="surface335">
<path style=" stroke:none;fill-rule:nonzero;fill:rgb(100%,100%,100%);fill-opacity:1;" d="M 3 3 C 3 3 203 3 203 3 C 203 3 203 203 203 203 C 203 203 3 203 3 203 C 3 203 3 3 3 3 Z M 3 3 "/>
<g clip-path="url(#clip1)" clip-rule="nonzero">
<path style="fill:none;stroke-width:2;stroke-linecap:round;stroke-linejoin:round;stroke:rgb(0%,0%,0%);stroke-opacity:1;stroke-miterlimit:10;" d="M 3 3 C 3 3 203 3 203 3 C 203 3 203 203 203 203 C 203 203 3 203 3 203 C 3 203 3 3 3 3 Z M 3 3 "/>
</g>
<path style=" stroke:none;fill-rule:evenodd;fill:rgb(100%,0%,58.823529%);fill-opacity:1;" d="M 25.683594 93.289062 C 25.683594 93.839844 25.234375 94.289062 24.683594 94.289062 C 24.128906 94.289062 23.683594 93.839844 23.683594 93.289062 C 23.683594 92.734375 24.128906 92.289062 24.683594 92.289062 C 25.234375 92.289062 25.683594 92.734375 25.683594 93.289062 Z M 25.683594 93.289062 "/>
<path style=" stroke:none;fill-rule:evenodd;fill:rgb(100%,0%,58.823529%);fill-opacity:1;" d="M 27.328125 93.550781 C 27.328125 94.105469 26.878906 94.550781 26.328125 94.550781 C 25.777344 94.550781 25.328125 94.105469 25.328125 93.550781 C 25.328125 93 25.777344 92.550781 26.328125 92.550781 C 26.878906 92.550781 27.328125 93 27.328125 93.550781 Z M 27.328125 93.550781 "/>
<path style=" stroke:none;fill-rule:evenodd;fill:rgb(100%,0%,58.823529%);fill-opacity:1;" d="M 28.9375 93.792969 C 28.9375 94.34375 28.492188 94.792969 27.9375 94.792969 C 27.386719 94.792969 26.9375 94.34375 26.9375 93.792969 C 26.9375 93.238281 27.386719 92.792969 27.9375 92.792969 C 28.492188 92.792969 28.9375 93.238281 28.9375 93.792969 Z M 28.9375 93.792969 "/>
<path style=" stroke:none;fill-rule:evenodd;fill:rgb(100%,0%,58.823529%);fill-opacity:1;" d="M 30.511719 94.007812 C 30.511719 94.558594 30.0625 95.007812 29.511719 95.007812 C 28.960938 95.007812 28.511719 94.558594 28.511719 94.007812 C 28.511719 93.457031 28.960938 93.007812 29.511719 93.007812 C 30.0625 93.007812 30.511719 93.457031 30.511719 94.007812 Z M 30.511719 94.007812 "/>
<path style=" stroke:none;fill-rule:evenodd;fill:rgb(100%,0%,58.823529%);fill-opacity:1;" d="M 32.050781 94.199219 C 32.050781 94.753906 31.601562 95.199219 31.050781 95.199219 C 30.496094 95.199219 30.050781 94.753906 30.050781 94.199219 C 30.050781 93.648438 30.496094 93.199219 31.050781 93.199219 C 31.601562 93.199219 32.050781 93.648438 32.050781 94.199219 Z M 32.050781 94.199219 "/>
<path style=" stroke:none;fill-rule:evenodd;fill:rgb(100%,0%,58.823529%);fill-opacity:1;" d="M 33.550781 94.367188 C 33.550781 94.921875 33.105469 95.367188 32.550781 95.367188 C 32 95.367188 31.550781 94.921875 31.550781 94.367188 C 31.550781 93.816406 32 93.367188 32.550781 93.367188 C 33.105469 93.367188 33.550781 93.816406 33.550781 94.367188 Z M 33.550781 94.367188 "/>
<path style=" stroke:none;fill-rule:evenodd;fill:rgb(100%,0%,58.823529%);fill-opacity:1;" d="M 35.019531 94.511719 C 35.019531 95.0625 34.570312 95.511719 34.019531 95.511719 C 33.464844 95.511719 33.019531 95.0625 33.019531 94.511719 C 33.019531 93.960938 33.464844 93.511719 34.019531 93.511719 C 34.570312 93.511719 35.019531 93.960938 35.019531 94.511719 Z M 35.019531 94.511719 "/>
<path style=" stroke:none;fill-rule:evenodd;fill:rgb(100%,0%,58.823529%);fill-opacity:1;" d="M 36.449219 94.632812 C 36.449219 95.183594 36 95.632812 35.449219 95.632812 C 34.894531 95.632812 34.449219 95.183594 34.449219 94.632812 C 34.449219 94.078125 34.894531 93.632812 35.449219 93.632812 C 36 93.632812 36.449219 94.078125 36.449219 94.632812 Z M 36.449219 94.632812 "/>
<path style=" stroke:none;fill-rule:evenodd;fill:rgb(100%,0%,58.823529%);fill-opacity:1;" d="M 37.84375 94.726562 C 37.84375 95.28125 37.394531 95.726562 36.84375 95.726562 C 36.289062 95.726562 35.84375 95.28125 35.84375 94.726562 C 35.84375 94.175781 36.289062 93.726562 36.84375 93.726562 C 37.394531 93.726562 37.84375 94.175781 37.84375 94.726562 Z M 37.84375 94.726562 "/>
<path style=" stroke:none;fill-rule:evenodd;fill:rgb(100%,0%,58.823529%);fill-opacity:1;" d="M 39.199219 94.800781 C 39.199219 95.351562 38.753906 95.800781 38.199219 95.800781 C 37.648438 95.800781 37.199219 95.351562 37.199219 94.800781 C 37.199219 94.246094 37.648438 93.800781 38.199219 93.800781 C 38.753906 93.800781 39.199219 94.246094 39.199219 94.800781 Z M 39.199219 94.800781 "/>
<path style=" stroke:none;fill-rule:evenodd;fill:rgb(100%,0%,58.823529%);fill-opacity:1;" d="M 40.523438 94.847656 C 40.523438 95.398438 40.074219 95.847656 39.523438 95.847656 C 38.96875 95.847656 38.523438 95.398438 38.523438 94.847656 C 38.523438 94.296875 38.96875 93.847656 39.523438 93.847656 C 40.074219 93.847656 40.523438 94.296875 40.523438 94.847656 Z M 40.523438 94.847656 "/>
<path style=" stroke:none;fill-rule:evenodd;fill:rgb(100%,0%,58.823529%);fill-opacity:1;" d="M 41.808594 94.871094 C 41.808594 95.425781 41.359375 95.871094 40.808594 95.871094 C 40.253906 95.871094 39.808594 95.425781 39.808594 94.871094 C 39.808594 94.320312 40.253906 93.871094 40.808594 93.871094 C 41.359375 93.871094 41.808594 94.320312 41.808594 94.871094 Z M 41.808594 94.871094 "/>
<path style=" stroke:none;fill-rule:evenodd;fill:rgb(100%,0%,58.823529%);fill-opacity:1;" d="M 43.058594 94.871094 C 43.058594 95.425781 42.609375 95.871094 42.058594 95.871094 C 41.503906 95.871094 41.058594 95.425781 41.058594 94.871094 C 41.058594 94.320312 41.503906 93.871094 42.058594 93.871094 C 42.609375 93.871094 43.058594 94.320312 43.058594 94.871094 Z M 43.058594 94.871094 "/>
<path style=" stroke:none;fill-rule:evenodd;fill:rgb(100%,0%,58.823529%);fill-opacity:1;" d="M 44.273438 94.847656 C 44.273438 95.398438 43.824219 95.847656 43.273438 95.847656 C 42.71875 95.847656 42.273438 95.398438 42.273438 94.847656 C 42.273438 94.296875 42.71875 93.847656 43.273438 93.847656 C 43.824219 93.847656 44.273438 94.296875 44.273438 94.847656 Z M 44.273438 94.847656 "/>
<path style=" stroke:none;fill-rule:evenodd;fill:rgb(100%,0%,58.823529%);fill-opacity:1;" d="M 45.449219 94.800781 C 45.449219 95.351562 45.003906 95.800781 44.449219 95.800781 C 43.898438 95.800781 43.449219 95.351562 43.449219 94.800781 C 43.449219 94.246094 43.898438 93.800781 44.449219 93.800781 C 45.003906 93.800781 45.449219 94.246094 45.449219 94.800781 Z M 45.449219 94.800781 "/>
<path style=" stroke:none;fill-rule:evenodd;fill:rgb(100%,0%,58.823529%);fill-opacity:1;" d="M 46.59375 94.726562 C 46.59375 95.28125 46.144531 95.726562 45.59375 95.726562 C 45.039062 95.726562 44.59375 95.28125 44.59375 94.726562 C 44.59375 94.175781 45.039062 93.726562 45.59375 93.726562 C 46.144531 93.726562 46.59375 94.175781 46.59375 94.726562 Z M 46.59375 94.726562 "/>
<path style=" stroke:none;fill-rule:evenodd;fill:rgb(100%,0%,58.823529%);fill-opacity:1;" d="M 47.699219 94.632812 C 47.699219 95.183594 47.25 95.632812 46.699219 95.632812 C 46.144531 95.632812 45.699219 95.183594 45.699219 94.632812 C 45.699219 94.078125 46.144531 93.632812 46.699219 93.632812 C 47.25 93.632812 47.699219 94.078125 47.699219 94.632812 Z M 47.699219 94.632812 "/>
<path style=" stroke:none;fill-rule:evenodd;fill:rgb(100%,0%,58.823529%);fill-opacity:1;" d="M 48.769531 94.511719 C 48.769531 95.0625 48.320312 95.511719 47.769531 95.511719 C 47.214844 95.511719 46.769531 95.0625 46.769531 94.511719 C 46.769531 93.960938 47.214844 93.511719 47.769531 93.511719 C 48.320312 93.511719 48.769531 93.960938 48.769531 94.511719 Z M 48.769531 94.511719 "/>
<path style=" stroke:none;fill-rule:evenodd;fill:rgb(100%,0%,58.823529%);fill-opacity:1;" d="M 49.800781 94.367188 C 49.800781 94.921875 49.355469 95.367188 48.800781 95.367188 C 48.25 95.367188 47.800781 94.921875 47.800781 94.367188 C 47.800781 93.816406 48.25 93.367188 48.800781 93.367188 C 49.355469 93.367188 49.800781 93.816406 49.800781 94.367188 Z M 49.800781 94.367188 "/>
<path style=" stroke:none;fill-rule:evenodd;fill:rgb(100%,0%,58.823529%);fill-opacity:1;" d="M 50.800781 94.199219 C 50.800781 94.753906 50.351562 95.199219 49.800781 95.199219 C 49.246094 95.199219 48.800781 94.753906 48.800781 94.199219 C 48.800781 93.648438 49.246094 93.199219 49.800781 93.199219 C 50.351562 93.199219 50.800781 93.648438 50.800781 94.199219 Z M 50.800781 94.199219 "/>
<path style=" stroke:none;fill-rule:evenodd;fill:rgb(100%,0%,58.823529%);fill-opacity:1;" d="M 51.761719 94.007812 C 51.761719 94.558594 51.3125 95.007812 50.761719 95.007812 C 50.210938 95.007812 49.761719 94.558594 49.761719 94.007812 C 49.761719 93.457031 50.210938 93.007812 50.761719 93.007812 C 51.3125 93.007812 51.761719 93.457031 51.761719 94.007812 Z M 51.761719 94.007812 "/>
<path style=" stroke:none;fill-rule:evenodd;fill:rgb(100%,0%,58.823529%);fill-opacity:1;" d="M 52.6875 93.792969 C 52.6875 94.34375 52.242188 94.792969 51.6875 94.792969 C 51.136719 94.792969 50.6875 94.34375 50.6875 93.792969 C 50.6875 93.238281 51.136719 92.792969 51.6875 92.792969 C 52.242188 92.792969 52.6875 93.238281 52.6875 93.792969 Z M 52.6875 93.792969 "/>
<path style=" stroke:none;fill-rule:evenodd;fill:rgb(100%,0%,58.823529%);fill-opacity:1;" d="M 53.578125 93.550781 C 53.578125 94.105469 53.128906 94.550781 52.578125 94.550781 C 52.027344 94.550781 51.578125 94.105469 51.578125 93.550781 C 51.578125 93 52.027344 92.550781 52.578125 92.550781 C 53.128906 92.550781 53.578125 93 53.578125 93.550781 Z M 53.578125 93.550781 "/>
<path style=" stroke:none;fill-rule:evenodd;fill:rgb(100%,0%,58.823529%);fill-opacity:1;" d="M 54.433594 93.289062 C 54.433594 93.839844 53.984375 94.289062 53.433594 94.289062 C 52.878906 94.289062 52.433594 93.839844 52.433594 93.289062 C 52.433594 92.734375 52.878906 92.289062 53.433594 92.289062 C 53.984375 92.289062 54.433594 92.734375 54.433594 93.289062 Z M 54.433594 93.289062 "/>
<path style=" stroke:none;fill-rule:evenodd;fill:rgb(100%,0%,58.823529%);fill-opacity:1;" d="M 55.25 93 C 55.25 93.550781 54.800781 94 54.25 94 C 53.699219 94 53.25 93.550781 53.25 93 C 53.25 92.449219 53.699219 92 54.25 92 C 54.800781 92 55.25 92.449219 55.25 93 Z M 55.25 93 "/>
<path style=" stroke:none;fill-rule:evenodd;fill:rgb(100%,0%,58.823529%);fill-opacity:1;" d="M 56.03125 92.6875 C 56.03125 93.242188 55.585938 93.6875 55.03125 93.6875 C 54.480469 93.6875 54.03125 93.242188 54.03125 92.6875 C 54.03125 92.136719 54.480469 91.6875 55.03125 91.6875 C 55.585938 91.6875 56.03125 92.136719 56.03125 92.6875 Z M 56.03125 92.6875 "/>
<path style=" stroke:none;fill-rule:evenodd;fill:rgb(100%,0%,58.823529%);fill-opacity:1;" d="M 56.777344 92.351562 C 56.777344 92.902344 56.332031 93.351562 55.777344 93.351562 C 55.226562 93.351562 54.777344 92.902344 54.777344 92.351562 C 54.777344 91.800781 55.226562 91.351562 55.777344 91.351562 C 56.332031 91.351562 56.777344 91.800781 56.777344 92.351562 Z M 56.777344 92.351562 "/>
<path style=" stroke:none;fill-rule:evenodd;fill:rgb(100%,0%,58.823529%);fill-opacity:1;" d="M 57.488281 91.992188 C 57.488281 92.542969 57.039062 92.992188 56.488281 92.992188 C 55.9375 92.992188 55.488281 92.542969 55.488281 91.992188 C 55.488281 91.441406 55.9375 90.992188 56.488281 90.992188 C 57.039062 90.992188 57.488281 91.441406 57.488281 91.992188 Z M 57.488281 91.992188 "/>
<path style=" stroke:none;fill-rule:evenodd;fill:rgb(100%,0%,58.823529%);fill-opacity:1;" d="M 58.160156 91.609375 C 58.160156 92.160156 57.714844 92.609375 57.160156 92.609375 C 56.609375 92.609375 56.160156 92.160156 56.160156 91.609375 C 56.160156 91.054688 56.609375 90.609375 57.160156 90.609375 C 57.714844 90.609375 58.160156 91.054688 58.160156 91.609375 Z M 58.160156 91.609375 "/>
<path style=" stroke:none;fill-rule:evenodd;fill:rgb(100%,0%,58.823529%);fill-opacity:1;" d="M 58.800781 91.199219 C 58.800781 91.753906 58.351562 92.199219 57.800781 92.199219 C 57.246094 92.199219 56.800781 91.753906 56.800781 91.199219 C 56.800781 90.648438 57.246094 90.199219 57.800781 90.199219 C 58.351562 90.199219 58.800781 90.648438 58.800781 91.199219 Z M 58.800781 91.199219 "/>
<path style=" stroke:none;fill-rule:evenodd;fill:rgb(100%,0%,58.823529%);fill-opacity:1;" d="M 59.402344 90.769531 C 59.402344 91.320312 58.953125 91.769531 58.402344 91.769531 C 57.851562 91.769531 57.402344 91.320312 57.402344 90.769531 C 57.402344 90.214844 57.851562 89.769531 58.402344 89.769531 C 58.953125 89.769531 59.402344 90.214844 59.402344 90.769531 Z M 59.402344 90.769531 "/>
<path style=" stroke:none;fill-rule:evenodd;fill:rgb(100%,0%,58.823529%);fill-opacity:1;" d="M 59.96875 90.3125 C 59.96875 90.863281 59.519531 91.3125 58.96875 91.3125 C 58.414062 91.3125 57.96875 90.863281 57.96875 90.3125 C 57.96875 89.757812 58.414062 89.3125 58.96875 89.3125 C 59.519531 89.3125 59.96875 89.757812 59.96875 90.3125 Z M 59.96875 90.3125 "/>
<path style=" stroke:none;fill-rule:evenodd;fill:rgb(100%,0%,58.823529%);fill-opacity:1;" d="M 60.496094 89.832031 C 60.496094 90.382812 60.050781 90.832031 59.496094 90.832031 C 58.945312 90.832031 58.496094 90.382812 58.496094 89.832031 C 58.496094 89.28125 58.945312 88.832031 59.496094 88.832031 C 60.050781 88.832031 60.496094 89.28125 60.496094 89.832031 Z M 60.496094 89.832031 "/>
<path style=" stroke:none;fill-rule:evenodd;fill:rgb(100%,0%,58.823529%);fill-opacity:1;" d="M 60.992188 89.328125 C 60.992188 89.878906 60.542969 90.328125 59.992188 90.328125 C 59.441406 90.328125 58.992188 89.878906 58.992188 89.328125 C 58.992188 88.777344 59.441406 88.328125 59.992188 88.328125 C 60.542969 88.328125 60.992188 88.777344 60.992188 89.328125 Z M 60.992188 89.328125 "/>
<path style=" stroke:none;fill-rule:evenodd;fill:rgb(100%,0%,58.823529%);fill-opacity:1;" d="M 61.449219 88.800781 C 61.449219 89.351562 61.003906 89.800781 60.449219 89.800781 C 59.898438 89.800781 59.449219 89.351562 59.449219 88.800781 C 59.449219 88.246094 59.898438 87.800781 60.449219 87.800781 C 61.003906 87.800781 61.449219 88.246094 61.449219 88.800781 Z M 61.449219 88.800781 "/>
<path style=" stroke:none;fill-rule:evenodd;fill:rgb(100%,0%,58.823529%);fill-opacity:1;" d="M 61.871094 88.246094 C 61.871094 88.800781 61.425781 89.246094 60.871094 89.246094 C 60.320312 89.246094 59.871094 88.800781 59.871094 88.246094 C 59.871094 87.695312 60.320312 87.246094 60.871094 87.246094 C 61.425781 87.246094 61.871094 87.695312 61.871094 88.246094 Z M 61.871094 88.246094 "/>
<path style=" stroke:none;fill-rule:evenodd;fill:rgb(100%,0%,58.823529%);fill-opacity:1;" d="M 62.257812 87.671875 C 62.257812 88.222656 61.808594 88.671875 61.257812 88.671875 C 60.707031 88.671875 60.257812 88.222656 60.257812 87.671875 C 60.257812 87.121094 60.707031 86.671875 61.257812 86.671875 C 61.808594 86.671875 62.257812 87.121094 62.257812 87.671875 Z M 62.257812 87.671875 "/>
<path style=" stroke:none;fill-rule:evenodd;fill:rgb(100%,0%,58.823529%);fill-opacity:1;" d="M 62.609375 87.070312 C 62.609375 87.625 62.160156 88.070312 61.609375 88.070312 C 61.054688 88.070312 60.609375 87.625 60.609375 87.070312 C 60.609375 86.519531 61.054688 86.070312 61.609375 86.070312 C 62.160156 86.070312 62.609375 86.519531 62.609375 87.070312 Z M 62.609375 87.070312 "/>
<path style=" stroke:none;fill-rule:evenodd;fill:rgb(100%,0%,58.823529%);fill-opacity:1;" d="M 62.921875 86.449219 C 62.921875 87 62.472656 87.449219 61.921875 87.449219 C 61.371094 87.449219 60.921875 87 60.921875 86.449219 C 60.921875 85.894531 61.371094 85.449219 61.921875 85.449219 C 62.472656 85.449219 62.921875 85.894531 62.921875 86.449219 Z M 62.921875 86.449219 "/>
<path style=" stroke:none;fill-rule:evenodd;fill:rgb(100%,0%,58.823529%);fill-opacity:1;" d="M 63.199219 85.800781 C 63.199219 86.351562 62.753906 86.800781 62.199219 86.800781 C 61.648438 86.800781 61.199219 86.351562 61.199219 85.800781 C 61.199219 85.246094 61.648438 84.800781 62.199219 84.800781 C 62.753906 84.800781 63.199219 85.246094 63.199219 85.800781 Z M 63.199219 85.800781 "/>
<path style=" stroke:none;fill-rule:evenodd;fill:rgb(100%,0%,58.823529%);fill-opacity:1;" d="M 63.441406 85.128906 C 63.441406 85.679688 62.996094 86.128906 62.441406 86.128906 C 61.890625 86.128906 61.441406 85.679688 61.441406 85.128906 C 61.441406 84.574219 61.890625 84.128906 62.441406 84.128906 C 62.996094 84.128906 63.441406 84.574219 63.441406 85.128906 Z M 63.441406 85.128906 "/>
<path style=" stroke:none;fill-rule:evenodd;fill:rgb(100%,0%,58.823529%);fill-opacity:1;" d="M 63.648438 84.433594 C 63.648438 84.984375 63.199219 85.433594 62.648438 85.433594 C 62.097656 85.433594 61.648438 84.984375 61.648438 84.433594 C 61.648438 83.878906 62.097656 83.433594 62.648438 83.433594 C 63.199219 83.433594 63.648438 83.878906 63.648438 84.433594 Z M 63.648438 84.433594 "/>
<path style=" stroke:none;fill-rule:evenodd;fill:rgb(100%,0%,58.823529%);fill-opacity:1;" d="M 63.816406 83.710938 C 63.816406 84.265625 63.371094 84.710938 62.816406 84.710938 C 62.265625 84.710938 61.816406 84.265625 61.816406 83.710938 C 61.816406 83.160156 62.265625 82.710938 62.816406 82.710938 C 63.371094 82.710938 63.816406 83.160156 63.816406 83.710938 Z M 63.816406 83.710938 "/>
<path style=" stroke:none;fill-rule:evenodd;fill:rgb(100%,0%,58.823529%);fill-opacity:1;" d="M 63.953125 82.96875 C 63.953125 83.519531 63.503906 83.96875 62.953125 83.96875 C 62.398438 83.96875 61.953125 83.519531 61.953125 82.96875 C 61.953125 82.414062 62.398438 81.96875 62.953125 81.96875 C 63.503906 81.96875 63.953125 82.414062 63.953125 82.96875 Z M 63.953125 82.96875 "/>
<path style=" stroke:none;fill-rule:evenodd;fill:rgb(100%,0%,58.823529%);fill-opacity:1;" d="M 64.050781 82.199219 C 64.050781 82.753906 63.601562 83.199219 63.050781 83.199219 C 62.496094 83.199219 62.050781 82.753906 62.050781 82.199219 C 62.050781 81.648438 62.496094 81.199219 63.050781 81.199219 C 63.601562 81.199219 64.050781 81.648438 64.050781 82.199219 Z M 64.050781 82.199219 "/>
<path style=" stroke:none;fill-rule:evenodd;fill:rgb(100%,0%,58.823529%);fill-opacity:1;" d="M 64.113281 81.40625 C 64.113281 81.960938 63.664062 82.40625 63.113281 82.40625 C 62.558594 82.40625 62.113281 81.960938 62.113281 81.40625 C 62.113281 80.855469 62.558594 80.40625 63.113281 80.40625 C 63.664062 80.40625 64.113281 80.855469 64.113281 81.40625 Z M 64.113281 81.40625 "/>
<path style=" stroke:none;fill-rule:evenodd;fill:rgb(100%,0%,58.823529%);fill-opacity:1;" d="M 64.136719 80.59375 C 64.136719 81.144531 63.691406 81.59375 63.136719 81.59375 C 62.585938 81.59375 62.136719 81.144531 62.136719 80.59375 C 62.136719 80.039062 62.585938 79.59375 63.136719 79.59375 C 63.691406 79.59375 64.136719 80.039062 64.136719 80.59375 Z M 64.136719 80.59375 "/>
<path style=" stroke:none;fill-rule:evenodd;fill:rgb(100%,0%,58.823529%);fill-opacity:1;" d="M 64.128906 79.753906 C 64.128906 80.304688 63.679688 80.753906 63.128906 80.753906 C 62.574219 80.753906 62.128906 80.304688 62.128906 79.753906 C 62.128906 79.199219 62.574219 78.753906 63.128906 78.753906 C 63.679688 78.753906 64.128906 79.199219 64.128906 79.753906 Z M 64.128906 79.753906 "/>
<path style=" stroke:none;fill-rule:evenodd;fill:rgb(100%,0%,58.823529%);fill-opacity:1;" d="M 64.082031 78.886719 C 64.082031 79.441406 63.632812 79.886719 63.082031 79.886719 C 62.53125 79.886719 62.082031 79.441406 62.082031 78.886719 C 62.082031 78.335938 62.53125 77.886719 63.082031 77.886719 C 63.632812 77.886719 64.082031 78.335938 64.082031 78.886719 Z M 64.082031 78.886719 "/>
<path style=" stroke:none;fill-rule:evenodd;fill:rgb(100%,0%,58.823529%);fill-opacity:1;" d="M 64 78 C 64 78.550781 63.550781 79 63 79 C 62.449219 79 62 78.550781 62 78 C 62 77.449219 62.449219 77 63 77 C 63.550781 77 64 77.449219 64 78 Z M 64 78 "/>
<path style=" stroke:none;fill-rule:evenodd;fill:rgb(100%,0%,58.823529%);fill-opacity:1;" d="M 63.882812 77.089844 C 63.882812 77.640625 63.433594 78.089844 62.882812 78.089844 C 62.328125 78.089844 61.882812 77.640625 61.882812 77.089844 C 61.882812 76.535156 62.328125 76.089844 62.882812 76.089844 C 63.433594 76.089844 63.882812 76.535156 63.882812 77.089844 Z M 63.882812 77.089844 "/>
<path style=" stroke:none;fill-rule:evenodd;fill:rgb(100%,0%,58.823529%);fill-opacity:1;" d="M 63.726562 76.152344 C 63.726562 76.703125 63.28125 77.152344 62.726562 77.152344 C 62.175781 77.152344 61.726562 76.703125 61.726562 76.152344 C 61.726562 75.601562 62.175781 75.152344 62.726562 75.152344 C 63.28125 75.152344 63.726562 75.601562 63.726562 76.152344 Z M 63.726562 76.152344 "/>
<path style=" stroke:none;fill-rule:evenodd;fill:rgb(100%,0%,58.823529%);fill-opacity:1;" d="M 63.539062 75.191406 C 63.539062 75.746094 63.089844 76.191406 62.539062 76.191406 C 61.984375 76.191406 61.539062 75.746094 61.539062 75.191406 C 61.539062 74.640625 61.984375 74.191406 62.539062 74.191406 C 63.089844 74.191406 63.539062 74.640625 63.539062 75.191406 Z M 63.539062 75.191406 "/>
<path style=" stroke:none;fill-rule:evenodd;fill:rgb(100%,0%,58.823529%);fill-opacity:1;" d="M 63.3125 74.207031 C 63.3125 74.761719 62.863281 75.207031 62.3125 75.207031 C 61.757812 75.207031 61.3125 74.761719 61.3125 74.207031 C 61.3125 73.65625 61.757812 73.207031 62.3125 73.207031 C 62.863281 73.207031 63.3125 73.65625 63.3125 74.207031 Z M 63.3125 74.207031 "/>
<path style=" stroke:none;fill-rule:evenodd;fill:rgb(100%,0%,58.823529%);fill-opacity:1;" d="M 63.050781 73.199219 C 63.050781 73.753906 62.601562 74.199219 62.050781 74.199219 C 61.496094 74.199219 61.050781 73.753906 61.050781 73.199219 C 61.050781 72.648438 61.496094 72.199219 62.050781 72.199219 C 62.601562 72.199219 63.050781 72.648438 63.050781 73.199219 Z M 63.050781 73.199219 "/>
<path style=" stroke:none;fill-rule:evenodd;fill:rgb(100%,0%,58.823529%);fill-opacity:1;" d="M 62.753906 72.167969 C 62.753906 72.71875 62.304688 73.167969 61.753906 73.167969 C 61.199219 73.167969 60.753906 72.71875 60.753906 72.167969 C 60.753906 71.617188 61.199219 71.167969 61.753906 71.167969 C 62.304688 71.167969 62.753906 71.617188 62.753906 72.167969 Z M 62.753906 72.167969 "/>
<path style=" stroke:none;fill-rule:evenodd;fill:rgb(100%,0%,58.823529%);fill-opacity:1;" d="M 62.417969 71.113281 C 62.417969 71.664062 61.96875 72.113281 61.417969 72.113281 C 60.867188 72.113281 60.417969 71.664062 60.417969 71.113281 C 60.417969 70.558594 60.867188 70.113281 61.417969 70.113281 C 61.96875 70.113281 62.417969 70.558594 62.417969 71.113281 Z M 62.417969 71.113281 "/>
<path style=" stroke:none;fill-rule:evenodd;fill:rgb(100%,0%,58.823529%);fill-opacity:1;" d="M 62.046875 70.03125 C 62.046875 70.585938 61.601562 71.03125 61.046875 71.03125 C 60.496094 71.03125 60.046875 70.585938 60.046875 70.03125 C 60.046875 69.480469 60.496094 69.03125 61.046875 69.03125 C 61.601562 69.03125 62.046875 69.480469 62.046875 70.03125 Z M 62.046875 70.03125 "/>
<path style=" stroke:none;fill-rule:evenodd;fill:rgb(100%,0%,58.823529%);fill-opacity:1;" d="M 61.640625 68.929688 C 61.640625 69.480469 61.195312 69.929688 60.640625 69.929688 C 60.089844 69.929688 59.640625 69.480469 59.640625 68.929688 C 59.640625 68.375 60.089844 67.929688 60.640625 67.929688 C 61.195312 67.929688 61.640625 68.375 61.640625 68.929688 Z M 61.640625 68.929688 "/>
<path style=" stroke:none;fill-rule:evenodd;fill:rgb(100%,0%,58.823529%);fill-opacity:1;" d="M 61.199219 67.800781 C 61.199219 68.351562 60.753906 68.800781 60.199219 68.800781 C 59.648438 68.800781 59.199219 68.351562 59.199219 67.800781 C 59.199219 67.246094 59.648438 66.800781 60.199219 66.800781 C 60.753906 66.800781 61.199219 67.246094 61.199219 67.800781 Z M 61.199219 67.800781 "/>
<path style=" stroke:none;fill-rule:evenodd;fill:rgb(100%,0%,58.823529%);fill-opacity:1;" d="M 60.722656 66.648438 C 60.722656 67.199219 60.273438 67.648438 59.722656 67.648438 C 59.167969 67.648438 58.722656 67.199219 58.722656 66.648438 C 58.722656 66.097656 59.167969 65.648438 59.722656 65.648438 C 60.273438 65.648438 60.722656 66.097656 60.722656 66.648438 Z M 60.722656 66.648438 "/>
<path style=" stroke:none;fill-rule:evenodd;fill:rgb(100%,0%,58.823529%);fill-opacity:1;" d="M 60.207031 65.472656 C 60.207031 66.023438 59.761719 66.472656 59.207031 66.472656 C 58.65625 66.472656 58.207031 66.023438 58.207031 65.472656 C 58.207031 64.917969 58.65625 64.472656 59.207031 64.472656 C 59.761719 64.472656 60.207031 64.917969 60.207031 65.472656 Z M 60.207031 65.472656 "/>
<path style=" stroke:none;fill-rule:evenodd;fill:rgb(100%,0%,58.823529%);fill-opacity:1;" d="M 59.65625 64.273438 C 59.65625 64.824219 59.210938 65.273438 58.65625 65.273438 C 58.105469 65.273438 57.65625 64.824219 57.65625 64.273438 C 57.65625 63.71875 58.105469 63.273438 58.65625 63.273438 C 59.210938 63.273438 59.65625 63.71875 59.65625 64.273438 Z M 59.65625 64.273438 "/>
<path style=" stroke:none;fill-rule:evenodd;fill:rgb(100%,0%,58.823529%);fill-opacity:1;" d="M 59.070312 63.046875 C 59.070312 63.601562 58.625 64.046875 58.070312 64.046875 C 57.519531 64.046875 57.070312 63.601562 57.070312 63.046875 C 57.070312 62.496094 57.519531 62.046875 58.070312 62.046875 C 58.625 62.046875 59.070312 62.496094 59.070312 63.046875 Z M 59.070312 63.046875 "/>
<path style=" stroke:none;fill-rule:evenodd;fill:rgb(100%,0%,58.823529%);fill-opacity:1;" d="M 58.449219 61.800781 C 58.449219 62.351562 58.003906 62.800781 57.449219 62.800781 C 56.898438 62.800781 56.449219 62.351562 56.449219 61.800781 C 56.449219 61.246094 56.898438 60.800781 57.449219 60.800781 C 58.003906 60.800781 58.449219 61.246094 58.449219 61.800781 Z M 58.449219 61.800781 "/>
<path style=" stroke:none;fill-rule:evenodd;fill:rgb(100%,0%,58.823529%);fill-opacity:1;" d="M 57.792969 60.527344 C 57.792969 61.082031 57.34375 61.527344 56.792969 61.527344 C 56.238281 61.527344 55.792969 61.082031 55.792969 60.527344 C 55.792969 59.976562 56.238281 59.527344 56.792969 59.527344 C 57.34375 59.527344 57.792969 59.976562 57.792969 60.527344 Z M 57.792969 60.527344 "/>
<path style=" stroke:none;fill-rule:evenodd;fill:rgb(100%,0%,58.823529%);fill-opacity:1;" d="M 57.097656 59.230469 C 57.097656 59.785156 56.648438 60.230469 56.097656 60.230469 C 55.546875 60.230469 55.097656 59.785156 55.097656 59.230469 C 55.097656 58.679688 55.546875 58.230469 56.097656 58.230469 C 56.648438 58.230469 57.097656 58.679688 57.097656 59.230469 Z M 57.097656 59.230469 "/>
<path style=" stroke:none;fill-rule:evenodd;fill:rgb(100%,0%,58.823529%);fill-opacity:1;" d="M 56.367188 57.910156 C 56.367188 58.464844 55.921875 58.910156 55.367188 58.910156 C 54.816406 58.910156 54.367188 58.464844 54.367188 57.910156 C 54.367188 57.359375 54.816406 56.910156 55.367188 56.910156 C 55.921875 56.910156 56.367188 57.359375 56.367188 57.910156 Z M 56.367188 57.910156 "/>
<path style=" stroke:none;fill-rule:evenodd;fill:rgb(100%,0%,58.823529%);fill-opacity:1;" d="M 55.601562 56.566406 C 55.601562 57.121094 55.152344 57.566406 54.601562 57.566406 C 54.050781 57.566406 53.601562 57.121094 53.601562 56.566406 C 53.601562 56.015625 54.050781 55.566406 54.601562 55.566406 C 55.152344 55.566406 55.601562 56.015625 55.601562 56.566406 Z M 55.601562 56.566406 "/>
<path style=" stroke:none;fill-rule:evenodd;fill:rgb(100%,0%,58.823529%);fill-opacity:1;" d="M 54.800781 55.199219 C 54.800781 55.753906 54.351562 56.199219 53.800781 56.199219 C 53.246094 56.199219 52.800781 55.753906 52.800781 55.199219 C 52.800781 54.648438 53.246094 54.199219 53.800781 54.199219 C 54.351562 54.199219 54.800781 54.648438 54.800781 55.199219 Z M 54.800781 55.199219 "/>
<path style=" stroke:none;fill-rule:evenodd;fill:rgb(100%,0%,58.823529%);fill-opacity:1;" d="M 53.960938 53.808594 C 53.960938 54.359375 53.515625 54.808594 52.960938 54.808594 C 52.410156 54.808594 51.960938 54.359375 51.960938 53.808594 C 51.960938 53.253906 52.410156 52.808594 52.960938 52.808594 C 53.515625 52.808594 53.960938 53.253906 53.960938 53.808594 Z M 53.960938 53.808594 "/>
<path style=" stroke:none;fill-rule:evenodd;fill:rgb(100%,0%,58.823529%);fill-opacity:1;" d="M 53.089844 52.390625 C 53.089844 52.945312 52.640625 53.390625 52.089844 53.390625 C 51.535156 53.390625 51.089844 52.945312 51.089844 52.390625 C 51.089844 51.839844 51.535156 51.390625 52.089844 51.390625 C 52.640625 51.390625 53.089844 51.839844 53.089844 52.390625 Z M 53.089844 52.390625 "/>
<path style=" stroke:none;fill-rule:evenodd;fill:rgb(100%,0%,58.823529%);fill-opacity:1;" d="M 52.179688 50.953125 C 52.179688 51.503906 51.730469 51.953125 51.179688 51.953125 C 50.625 51.953125 50.179688 51.503906 50.179688 50.953125 C 50.179688 50.398438 50.625 49.953125 51.179688 49.953125 C 51.730469 49.953125 52.179688 50.398438 52.179688 50.953125 Z M 52.179688 50.953125 "/>
<path style=" stroke:none;fill-rule:evenodd;fill:rgb(100%,0%,58.823529%);fill-opacity:1;" d="M 51.230469 49.488281 C 51.230469 50.039062 50.785156 50.488281 50.230469 50.488281 C 49.679688 50.488281 49.230469 50.039062 49.230469 49.488281 C 49.230469 48.9375 49.679688 48.488281 50.230469 48.488281 C 50.785156 48.488281 51.230469 48.9375 51.230469 49.488281 Z M 51.230469 49.488281 "/>
<path style=" stroke:none;fill-rule:evenodd;fill:rgb(100%,0%,58.823529%);fill-opacity:1;" d="M 50.25 48 C 50.25 48.550781 49.800781 49 49.25 49 C 48.699219 49 48.25 48.550781 48.25 48 C 48.25 47.449219 48.699219 47 49.25 47 C 49.800781 47 50.25 47.449219 50.25 48 Z M 50.25 48 "/>
<path style=" stroke:none;fill-rule:evenodd;fill:rgb(100%,0%,58.823529%);fill-opacity:1;" d="M 49.230469 46.488281 C 49.230469 47.039062 48.785156 47.488281 48.230469 47.488281 C 47.679688 47.488281 47.230469 47.039062 47.230469 46.488281 C 47.230469 45.9375 47.679688 45.488281 48.230469 45.488281 C 48.785156 45.488281 49.230469 45.9375 49.230469 46.488281 Z M 49.230469 46.488281 "/>
<path style=" stroke:none;fill-rule:evenodd;fill:rgb(100%,0%,58.823529%);fill-opacity:1;" d="M 48.179688 44.953125 C 48.179688 45.503906 47.730469 45.953125 47.179688 45.953125 C 46.625 45.953125 46.179688 45.503906 46.179688 44.953125 C 46.179688 44.398438 46.625 43.953125 47.179688 43.953125 C 47.730469 43.953125 48.179688 44.398438 48.179688 44.953125 Z M 48.179688 44.953125 "/>
<path style=" stroke:none;fill-rule:evenodd;fill:rgb(100%,0%,58.823529%);fill-opacity:1;" d="M 47.089844 43.390625 C 47.089844 43.945312 46.640625 44.390625 46.089844 44.390625 C 45.535156 44.390625 45.089844 43.945312 45.089844 43.390625 C 45.089844 42.839844 45.535156 42.390625 46.089844 42.390625 C 46.640625 42.390625 47.089844 42.839844 47.089844 43.390625 Z M 47.089844 43.390625 "/>
<path style=" stroke:none;fill-rule:evenodd;fill:rgb(100%,0%,58.823529%);fill-opacity:1;" d="M 45.960938 41.808594 C 45.960938 42.359375 45.515625 42.808594 44.960938 42.808594 C 44.410156 42.808594 43.960938 42.359375 43.960938 41.808594 C 43.960938 41.253906 44.410156 40.808594 44.960938 40.808594 C 45.515625 40.808594 45.960938 41.253906 45.960938 41.808594 Z M 45.960938 41.808594 "/>
<path style=" stroke:none;fill-rule:evenodd;fill:rgb(100%,0%,58.823529%);fill-opacity:1;" d="M 44.800781 40.199219 C 44.800781 40.753906 44.351562 41.199219 43.800781 41.199219 C 43.246094 41.199219 42.800781 40.753906 42.800781 40.199219 C 42.800781 39.648438 43.246094 39.199219 43.800781 39.199219 C 44.351562 39.199219 44.800781 39.648438 44.800781 40.199219 Z M 44.800781 40.199219 "/>
<path style=" stroke:none;fill-rule:evenodd;fill:rgb(100%,0%,58.823529%);fill-opacity:1;" d="M 43.601562 38.566406 C 43.601562 39.121094 43.152344 39.566406 42.601562 39.566406 C 42.050781 39.566406 41.601562 39.121094 41.601562 38.566406 C 41.601562 38.015625 42.050781 37.566406 42.601562 37.566406 C 43.152344 37.566406 43.601562 38.015625 43.601562 38.566406 Z M 43.601562 38.566406 "/>
<path style=" stroke:none;fill-rule:evenodd;fill:rgb(100%,0%,58.823529%);fill-opacity:1;" d="M 42.367188 36.910156 C 42.367188 37.464844 41.921875 37.910156 41.367188 37.910156 C 40.816406 37.910156 40.367188 37.464844 40.367188 36.910156 C 40.367188 36.359375 40.816406 35.910156 41.367188 35.910156 C 41.921875 35.910156 42.367188 36.359375 42.367188 36.910156 Z M 42.367188 36.910156 "/>
<path style=" stroke:none;fill-rule:evenodd;fill:rgb(100%,0%,58.823529%);fill-opacity:1;" d="M 41.097656 35.230469 C 41.097656 35.785156 40.648438 36.230469 40.097656 36.230469 C 39.546875 36.230469 39.097656 35.785156 39.097656 35.230469 C 39.097656 34.679688 39.546875 34.230469 40.097656 34.230469 C 40.648438 34.230469 41.097656 34.679688 41.097656 35.230469 Z M 41.097656 35.230469 "/>
<path style=" stroke:none;fill-rule:evenodd;fill:rgb(100%,0%,58.823529%);fill-opacity:1;" d="M 39.792969 33.527344 C 39.792969 34.082031 39.34375 34.527344 38.792969 34.527344 C 38.238281 34.527344 37.792969 34.082031 37.792969 33.527344 C 37.792969 32.976562 38.238281 32.527344 38.792969 32.527344 C 39.34375 32.527344 39.792969 32.976562 39.792969 33.527344 Z M 39.792969 33.527344 "/>
<path style=" stroke:none;fill-rule:evenodd;fill:rgb(100%,0%,58.823529%);fill-opacity:1;" d="M 38.449219 31.800781 C 38.449219 32.351562 38.003906 32.800781 37.449219 32.800781 C 36.898438 32.800781 36.449219 32.351562 36.449219 31.800781 C 36.449219 31.246094 36.898438 30.800781 37.449219 30.800781 C 38.003906 30.800781 38.449219 31.246094 38.449219 31.800781 Z M 38.449219 31.800781 "/>
<path style=" stroke:none;fill-rule:evenodd;fill:rgb(100%,0%,58.823529%);fill-opacity:1;" d="M 37.070312 30.046875 C 37.070312 30.601562 36.625 31.046875 36.070312 31.046875 C 35.519531 31.046875 35.070312 30.601562 35.070312 30.046875 C 35.070312 29.496094 35.519531 29.046875 36.070312 29.046875 C 36.625 29.046875 37.070312 29.496094 37.070312 30.046875 Z M 37.070312 30.046875 "/>
<path style=" stroke:none;fill-rule:evenodd;fill:rgb(100%,0%,58.823529%);fill-opacity:1;" d="M 35.65625 28.273438 C 35.65625 28.824219 35.210938 29.273438 34.65625 29.273438 C 34.105469 29.273438 33.65625 28.824219 33.65625 28.273438 C 33.65625 27.71875 34.105469 27.273438 34.65625 27.273438 C 35.210938 27.273438 35.65625 27.71875 35.65625 28.273438 Z M 35.65625 28.273438 "/>
<path style=" stroke:none;fill-rule:evenodd;fill:rgb(100%,0%,58.823529%);fill-opacity:1;" d="M 34.207031 26.472656 C 34.207031 27.023438 33.761719 27.472656 33.207031 27.472656 C 32.65625 27.472656 32.207031 27.023438 32.207031 26.472656 C 32.207031 25.917969 32.65625 25.472656 33.207031 25.472656 C 33.761719 25.472656 34.207031 25.917969 34.207031 26.472656 Z M 34.207031 26.472656 "/>
<path style=" stroke:none;fill-rule:evenodd;fill:rgb(100%,0%,58.823529%);fill-opacity:1;" d="M 32.722656 24.648438 C 32.722656 25.199219 32.273438 25.648438 31.722656 25.648438 C 31.167969 25.648438 30.722656 25.199219 30.722656 24.648438 C 30.722656 24.097656 31.167969 23.648438 31.722656 23.648438 C 32.273438 23.648438 32.722656 24.097656 32.722656 24.648438 Z M 32.722656 24.648438 "/>
<path style=" stroke:none;fill-rule:evenodd;fill:rgb(100%,0%,58.823529%);fill-opacity:1;" d="M 31.199219 22.800781 C 31.199219 23.351562 30.753906 23.800781 30.199219 23.800781 C 29.648438 23.800781 29.199219 23.351562 29.199219 22.800781 C 29.199219 22.246094 29.648438 21.800781 30.199219 21.800781 C 30.753906 21.800781 31.199219 22.246094 31.199219 22.800781 Z M 31.199219 22.800781 "/>
<path style=" stroke:none;fill-rule:evenodd;fill:rgb(100%,0%,58.823529%);fill-opacity:1;" d="M 29.640625 20.929688 C 29.640625 21.480469 29.195312 21.929688 28.640625 21.929688 C 28.089844 21.929688 27.640625 21.480469 27.640625 20.929688 C 27.640625 20.375 28.089844 19.929688 28.640625 19.929688 C 29.195312 19.929688 29.640625 20.375 29.640625 20.929688 Z M 29.640625 20.929688 "/>
<path style=" stroke:none;fill-rule:evenodd;fill:rgb(100%,0%,58.823529%);fill-opacity:1;" d="M 28.046875 19.03125 C 28.046875 19.585938 27.601562 20.03125 27.046875 20.03125 C 26.496094 20.03125 26.046875 19.585938 26.046875 19.03125 C 26.046875 18.480469 26.496094 18.03125 27.046875 18.03125 C 27.601562 18.03125 28.046875 18.480469 28.046875 19.03125 Z M 28.046875 19.03125 "/>
<path style=" stroke:none;fill-rule:evenodd;fill:rgb(100%,0%,58.823529%);fill-opacity:1;" d="M 26.417969 17.113281 C 26.417969 17.664062 25.96875 18.113281 25.417969 18.113281 C 24.867188 18.113281 24.417969 17.664062 24.417969 17.113281 C 24.417969 16.558594 24.867188 16.113281 25.417969 16.113281 C 25.96875 16.113281 26.417969 16.558594 26.417969 17.113281 Z M 26.417969 17.113281 "/>
<path style=" stroke:none;fill-rule:evenodd;fill:rgb(100%,0%,58.823529%);fill-opacity:1;" d="M 24.753906 15.167969 C 24.753906 15.71875 24.304688 16.167969 23.753906 16.167969 C 23.199219 16.167969 22.753906 15.71875 22.753906 15.167969 C 22.753906 14.617188 23.199219 14.167969 23.753906 14.167969 C 24.304688 14.167969 24.753906 14.617188 24.753906 15.167969 Z M 24.753906 15.167969 "/>
<path style=" stroke:none;fill-rule:evenodd;fill:rgb(100%,0%,58.823529%);fill-opacity:1;" d="M 23.050781 13.199219 C 23.050781 13.753906 22.601562 14.199219 22.050781 14.199219 C 21.496094 14.199219 21.050781 13.753906 21.050781 13.199219 C 21.050781 12.648438 21.496094 12.199219 22.050781 12.199219 C 22.601562 12.199219 23.050781 12.648438 23.050781 13.199219 Z M 23.050781 13.199219 "/>
<path style=" stroke:none;fill-rule:evenodd;fill:rgb(100%,0%,58.823529%);fill-opacity:1;" d="M 21.3125 11.207031 C 21.3125 11.761719 20.863281 12.207031 20.3125 12.207031 C 19.757812 12.207031 19.3125 11.761719 19.3125 11.207031 C 19.3125 10.65625 19.757812 10.207031 20.3125 10.207031 C 20.863281 10.207031 21.3125 10.65625 21.3125 11.207031 Z M 21.3125 11.207031 "/>
<path style=" stroke:none;fill-rule:evenodd;fill:rgb(100%,0%,58.823529%);fill-opacity:1;" d="M 19.539062 9.191406 C 19.539062 9.746094 19.089844 10.191406 18.539062 10.191406 C 17.984375 10.191406 17.539062 9.746094 17.539062 9.191406 C 17.539062 8.640625 17.984375 8.191406 18.539062 8.191406 C 19.089844 8.191406 19.539062 8.640625 19.539062 9.191406 Z M 19.539062 9.191406 "/>
<path style=" stroke:none;fill-rule:evenodd;fill:rgb(100%,0%,58.823529%);fill-opacity:1;" d="M 17.726562 7.152344 C 17.726562 7.703125 17.28125 8.152344 16.726562 8.152344 C 16.175781 8.152344 15.726562 7.703125 15.726562 7.152344 C 15.726562 6.601562 16.175781 6.152344 16.726562 6.152344 C 17.28125 6.152344 17.726562 6.601562 17.726562 7.152344 Z M 17.726562 7.152344 "/>
<path style=" stroke:none;fill-rule:evenodd;fill:rgb(100%,0%,58.823529%);fill-opacity:1;" d="M 15.882812 5.089844 C 15.882812 5.640625 15.433594 6.089844 14.882812 6.089844 C 14.328125 6.089844 13.882812 5.640625 13.882812 5.089844 C 13.882812 4.535156 14.328125 4.089844 14.882812 4.089844 C 15.433594 4.089844 15.882812 4.535156 15.882812 5.089844 Z M 15.882812 5.089844 "/>
<g clip-path="url(#clip2)" clip-rule="nonzero">
<path style=" stroke:none;fill-rule:evenodd;fill:rgb(100%,0%,58.823529%);fill-opacity:1;" d="M 14 3 C 14 3.550781 13.550781 4 13 4 C 12.449219 4 12 3.550781 12 3 C 12 2.449219 12.449219 2 13 2 C 13.550781 2 14 2.449219 14 3 Z M 14 3 "/>
</g>
</g>
</svg>
