<?xml version="1.0" encoding="UTF-8"?>
<svg xmlns="http://www.w3.org/2000/svg" xmlns:xlink="http://www.w3.org/1999/xlink" width="196.5" height="320" viewBox="0 0 196.5 320" version="1.1">
<g id="surface482">
<path style="fill-rule:evenodd;fill:rgb(100%,100%,100%);fill-opacity:1;stroke-width:1.25;stroke-linecap:butt;stroke-linejoin:round;stroke:rgb(100%,100%,99.607843%);stroke-opacity:1;stroke-miterlimit:10;" d="M 0 312 L 0 0 L 188.5 0 L 188.5 312 Z M 0 312 " transform="matrix(1,0,0,1,4,4)"/>
<path style=" stroke:none;fill-rule:nonzero;fill:rgb(0%,0%,100%);fill-opacity:1;" d="M 4 43.472656 C 4 43.472656 49 43.472656 49 43.472656 C 49 43.472656 26.5 4.5 26.5 4.5 C 26.5 4.5 4 43.472656 4 43.472656 Z M 4 43.472656 "/>
<path style=" stroke:none;fill-rule:nonzero;fill:rgb(0%,0%,100%);fill-opacity:1;" d="M 67.5 4 C 67.5 4 87.5 4 87.5 4 C 87.5 4 87.5 44 87.5 44 C 87.5 44 67.5 44 67.5 44 C 67.5 44 67.5 4 67.5 4 Z M 67.5 4 "/>
<path style=" stroke:none;fill-rule:evenodd;fill:rgb(100%,100%,0%);fill-opacity:1;" d="M 192.5 130 C 192.5 157.613281 170.113281 180 142.5 180 C 114.886719 180 92.5 157.613281 92.5 130 C 92.5 102.386719 114.886719 80 142.5 80 C 170.113281 80 192.5 102.386719 192.5 130 Z M 192.5 130 "/>
<path style=" stroke:none;fill-rule:nonzero;fill:rgb(0%,0%,100%);fill-opacity:1;" d="M 41.5 129.472656 C 41.5 129.472656 61.5 129.472656 61.5 129.472656 C 61.5 129.472656 61.5 169.472656 61.5 169.472656 C 61.5 169.472656 41.5 169.472656 41.5 169.472656 C 41.5 169.472656 41.5 129.472656 41.5 129.472656 Z M 41.5 129.472656 "/>
<path style=" stroke:none;fill-rule:nonzero;fill:rgb(0%,0%,100%);fill-opacity:1;" d="M 29 129.472656 C 29 129.472656 74 129.472656 74 129.472656 C 74 129.472656 51.5 90.5 51.5 90.5 C 51.5 90.5 29 129.472656 29 129.472656 Z M 29 129.472656 "/>
<path style=" stroke:none;fill-rule:evenodd;fill:rgb(100%,100%,0%);fill-opacity:1;" d="M 146.5 266 C 146.5 293.613281 124.113281 316 96.5 316 C 68.886719 316 46.5 293.613281 46.5 266 C 46.5 238.386719 68.886719 216 96.5 216 C 124.113281 216 146.5 238.386719 146.5 266 Z M 146.5 266 "/>
<path style=" stroke:none;fill-rule:nonzero;fill:rgb(0%,0%,100%);fill-opacity:1;" d="M 86.5 265.484375 C 86.5 265.484375 106.5 265.484375 106.5 265.484375 C 106.5 265.484375 106.5 305.484375 106.5 305.484375 C 106.5 305.484375 86.5 305.484375 86.5 305.484375 C 86.5 305.484375 86.5 265.484375 86.5 265.484375 Z M 86.5 265.484375 "/>
<path style=" stroke:none;fill-rule:nonzero;fill:rgb(0%,0%,100%);fill-opacity:1;" d="M 74 265.484375 C 74 265.484375 119 265.484375 119 265.484375 C 119 265.484375 96.5 226.515625 96.5 226.515625 C 96.5 226.515625 74 265.484375 74 265.484375 Z M 74 265.484375 "/>
<path style="fill-rule:evenodd;fill:rgb(100%,100%,100%);fill-opacity:1;stroke-width:1.25;stroke-linecap:butt;stroke-linejoin:round;stroke:rgb(0%,0%,0%);stroke-opacity:1;stroke-miterlimit:10;" d="M 26.96875 39.589844 C 29.449219 49.929688 32.671875 63.320312 35.820312 76.421875 " transform="matrix(1,0,0,1,4,4)"/>
<path style="fill-rule:evenodd;fill:rgb(0%,0%,0%);fill-opacity:1;stroke-width:1.25;stroke-linecap:butt;stroke-linejoin:round;stroke:rgb(0%,0%,0%);stroke-opacity:1;stroke-miterlimit:10;" d="M 39.269531 75.78125 L 38.199219 86.320312 L 32.460938 77.421875 Z M 39.269531 75.78125 " transform="matrix(1,0,0,1,4,4)"/>
<path style="fill-rule:evenodd;fill:rgb(100%,100%,100%);fill-opacity:1;stroke-width:1.25;stroke-linecap:butt;stroke-linejoin:round;stroke:rgb(0%,0%,0%);stroke-opacity:1;stroke-miterlimit:10;" d="M 68.730469 40.078125 C 66.160156 50.359375 62.859375 63.550781 59.628906 76.460938 " transform="matrix(1,0,0,1,4,4)"/>
<path style="fill-rule:evenodd;fill:rgb(0%,0%,0%);fill-opacity:1;stroke-width:1.25;stroke-linecap:butt;stroke-linejoin:round;stroke:rgb(0%,0%,0%);stroke-opacity:1;stroke-miterlimit:10;" d="M 63.011719 77.378906 L 57.191406 86.230469 L 56.21875 75.679688 Z M 63.011719 77.378906 " transform="matrix(1,0,0,1,4,4)"/>
<path style="fill-rule:evenodd;fill:rgb(100%,100%,100%);fill-opacity:1;stroke-width:1.25;stroke-linecap:butt;stroke-linejoin:round;stroke:rgb(0%,0%,0%);stroke-opacity:1;stroke-miterlimit:10;" d="M 60.519531 165.761719 C 64.328125 177.101562 68.578125 189.769531 72.710938 202.070312 " transform="matrix(1,0,0,1,4,4)"/>
<path style="fill-rule:evenodd;fill:rgb(0%,0%,0%);fill-opacity:1;stroke-width:1.25;stroke-linecap:butt;stroke-linejoin:round;stroke:rgb(0%,0%,0%);stroke-opacity:1;stroke-miterlimit:10;" d="M 76.121094 201.230469 L 75.980469 211.820312 L 69.480469 203.449219 Z M 76.121094 201.230469 " transform="matrix(1,0,0,1,4,4)"/>
<path style="fill-rule:evenodd;fill:rgb(100%,100%,100%);fill-opacity:1;stroke-width:1.25;stroke-linecap:butt;stroke-linejoin:round;stroke:rgb(0%,0%,0%);stroke-opacity:1;stroke-miterlimit:10;" d="M 121.628906 176.140625 C 118.730469 184.601562 115.679688 193.480469 112.699219 202.171875 " transform="matrix(1,0,0,1,4,4)"/>
<path style="fill-rule:evenodd;fill:rgb(0%,0%,0%);fill-opacity:1;stroke-width:1.25;stroke-linecap:butt;stroke-linejoin:round;stroke:rgb(0%,0%,0%);stroke-opacity:1;stroke-miterlimit:10;" d="M 115.921875 203.550781 L 109.371094 211.871094 L 109.300781 201.28125 Z M 115.921875 203.550781 " transform="matrix(1,0,0,1,4,4)"/>
</g>
</svg>
