<?xml version="1.0" encoding="UTF-8"?>
<svg xmlns="http://www.w3.org/2000/svg" xmlns:xlink="http://www.w3.org/1999/xlink" width="226" height="164" viewBox="0 0 226 164" version="1.1">
<g id="surface569">
<path style=" stroke:none;fill-rule:nonzero;fill:rgb(0%,0%,100%);fill-opacity:1;" d="M 183 3 C 183 3 223 3 223 3 C 223 3 223 161 223 161 C 223 161 183 161 183 161 C 183 161 183 3 183 3 Z M 183 3 "/>
<path style=" stroke:none;fill-rule:nonzero;fill:rgb(0%,0%,100%);fill-opacity:1;" d="M 138 26 C 138 26 178 26 178 26 C 178 26 178 161 178 161 C 178 161 138 161 138 161 C 138 161 138 26 138 26 Z M 138 26 "/>
<path style=" stroke:none;fill-rule:nonzero;fill:rgb(0%,0%,100%);fill-opacity:1;" d="M 93 21 C 93 21 133 21 133 21 C 133 21 133 161 133 161 C 133 161 93 161 93 161 C 93 161 93 21 93 21 Z M 93 21 "/>
<path style=" stroke:none;fill-rule:nonzero;fill:rgb(0%,0%,100%);fill-opacity:1;" d="M 48 51 C 48 51 88 51 88 51 C 88 51 88 161 88 161 C 88 161 48 161 48 161 C 48 161 48 51 48 51 Z M 48 51 "/>
<path style=" stroke:none;fill-rule:nonzero;fill:rgb(0%,0%,100%);fill-opacity:1;" d="M 3 61 C 3 61 43 61 43 61 C 43 61 43 161 43 161 C 43 161 3 161 3 161 C 3 161 3 61 3 61 Z M 3 61 "/>
</g>
</svg>
