<?xml version="1.0" encoding="UTF-8"?>
<svg xmlns="http://www.w3.org/2000/svg" xmlns:xlink="http://www.w3.org/1999/xlink" width="206" height="206" viewBox="0 0 206 206" version="1.1">
<defs>
<clipPath id="clip1">
  <path d="M 3 3 L 203 3 L 203 203 L 3 203 Z M 3 3 "/>
</clipPath>
</defs>
<g id="surface323">
<path style=" stroke:none;fill-rule:nonzero;fill:rgb(100%,100%,100%);fill-opacity:1;" d="M 3 3 C 3 3 203 3 203 3 C 203 3 203 203 203 203 C 203 203 3 203 3 203 C 3 203 3 3 3 3 Z M 3 3 "/>
<g clip-path="url(#clip1)" clip-rule="nonzero">
<path style="fill:none;stroke-width:2;stroke-linecap:round;stroke-linejoin:round;stroke:rgb(0%,0%,0%);stroke-opacity:1;stroke-miterlimit:10;" d="M 3 3 C 3 3 203 3 203 3 C 203 3 203 203 203 203 C 203 203 3 203 3 203 C 3 203 3 3 3 3 Z M 3 3 "/>
</g>
<path style=" stroke:none;fill-rule:evenodd;fill:rgb(58.823529%,0%,100%);fill-opacity:1;" d="M 33.71875 199.910156 C 33.71875 200.464844 33.269531 200.910156 32.71875 200.910156 C 32.164062 200.910156 31.71875 200.464844 31.71875 199.910156 C 31.71875 199.359375 32.164062 198.910156 32.71875 198.910156 C 33.269531 198.910156 33.71875 199.359375 33.71875 199.910156 Z M 33.71875 199.910156 "/>
<path style=" stroke:none;fill-rule:evenodd;fill:rgb(58.823529%,0%,100%);fill-opacity:1;" d="M 33.472656 196.847656 C 33.472656 197.398438 33.023438 197.847656 32.472656 197.847656 C 31.917969 197.847656 31.472656 197.398438 31.472656 196.847656 C 31.472656 196.296875 31.917969 195.847656 32.472656 195.847656 C 33.023438 195.847656 33.472656 196.296875 33.472656 196.847656 Z M 33.472656 196.847656 "/>
<path style=" stroke:none;fill-rule:evenodd;fill:rgb(58.823529%,0%,100%);fill-opacity:1;" d="M 33.261719 193.808594 C 33.261719 194.359375 32.8125 194.808594 32.261719 194.808594 C 31.710938 194.808594 31.261719 194.359375 31.261719 193.808594 C 31.261719 193.253906 31.710938 192.808594 32.261719 192.808594 C 32.8125 192.808594 33.261719 193.253906 33.261719 193.808594 Z M 33.261719 193.808594 "/>
<path style=" stroke:none;fill-rule:evenodd;fill:rgb(58.823529%,0%,100%);fill-opacity:1;" d="M 33.089844 190.792969 C 33.089844 191.34375 32.640625 191.792969 32.089844 191.792969 C 31.535156 191.792969 31.089844 191.34375 31.089844 190.792969 C 31.089844 190.238281 31.535156 189.792969 32.089844 189.792969 C 32.640625 189.792969 33.089844 190.238281 33.089844 190.792969 Z M 33.089844 190.792969 "/>
<path style=" stroke:none;fill-rule:evenodd;fill:rgb(58.823529%,0%,100%);fill-opacity:1;" d="M 32.949219 187.800781 C 32.949219 188.351562 32.503906 188.800781 31.949219 188.800781 C 31.398438 188.800781 30.949219 188.351562 30.949219 187.800781 C 30.949219 187.246094 31.398438 186.800781 31.949219 186.800781 C 32.503906 186.800781 32.949219 187.246094 32.949219 187.800781 Z M 32.949219 187.800781 "/>
<path style=" stroke:none;fill-rule:evenodd;fill:rgb(58.823529%,0%,100%);fill-opacity:1;" d="M 32.847656 184.832031 C 32.847656 185.382812 32.398438 185.832031 31.847656 185.832031 C 31.296875 185.832031 30.847656 185.382812 30.847656 184.832031 C 30.847656 184.28125 31.296875 183.832031 31.847656 183.832031 C 32.398438 183.832031 32.847656 184.28125 32.847656 184.832031 Z M 32.847656 184.832031 "/>
<path style=" stroke:none;fill-rule:evenodd;fill:rgb(58.823529%,0%,100%);fill-opacity:1;" d="M 32.78125 181.886719 C 32.78125 182.441406 32.335938 182.886719 31.78125 182.886719 C 31.230469 182.886719 30.78125 182.441406 30.78125 181.886719 C 30.78125 181.335938 31.230469 180.886719 31.78125 180.886719 C 32.335938 180.886719 32.78125 181.335938 32.78125 181.886719 Z M 32.78125 181.886719 "/>
<path style=" stroke:none;fill-rule:evenodd;fill:rgb(58.823529%,0%,100%);fill-opacity:1;" d="M 32.753906 178.96875 C 32.753906 179.519531 32.304688 179.96875 31.753906 179.96875 C 31.199219 179.96875 30.753906 179.519531 30.753906 178.96875 C 30.753906 178.414062 31.199219 177.96875 31.753906 177.96875 C 32.304688 177.96875 32.753906 178.414062 32.753906 178.96875 Z M 32.753906 178.96875 "/>
<path style=" stroke:none;fill-rule:evenodd;fill:rgb(58.823529%,0%,100%);fill-opacity:1;" d="M 32.757812 176.070312 C 32.757812 176.625 32.308594 177.070312 31.757812 177.070312 C 31.207031 177.070312 30.757812 176.625 30.757812 176.070312 C 30.757812 175.519531 31.207031 175.070312 31.757812 175.070312 C 32.308594 175.070312 32.757812 175.519531 32.757812 176.070312 Z M 32.757812 176.070312 "/>
<path style=" stroke:none;fill-rule:evenodd;fill:rgb(58.823529%,0%,100%);fill-opacity:1;" d="M 32.800781 173.199219 C 32.800781 173.753906 32.351562 174.199219 31.800781 174.199219 C 31.246094 174.199219 30.800781 173.753906 30.800781 173.199219 C 30.800781 172.648438 31.246094 172.199219 31.800781 172.199219 C 32.351562 172.199219 32.800781 172.648438 32.800781 173.199219 Z M 32.800781 173.199219 "/>
<path style=" stroke:none;fill-rule:evenodd;fill:rgb(58.823529%,0%,100%);fill-opacity:1;" d="M 32.878906 170.351562 C 32.878906 170.902344 32.429688 171.351562 31.878906 171.351562 C 31.324219 171.351562 30.878906 170.902344 30.878906 170.351562 C 30.878906 169.800781 31.324219 169.351562 31.878906 169.351562 C 32.429688 169.351562 32.878906 169.800781 32.878906 170.351562 Z M 32.878906 170.351562 "/>
<path style=" stroke:none;fill-rule:evenodd;fill:rgb(58.823529%,0%,100%);fill-opacity:1;" d="M 32.992188 167.527344 C 32.992188 168.082031 32.542969 168.527344 31.992188 168.527344 C 31.441406 168.527344 30.992188 168.082031 30.992188 167.527344 C 30.992188 166.976562 31.441406 166.527344 31.992188 166.527344 C 32.542969 166.527344 32.992188 166.976562 32.992188 167.527344 Z M 32.992188 167.527344 "/>
<path style=" stroke:none;fill-rule:evenodd;fill:rgb(58.823529%,0%,100%);fill-opacity:1;" d="M 33.140625 164.726562 C 33.140625 165.28125 32.695312 165.726562 32.140625 165.726562 C 31.589844 165.726562 31.140625 165.28125 31.140625 164.726562 C 31.140625 164.175781 31.589844 163.726562 32.140625 163.726562 C 32.695312 163.726562 33.140625 164.175781 33.140625 164.726562 Z M 33.140625 164.726562 "/>
<path style=" stroke:none;fill-rule:evenodd;fill:rgb(58.823529%,0%,100%);fill-opacity:1;" d="M 33.328125 161.953125 C 33.328125 162.503906 32.878906 162.953125 32.328125 162.953125 C 31.777344 162.953125 31.328125 162.503906 31.328125 161.953125 C 31.328125 161.398438 31.777344 160.953125 32.328125 160.953125 C 32.878906 160.953125 33.328125 161.398438 33.328125 161.953125 Z M 33.328125 161.953125 "/>
<path style=" stroke:none;fill-rule:evenodd;fill:rgb(58.823529%,0%,100%);fill-opacity:1;" d="M 33.550781 159.199219 C 33.550781 159.753906 33.101562 160.199219 32.550781 160.199219 C 31.996094 160.199219 31.550781 159.753906 31.550781 159.199219 C 31.550781 158.648438 31.996094 158.199219 32.550781 158.199219 C 33.101562 158.199219 33.550781 158.648438 33.550781 159.199219 Z M 33.550781 159.199219 "/>
<path style=" stroke:none;fill-rule:evenodd;fill:rgb(58.823529%,0%,100%);fill-opacity:1;" d="M 33.808594 156.472656 C 33.808594 157.023438 33.359375 157.472656 32.808594 157.472656 C 32.253906 157.472656 31.808594 157.023438 31.808594 156.472656 C 31.808594 155.917969 32.253906 155.472656 32.808594 155.472656 C 33.359375 155.472656 33.808594 155.917969 33.808594 156.472656 Z M 33.808594 156.472656 "/>
<path style=" stroke:none;fill-rule:evenodd;fill:rgb(58.823529%,0%,100%);fill-opacity:1;" d="M 34.101562 153.769531 C 34.101562 154.320312 33.652344 154.769531 33.101562 154.769531 C 32.550781 154.769531 32.101562 154.320312 32.101562 153.769531 C 32.101562 153.214844 32.550781 152.769531 33.101562 152.769531 C 33.652344 152.769531 34.101562 153.214844 34.101562 153.769531 Z M 34.101562 153.769531 "/>
<path style=" stroke:none;fill-rule:evenodd;fill:rgb(58.823529%,0%,100%);fill-opacity:1;" d="M 34.433594 151.089844 C 34.433594 151.640625 33.984375 152.089844 33.433594 152.089844 C 32.878906 152.089844 32.433594 151.640625 32.433594 151.089844 C 32.433594 150.535156 32.878906 150.089844 33.433594 150.089844 C 33.984375 150.089844 34.433594 150.535156 34.433594 151.089844 Z M 34.433594 151.089844 "/>
<path style=" stroke:none;fill-rule:evenodd;fill:rgb(58.823529%,0%,100%);fill-opacity:1;" d="M 34.796875 148.433594 C 34.796875 148.984375 34.351562 149.433594 33.796875 149.433594 C 33.246094 149.433594 32.796875 148.984375 32.796875 148.433594 C 32.796875 147.878906 33.246094 147.433594 33.796875 147.433594 C 34.351562 147.433594 34.796875 147.878906 34.796875 148.433594 Z M 34.796875 148.433594 "/>
<path style=" stroke:none;fill-rule:evenodd;fill:rgb(58.823529%,0%,100%);fill-opacity:1;" d="M 35.199219 145.800781 C 35.199219 146.351562 34.753906 146.800781 34.199219 146.800781 C 33.648438 146.800781 33.199219 146.351562 33.199219 145.800781 C 33.199219 145.246094 33.648438 144.800781 34.199219 144.800781 C 34.753906 144.800781 35.199219 145.246094 35.199219 145.800781 Z M 35.199219 145.800781 "/>
<path style=" stroke:none;fill-rule:evenodd;fill:rgb(58.823529%,0%,100%);fill-opacity:1;" d="M 35.636719 143.191406 C 35.636719 143.746094 35.191406 144.191406 34.636719 144.191406 C 34.085938 144.191406 33.636719 143.746094 33.636719 143.191406 C 33.636719 142.640625 34.085938 142.191406 34.636719 142.191406 C 35.191406 142.191406 35.636719 142.640625 35.636719 143.191406 Z M 35.636719 143.191406 "/>
<path style=" stroke:none;fill-rule:evenodd;fill:rgb(58.823529%,0%,100%);fill-opacity:1;" d="M 36.113281 140.609375 C 36.113281 141.160156 35.664062 141.609375 35.113281 141.609375 C 34.558594 141.609375 34.113281 141.160156 34.113281 140.609375 C 34.113281 140.054688 34.558594 139.609375 35.113281 139.609375 C 35.664062 139.609375 36.113281 140.054688 36.113281 140.609375 Z M 36.113281 140.609375 "/>
<path style=" stroke:none;fill-rule:evenodd;fill:rgb(58.823529%,0%,100%);fill-opacity:1;" d="M 36.621094 138.046875 C 36.621094 138.601562 36.175781 139.046875 35.621094 139.046875 C 35.070312 139.046875 34.621094 138.601562 34.621094 138.046875 C 34.621094 137.496094 35.070312 137.046875 35.621094 137.046875 C 36.175781 137.046875 36.621094 137.496094 36.621094 138.046875 Z M 36.621094 138.046875 "/>
<path style=" stroke:none;fill-rule:evenodd;fill:rgb(58.823529%,0%,100%);fill-opacity:1;" d="M 37.167969 135.511719 C 37.167969 136.0625 36.71875 136.511719 36.167969 136.511719 C 35.617188 136.511719 35.167969 136.0625 35.167969 135.511719 C 35.167969 134.960938 35.617188 134.511719 36.167969 134.511719 C 36.71875 134.511719 37.167969 134.960938 37.167969 135.511719 Z M 37.167969 135.511719 "/>
<path style=" stroke:none;fill-rule:evenodd;fill:rgb(58.823529%,0%,100%);fill-opacity:1;" d="M 37.75 133 C 37.75 133.550781 37.300781 134 36.75 134 C 36.199219 134 35.75 133.550781 35.75 133 C 35.75 132.449219 36.199219 132 36.75 132 C 37.300781 132 37.75 132.449219 37.75 133 Z M 37.75 133 "/>
<path style=" stroke:none;fill-rule:evenodd;fill:rgb(58.823529%,0%,100%);fill-opacity:1;" d="M 38.367188 130.511719 C 38.367188 131.0625 37.921875 131.511719 37.367188 131.511719 C 36.816406 131.511719 36.367188 131.0625 36.367188 130.511719 C 36.367188 129.960938 36.816406 129.511719 37.367188 129.511719 C 37.921875 129.511719 38.367188 129.960938 38.367188 130.511719 Z M 38.367188 130.511719 "/>
<path style=" stroke:none;fill-rule:evenodd;fill:rgb(58.823529%,0%,100%);fill-opacity:1;" d="M 39.023438 128.046875 C 39.023438 128.601562 38.574219 129.046875 38.023438 129.046875 C 37.46875 129.046875 37.023438 128.601562 37.023438 128.046875 C 37.023438 127.496094 37.46875 127.046875 38.023438 127.046875 C 38.574219 127.046875 39.023438 127.496094 39.023438 128.046875 Z M 39.023438 128.046875 "/>
<path style=" stroke:none;fill-rule:evenodd;fill:rgb(58.823529%,0%,100%);fill-opacity:1;" d="M 39.710938 125.609375 C 39.710938 126.160156 39.265625 126.609375 38.710938 126.609375 C 38.160156 126.609375 37.710938 126.160156 37.710938 125.609375 C 37.710938 125.054688 38.160156 124.609375 38.710938 124.609375 C 39.265625 124.609375 39.710938 125.054688 39.710938 125.609375 Z M 39.710938 125.609375 "/>
<path style=" stroke:none;fill-rule:evenodd;fill:rgb(58.823529%,0%,100%);fill-opacity:1;" d="M 40.4375 123.191406 C 40.4375 123.746094 39.992188 124.191406 39.4375 124.191406 C 38.886719 124.191406 38.4375 123.746094 38.4375 123.191406 C 38.4375 122.640625 38.886719 122.191406 39.4375 122.191406 C 39.992188 122.191406 40.4375 122.640625 40.4375 123.191406 Z M 40.4375 123.191406 "/>
<path style=" stroke:none;fill-rule:evenodd;fill:rgb(58.823529%,0%,100%);fill-opacity:1;" d="M 41.199219 120.800781 C 41.199219 121.351562 40.753906 121.800781 40.199219 121.800781 C 39.648438 121.800781 39.199219 121.351562 39.199219 120.800781 C 39.199219 120.246094 39.648438 119.800781 40.199219 119.800781 C 40.753906 119.800781 41.199219 120.246094 41.199219 120.800781 Z M 41.199219 120.800781 "/>
<path style=" stroke:none;fill-rule:evenodd;fill:rgb(58.823529%,0%,100%);fill-opacity:1;" d="M 41.996094 118.433594 C 41.996094 118.984375 41.550781 119.433594 40.996094 119.433594 C 40.445312 119.433594 39.996094 118.984375 39.996094 118.433594 C 39.996094 117.878906 40.445312 117.433594 40.996094 117.433594 C 41.550781 117.433594 41.996094 117.878906 41.996094 118.433594 Z M 41.996094 118.433594 "/>
<path style=" stroke:none;fill-rule:evenodd;fill:rgb(58.823529%,0%,100%);fill-opacity:1;" d="M 42.832031 116.089844 C 42.832031 116.640625 42.382812 117.089844 41.832031 117.089844 C 41.28125 117.089844 40.832031 116.640625 40.832031 116.089844 C 40.832031 115.535156 41.28125 115.089844 41.832031 115.089844 C 42.382812 115.089844 42.832031 115.535156 42.832031 116.089844 Z M 42.832031 116.089844 "/>
<path style=" stroke:none;fill-rule:evenodd;fill:rgb(58.823529%,0%,100%);fill-opacity:1;" d="M 43.703125 113.769531 C 43.703125 114.320312 43.253906 114.769531 42.703125 114.769531 C 42.148438 114.769531 41.703125 114.320312 41.703125 113.769531 C 41.703125 113.214844 42.148438 112.769531 42.703125 112.769531 C 43.253906 112.769531 43.703125 113.214844 43.703125 113.769531 Z M 43.703125 113.769531 "/>
<path style=" stroke:none;fill-rule:evenodd;fill:rgb(58.823529%,0%,100%);fill-opacity:1;" d="M 44.609375 111.472656 C 44.609375 112.023438 44.160156 112.472656 43.609375 112.472656 C 43.054688 112.472656 42.609375 112.023438 42.609375 111.472656 C 42.609375 110.917969 43.054688 110.472656 43.609375 110.472656 C 44.160156 110.472656 44.609375 110.917969 44.609375 111.472656 Z M 44.609375 111.472656 "/>
<path style=" stroke:none;fill-rule:evenodd;fill:rgb(58.823529%,0%,100%);fill-opacity:1;" d="M 45.550781 109.199219 C 45.550781 109.753906 45.101562 110.199219 44.550781 110.199219 C 43.996094 110.199219 43.550781 109.753906 43.550781 109.199219 C 43.550781 108.648438 43.996094 108.199219 44.550781 108.199219 C 45.101562 108.199219 45.550781 108.648438 45.550781 109.199219 Z M 45.550781 109.199219 "/>
<path style=" stroke:none;fill-rule:evenodd;fill:rgb(58.823529%,0%,100%);fill-opacity:1;" d="M 46.527344 106.953125 C 46.527344 107.503906 46.082031 107.953125 45.527344 107.953125 C 44.976562 107.953125 44.527344 107.503906 44.527344 106.953125 C 44.527344 106.398438 44.976562 105.953125 45.527344 105.953125 C 46.082031 105.953125 46.527344 106.398438 46.527344 106.953125 Z M 46.527344 106.953125 "/>
<path style=" stroke:none;fill-rule:evenodd;fill:rgb(58.823529%,0%,100%);fill-opacity:1;" d="M 47.542969 104.726562 C 47.542969 105.28125 47.09375 105.726562 46.542969 105.726562 C 45.988281 105.726562 45.542969 105.28125 45.542969 104.726562 C 45.542969 104.175781 45.988281 103.726562 46.542969 103.726562 C 47.09375 103.726562 47.542969 104.175781 47.542969 104.726562 Z M 47.542969 104.726562 "/>
<path style=" stroke:none;fill-rule:evenodd;fill:rgb(58.823529%,0%,100%);fill-opacity:1;" d="M 48.59375 102.527344 C 48.59375 103.082031 48.144531 103.527344 47.59375 103.527344 C 47.039062 103.527344 46.59375 103.082031 46.59375 102.527344 C 46.59375 101.976562 47.039062 101.527344 47.59375 101.527344 C 48.144531 101.527344 48.59375 101.976562 48.59375 102.527344 Z M 48.59375 102.527344 "/>
<path style=" stroke:none;fill-rule:evenodd;fill:rgb(58.823529%,0%,100%);fill-opacity:1;" d="M 49.679688 100.351562 C 49.679688 100.902344 49.230469 101.351562 48.679688 101.351562 C 48.125 101.351562 47.679688 100.902344 47.679688 100.351562 C 47.679688 99.800781 48.125 99.351562 48.679688 99.351562 C 49.230469 99.351562 49.679688 99.800781 49.679688 100.351562 Z M 49.679688 100.351562 "/>
<path style=" stroke:none;fill-rule:evenodd;fill:rgb(58.823529%,0%,100%);fill-opacity:1;" d="M 50.800781 98.199219 C 50.800781 98.753906 50.351562 99.199219 49.800781 99.199219 C 49.246094 99.199219 48.800781 98.753906 48.800781 98.199219 C 48.800781 97.648438 49.246094 97.199219 49.800781 97.199219 C 50.351562 97.199219 50.800781 97.648438 50.800781 98.199219 Z M 50.800781 98.199219 "/>
<path style=" stroke:none;fill-rule:evenodd;fill:rgb(58.823529%,0%,100%);fill-opacity:1;" d="M 51.957031 96.070312 C 51.957031 96.625 51.511719 97.070312 50.957031 97.070312 C 50.40625 97.070312 49.957031 96.625 49.957031 96.070312 C 49.957031 95.519531 50.40625 95.070312 50.957031 95.070312 C 51.511719 95.070312 51.957031 95.519531 51.957031 96.070312 Z M 51.957031 96.070312 "/>
<path style=" stroke:none;fill-rule:evenodd;fill:rgb(58.823529%,0%,100%);fill-opacity:1;" d="M 53.152344 93.96875 C 53.152344 94.519531 52.703125 94.96875 52.152344 94.96875 C 51.601562 94.96875 51.152344 94.519531 51.152344 93.96875 C 51.152344 93.414062 51.601562 92.96875 52.152344 92.96875 C 52.703125 92.96875 53.152344 93.414062 53.152344 93.96875 Z M 53.152344 93.96875 "/>
<path style=" stroke:none;fill-rule:evenodd;fill:rgb(58.823529%,0%,100%);fill-opacity:1;" d="M 54.382812 91.886719 C 54.382812 92.441406 53.933594 92.886719 53.382812 92.886719 C 52.828125 92.886719 52.382812 92.441406 52.382812 91.886719 C 52.382812 91.335938 52.828125 90.886719 53.382812 90.886719 C 53.933594 90.886719 54.382812 91.335938 54.382812 91.886719 Z M 54.382812 91.886719 "/>
<path style=" stroke:none;fill-rule:evenodd;fill:rgb(58.823529%,0%,100%);fill-opacity:1;" d="M 55.648438 89.832031 C 55.648438 90.382812 55.199219 90.832031 54.648438 90.832031 C 54.097656 90.832031 53.648438 90.382812 53.648438 89.832031 C 53.648438 89.28125 54.097656 88.832031 54.648438 88.832031 C 55.199219 88.832031 55.648438 89.28125 55.648438 89.832031 Z M 55.648438 89.832031 "/>
<path style=" stroke:none;fill-rule:evenodd;fill:rgb(58.823529%,0%,100%);fill-opacity:1;" d="M 56.949219 87.800781 C 56.949219 88.351562 56.503906 88.800781 55.949219 88.800781 C 55.398438 88.800781 54.949219 88.351562 54.949219 87.800781 C 54.949219 87.246094 55.398438 86.800781 55.949219 86.800781 C 56.503906 86.800781 56.949219 87.246094 56.949219 87.800781 Z M 56.949219 87.800781 "/>
<path style=" stroke:none;fill-rule:evenodd;fill:rgb(58.823529%,0%,100%);fill-opacity:1;" d="M 58.289062 85.792969 C 58.289062 86.34375 57.839844 86.792969 57.289062 86.792969 C 56.734375 86.792969 56.289062 86.34375 56.289062 85.792969 C 56.289062 85.238281 56.734375 84.792969 57.289062 84.792969 C 57.839844 84.792969 58.289062 85.238281 58.289062 85.792969 Z M 58.289062 85.792969 "/>
<path style=" stroke:none;fill-rule:evenodd;fill:rgb(58.823529%,0%,100%);fill-opacity:1;" d="M 59.660156 83.808594 C 59.660156 84.359375 59.214844 84.808594 58.660156 84.808594 C 58.109375 84.808594 57.660156 84.359375 57.660156 83.808594 C 57.660156 83.253906 58.109375 82.808594 58.660156 82.808594 C 59.214844 82.808594 59.660156 83.253906 59.660156 83.808594 Z M 59.660156 83.808594 "/>
<path style=" stroke:none;fill-rule:evenodd;fill:rgb(58.823529%,0%,100%);fill-opacity:1;" d="M 61.070312 81.847656 C 61.070312 82.398438 60.625 82.847656 60.070312 82.847656 C 59.519531 82.847656 59.070312 82.398438 59.070312 81.847656 C 59.070312 81.296875 59.519531 80.847656 60.070312 80.847656 C 60.625 80.847656 61.070312 81.296875 61.070312 81.847656 Z M 61.070312 81.847656 "/>
<path style=" stroke:none;fill-rule:evenodd;fill:rgb(58.823529%,0%,100%);fill-opacity:1;" d="M 62.519531 79.910156 C 62.519531 80.464844 62.070312 80.910156 61.519531 80.910156 C 60.964844 80.910156 60.519531 80.464844 60.519531 79.910156 C 60.519531 79.359375 60.964844 78.910156 61.519531 78.910156 C 62.070312 78.910156 62.519531 79.359375 62.519531 79.910156 Z M 62.519531 79.910156 "/>
<path style=" stroke:none;fill-rule:evenodd;fill:rgb(58.823529%,0%,100%);fill-opacity:1;" d="M 64 78 C 64 78.550781 63.550781 79 63 79 C 62.449219 79 62 78.550781 62 78 C 62 77.449219 62.449219 77 63 77 C 63.550781 77 64 77.449219 64 78 Z M 64 78 "/>
<path style=" stroke:none;fill-rule:evenodd;fill:rgb(58.823529%,0%,100%);fill-opacity:1;" d="M 65.519531 76.113281 C 65.519531 76.664062 65.070312 77.113281 64.519531 77.113281 C 63.964844 77.113281 63.519531 76.664062 63.519531 76.113281 C 63.519531 75.558594 63.964844 75.113281 64.519531 75.113281 C 65.070312 75.113281 65.519531 75.558594 65.519531 76.113281 Z M 65.519531 76.113281 "/>
<path style=" stroke:none;fill-rule:evenodd;fill:rgb(58.823529%,0%,100%);fill-opacity:1;" d="M 67.070312 74.246094 C 67.070312 74.800781 66.625 75.246094 66.070312 75.246094 C 65.519531 75.246094 65.070312 74.800781 65.070312 74.246094 C 65.070312 73.695312 65.519531 73.246094 66.070312 73.246094 C 66.625 73.246094 67.070312 73.695312 67.070312 74.246094 Z M 67.070312 74.246094 "/>
<path style=" stroke:none;fill-rule:evenodd;fill:rgb(58.823529%,0%,100%);fill-opacity:1;" d="M 68.660156 72.40625 C 68.660156 72.960938 68.214844 73.40625 67.660156 73.40625 C 67.109375 73.40625 66.660156 72.960938 66.660156 72.40625 C 66.660156 71.855469 67.109375 71.40625 67.660156 71.40625 C 68.214844 71.40625 68.660156 71.855469 68.660156 72.40625 Z M 68.660156 72.40625 "/>
<path style=" stroke:none;fill-rule:evenodd;fill:rgb(58.823529%,0%,100%);fill-opacity:1;" d="M 70.289062 70.59375 C 70.289062 71.144531 69.839844 71.59375 69.289062 71.59375 C 68.734375 71.59375 68.289062 71.144531 68.289062 70.59375 C 68.289062 70.039062 68.734375 69.59375 69.289062 69.59375 C 69.839844 69.59375 70.289062 70.039062 70.289062 70.59375 Z M 70.289062 70.59375 "/>
<path style=" stroke:none;fill-rule:evenodd;fill:rgb(58.823529%,0%,100%);fill-opacity:1;" d="M 71.949219 68.800781 C 71.949219 69.351562 71.503906 69.800781 70.949219 69.800781 C 70.398438 69.800781 69.949219 69.351562 69.949219 68.800781 C 69.949219 68.246094 70.398438 67.800781 70.949219 67.800781 C 71.503906 67.800781 71.949219 68.246094 71.949219 68.800781 Z M 71.949219 68.800781 "/>
<path style=" stroke:none;fill-rule:evenodd;fill:rgb(58.823529%,0%,100%);fill-opacity:1;" d="M 73.648438 67.03125 C 73.648438 67.585938 73.199219 68.03125 72.648438 68.03125 C 72.097656 68.03125 71.648438 67.585938 71.648438 67.03125 C 71.648438 66.480469 72.097656 66.03125 72.648438 66.03125 C 73.199219 66.03125 73.648438 66.480469 73.648438 67.03125 Z M 73.648438 67.03125 "/>
<path style=" stroke:none;fill-rule:evenodd;fill:rgb(58.823529%,0%,100%);fill-opacity:1;" d="M 75.382812 65.289062 C 75.382812 65.839844 74.933594 66.289062 74.382812 66.289062 C 73.828125 66.289062 73.382812 65.839844 73.382812 65.289062 C 73.382812 64.734375 73.828125 64.289062 74.382812 64.289062 C 74.933594 64.289062 75.382812 64.734375 75.382812 65.289062 Z M 75.382812 65.289062 "/>
<path style=" stroke:none;fill-rule:evenodd;fill:rgb(58.823529%,0%,100%);fill-opacity:1;" d="M 77.152344 63.566406 C 77.152344 64.121094 76.703125 64.566406 76.152344 64.566406 C 75.601562 64.566406 75.152344 64.121094 75.152344 63.566406 C 75.152344 63.015625 75.601562 62.566406 76.152344 62.566406 C 76.703125 62.566406 77.152344 63.015625 77.152344 63.566406 Z M 77.152344 63.566406 "/>
<path style=" stroke:none;fill-rule:evenodd;fill:rgb(58.823529%,0%,100%);fill-opacity:1;" d="M 78.957031 61.871094 C 78.957031 62.425781 78.511719 62.871094 77.957031 62.871094 C 77.40625 62.871094 76.957031 62.425781 76.957031 61.871094 C 76.957031 61.320312 77.40625 60.871094 77.957031 60.871094 C 78.511719 60.871094 78.957031 61.320312 78.957031 61.871094 Z M 78.957031 61.871094 "/>
<path style=" stroke:none;fill-rule:evenodd;fill:rgb(58.823529%,0%,100%);fill-opacity:1;" d="M 80.800781 60.199219 C 80.800781 60.753906 80.351562 61.199219 79.800781 61.199219 C 79.246094 61.199219 78.800781 60.753906 78.800781 60.199219 C 78.800781 59.648438 79.246094 59.199219 79.800781 59.199219 C 80.351562 59.199219 80.800781 59.648438 80.800781 60.199219 Z M 80.800781 60.199219 "/>
<path style=" stroke:none;fill-rule:evenodd;fill:rgb(58.823529%,0%,100%);fill-opacity:1;" d="M 82.679688 58.550781 C 82.679688 59.105469 82.230469 59.550781 81.679688 59.550781 C 81.125 59.550781 80.679688 59.105469 80.679688 58.550781 C 80.679688 58 81.125 57.550781 81.679688 57.550781 C 82.230469 57.550781 82.679688 58 82.679688 58.550781 Z M 82.679688 58.550781 "/>
<path style=" stroke:none;fill-rule:evenodd;fill:rgb(58.823529%,0%,100%);fill-opacity:1;" d="M 84.59375 56.929688 C 84.59375 57.480469 84.144531 57.929688 83.59375 57.929688 C 83.039062 57.929688 82.59375 57.480469 82.59375 56.929688 C 82.59375 56.375 83.039062 55.929688 83.59375 55.929688 C 84.144531 55.929688 84.59375 56.375 84.59375 56.929688 Z M 84.59375 56.929688 "/>
<path style=" stroke:none;fill-rule:evenodd;fill:rgb(58.823529%,0%,100%);fill-opacity:1;" d="M 86.542969 55.328125 C 86.542969 55.878906 86.09375 56.328125 85.542969 56.328125 C 84.988281 56.328125 84.542969 55.878906 84.542969 55.328125 C 84.542969 54.777344 84.988281 54.328125 85.542969 54.328125 C 86.09375 54.328125 86.542969 54.777344 86.542969 55.328125 Z M 86.542969 55.328125 "/>
<path style=" stroke:none;fill-rule:evenodd;fill:rgb(58.823529%,0%,100%);fill-opacity:1;" d="M 88.527344 53.753906 C 88.527344 54.304688 88.082031 54.753906 87.527344 54.753906 C 86.976562 54.753906 86.527344 54.304688 86.527344 53.753906 C 86.527344 53.199219 86.976562 52.753906 87.527344 52.753906 C 88.082031 52.753906 88.527344 53.199219 88.527344 53.753906 Z M 88.527344 53.753906 "/>
<path style=" stroke:none;fill-rule:evenodd;fill:rgb(58.823529%,0%,100%);fill-opacity:1;" d="M 90.550781 52.199219 C 90.550781 52.753906 90.101562 53.199219 89.550781 53.199219 C 88.996094 53.199219 88.550781 52.753906 88.550781 52.199219 C 88.550781 51.648438 88.996094 51.199219 89.550781 51.199219 C 90.101562 51.199219 90.550781 51.648438 90.550781 52.199219 Z M 90.550781 52.199219 "/>
<path style=" stroke:none;fill-rule:evenodd;fill:rgb(58.823529%,0%,100%);fill-opacity:1;" d="M 92.609375 50.671875 C 92.609375 51.222656 92.160156 51.671875 91.609375 51.671875 C 91.054688 51.671875 90.609375 51.222656 90.609375 50.671875 C 90.609375 50.121094 91.054688 49.671875 91.609375 49.671875 C 92.160156 49.671875 92.609375 50.121094 92.609375 50.671875 Z M 92.609375 50.671875 "/>
<path style=" stroke:none;fill-rule:evenodd;fill:rgb(58.823529%,0%,100%);fill-opacity:1;" d="M 94.703125 49.167969 C 94.703125 49.71875 94.253906 50.167969 93.703125 50.167969 C 93.148438 50.167969 92.703125 49.71875 92.703125 49.167969 C 92.703125 48.617188 93.148438 48.167969 93.703125 48.167969 C 94.253906 48.167969 94.703125 48.617188 94.703125 49.167969 Z M 94.703125 49.167969 "/>
<path style=" stroke:none;fill-rule:evenodd;fill:rgb(58.823529%,0%,100%);fill-opacity:1;" d="M 96.832031 47.6875 C 96.832031 48.242188 96.382812 48.6875 95.832031 48.6875 C 95.28125 48.6875 94.832031 48.242188 94.832031 47.6875 C 94.832031 47.136719 95.28125 46.6875 95.832031 46.6875 C 96.382812 46.6875 96.832031 47.136719 96.832031 47.6875 Z M 96.832031 47.6875 "/>
<path style=" stroke:none;fill-rule:evenodd;fill:rgb(58.823529%,0%,100%);fill-opacity:1;" d="M 98.996094 46.230469 C 98.996094 46.785156 98.550781 47.230469 97.996094 47.230469 C 97.445312 47.230469 96.996094 46.785156 96.996094 46.230469 C 96.996094 45.679688 97.445312 45.230469 97.996094 45.230469 C 98.550781 45.230469 98.996094 45.679688 98.996094 46.230469 Z M 98.996094 46.230469 "/>
<path style=" stroke:none;fill-rule:evenodd;fill:rgb(58.823529%,0%,100%);fill-opacity:1;" d="M 101.199219 44.800781 C 101.199219 45.351562 100.753906 45.800781 100.199219 45.800781 C 99.648438 45.800781 99.199219 45.351562 99.199219 44.800781 C 99.199219 44.246094 99.648438 43.800781 100.199219 43.800781 C 100.753906 43.800781 101.199219 44.246094 101.199219 44.800781 Z M 101.199219 44.800781 "/>
<path style=" stroke:none;fill-rule:evenodd;fill:rgb(58.823529%,0%,100%);fill-opacity:1;" d="M 103.4375 43.390625 C 103.4375 43.945312 102.992188 44.390625 102.4375 44.390625 C 101.886719 44.390625 101.4375 43.945312 101.4375 43.390625 C 101.4375 42.839844 101.886719 42.390625 102.4375 42.390625 C 102.992188 42.390625 103.4375 42.839844 103.4375 43.390625 Z M 103.4375 43.390625 "/>
<path style=" stroke:none;fill-rule:evenodd;fill:rgb(58.823529%,0%,100%);fill-opacity:1;" d="M 105.710938 42.007812 C 105.710938 42.558594 105.265625 43.007812 104.710938 43.007812 C 104.160156 43.007812 103.710938 42.558594 103.710938 42.007812 C 103.710938 41.457031 104.160156 41.007812 104.710938 41.007812 C 105.265625 41.007812 105.710938 41.457031 105.710938 42.007812 Z M 105.710938 42.007812 "/>
<path style=" stroke:none;fill-rule:evenodd;fill:rgb(58.823529%,0%,100%);fill-opacity:1;" d="M 108.023438 40.648438 C 108.023438 41.199219 107.574219 41.648438 107.023438 41.648438 C 106.46875 41.648438 106.023438 41.199219 106.023438 40.648438 C 106.023438 40.097656 106.46875 39.648438 107.023438 39.648438 C 107.574219 39.648438 108.023438 40.097656 108.023438 40.648438 Z M 108.023438 40.648438 "/>
<path style=" stroke:none;fill-rule:evenodd;fill:rgb(58.823529%,0%,100%);fill-opacity:1;" d="M 110.367188 39.3125 C 110.367188 39.863281 109.921875 40.3125 109.367188 40.3125 C 108.816406 40.3125 108.367188 39.863281 108.367188 39.3125 C 108.367188 38.757812 108.816406 38.3125 109.367188 38.3125 C 109.921875 38.3125 110.367188 38.757812 110.367188 39.3125 Z M 110.367188 39.3125 "/>
<path style=" stroke:none;fill-rule:evenodd;fill:rgb(58.823529%,0%,100%);fill-opacity:1;" d="M 112.75 38 C 112.75 38.550781 112.300781 39 111.75 39 C 111.199219 39 110.75 38.550781 110.75 38 C 110.75 37.449219 111.199219 37 111.75 37 C 112.300781 37 112.75 37.449219 112.75 38 Z M 112.75 38 "/>
<path style=" stroke:none;fill-rule:evenodd;fill:rgb(58.823529%,0%,100%);fill-opacity:1;" d="M 115.167969 36.710938 C 115.167969 37.265625 114.71875 37.710938 114.167969 37.710938 C 113.617188 37.710938 113.167969 37.265625 113.167969 36.710938 C 113.167969 36.160156 113.617188 35.710938 114.167969 35.710938 C 114.71875 35.710938 115.167969 36.160156 115.167969 36.710938 Z M 115.167969 36.710938 "/>
<path style=" stroke:none;fill-rule:evenodd;fill:rgb(58.823529%,0%,100%);fill-opacity:1;" d="M 117.621094 35.449219 C 117.621094 36 117.175781 36.449219 116.621094 36.449219 C 116.070312 36.449219 115.621094 36 115.621094 35.449219 C 115.621094 34.894531 116.070312 34.449219 116.621094 34.449219 C 117.175781 34.449219 117.621094 34.894531 117.621094 35.449219 Z M 117.621094 35.449219 "/>
<path style=" stroke:none;fill-rule:evenodd;fill:rgb(58.823529%,0%,100%);fill-opacity:1;" d="M 120.113281 34.207031 C 120.113281 34.761719 119.664062 35.207031 119.113281 35.207031 C 118.558594 35.207031 118.113281 34.761719 118.113281 34.207031 C 118.113281 33.65625 118.558594 33.207031 119.113281 33.207031 C 119.664062 33.207031 120.113281 33.65625 120.113281 34.207031 Z M 120.113281 34.207031 "/>
<path style=" stroke:none;fill-rule:evenodd;fill:rgb(58.823529%,0%,100%);fill-opacity:1;" d="M 122.636719 32.992188 C 122.636719 33.542969 122.191406 33.992188 121.636719 33.992188 C 121.085938 33.992188 120.636719 33.542969 120.636719 32.992188 C 120.636719 32.441406 121.085938 31.992188 121.636719 31.992188 C 122.191406 31.992188 122.636719 32.441406 122.636719 32.992188 Z M 122.636719 32.992188 "/>
<path style=" stroke:none;fill-rule:evenodd;fill:rgb(58.823529%,0%,100%);fill-opacity:1;" d="M 125.199219 31.800781 C 125.199219 32.351562 124.753906 32.800781 124.199219 32.800781 C 123.648438 32.800781 123.199219 32.351562 123.199219 31.800781 C 123.199219 31.246094 123.648438 30.800781 124.199219 30.800781 C 124.753906 30.800781 125.199219 31.246094 125.199219 31.800781 Z M 125.199219 31.800781 "/>
<path style=" stroke:none;fill-rule:evenodd;fill:rgb(58.823529%,0%,100%);fill-opacity:1;" d="M 127.796875 30.632812 C 127.796875 31.183594 127.351562 31.632812 126.796875 31.632812 C 126.246094 31.632812 125.796875 31.183594 125.796875 30.632812 C 125.796875 30.078125 126.246094 29.632812 126.796875 29.632812 C 127.351562 29.632812 127.796875 30.078125 127.796875 30.632812 Z M 127.796875 30.632812 "/>
<path style=" stroke:none;fill-rule:evenodd;fill:rgb(58.823529%,0%,100%);fill-opacity:1;" d="M 130.433594 29.488281 C 130.433594 30.039062 129.984375 30.488281 129.433594 30.488281 C 128.878906 30.488281 128.433594 30.039062 128.433594 29.488281 C 128.433594 28.9375 128.878906 28.488281 129.433594 28.488281 C 129.984375 28.488281 130.433594 28.9375 130.433594 29.488281 Z M 130.433594 29.488281 "/>
<path style=" stroke:none;fill-rule:evenodd;fill:rgb(58.823529%,0%,100%);fill-opacity:1;" d="M 133.101562 28.367188 C 133.101562 28.921875 132.652344 29.367188 132.101562 29.367188 C 131.550781 29.367188 131.101562 28.921875 131.101562 28.367188 C 131.101562 27.816406 131.550781 27.367188 132.101562 27.367188 C 132.652344 27.367188 133.101562 27.816406 133.101562 28.367188 Z M 133.101562 28.367188 "/>
<path style=" stroke:none;fill-rule:evenodd;fill:rgb(58.823529%,0%,100%);fill-opacity:1;" d="M 135.808594 27.273438 C 135.808594 27.824219 135.359375 28.273438 134.808594 28.273438 C 134.253906 28.273438 133.808594 27.824219 133.808594 27.273438 C 133.808594 26.71875 134.253906 26.273438 134.808594 26.273438 C 135.359375 26.273438 135.808594 26.71875 135.808594 27.273438 Z M 135.808594 27.273438 "/>
<path style=" stroke:none;fill-rule:evenodd;fill:rgb(58.823529%,0%,100%);fill-opacity:1;" d="M 138.550781 26.199219 C 138.550781 26.753906 138.101562 27.199219 137.550781 27.199219 C 136.996094 27.199219 136.550781 26.753906 136.550781 26.199219 C 136.550781 25.648438 136.996094 25.199219 137.550781 25.199219 C 138.101562 25.199219 138.550781 25.648438 138.550781 26.199219 Z M 138.550781 26.199219 "/>
<path style=" stroke:none;fill-rule:evenodd;fill:rgb(58.823529%,0%,100%);fill-opacity:1;" d="M 141.328125 25.152344 C 141.328125 25.703125 140.878906 26.152344 140.328125 26.152344 C 139.777344 26.152344 139.328125 25.703125 139.328125 25.152344 C 139.328125 24.601562 139.777344 24.152344 140.328125 24.152344 C 140.878906 24.152344 141.328125 24.601562 141.328125 25.152344 Z M 141.328125 25.152344 "/>
<path style=" stroke:none;fill-rule:evenodd;fill:rgb(58.823529%,0%,100%);fill-opacity:1;" d="M 144.140625 24.128906 C 144.140625 24.679688 143.695312 25.128906 143.140625 25.128906 C 142.589844 25.128906 142.140625 24.679688 142.140625 24.128906 C 142.140625 23.574219 142.589844 23.128906 143.140625 23.128906 C 143.695312 23.128906 144.140625 23.574219 144.140625 24.128906 Z M 144.140625 24.128906 "/>
<path style=" stroke:none;fill-rule:evenodd;fill:rgb(58.823529%,0%,100%);fill-opacity:1;" d="M 146.992188 23.128906 C 146.992188 23.679688 146.542969 24.128906 145.992188 24.128906 C 145.441406 24.128906 144.992188 23.679688 144.992188 23.128906 C 144.992188 22.574219 145.441406 22.128906 145.992188 22.128906 C 146.542969 22.128906 146.992188 22.574219 146.992188 23.128906 Z M 146.992188 23.128906 "/>
<path style=" stroke:none;fill-rule:evenodd;fill:rgb(58.823529%,0%,100%);fill-opacity:1;" d="M 149.878906 22.152344 C 149.878906 22.703125 149.429688 23.152344 148.878906 23.152344 C 148.324219 23.152344 147.878906 22.703125 147.878906 22.152344 C 147.878906 21.601562 148.324219 21.152344 148.878906 21.152344 C 149.429688 21.152344 149.878906 21.601562 149.878906 22.152344 Z M 149.878906 22.152344 "/>
<path style=" stroke:none;fill-rule:evenodd;fill:rgb(58.823529%,0%,100%);fill-opacity:1;" d="M 152.800781 21.199219 C 152.800781 21.753906 152.351562 22.199219 151.800781 22.199219 C 151.246094 22.199219 150.800781 21.753906 150.800781 21.199219 C 150.800781 20.648438 151.246094 20.199219 151.800781 20.199219 C 152.351562 20.199219 152.800781 20.648438 152.800781 21.199219 Z M 152.800781 21.199219 "/>
<path style=" stroke:none;fill-rule:evenodd;fill:rgb(58.823529%,0%,100%);fill-opacity:1;" d="M 155.757812 20.273438 C 155.757812 20.824219 155.308594 21.273438 154.757812 21.273438 C 154.207031 21.273438 153.757812 20.824219 153.757812 20.273438 C 153.757812 19.71875 154.207031 19.273438 154.757812 19.273438 C 155.308594 19.273438 155.757812 19.71875 155.757812 20.273438 Z M 155.757812 20.273438 "/>
<path style=" stroke:none;fill-rule:evenodd;fill:rgb(58.823529%,0%,100%);fill-opacity:1;" d="M 158.753906 19.367188 C 158.753906 19.921875 158.304688 20.367188 157.753906 20.367188 C 157.199219 20.367188 156.753906 19.921875 156.753906 19.367188 C 156.753906 18.816406 157.199219 18.367188 157.753906 18.367188 C 158.304688 18.367188 158.753906 18.816406 158.753906 19.367188 Z M 158.753906 19.367188 "/>
<path style=" stroke:none;fill-rule:evenodd;fill:rgb(58.823529%,0%,100%);fill-opacity:1;" d="M 161.78125 18.488281 C 161.78125 19.039062 161.335938 19.488281 160.78125 19.488281 C 160.230469 19.488281 159.78125 19.039062 159.78125 18.488281 C 159.78125 17.9375 160.230469 17.488281 160.78125 17.488281 C 161.335938 17.488281 161.78125 17.9375 161.78125 18.488281 Z M 161.78125 18.488281 "/>
<path style=" stroke:none;fill-rule:evenodd;fill:rgb(58.823529%,0%,100%);fill-opacity:1;" d="M 164.847656 17.632812 C 164.847656 18.183594 164.398438 18.632812 163.847656 18.632812 C 163.296875 18.632812 162.847656 18.183594 162.847656 17.632812 C 162.847656 17.078125 163.296875 16.632812 163.847656 16.632812 C 164.398438 16.632812 164.847656 17.078125 164.847656 17.632812 Z M 164.847656 17.632812 "/>
<path style=" stroke:none;fill-rule:evenodd;fill:rgb(58.823529%,0%,100%);fill-opacity:1;" d="M 167.949219 16.800781 C 167.949219 17.351562 167.503906 17.800781 166.949219 17.800781 C 166.398438 17.800781 165.949219 17.351562 165.949219 16.800781 C 165.949219 16.246094 166.398438 15.800781 166.949219 15.800781 C 167.503906 15.800781 167.949219 16.246094 167.949219 16.800781 Z M 167.949219 16.800781 "/>
<path style=" stroke:none;fill-rule:evenodd;fill:rgb(58.823529%,0%,100%);fill-opacity:1;" d="M 171.089844 15.992188 C 171.089844 16.542969 170.640625 16.992188 170.089844 16.992188 C 169.535156 16.992188 169.089844 16.542969 169.089844 15.992188 C 169.089844 15.441406 169.535156 14.992188 170.089844 14.992188 C 170.640625 14.992188 171.089844 15.441406 171.089844 15.992188 Z M 171.089844 15.992188 "/>
<path style=" stroke:none;fill-rule:evenodd;fill:rgb(58.823529%,0%,100%);fill-opacity:1;" d="M 174.261719 15.207031 C 174.261719 15.761719 173.8125 16.207031 173.261719 16.207031 C 172.710938 16.207031 172.261719 15.761719 172.261719 15.207031 C 172.261719 14.65625 172.710938 14.207031 173.261719 14.207031 C 173.8125 14.207031 174.261719 14.65625 174.261719 15.207031 Z M 174.261719 15.207031 "/>
<path style=" stroke:none;fill-rule:evenodd;fill:rgb(58.823529%,0%,100%);fill-opacity:1;" d="M 177.472656 14.449219 C 177.472656 15 177.023438 15.449219 176.472656 15.449219 C 175.917969 15.449219 175.472656 15 175.472656 14.449219 C 175.472656 13.894531 175.917969 13.449219 176.472656 13.449219 C 177.023438 13.449219 177.472656 13.894531 177.472656 14.449219 Z M 177.472656 14.449219 "/>
<path style=" stroke:none;fill-rule:evenodd;fill:rgb(58.823529%,0%,100%);fill-opacity:1;" d="M 180.71875 13.710938 C 180.71875 14.265625 180.269531 14.710938 179.71875 14.710938 C 179.164062 14.710938 178.71875 14.265625 178.71875 13.710938 C 178.71875 13.160156 179.164062 12.710938 179.71875 12.710938 C 180.269531 12.710938 180.71875 13.160156 180.71875 13.710938 Z M 180.71875 13.710938 "/>
<path style=" stroke:none;fill-rule:evenodd;fill:rgb(58.823529%,0%,100%);fill-opacity:1;" d="M 184 13 C 184 13.550781 183.550781 14 183 14 C 182.449219 14 182 13.550781 182 13 C 182 12.449219 182.449219 12 183 12 C 183.550781 12 184 12.449219 184 13 Z M 184 13 "/>
</g>
</svg>
