<?xml version="1.0" encoding="UTF-8"?>
<svg xmlns="http://www.w3.org/2000/svg" xmlns:xlink="http://www.w3.org/1999/xlink" width="106" height="106" viewBox="0 0 106 106" version="1.1">
<g id="surface575">
<path style=" stroke:none;fill-rule:nonzero;fill:rgb(74.509804%,74.509804%,74.509804%);fill-opacity:1;" d="M 78 3 C 78 3 103 3 103 3 C 103 3 103 103 103 103 C 103 103 78 103 78 103 C 78 103 78 3 78 3 Z M 78 3 "/>
<path style=" stroke:none;fill-rule:nonzero;fill:rgb(100%,64.705882%,0%);fill-opacity:1;" d="M 53 3 C 53 3 78 3 78 3 C 78 3 78 103 78 103 C 78 103 53 103 53 103 C 53 103 53 3 53 3 Z M 53 3 "/>
<path style=" stroke:none;fill-rule:nonzero;fill:rgb(100%,0%,0%);fill-opacity:1;" d="M 3 53 C 3 53 53 53 53 53 C 53 53 53 103 53 103 C 53 103 3 103 3 103 C 3 103 3 53 3 53 Z M 3 53 "/>
<path style=" stroke:none;fill-rule:nonzero;fill:rgb(74.509804%,74.509804%,74.509804%);fill-opacity:1;" d="M 3 3 C 3 3 53 3 53 3 C 53 3 53 53 53 53 C 53 53 3 53 3 53 C 3 53 3 3 3 3 Z M 3 3 "/>
</g>
</svg>
