<?xml version="1.0" encoding="UTF-8"?>
<svg xmlns="http://www.w3.org/2000/svg" xmlns:xlink="http://www.w3.org/1999/xlink" width="206" height="206" viewBox="0 0 206 206" version="1.1">
<defs>
<clipPath id="clip1">
  <path d="M 3 3 L 203 3 L 203 203 L 3 203 Z M 3 3 "/>
</clipPath>
<clipPath id="clip2">
  <path d="M 12 3 L 14 3 L 14 4 L 12 4 Z M 12 3 "/>
</clipPath>
</defs>
<g id="surface341">
<path style=" stroke:none;fill-rule:nonzero;fill:rgb(100%,100%,100%);fill-opacity:1;" d="M 3 3 C 3 3 203 3 203 3 C 203 3 203 203 203 203 C 203 203 3 203 3 203 C 3 203 3 3 3 3 Z M 3 3 "/>
<g clip-path="url(#clip1)" clip-rule="nonzero">
<path style="fill:none;stroke-width:2;stroke-linecap:round;stroke-linejoin:round;stroke:rgb(0%,0%,0%);stroke-opacity:1;stroke-miterlimit:10;" d="M 3 3 C 3 3 203 3 203 3 C 203 3 203 203 203 203 C 203 203 3 203 3 203 C 3 203 3 3 3 3 Z M 3 3 "/>
</g>
<path style=" stroke:none;fill-rule:evenodd;fill:rgb(100%,0%,100%);fill-opacity:1;" d="M 33.636719 198.847656 C 33.636719 199.398438 33.191406 199.847656 32.636719 199.847656 C 32.085938 199.847656 31.636719 199.398438 31.636719 198.847656 C 31.636719 198.292969 32.085938 197.847656 32.636719 197.847656 C 33.191406 197.847656 33.636719 198.292969 33.636719 198.847656 Z M 33.636719 198.847656 "/>
<path style=" stroke:none;fill-rule:evenodd;fill:rgb(100%,0%,100%);fill-opacity:1;" d="M 33.347656 194.78125 C 33.347656 195.335938 32.902344 195.78125 32.347656 195.78125 C 31.796875 195.78125 31.347656 195.335938 31.347656 194.78125 C 31.347656 194.230469 31.796875 193.78125 32.347656 193.78125 C 32.902344 193.78125 33.347656 194.230469 33.347656 194.78125 Z M 33.347656 194.78125 "/>
<path style=" stroke:none;fill-rule:evenodd;fill:rgb(100%,0%,100%);fill-opacity:1;" d="M 33.132812 190.808594 C 33.132812 191.359375 32.683594 191.808594 32.132812 191.808594 C 31.578125 191.808594 31.132812 191.359375 31.132812 190.808594 C 31.132812 190.253906 31.578125 189.808594 32.132812 189.808594 C 32.683594 189.808594 33.132812 190.253906 33.132812 190.808594 Z M 33.132812 190.808594 "/>
<path style=" stroke:none;fill-rule:evenodd;fill:rgb(100%,0%,100%);fill-opacity:1;" d="M 32.984375 186.921875 C 32.984375 187.472656 32.539062 187.921875 31.984375 187.921875 C 31.433594 187.921875 30.984375 187.472656 30.984375 186.921875 C 30.984375 186.367188 31.433594 185.921875 31.984375 185.921875 C 32.539062 185.921875 32.984375 186.367188 32.984375 186.921875 Z M 32.984375 186.921875 "/>
<path style=" stroke:none;fill-rule:evenodd;fill:rgb(100%,0%,100%);fill-opacity:1;" d="M 32.90625 183.121094 C 32.90625 183.671875 32.457031 184.121094 31.90625 184.121094 C 31.351562 184.121094 30.90625 183.671875 30.90625 183.121094 C 30.90625 182.566406 31.351562 182.121094 31.90625 182.121094 C 32.457031 182.121094 32.90625 182.566406 32.90625 183.121094 Z M 32.90625 183.121094 "/>
<path style=" stroke:none;fill-rule:evenodd;fill:rgb(100%,0%,100%);fill-opacity:1;" d="M 32.890625 179.402344 C 32.890625 179.957031 32.441406 180.402344 31.890625 180.402344 C 31.339844 180.402344 30.890625 179.957031 30.890625 179.402344 C 30.890625 178.851562 31.339844 178.402344 31.890625 178.402344 C 32.441406 178.402344 32.890625 178.851562 32.890625 179.402344 Z M 32.890625 179.402344 "/>
<path style=" stroke:none;fill-rule:evenodd;fill:rgb(100%,0%,100%);fill-opacity:1;" d="M 32.9375 175.773438 C 32.9375 176.324219 32.492188 176.773438 31.9375 176.773438 C 31.386719 176.773438 30.9375 176.324219 30.9375 175.773438 C 30.9375 175.21875 31.386719 174.773438 31.9375 174.773438 C 32.492188 174.773438 32.9375 175.21875 32.9375 175.773438 Z M 32.9375 175.773438 "/>
<path style=" stroke:none;fill-rule:evenodd;fill:rgb(100%,0%,100%);fill-opacity:1;" d="M 33.046875 172.222656 C 33.046875 172.773438 32.601562 173.222656 32.046875 173.222656 C 31.496094 173.222656 31.046875 172.773438 31.046875 172.222656 C 31.046875 171.667969 31.496094 171.222656 32.046875 171.222656 C 32.601562 171.222656 33.046875 171.667969 33.046875 172.222656 Z M 33.046875 172.222656 "/>
<path style=" stroke:none;fill-rule:evenodd;fill:rgb(100%,0%,100%);fill-opacity:1;" d="M 33.214844 168.75 C 33.214844 169.304688 32.769531 169.75 32.214844 169.75 C 31.664062 169.75 31.214844 169.304688 31.214844 168.75 C 31.214844 168.199219 31.664062 167.75 32.214844 167.75 C 32.769531 167.75 33.214844 168.199219 33.214844 168.75 Z M 33.214844 168.75 "/>
<path style=" stroke:none;fill-rule:evenodd;fill:rgb(100%,0%,100%);fill-opacity:1;" d="M 33.441406 165.359375 C 33.441406 165.914062 32.992188 166.359375 32.441406 166.359375 C 31.886719 166.359375 31.441406 165.914062 31.441406 165.359375 C 31.441406 164.808594 31.886719 164.359375 32.441406 164.359375 C 32.992188 164.359375 33.441406 164.808594 33.441406 165.359375 Z M 33.441406 165.359375 "/>
<path style=" stroke:none;fill-rule:evenodd;fill:rgb(100%,0%,100%);fill-opacity:1;" d="M 33.71875 162.046875 C 33.71875 162.597656 33.269531 163.046875 32.71875 163.046875 C 32.167969 163.046875 31.71875 162.597656 31.71875 162.046875 C 31.71875 161.496094 32.167969 161.046875 32.71875 161.046875 C 33.269531 161.046875 33.71875 161.496094 33.71875 162.046875 Z M 33.71875 162.046875 "/>
<path style=" stroke:none;fill-rule:evenodd;fill:rgb(100%,0%,100%);fill-opacity:1;" d="M 34.050781 158.808594 C 34.050781 159.363281 33.601562 159.808594 33.050781 159.808594 C 32.496094 159.808594 32.050781 159.363281 32.050781 158.808594 C 32.050781 158.257812 32.496094 157.808594 33.050781 157.808594 C 33.601562 157.808594 34.050781 158.257812 34.050781 158.808594 Z M 34.050781 158.808594 "/>
<path style=" stroke:none;fill-rule:evenodd;fill:rgb(100%,0%,100%);fill-opacity:1;" d="M 34.429688 155.648438 C 34.429688 156.199219 33.984375 156.648438 33.429688 156.648438 C 32.878906 156.648438 32.429688 156.199219 32.429688 155.648438 C 32.429688 155.09375 32.878906 154.648438 33.429688 154.648438 C 33.984375 154.648438 34.429688 155.09375 34.429688 155.648438 Z M 34.429688 155.648438 "/>
<path style=" stroke:none;fill-rule:evenodd;fill:rgb(100%,0%,100%);fill-opacity:1;" d="M 34.859375 152.558594 C 34.859375 153.109375 34.414062 153.558594 33.859375 153.558594 C 33.308594 153.558594 32.859375 153.109375 32.859375 152.558594 C 32.859375 152.003906 33.308594 151.558594 33.859375 151.558594 C 34.414062 151.558594 34.859375 152.003906 34.859375 152.558594 Z M 34.859375 152.558594 "/>
<path style=" stroke:none;fill-rule:evenodd;fill:rgb(100%,0%,100%);fill-opacity:1;" d="M 35.335938 149.539062 C 35.335938 150.09375 34.886719 150.539062 34.335938 150.539062 C 33.78125 150.539062 33.335938 150.09375 33.335938 149.539062 C 33.335938 148.988281 33.78125 148.539062 34.335938 148.539062 C 34.886719 148.539062 35.335938 148.988281 35.335938 149.539062 Z M 35.335938 149.539062 "/>
<path style=" stroke:none;fill-rule:evenodd;fill:rgb(100%,0%,100%);fill-opacity:1;" d="M 35.851562 146.59375 C 35.851562 147.144531 35.40625 147.59375 34.851562 147.59375 C 34.300781 147.59375 33.851562 147.144531 33.851562 146.59375 C 33.851562 146.039062 34.300781 145.59375 34.851562 145.59375 C 35.40625 145.59375 35.851562 146.039062 35.851562 146.59375 Z M 35.851562 146.59375 "/>
<path style=" stroke:none;fill-rule:evenodd;fill:rgb(100%,0%,100%);fill-opacity:1;" d="M 36.414062 143.714844 C 36.414062 144.265625 35.964844 144.714844 35.414062 144.714844 C 34.859375 144.714844 34.414062 144.265625 34.414062 143.714844 C 34.414062 143.164062 34.859375 142.714844 35.414062 142.714844 C 35.964844 142.714844 36.414062 143.164062 36.414062 143.714844 Z M 36.414062 143.714844 "/>
<path style=" stroke:none;fill-rule:evenodd;fill:rgb(100%,0%,100%);fill-opacity:1;" d="M 37.011719 140.90625 C 37.011719 141.457031 36.566406 141.90625 36.011719 141.90625 C 35.460938 141.90625 35.011719 141.457031 35.011719 140.90625 C 35.011719 140.351562 35.460938 139.90625 36.011719 139.90625 C 36.566406 139.90625 37.011719 140.351562 37.011719 140.90625 Z M 37.011719 140.90625 "/>
<path style=" stroke:none;fill-rule:evenodd;fill:rgb(100%,0%,100%);fill-opacity:1;" d="M 37.648438 138.160156 C 37.648438 138.710938 37.199219 139.160156 36.648438 139.160156 C 36.097656 139.160156 35.648438 138.710938 35.648438 138.160156 C 35.648438 137.609375 36.097656 137.160156 36.648438 137.160156 C 37.199219 137.160156 37.648438 137.609375 37.648438 138.160156 Z M 37.648438 138.160156 "/>
<path style=" stroke:none;fill-rule:evenodd;fill:rgb(100%,0%,100%);fill-opacity:1;" d="M 38.320312 135.480469 C 38.320312 136.03125 37.871094 136.480469 37.320312 136.480469 C 36.769531 136.480469 36.320312 136.03125 36.320312 135.480469 C 36.320312 134.925781 36.769531 134.480469 37.320312 134.480469 C 37.871094 134.480469 38.320312 134.925781 38.320312 135.480469 Z M 38.320312 135.480469 "/>
<path style=" stroke:none;fill-rule:evenodd;fill:rgb(100%,0%,100%);fill-opacity:1;" d="M 39.023438 132.863281 C 39.023438 133.414062 38.578125 133.863281 38.023438 133.863281 C 37.472656 133.863281 37.023438 133.414062 37.023438 132.863281 C 37.023438 132.3125 37.472656 131.863281 38.023438 131.863281 C 38.578125 131.863281 39.023438 132.3125 39.023438 132.863281 Z M 39.023438 132.863281 "/>
<path style=" stroke:none;fill-rule:evenodd;fill:rgb(100%,0%,100%);fill-opacity:1;" d="M 39.757812 130.308594 C 39.757812 130.859375 39.3125 131.308594 38.757812 131.308594 C 38.207031 131.308594 37.757812 130.859375 37.757812 130.308594 C 37.757812 129.757812 38.207031 129.308594 38.757812 129.308594 C 39.3125 129.308594 39.757812 129.757812 39.757812 130.308594 Z M 39.757812 130.308594 "/>
<path style=" stroke:none;fill-rule:evenodd;fill:rgb(100%,0%,100%);fill-opacity:1;" d="M 40.523438 127.8125 C 40.523438 128.367188 40.074219 128.8125 39.523438 128.8125 C 38.96875 128.8125 38.523438 128.367188 38.523438 127.8125 C 38.523438 127.261719 38.96875 126.8125 39.523438 126.8125 C 40.074219 126.8125 40.523438 127.261719 40.523438 127.8125 Z M 40.523438 127.8125 "/>
<path style=" stroke:none;fill-rule:evenodd;fill:rgb(100%,0%,100%);fill-opacity:1;" d="M 41.3125 125.378906 C 41.3125 125.929688 40.863281 126.378906 40.3125 126.378906 C 39.757812 126.378906 39.3125 125.929688 39.3125 125.378906 C 39.3125 124.824219 39.757812 124.378906 40.3125 124.378906 C 40.863281 124.378906 41.3125 124.824219 41.3125 125.378906 Z M 41.3125 125.378906 "/>
<path style=" stroke:none;fill-rule:evenodd;fill:rgb(100%,0%,100%);fill-opacity:1;" d="M 42.125 123 C 42.125 123.550781 41.675781 124 41.125 124 C 40.574219 124 40.125 123.550781 40.125 123 C 40.125 122.449219 40.574219 122 41.125 122 C 41.675781 122 42.125 122.449219 42.125 123 Z M 42.125 123 "/>
<path style=" stroke:none;fill-rule:evenodd;fill:rgb(100%,0%,100%);fill-opacity:1;" d="M 42.960938 120.679688 C 42.960938 121.230469 42.511719 121.679688 41.960938 121.679688 C 41.410156 121.679688 40.960938 121.230469 40.960938 120.679688 C 40.960938 120.125 41.410156 119.679688 41.960938 119.679688 C 42.511719 119.679688 42.960938 120.125 42.960938 120.679688 Z M 42.960938 120.679688 "/>
<path style=" stroke:none;fill-rule:evenodd;fill:rgb(100%,0%,100%);fill-opacity:1;" d="M 43.816406 118.410156 C 43.816406 118.960938 43.367188 119.410156 42.816406 119.410156 C 42.265625 119.410156 41.816406 118.960938 41.816406 118.410156 C 41.816406 117.859375 42.265625 117.410156 42.816406 117.410156 C 43.367188 117.410156 43.816406 117.859375 43.816406 118.410156 Z M 43.816406 118.410156 "/>
<path style=" stroke:none;fill-rule:evenodd;fill:rgb(100%,0%,100%);fill-opacity:1;" d="M 44.6875 116.195312 C 44.6875 116.746094 44.242188 117.195312 43.6875 117.195312 C 43.136719 117.195312 42.6875 116.746094 42.6875 116.195312 C 42.6875 115.644531 43.136719 115.195312 43.6875 115.195312 C 44.242188 115.195312 44.6875 115.644531 44.6875 116.195312 Z M 44.6875 116.195312 "/>
<path style=" stroke:none;fill-rule:evenodd;fill:rgb(100%,0%,100%);fill-opacity:1;" d="M 45.578125 114.03125 C 45.578125 114.585938 45.128906 115.03125 44.578125 115.03125 C 44.027344 115.03125 43.578125 114.585938 43.578125 114.03125 C 43.578125 113.480469 44.027344 113.03125 44.578125 113.03125 C 45.128906 113.03125 45.578125 113.480469 45.578125 114.03125 Z M 45.578125 114.03125 "/>
<path style=" stroke:none;fill-rule:evenodd;fill:rgb(100%,0%,100%);fill-opacity:1;" d="M 46.480469 111.921875 C 46.480469 112.472656 46.03125 112.921875 45.480469 112.921875 C 44.925781 112.921875 44.480469 112.472656 44.480469 111.921875 C 44.480469 111.367188 44.925781 110.921875 45.480469 110.921875 C 46.03125 110.921875 46.480469 111.367188 46.480469 111.921875 Z M 46.480469 111.921875 "/>
<path style=" stroke:none;fill-rule:evenodd;fill:rgb(100%,0%,100%);fill-opacity:1;" d="M 47.394531 109.855469 C 47.394531 110.410156 46.945312 110.855469 46.394531 110.855469 C 45.839844 110.855469 45.394531 110.410156 45.394531 109.855469 C 45.394531 109.304688 45.839844 108.855469 46.394531 108.855469 C 46.945312 108.855469 47.394531 109.304688 47.394531 109.855469 Z M 47.394531 109.855469 "/>
<path style=" stroke:none;fill-rule:evenodd;fill:rgb(100%,0%,100%);fill-opacity:1;" d="M 48.316406 107.839844 C 48.316406 108.390625 47.867188 108.839844 47.316406 108.839844 C 46.761719 108.839844 46.316406 108.390625 46.316406 107.839844 C 46.316406 107.289062 46.761719 106.839844 47.316406 106.839844 C 47.867188 106.839844 48.316406 107.289062 48.316406 107.839844 Z M 48.316406 107.839844 "/>
<path style=" stroke:none;fill-rule:evenodd;fill:rgb(100%,0%,100%);fill-opacity:1;" d="M 49.246094 105.867188 C 49.246094 106.421875 48.796875 106.867188 48.246094 106.867188 C 47.691406 106.867188 47.246094 106.421875 47.246094 105.867188 C 47.246094 105.316406 47.691406 104.867188 48.246094 104.867188 C 48.796875 104.867188 49.246094 105.316406 49.246094 105.867188 Z M 49.246094 105.867188 "/>
<path style=" stroke:none;fill-rule:evenodd;fill:rgb(100%,0%,100%);fill-opacity:1;" d="M 50.179688 103.941406 C 50.179688 104.496094 49.730469 104.941406 49.179688 104.941406 C 48.625 104.941406 48.179688 104.496094 48.179688 103.941406 C 48.179688 103.390625 48.625 102.941406 49.179688 102.941406 C 49.730469 102.941406 50.179688 103.390625 50.179688 103.941406 Z M 50.179688 103.941406 "/>
<path style=" stroke:none;fill-rule:evenodd;fill:rgb(100%,0%,100%);fill-opacity:1;" d="M 51.113281 102.058594 C 51.113281 102.613281 50.667969 103.058594 50.113281 103.058594 C 49.5625 103.058594 49.113281 102.613281 49.113281 102.058594 C 49.113281 101.507812 49.5625 101.058594 50.113281 101.058594 C 50.667969 101.058594 51.113281 101.507812 51.113281 102.058594 Z M 51.113281 102.058594 "/>
<path style=" stroke:none;fill-rule:evenodd;fill:rgb(100%,0%,100%);fill-opacity:1;" d="M 52.050781 100.21875 C 52.050781 100.769531 51.605469 101.21875 51.050781 101.21875 C 50.5 101.21875 50.050781 100.769531 50.050781 100.21875 C 50.050781 99.667969 50.5 99.21875 51.050781 99.21875 C 51.605469 99.21875 52.050781 99.667969 52.050781 100.21875 Z M 52.050781 100.21875 "/>
<path style=" stroke:none;fill-rule:evenodd;fill:rgb(100%,0%,100%);fill-opacity:1;" d="M 52.988281 98.417969 C 52.988281 98.96875 52.539062 99.417969 51.988281 99.417969 C 51.433594 99.417969 50.988281 98.96875 50.988281 98.417969 C 50.988281 97.863281 51.433594 97.417969 51.988281 97.417969 C 52.539062 97.417969 52.988281 97.863281 52.988281 98.417969 Z M 52.988281 98.417969 "/>
<path style=" stroke:none;fill-rule:evenodd;fill:rgb(100%,0%,100%);fill-opacity:1;" d="M 53.917969 96.65625 C 53.917969 97.207031 53.46875 97.65625 52.917969 97.65625 C 52.367188 97.65625 51.917969 97.207031 51.917969 96.65625 C 51.917969 96.101562 52.367188 95.65625 52.917969 95.65625 C 53.46875 95.65625 53.917969 96.101562 53.917969 96.65625 Z M 53.917969 96.65625 "/>
<path style=" stroke:none;fill-rule:evenodd;fill:rgb(100%,0%,100%);fill-opacity:1;" d="M 54.84375 94.929688 C 54.84375 95.480469 54.394531 95.929688 53.84375 95.929688 C 53.289062 95.929688 52.84375 95.480469 52.84375 94.929688 C 52.84375 94.378906 53.289062 93.929688 53.84375 93.929688 C 54.394531 93.929688 54.84375 94.378906 54.84375 94.929688 Z M 54.84375 94.929688 "/>
<path style=" stroke:none;fill-rule:evenodd;fill:rgb(100%,0%,100%);fill-opacity:1;" d="M 55.761719 93.238281 C 55.761719 93.792969 55.3125 94.238281 54.761719 94.238281 C 54.207031 94.238281 53.761719 93.792969 53.761719 93.238281 C 53.761719 92.6875 54.207031 92.238281 54.761719 92.238281 C 55.3125 92.238281 55.761719 92.6875 55.761719 93.238281 Z M 55.761719 93.238281 "/>
<path style=" stroke:none;fill-rule:evenodd;fill:rgb(100%,0%,100%);fill-opacity:1;" d="M 56.667969 91.585938 C 56.667969 92.136719 56.21875 92.585938 55.667969 92.585938 C 55.113281 92.585938 54.667969 92.136719 54.667969 91.585938 C 54.667969 91.03125 55.113281 90.585938 55.667969 90.585938 C 56.21875 90.585938 56.667969 91.03125 56.667969 91.585938 Z M 56.667969 91.585938 "/>
<path style=" stroke:none;fill-rule:evenodd;fill:rgb(100%,0%,100%);fill-opacity:1;" d="M 57.558594 89.960938 C 57.558594 90.515625 57.113281 90.960938 56.558594 90.960938 C 56.007812 90.960938 55.558594 90.515625 55.558594 89.960938 C 55.558594 89.410156 56.007812 88.960938 56.558594 88.960938 C 57.113281 88.960938 57.558594 89.410156 57.558594 89.960938 Z M 57.558594 89.960938 "/>
<path style=" stroke:none;fill-rule:evenodd;fill:rgb(100%,0%,100%);fill-opacity:1;" d="M 58.441406 88.371094 C 58.441406 88.925781 57.992188 89.371094 57.441406 89.371094 C 56.886719 89.371094 56.441406 88.925781 56.441406 88.371094 C 56.441406 87.820312 56.886719 87.371094 57.441406 87.371094 C 57.992188 87.371094 58.441406 87.820312 58.441406 88.371094 Z M 58.441406 88.371094 "/>
<path style=" stroke:none;fill-rule:evenodd;fill:rgb(100%,0%,100%);fill-opacity:1;" d="M 59.300781 86.8125 C 59.300781 87.363281 58.855469 87.8125 58.300781 87.8125 C 57.75 87.8125 57.300781 87.363281 57.300781 86.8125 C 57.300781 86.257812 57.75 85.8125 58.300781 85.8125 C 58.855469 85.8125 59.300781 86.257812 59.300781 86.8125 Z M 59.300781 86.8125 "/>
<path style=" stroke:none;fill-rule:evenodd;fill:rgb(100%,0%,100%);fill-opacity:1;" d="M 60.144531 85.28125 C 60.144531 85.832031 59.699219 86.28125 59.144531 86.28125 C 58.59375 86.28125 58.144531 85.832031 58.144531 85.28125 C 58.144531 84.726562 58.59375 84.28125 59.144531 84.28125 C 59.699219 84.28125 60.144531 84.726562 60.144531 85.28125 Z M 60.144531 85.28125 "/>
<path style=" stroke:none;fill-rule:evenodd;fill:rgb(100%,0%,100%);fill-opacity:1;" d="M 60.96875 83.773438 C 60.96875 84.328125 60.519531 84.773438 59.96875 84.773438 C 59.414062 84.773438 58.96875 84.328125 58.96875 83.773438 C 58.96875 83.222656 59.414062 82.773438 59.96875 82.773438 C 60.519531 82.773438 60.96875 83.222656 60.96875 83.773438 Z M 60.96875 83.773438 "/>
<path style=" stroke:none;fill-rule:evenodd;fill:rgb(100%,0%,100%);fill-opacity:1;" d="M 61.765625 82.296875 C 61.765625 82.847656 61.316406 83.296875 60.765625 83.296875 C 60.214844 83.296875 59.765625 82.847656 59.765625 82.296875 C 59.765625 81.746094 60.214844 81.296875 60.765625 81.296875 C 61.316406 81.296875 61.765625 81.746094 61.765625 82.296875 Z M 61.765625 82.296875 "/>
<path style=" stroke:none;fill-rule:evenodd;fill:rgb(100%,0%,100%);fill-opacity:1;" d="M 62.539062 80.84375 C 62.539062 81.394531 62.089844 81.84375 61.539062 81.84375 C 60.988281 81.84375 60.539062 81.394531 60.539062 80.84375 C 60.539062 80.289062 60.988281 79.84375 61.539062 79.84375 C 62.089844 79.84375 62.539062 80.289062 62.539062 80.84375 Z M 62.539062 80.84375 "/>
<path style=" stroke:none;fill-rule:evenodd;fill:rgb(100%,0%,100%);fill-opacity:1;" d="M 63.285156 79.410156 C 63.285156 79.960938 62.835938 80.410156 62.285156 80.410156 C 61.730469 80.410156 61.285156 79.960938 61.285156 79.410156 C 61.285156 78.859375 61.730469 78.410156 62.285156 78.410156 C 62.835938 78.410156 63.285156 78.859375 63.285156 79.410156 Z M 63.285156 79.410156 "/>
<path style=" stroke:none;fill-rule:evenodd;fill:rgb(100%,0%,100%);fill-opacity:1;" d="M 64 78 C 64 78.550781 63.550781 79 63 79 C 62.449219 79 62 78.550781 62 78 C 62 77.449219 62.449219 77 63 77 C 63.550781 77 64 77.449219 64 78 Z M 64 78 "/>
<path style=" stroke:none;fill-rule:evenodd;fill:rgb(100%,0%,100%);fill-opacity:1;" d="M 64.683594 76.609375 C 64.683594 77.160156 64.234375 77.609375 63.683594 77.609375 C 63.132812 77.609375 62.683594 77.160156 62.683594 76.609375 C 62.683594 76.058594 63.132812 75.609375 63.683594 75.609375 C 64.234375 75.609375 64.683594 76.058594 64.683594 76.609375 Z M 64.683594 76.609375 "/>
<path style=" stroke:none;fill-rule:evenodd;fill:rgb(100%,0%,100%);fill-opacity:1;" d="M 65.332031 75.238281 C 65.332031 75.789062 64.886719 76.238281 64.332031 76.238281 C 63.78125 76.238281 63.332031 75.789062 63.332031 75.238281 C 63.332031 74.6875 63.78125 74.238281 64.332031 74.238281 C 64.886719 74.238281 65.332031 74.6875 65.332031 75.238281 Z M 65.332031 75.238281 "/>
<path style=" stroke:none;fill-rule:evenodd;fill:rgb(100%,0%,100%);fill-opacity:1;" d="M 65.945312 73.882812 C 65.945312 74.4375 65.5 74.882812 64.945312 74.882812 C 64.394531 74.882812 63.945312 74.4375 63.945312 73.882812 C 63.945312 73.332031 64.394531 72.882812 64.945312 72.882812 C 65.5 72.882812 65.945312 73.332031 65.945312 73.882812 Z M 65.945312 73.882812 "/>
<path style=" stroke:none;fill-rule:evenodd;fill:rgb(100%,0%,100%);fill-opacity:1;" d="M 66.519531 72.542969 C 66.519531 73.097656 66.074219 73.542969 65.519531 73.542969 C 64.96875 73.542969 64.519531 73.097656 64.519531 72.542969 C 64.519531 71.992188 64.96875 71.542969 65.519531 71.542969 C 66.074219 71.542969 66.519531 71.992188 66.519531 72.542969 Z M 66.519531 72.542969 "/>
<path style=" stroke:none;fill-rule:evenodd;fill:rgb(100%,0%,100%);fill-opacity:1;" d="M 67.054688 71.21875 C 67.054688 71.773438 66.605469 72.21875 66.054688 72.21875 C 65.503906 72.21875 65.054688 71.773438 65.054688 71.21875 C 65.054688 70.667969 65.503906 70.21875 66.054688 70.21875 C 66.605469 70.21875 67.054688 70.667969 67.054688 71.21875 Z M 67.054688 71.21875 "/>
<path style=" stroke:none;fill-rule:evenodd;fill:rgb(100%,0%,100%);fill-opacity:1;" d="M 67.546875 69.90625 C 67.546875 70.460938 67.097656 70.90625 66.546875 70.90625 C 65.992188 70.90625 65.546875 70.460938 65.546875 69.90625 C 65.546875 69.355469 65.992188 68.90625 66.546875 68.90625 C 67.097656 68.90625 67.546875 69.355469 67.546875 69.90625 Z M 67.546875 69.90625 "/>
<path style=" stroke:none;fill-rule:evenodd;fill:rgb(100%,0%,100%);fill-opacity:1;" d="M 67.992188 68.609375 C 67.992188 69.160156 67.542969 69.609375 66.992188 69.609375 C 66.441406 69.609375 65.992188 69.160156 65.992188 68.609375 C 65.992188 68.054688 66.441406 67.609375 66.992188 67.609375 C 67.542969 67.609375 67.992188 68.054688 67.992188 68.609375 Z M 67.992188 68.609375 "/>
<path style=" stroke:none;fill-rule:evenodd;fill:rgb(100%,0%,100%);fill-opacity:1;" d="M 68.390625 67.316406 C 68.390625 67.871094 67.945312 68.316406 67.390625 68.316406 C 66.839844 68.316406 66.390625 67.871094 66.390625 67.316406 C 66.390625 66.765625 66.839844 66.316406 67.390625 66.316406 C 67.945312 66.316406 68.390625 66.765625 68.390625 67.316406 Z M 68.390625 67.316406 "/>
<path style=" stroke:none;fill-rule:evenodd;fill:rgb(100%,0%,100%);fill-opacity:1;" d="M 68.742188 66.035156 C 68.742188 66.585938 68.292969 67.035156 67.742188 67.035156 C 67.1875 67.035156 66.742188 66.585938 66.742188 66.035156 C 66.742188 65.484375 67.1875 65.035156 67.742188 65.035156 C 68.292969 65.035156 68.742188 65.484375 68.742188 66.035156 Z M 68.742188 66.035156 "/>
<path style=" stroke:none;fill-rule:evenodd;fill:rgb(100%,0%,100%);fill-opacity:1;" d="M 69.039062 64.761719 C 69.039062 65.3125 68.59375 65.761719 68.039062 65.761719 C 67.488281 65.761719 67.039062 65.3125 67.039062 64.761719 C 67.039062 64.207031 67.488281 63.761719 68.039062 63.761719 C 68.59375 63.761719 69.039062 64.207031 69.039062 64.761719 Z M 69.039062 64.761719 "/>
<path style=" stroke:none;fill-rule:evenodd;fill:rgb(100%,0%,100%);fill-opacity:1;" d="M 69.285156 63.492188 C 69.285156 64.042969 68.835938 64.492188 68.285156 64.492188 C 67.734375 64.492188 67.285156 64.042969 67.285156 63.492188 C 67.285156 62.9375 67.734375 62.492188 68.285156 62.492188 C 68.835938 62.492188 69.285156 62.9375 69.285156 63.492188 Z M 69.285156 63.492188 "/>
<path style=" stroke:none;fill-rule:evenodd;fill:rgb(100%,0%,100%);fill-opacity:1;" d="M 69.472656 62.226562 C 69.472656 62.777344 69.027344 63.226562 68.472656 63.226562 C 67.921875 63.226562 67.472656 62.777344 67.472656 62.226562 C 67.472656 61.671875 67.921875 61.226562 68.472656 61.226562 C 69.027344 61.226562 69.472656 61.671875 69.472656 62.226562 Z M 69.472656 62.226562 "/>
<path style=" stroke:none;fill-rule:evenodd;fill:rgb(100%,0%,100%);fill-opacity:1;" d="M 69.605469 60.960938 C 69.605469 61.515625 69.15625 61.960938 68.605469 61.960938 C 68.054688 61.960938 67.605469 61.515625 67.605469 60.960938 C 67.605469 60.410156 68.054688 59.960938 68.605469 59.960938 C 69.15625 59.960938 69.605469 60.410156 69.605469 60.960938 Z M 69.605469 60.960938 "/>
<path style=" stroke:none;fill-rule:evenodd;fill:rgb(100%,0%,100%);fill-opacity:1;" d="M 69.675781 59.703125 C 69.675781 60.253906 69.226562 60.703125 68.675781 60.703125 C 68.125 60.703125 67.675781 60.253906 67.675781 59.703125 C 67.675781 59.148438 68.125 58.703125 68.675781 58.703125 C 69.226562 58.703125 69.675781 59.148438 69.675781 59.703125 Z M 69.675781 59.703125 "/>
<path style=" stroke:none;fill-rule:evenodd;fill:rgb(100%,0%,100%);fill-opacity:1;" d="M 69.683594 58.441406 C 69.683594 58.992188 69.238281 59.441406 68.683594 59.441406 C 68.132812 59.441406 67.683594 58.992188 67.683594 58.441406 C 67.683594 57.886719 68.132812 57.441406 68.683594 57.441406 C 69.238281 57.441406 69.683594 57.886719 69.683594 58.441406 Z M 69.683594 58.441406 "/>
<path style=" stroke:none;fill-rule:evenodd;fill:rgb(100%,0%,100%);fill-opacity:1;" d="M 69.628906 57.175781 C 69.628906 57.730469 69.183594 58.175781 68.628906 58.175781 C 68.078125 58.175781 67.628906 57.730469 67.628906 57.175781 C 67.628906 56.625 68.078125 56.175781 68.628906 56.175781 C 69.183594 56.175781 69.628906 56.625 69.628906 57.175781 Z M 69.628906 57.175781 "/>
<path style=" stroke:none;fill-rule:evenodd;fill:rgb(100%,0%,100%);fill-opacity:1;" d="M 69.507812 55.910156 C 69.507812 56.464844 69.058594 56.910156 68.507812 56.910156 C 67.953125 56.910156 67.507812 56.464844 67.507812 55.910156 C 67.507812 55.359375 67.953125 54.910156 68.507812 54.910156 C 69.058594 54.910156 69.507812 55.359375 69.507812 55.910156 Z M 69.507812 55.910156 "/>
<path style=" stroke:none;fill-rule:evenodd;fill:rgb(100%,0%,100%);fill-opacity:1;" d="M 69.316406 54.640625 C 69.316406 55.191406 68.867188 55.640625 68.316406 55.640625 C 67.765625 55.640625 67.316406 55.191406 67.316406 54.640625 C 67.316406 54.089844 67.765625 53.640625 68.316406 53.640625 C 68.867188 53.640625 69.316406 54.089844 69.316406 54.640625 Z M 69.316406 54.640625 "/>
<path style=" stroke:none;fill-rule:evenodd;fill:rgb(100%,0%,100%);fill-opacity:1;" d="M 69.054688 53.363281 C 69.054688 53.917969 68.605469 54.363281 68.054688 54.363281 C 67.503906 54.363281 67.054688 53.917969 67.054688 53.363281 C 67.054688 52.8125 67.503906 52.363281 68.054688 52.363281 C 68.605469 52.363281 69.054688 52.8125 69.054688 53.363281 Z M 69.054688 53.363281 "/>
<path style=" stroke:none;fill-rule:evenodd;fill:rgb(100%,0%,100%);fill-opacity:1;" d="M 68.71875 52.078125 C 68.71875 52.632812 68.273438 53.078125 67.71875 53.078125 C 67.167969 53.078125 66.71875 52.632812 66.71875 52.078125 C 66.71875 51.527344 67.167969 51.078125 67.71875 51.078125 C 68.273438 51.078125 68.71875 51.527344 68.71875 52.078125 Z M 68.71875 52.078125 "/>
<path style=" stroke:none;fill-rule:evenodd;fill:rgb(100%,0%,100%);fill-opacity:1;" d="M 68.308594 50.789062 C 68.308594 51.339844 67.863281 51.789062 67.308594 51.789062 C 66.757812 51.789062 66.308594 51.339844 66.308594 50.789062 C 66.308594 50.234375 66.757812 49.789062 67.308594 49.789062 C 67.863281 49.789062 68.308594 50.234375 68.308594 50.789062 Z M 68.308594 50.789062 "/>
<path style=" stroke:none;fill-rule:evenodd;fill:rgb(100%,0%,100%);fill-opacity:1;" d="M 67.824219 49.484375 C 67.824219 50.035156 67.375 50.484375 66.824219 50.484375 C 66.269531 50.484375 65.824219 50.035156 65.824219 49.484375 C 65.824219 48.933594 66.269531 48.484375 66.824219 48.484375 C 67.375 48.484375 67.824219 48.933594 67.824219 49.484375 Z M 67.824219 49.484375 "/>
<path style=" stroke:none;fill-rule:evenodd;fill:rgb(100%,0%,100%);fill-opacity:1;" d="M 67.257812 48.167969 C 67.257812 48.722656 66.808594 49.167969 66.257812 49.167969 C 65.703125 49.167969 65.257812 48.722656 65.257812 48.167969 C 65.257812 47.617188 65.703125 47.167969 66.257812 47.167969 C 66.808594 47.167969 67.257812 47.617188 67.257812 48.167969 Z M 67.257812 48.167969 "/>
<path style=" stroke:none;fill-rule:evenodd;fill:rgb(100%,0%,100%);fill-opacity:1;" d="M 66.605469 46.84375 C 66.605469 47.394531 66.160156 47.84375 65.605469 47.84375 C 65.054688 47.84375 64.605469 47.394531 64.605469 46.84375 C 64.605469 46.289062 65.054688 45.84375 65.605469 45.84375 C 66.160156 45.84375 66.605469 46.289062 66.605469 46.84375 Z M 66.605469 46.84375 "/>
<path style=" stroke:none;fill-rule:evenodd;fill:rgb(100%,0%,100%);fill-opacity:1;" d="M 65.875 45.5 C 65.875 46.050781 65.425781 46.5 64.875 46.5 C 64.324219 46.5 63.875 46.050781 63.875 45.5 C 63.875 44.949219 64.324219 44.5 64.875 44.5 C 65.425781 44.5 65.875 44.949219 65.875 45.5 Z M 65.875 45.5 "/>
<path style=" stroke:none;fill-rule:evenodd;fill:rgb(100%,0%,100%);fill-opacity:1;" d="M 65.054688 44.140625 C 65.054688 44.695312 64.609375 45.140625 64.054688 45.140625 C 63.503906 45.140625 63.054688 44.695312 63.054688 44.140625 C 63.054688 43.589844 63.503906 43.140625 64.054688 43.140625 C 64.609375 43.140625 65.054688 43.589844 65.054688 44.140625 Z M 65.054688 44.140625 "/>
<path style=" stroke:none;fill-rule:evenodd;fill:rgb(100%,0%,100%);fill-opacity:1;" d="M 64.148438 42.765625 C 64.148438 43.320312 63.703125 43.765625 63.148438 43.765625 C 62.597656 43.765625 62.148438 43.320312 62.148438 42.765625 C 62.148438 42.214844 62.597656 41.765625 63.148438 41.765625 C 63.703125 41.765625 64.148438 42.214844 64.148438 42.765625 Z M 64.148438 42.765625 "/>
<path style=" stroke:none;fill-rule:evenodd;fill:rgb(100%,0%,100%);fill-opacity:1;" d="M 63.152344 41.371094 C 63.152344 41.921875 62.707031 42.371094 62.152344 42.371094 C 61.601562 42.371094 61.152344 41.921875 61.152344 41.371094 C 61.152344 40.820312 61.601562 40.371094 62.152344 40.371094 C 62.707031 40.371094 63.152344 40.820312 63.152344 41.371094 Z M 63.152344 41.371094 "/>
<path style=" stroke:none;fill-rule:evenodd;fill:rgb(100%,0%,100%);fill-opacity:1;" d="M 62.0625 39.957031 C 62.0625 40.507812 61.617188 40.957031 61.0625 40.957031 C 60.511719 40.957031 60.0625 40.507812 60.0625 39.957031 C 60.0625 39.40625 60.511719 38.957031 61.0625 38.957031 C 61.617188 38.957031 62.0625 39.40625 62.0625 39.957031 Z M 62.0625 39.957031 "/>
<path style=" stroke:none;fill-rule:evenodd;fill:rgb(100%,0%,100%);fill-opacity:1;" d="M 60.878906 38.519531 C 60.878906 39.074219 60.433594 39.519531 59.878906 39.519531 C 59.328125 39.519531 58.878906 39.074219 58.878906 38.519531 C 58.878906 37.96875 59.328125 37.519531 59.878906 37.519531 C 60.433594 37.519531 60.878906 37.96875 60.878906 38.519531 Z M 60.878906 38.519531 "/>
<path style=" stroke:none;fill-rule:evenodd;fill:rgb(100%,0%,100%);fill-opacity:1;" d="M 59.597656 37.058594 C 59.597656 37.613281 59.152344 38.058594 58.597656 38.058594 C 58.046875 38.058594 57.597656 37.613281 57.597656 37.058594 C 57.597656 36.507812 58.046875 36.058594 58.597656 36.058594 C 59.152344 36.058594 59.597656 36.507812 59.597656 37.058594 Z M 59.597656 37.058594 "/>
<path style=" stroke:none;fill-rule:evenodd;fill:rgb(100%,0%,100%);fill-opacity:1;" d="M 58.21875 35.574219 C 58.21875 36.128906 57.773438 36.574219 57.21875 36.574219 C 56.667969 36.574219 56.21875 36.128906 56.21875 35.574219 C 56.21875 35.023438 56.667969 34.574219 57.21875 34.574219 C 57.773438 34.574219 58.21875 35.023438 58.21875 35.574219 Z M 58.21875 35.574219 "/>
<path style=" stroke:none;fill-rule:evenodd;fill:rgb(100%,0%,100%);fill-opacity:1;" d="M 56.738281 34.066406 C 56.738281 34.617188 56.289062 35.066406 55.738281 35.066406 C 55.1875 35.066406 54.738281 34.617188 54.738281 34.066406 C 54.738281 33.511719 55.1875 33.066406 55.738281 33.066406 C 56.289062 33.066406 56.738281 33.511719 56.738281 34.066406 Z M 56.738281 34.066406 "/>
<path style=" stroke:none;fill-rule:evenodd;fill:rgb(100%,0%,100%);fill-opacity:1;" d="M 55.15625 32.527344 C 55.15625 33.078125 54.707031 33.527344 54.15625 33.527344 C 53.601562 33.527344 53.15625 33.078125 53.15625 32.527344 C 53.15625 31.976562 53.601562 31.527344 54.15625 31.527344 C 54.707031 31.527344 55.15625 31.976562 55.15625 32.527344 Z M 55.15625 32.527344 "/>
<path style=" stroke:none;fill-rule:evenodd;fill:rgb(100%,0%,100%);fill-opacity:1;" d="M 53.464844 30.960938 C 53.464844 31.511719 53.015625 31.960938 52.464844 31.960938 C 51.914062 31.960938 51.464844 31.511719 51.464844 30.960938 C 51.464844 30.40625 51.914062 29.960938 52.464844 29.960938 C 53.015625 29.960938 53.464844 30.40625 53.464844 30.960938 Z M 53.464844 30.960938 "/>
<path style=" stroke:none;fill-rule:evenodd;fill:rgb(100%,0%,100%);fill-opacity:1;" d="M 51.667969 29.363281 C 51.667969 29.914062 51.21875 30.363281 50.667969 30.363281 C 50.117188 30.363281 49.667969 29.914062 49.667969 29.363281 C 49.667969 28.808594 50.117188 28.363281 50.667969 28.363281 C 51.21875 28.363281 51.667969 28.808594 51.667969 29.363281 Z M 51.667969 29.363281 "/>
<path style=" stroke:none;fill-rule:evenodd;fill:rgb(100%,0%,100%);fill-opacity:1;" d="M 49.761719 27.734375 C 49.761719 28.285156 49.3125 28.734375 48.761719 28.734375 C 48.207031 28.734375 47.761719 28.285156 47.761719 27.734375 C 47.761719 27.179688 48.207031 26.734375 48.761719 26.734375 C 49.3125 26.734375 49.761719 27.179688 49.761719 27.734375 Z M 49.761719 27.734375 "/>
<path style=" stroke:none;fill-rule:evenodd;fill:rgb(100%,0%,100%);fill-opacity:1;" d="M 47.742188 26.070312 C 47.742188 26.621094 47.292969 27.070312 46.742188 27.070312 C 46.191406 27.070312 45.742188 26.621094 45.742188 26.070312 C 45.742188 25.519531 46.191406 25.070312 46.742188 25.070312 C 47.292969 25.070312 47.742188 25.519531 47.742188 26.070312 Z M 47.742188 26.070312 "/>
<path style=" stroke:none;fill-rule:evenodd;fill:rgb(100%,0%,100%);fill-opacity:1;" d="M 45.609375 24.375 C 45.609375 24.925781 45.160156 25.375 44.609375 25.375 C 44.058594 25.375 43.609375 24.925781 43.609375 24.375 C 43.609375 23.820312 44.058594 23.375 44.609375 23.375 C 45.160156 23.375 45.609375 23.820312 45.609375 24.375 Z M 45.609375 24.375 "/>
<path style=" stroke:none;fill-rule:evenodd;fill:rgb(100%,0%,100%);fill-opacity:1;" d="M 43.359375 22.640625 C 43.359375 23.191406 42.914062 23.640625 42.359375 23.640625 C 41.808594 23.640625 41.359375 23.191406 41.359375 22.640625 C 41.359375 22.085938 41.808594 21.640625 42.359375 21.640625 C 42.914062 21.640625 43.359375 22.085938 43.359375 22.640625 Z M 43.359375 22.640625 "/>
<path style=" stroke:none;fill-rule:evenodd;fill:rgb(100%,0%,100%);fill-opacity:1;" d="M 40.992188 20.867188 C 40.992188 21.421875 40.542969 21.867188 39.992188 21.867188 C 39.441406 21.867188 38.992188 21.421875 38.992188 20.867188 C 38.992188 20.316406 39.441406 19.867188 39.992188 19.867188 C 40.542969 19.867188 40.992188 20.316406 40.992188 20.867188 Z M 40.992188 20.867188 "/>
<path style=" stroke:none;fill-rule:evenodd;fill:rgb(100%,0%,100%);fill-opacity:1;" d="M 38.503906 19.058594 C 38.503906 19.609375 38.054688 20.058594 37.503906 20.058594 C 36.953125 20.058594 36.503906 19.609375 36.503906 19.058594 C 36.503906 18.507812 36.953125 18.058594 37.503906 18.058594 C 38.054688 18.058594 38.503906 18.507812 38.503906 19.058594 Z M 38.503906 19.058594 "/>
<path style=" stroke:none;fill-rule:evenodd;fill:rgb(100%,0%,100%);fill-opacity:1;" d="M 35.894531 17.207031 C 35.894531 17.761719 35.445312 18.207031 34.894531 18.207031 C 34.339844 18.207031 33.894531 17.761719 33.894531 17.207031 C 33.894531 16.65625 34.339844 16.207031 34.894531 16.207031 C 35.445312 16.207031 35.894531 16.65625 35.894531 17.207031 Z M 35.894531 17.207031 "/>
<path style=" stroke:none;fill-rule:evenodd;fill:rgb(100%,0%,100%);fill-opacity:1;" d="M 33.15625 15.316406 C 33.15625 15.867188 32.710938 16.316406 32.15625 16.316406 C 31.605469 16.316406 31.15625 15.867188 31.15625 15.316406 C 31.15625 14.761719 31.605469 14.316406 32.15625 14.316406 C 32.710938 14.316406 33.15625 14.761719 33.15625 15.316406 Z M 33.15625 15.316406 "/>
<path style=" stroke:none;fill-rule:evenodd;fill:rgb(100%,0%,100%);fill-opacity:1;" d="M 30.296875 13.378906 C 30.296875 13.933594 29.847656 14.378906 29.296875 14.378906 C 28.742188 14.378906 28.296875 13.933594 28.296875 13.378906 C 28.296875 12.828125 28.742188 12.378906 29.296875 12.378906 C 29.847656 12.378906 30.296875 12.828125 30.296875 13.378906 Z M 30.296875 13.378906 "/>
<path style=" stroke:none;fill-rule:evenodd;fill:rgb(100%,0%,100%);fill-opacity:1;" d="M 27.304688 11.398438 C 27.304688 11.953125 26.855469 12.398438 26.304688 12.398438 C 25.75 12.398438 25.304688 11.953125 25.304688 11.398438 C 25.304688 10.847656 25.75 10.398438 26.304688 10.398438 C 26.855469 10.398438 27.304688 10.847656 27.304688 11.398438 Z M 27.304688 11.398438 "/>
<path style=" stroke:none;fill-rule:evenodd;fill:rgb(100%,0%,100%);fill-opacity:1;" d="M 24.179688 9.371094 C 24.179688 9.925781 23.730469 10.371094 23.179688 10.371094 C 22.628906 10.371094 22.179688 9.925781 22.179688 9.371094 C 22.179688 8.820312 22.628906 8.371094 23.179688 8.371094 C 23.730469 8.371094 24.179688 8.820312 24.179688 9.371094 Z M 24.179688 9.371094 "/>
<path style=" stroke:none;fill-rule:evenodd;fill:rgb(100%,0%,100%);fill-opacity:1;" d="M 20.921875 7.296875 C 20.921875 7.851562 20.476562 8.296875 19.921875 8.296875 C 19.371094 8.296875 18.921875 7.851562 18.921875 7.296875 C 18.921875 6.746094 19.371094 6.296875 19.921875 6.296875 C 20.476562 6.296875 20.921875 6.746094 20.921875 7.296875 Z M 20.921875 7.296875 "/>
<path style=" stroke:none;fill-rule:evenodd;fill:rgb(100%,0%,100%);fill-opacity:1;" d="M 17.53125 5.175781 C 17.53125 5.726562 17.082031 6.175781 16.53125 6.175781 C 15.976562 6.175781 15.53125 5.726562 15.53125 5.175781 C 15.53125 4.621094 15.976562 4.175781 16.53125 4.175781 C 17.082031 4.175781 17.53125 4.621094 17.53125 5.175781 Z M 17.53125 5.175781 "/>
<g clip-path="url(#clip2)" clip-rule="nonzero">
<path style=" stroke:none;fill-rule:evenodd;fill:rgb(100%,0%,100%);fill-opacity:1;" d="M 14 3 C 14 3.550781 13.550781 4 13 4 C 12.449219 4 12 3.550781 12 3 C 12 2.449219 12.449219 2 13 2 C 13.550781 2 14 2.449219 14 3 Z M 14 3 "/>
</g>
</g>
</svg>
