<?xml version="1.0" encoding="UTF-8"?>
<svg xmlns="http://www.w3.org/2000/svg" xmlns:xlink="http://www.w3.org/1999/xlink" width="206" height="206" viewBox="0 0 206 206" version="1.1">
<defs>
<clipPath id="clip1">
  <path d="M 3 3 L 203 3 L 203 203 L 3 203 Z M 3 3 "/>
</clipPath>
<clipPath id="clip2">
  <path d="M 202 99 L 203 99 L 203 102 L 202 102 Z M 202 99 "/>
</clipPath>
</defs>
<g id="surface293">
<path style=" stroke:none;fill-rule:nonzero;fill:rgb(100%,100%,100%);fill-opacity:1;" d="M 3 3 C 3 3 203 3 203 3 C 203 3 203 203 203 203 C 203 203 3 203 3 203 C 3 203 3 3 3 3 Z M 3 3 "/>
<g clip-path="url(#clip1)" clip-rule="nonzero">
<path style="fill:none;stroke-width:2;stroke-linecap:round;stroke-linejoin:round;stroke:rgb(0%,0%,0%);stroke-opacity:1;stroke-miterlimit:10;" d="M 3 3 C 3 3 203 3 203 3 C 203 3 203 203 203 203 C 203 203 3 203 3 203 C 3 203 3 3 3 3 Z M 3 3 "/>
</g>
<path style=" stroke:none;fill-rule:evenodd;fill:rgb(0%,39.215686%,0%);fill-opacity:1;" d="M 6 78.960938 C 6 79.511719 5.550781 79.960938 5 79.960938 C 4.449219 79.960938 4 79.511719 4 78.960938 C 4 78.40625 4.449219 77.960938 5 77.960938 C 5.550781 77.960938 6 78.40625 6 78.960938 Z M 6 78.960938 "/>
<path style=" stroke:none;fill-rule:evenodd;fill:rgb(0%,39.215686%,0%);fill-opacity:1;" d="M 8 84.683594 C 8 85.234375 7.550781 85.683594 7 85.683594 C 6.449219 85.683594 6 85.234375 6 84.683594 C 6 84.128906 6.449219 83.683594 7 83.683594 C 7.550781 83.683594 8 84.128906 8 84.683594 Z M 8 84.683594 "/>
<path style=" stroke:none;fill-rule:evenodd;fill:rgb(0%,39.215686%,0%);fill-opacity:1;" d="M 10 89.9375 C 10 90.492188 9.550781 90.9375 9 90.9375 C 8.449219 90.9375 8 90.492188 8 89.9375 C 8 89.386719 8.449219 88.9375 9 88.9375 C 9.550781 88.9375 10 89.386719 10 89.9375 Z M 10 89.9375 "/>
<path style=" stroke:none;fill-rule:evenodd;fill:rgb(0%,39.215686%,0%);fill-opacity:1;" d="M 12 94.519531 C 12 95.074219 11.550781 95.519531 11 95.519531 C 10.449219 95.519531 10 95.074219 10 94.519531 C 10 93.96875 10.449219 93.519531 11 93.519531 C 11.550781 93.519531 12 93.96875 12 94.519531 Z M 12 94.519531 "/>
<path style=" stroke:none;fill-rule:evenodd;fill:rgb(0%,39.215686%,0%);fill-opacity:1;" d="M 14 98.242188 C 14 98.796875 13.550781 99.242188 13 99.242188 C 12.449219 99.242188 12 98.796875 12 98.242188 C 12 97.691406 12.449219 97.242188 13 97.242188 C 13.550781 97.242188 14 97.691406 14 98.242188 Z M 14 98.242188 "/>
<path style=" stroke:none;fill-rule:evenodd;fill:rgb(0%,39.215686%,0%);fill-opacity:1;" d="M 16 100.960938 C 16 101.511719 15.550781 101.960938 15 101.960938 C 14.449219 101.960938 14 101.511719 14 100.960938 C 14 100.410156 14.449219 99.960938 15 99.960938 C 15.550781 99.960938 16 100.410156 16 100.960938 Z M 16 100.960938 "/>
<path style=" stroke:none;fill-rule:evenodd;fill:rgb(0%,39.215686%,0%);fill-opacity:1;" d="M 18 102.5625 C 18 103.117188 17.550781 103.5625 17 103.5625 C 16.449219 103.5625 16 103.117188 16 102.5625 C 16 102.011719 16.449219 101.5625 17 101.5625 C 17.550781 101.5625 18 102.011719 18 102.5625 Z M 18 102.5625 "/>
<path style=" stroke:none;fill-rule:evenodd;fill:rgb(0%,39.215686%,0%);fill-opacity:1;" d="M 20 102.988281 C 20 103.539062 19.550781 103.988281 19 103.988281 C 18.449219 103.988281 18 103.539062 18 102.988281 C 18 102.433594 18.449219 101.988281 19 101.988281 C 19.550781 101.988281 20 102.433594 20 102.988281 Z M 20 102.988281 "/>
<path style=" stroke:none;fill-rule:evenodd;fill:rgb(0%,39.215686%,0%);fill-opacity:1;" d="M 22 102.214844 C 22 102.769531 21.550781 103.214844 21 103.214844 C 20.449219 103.214844 20 102.769531 20 102.214844 C 20 101.664062 20.449219 101.214844 21 101.214844 C 21.550781 101.214844 22 101.664062 22 102.214844 Z M 22 102.214844 "/>
<path style=" stroke:none;fill-rule:evenodd;fill:rgb(0%,39.215686%,0%);fill-opacity:1;" d="M 24 100.277344 C 24 100.832031 23.550781 101.277344 23 101.277344 C 22.449219 101.277344 22 100.832031 22 100.277344 C 22 99.726562 22.449219 99.277344 23 99.277344 C 23.550781 99.277344 24 99.726562 24 100.277344 Z M 24 100.277344 "/>
<path style=" stroke:none;fill-rule:evenodd;fill:rgb(0%,39.215686%,0%);fill-opacity:1;" d="M 26 97.253906 C 26 97.808594 25.550781 98.253906 25 98.253906 C 24.449219 98.253906 24 97.808594 24 97.253906 C 24 96.703125 24.449219 96.253906 25 96.253906 C 25.550781 96.253906 26 96.703125 26 97.253906 Z M 26 97.253906 "/>
<path style=" stroke:none;fill-rule:evenodd;fill:rgb(0%,39.215686%,0%);fill-opacity:1;" d="M 28 93.265625 C 28 93.816406 27.550781 94.265625 27 94.265625 C 26.449219 94.265625 26 93.816406 26 93.265625 C 26 92.710938 26.449219 92.265625 27 92.265625 C 27.550781 92.265625 28 92.710938 28 93.265625 Z M 28 93.265625 "/>
<path style=" stroke:none;fill-rule:evenodd;fill:rgb(0%,39.215686%,0%);fill-opacity:1;" d="M 30 88.464844 C 30 89.015625 29.550781 89.464844 29 89.464844 C 28.449219 89.464844 28 89.015625 28 88.464844 C 28 87.914062 28.449219 87.464844 29 87.464844 C 29.550781 87.464844 30 87.914062 30 88.464844 Z M 30 88.464844 "/>
<path style=" stroke:none;fill-rule:evenodd;fill:rgb(0%,39.215686%,0%);fill-opacity:1;" d="M 32 83.050781 C 32 83.601562 31.550781 84.050781 31 84.050781 C 30.449219 84.050781 30 83.601562 30 83.050781 C 30 82.496094 30.449219 82.050781 31 82.050781 C 31.550781 82.050781 32 82.496094 32 83.050781 Z M 32 83.050781 "/>
<path style=" stroke:none;fill-rule:evenodd;fill:rgb(0%,39.215686%,0%);fill-opacity:1;" d="M 34 77.234375 C 34 77.785156 33.550781 78.234375 33 78.234375 C 32.449219 78.234375 32 77.785156 32 77.234375 C 32 76.679688 32.449219 76.234375 33 76.234375 C 33.550781 76.234375 34 76.679688 34 77.234375 Z M 34 77.234375 "/>
<path style=" stroke:none;fill-rule:evenodd;fill:rgb(0%,39.215686%,0%);fill-opacity:1;" d="M 36 71.25 C 36 71.800781 35.550781 72.25 35 72.25 C 34.449219 72.25 34 71.800781 34 71.25 C 34 70.695312 34.449219 70.25 35 70.25 C 35.550781 70.25 36 70.695312 36 71.25 Z M 36 71.25 "/>
<path style=" stroke:none;fill-rule:evenodd;fill:rgb(0%,39.215686%,0%);fill-opacity:1;" d="M 38 65.332031 C 38 65.886719 37.550781 66.332031 37 66.332031 C 36.449219 66.332031 36 65.886719 36 65.332031 C 36 64.78125 36.449219 64.332031 37 64.332031 C 37.550781 64.332031 38 64.78125 38 65.332031 Z M 38 65.332031 "/>
<path style=" stroke:none;fill-rule:evenodd;fill:rgb(0%,39.215686%,0%);fill-opacity:1;" d="M 40 59.722656 C 40 60.277344 39.550781 60.722656 39 60.722656 C 38.449219 60.722656 38 60.277344 38 59.722656 C 38 59.171875 38.449219 58.722656 39 58.722656 C 39.550781 58.722656 40 59.171875 40 59.722656 Z M 40 59.722656 "/>
<path style=" stroke:none;fill-rule:evenodd;fill:rgb(0%,39.215686%,0%);fill-opacity:1;" d="M 42 54.644531 C 42 55.195312 41.550781 55.644531 41 55.644531 C 40.449219 55.644531 40 55.195312 40 54.644531 C 40 54.09375 40.449219 53.644531 41 53.644531 C 41.550781 53.644531 42 54.09375 42 54.644531 Z M 42 54.644531 "/>
<path style=" stroke:none;fill-rule:evenodd;fill:rgb(0%,39.215686%,0%);fill-opacity:1;" d="M 44 50.296875 C 44 50.847656 43.550781 51.296875 43 51.296875 C 42.449219 51.296875 42 50.847656 42 50.296875 C 42 49.742188 42.449219 49.296875 43 49.296875 C 43.550781 49.296875 44 49.742188 44 50.296875 Z M 44 50.296875 "/>
<path style=" stroke:none;fill-rule:evenodd;fill:rgb(0%,39.215686%,0%);fill-opacity:1;" d="M 46 46.851562 C 46 47.40625 45.550781 47.851562 45 47.851562 C 44.449219 47.851562 44 47.40625 44 46.851562 C 44 46.300781 44.449219 45.851562 45 45.851562 C 45.550781 45.851562 46 46.300781 46 46.851562 Z M 46 46.851562 "/>
<path style=" stroke:none;fill-rule:evenodd;fill:rgb(0%,39.215686%,0%);fill-opacity:1;" d="M 48 44.453125 C 48 45.003906 47.550781 45.453125 47 45.453125 C 46.449219 45.453125 46 45.003906 46 44.453125 C 46 43.898438 46.449219 43.453125 47 43.453125 C 47.550781 43.453125 48 43.898438 48 44.453125 Z M 48 44.453125 "/>
<path style=" stroke:none;fill-rule:evenodd;fill:rgb(0%,39.215686%,0%);fill-opacity:1;" d="M 50 43.1875 C 50 43.742188 49.550781 44.1875 49 44.1875 C 48.449219 44.1875 48 43.742188 48 43.1875 C 48 42.636719 48.449219 42.1875 49 42.1875 C 49.550781 42.1875 50 42.636719 50 43.1875 Z M 50 43.1875 "/>
<path style=" stroke:none;fill-rule:evenodd;fill:rgb(0%,39.215686%,0%);fill-opacity:1;" d="M 52 43.113281 C 52 43.667969 51.550781 44.113281 51 44.113281 C 50.449219 44.113281 50 43.667969 50 43.113281 C 50 42.5625 50.449219 42.113281 51 42.113281 C 51.550781 42.113281 52 42.5625 52 43.113281 Z M 52 43.113281 "/>
<path style=" stroke:none;fill-rule:evenodd;fill:rgb(0%,39.215686%,0%);fill-opacity:1;" d="M 54 44.230469 C 54 44.785156 53.550781 45.230469 53 45.230469 C 52.449219 45.230469 52 44.785156 52 44.230469 C 52 43.679688 52.449219 43.230469 53 43.230469 C 53.550781 43.230469 54 43.679688 54 44.230469 Z M 54 44.230469 "/>
<path style=" stroke:none;fill-rule:evenodd;fill:rgb(0%,39.215686%,0%);fill-opacity:1;" d="M 56 46.496094 C 56 47.046875 55.550781 47.496094 55 47.496094 C 54.449219 47.496094 54 47.046875 54 46.496094 C 54 45.945312 54.449219 45.496094 55 45.496094 C 55.550781 45.496094 56 45.945312 56 46.496094 Z M 56 46.496094 "/>
<path style=" stroke:none;fill-rule:evenodd;fill:rgb(0%,39.215686%,0%);fill-opacity:1;" d="M 58 49.816406 C 58 50.371094 57.550781 50.816406 57 50.816406 C 56.449219 50.816406 56 50.371094 56 49.816406 C 56 49.265625 56.449219 48.816406 57 48.816406 C 57.550781 48.816406 58 49.265625 58 49.816406 Z M 58 49.816406 "/>
<path style=" stroke:none;fill-rule:evenodd;fill:rgb(0%,39.215686%,0%);fill-opacity:1;" d="M 60 54.0625 C 60 54.613281 59.550781 55.0625 59 55.0625 C 58.449219 55.0625 58 54.613281 58 54.0625 C 58 53.507812 58.449219 53.0625 59 53.0625 C 59.550781 53.0625 60 53.507812 60 54.0625 Z M 60 54.0625 "/>
<path style=" stroke:none;fill-rule:evenodd;fill:rgb(0%,39.215686%,0%);fill-opacity:1;" d="M 62 59.0625 C 62 59.613281 61.550781 60.0625 61 60.0625 C 60.449219 60.0625 60 59.613281 60 59.0625 C 60 58.507812 60.449219 58.0625 61 58.0625 C 61.550781 58.0625 62 58.507812 62 59.0625 Z M 62 59.0625 "/>
<path style=" stroke:none;fill-rule:evenodd;fill:rgb(0%,39.215686%,0%);fill-opacity:1;" d="M 64 64.617188 C 64 65.167969 63.550781 65.617188 63 65.617188 C 62.449219 65.617188 62 65.167969 62 64.617188 C 62 64.066406 62.449219 63.617188 63 63.617188 C 63.550781 63.617188 64 64.066406 64 64.617188 Z M 64 64.617188 "/>
<path style=" stroke:none;fill-rule:evenodd;fill:rgb(0%,39.215686%,0%);fill-opacity:1;" d="M 66 70.507812 C 66 71.058594 65.550781 71.507812 65 71.507812 C 64.449219 71.507812 64 71.058594 64 70.507812 C 64 69.953125 64.449219 69.507812 65 69.507812 C 65.550781 69.507812 66 69.953125 66 70.507812 Z M 66 70.507812 "/>
<path style=" stroke:none;fill-rule:evenodd;fill:rgb(0%,39.215686%,0%);fill-opacity:1;" d="M 68 76.496094 C 68 77.046875 67.550781 77.496094 67 77.496094 C 66.449219 77.496094 66 77.046875 66 76.496094 C 66 75.945312 66.449219 75.496094 67 75.496094 C 67.550781 75.496094 68 75.945312 68 76.496094 Z M 68 76.496094 "/>
<path style=" stroke:none;fill-rule:evenodd;fill:rgb(0%,39.215686%,0%);fill-opacity:1;" d="M 70 82.347656 C 70 82.898438 69.550781 83.347656 69 83.347656 C 68.449219 83.347656 68 82.898438 68 82.347656 C 68 81.792969 68.449219 81.347656 69 81.347656 C 69.550781 81.347656 70 81.792969 70 82.347656 Z M 70 82.347656 "/>
<path style=" stroke:none;fill-rule:evenodd;fill:rgb(0%,39.215686%,0%);fill-opacity:1;" d="M 72 87.824219 C 72 88.375 71.550781 88.824219 71 88.824219 C 70.449219 88.824219 70 88.375 70 87.824219 C 70 87.269531 70.449219 86.824219 71 86.824219 C 71.550781 86.824219 72 87.269531 72 87.824219 Z M 72 87.824219 "/>
<path style=" stroke:none;fill-rule:evenodd;fill:rgb(0%,39.215686%,0%);fill-opacity:1;" d="M 74 92.710938 C 74 93.261719 73.550781 93.710938 73 93.710938 C 72.449219 93.710938 72 93.261719 72 92.710938 C 72 92.15625 72.449219 91.710938 73 91.710938 C 73.550781 91.710938 74 92.15625 74 92.710938 Z M 74 92.710938 "/>
<path style=" stroke:none;fill-rule:evenodd;fill:rgb(0%,39.215686%,0%);fill-opacity:1;" d="M 76 96.808594 C 76 97.363281 75.550781 97.808594 75 97.808594 C 74.449219 97.808594 74 97.363281 74 96.808594 C 74 96.257812 74.449219 95.808594 75 95.808594 C 75.550781 95.808594 76 96.257812 76 96.808594 Z M 76 96.808594 "/>
<path style=" stroke:none;fill-rule:evenodd;fill:rgb(0%,39.215686%,0%);fill-opacity:1;" d="M 78 99.960938 C 78 100.511719 77.550781 100.960938 77 100.960938 C 76.449219 100.960938 76 100.511719 76 99.960938 C 76 99.410156 76.449219 98.960938 77 98.960938 C 77.550781 98.960938 78 99.410156 78 99.960938 Z M 78 99.960938 "/>
<path style=" stroke:none;fill-rule:evenodd;fill:rgb(0%,39.215686%,0%);fill-opacity:1;" d="M 80 102.039062 C 80 102.589844 79.550781 103.039062 79 103.039062 C 78.449219 103.039062 78 102.589844 78 102.039062 C 78 101.484375 78.449219 101.039062 79 101.039062 C 79.550781 101.039062 80 101.484375 80 102.039062 Z M 80 102.039062 "/>
<path style=" stroke:none;fill-rule:evenodd;fill:rgb(0%,39.215686%,0%);fill-opacity:1;" d="M 82 102.957031 C 82 103.507812 81.550781 103.957031 81 103.957031 C 80.449219 103.957031 80 103.507812 80 102.957031 C 80 102.402344 80.449219 101.957031 81 101.957031 C 81.550781 101.957031 82 102.402344 82 102.957031 Z M 82 102.957031 "/>
<path style=" stroke:none;fill-rule:evenodd;fill:rgb(0%,39.215686%,0%);fill-opacity:1;" d="M 84 102.679688 C 84 103.234375 83.550781 103.679688 83 103.679688 C 82.449219 103.679688 82 103.234375 82 102.679688 C 82 102.128906 82.449219 101.679688 83 101.679688 C 83.550781 101.679688 84 102.128906 84 102.679688 Z M 84 102.679688 "/>
<path style=" stroke:none;fill-rule:evenodd;fill:rgb(0%,39.215686%,0%);fill-opacity:1;" d="M 86 101.222656 C 86 101.773438 85.550781 102.222656 85 102.222656 C 84.449219 102.222656 84 101.773438 84 101.222656 C 84 100.667969 84.449219 100.222656 85 100.222656 C 85.550781 100.222656 86 100.667969 86 101.222656 Z M 86 101.222656 "/>
<path style=" stroke:none;fill-rule:evenodd;fill:rgb(0%,39.215686%,0%);fill-opacity:1;" d="M 88 98.636719 C 88 99.191406 87.550781 99.636719 87 99.636719 C 86.449219 99.636719 86 99.191406 86 98.636719 C 86 98.085938 86.449219 97.636719 87 97.636719 C 87.550781 97.636719 88 98.085938 88 98.636719 Z M 88 98.636719 "/>
<path style=" stroke:none;fill-rule:evenodd;fill:rgb(0%,39.215686%,0%);fill-opacity:1;" d="M 90 95.03125 C 90 95.585938 89.550781 96.03125 89 96.03125 C 88.449219 96.03125 88 95.585938 88 95.03125 C 88 94.480469 88.449219 94.03125 89 94.03125 C 89.550781 94.03125 90 94.480469 90 95.03125 Z M 90 95.03125 "/>
<path style=" stroke:none;fill-rule:evenodd;fill:rgb(0%,39.215686%,0%);fill-opacity:1;" d="M 92 90.546875 C 92 91.101562 91.550781 91.546875 91 91.546875 C 90.449219 91.546875 90 91.101562 90 90.546875 C 90 89.996094 90.449219 89.546875 91 89.546875 C 91.550781 89.546875 92 89.996094 92 90.546875 Z M 92 90.546875 "/>
<path style=" stroke:none;fill-rule:evenodd;fill:rgb(0%,39.215686%,0%);fill-opacity:1;" d="M 94 85.363281 C 94 85.914062 93.550781 86.363281 93 86.363281 C 92.449219 86.363281 92 85.914062 92 85.363281 C 92 84.8125 92.449219 84.363281 93 84.363281 C 93.550781 84.363281 94 84.8125 94 85.363281 Z M 94 85.363281 "/>
<path style=" stroke:none;fill-rule:evenodd;fill:rgb(0%,39.215686%,0%);fill-opacity:1;" d="M 96 79.6875 C 96 80.238281 95.550781 80.6875 95 80.6875 C 94.449219 80.6875 94 80.238281 94 79.6875 C 94 79.132812 94.449219 78.6875 95 78.6875 C 95.550781 78.6875 96 79.132812 96 79.6875 Z M 96 79.6875 "/>
<path style=" stroke:none;fill-rule:evenodd;fill:rgb(0%,39.215686%,0%);fill-opacity:1;" d="M 98 73.742188 C 98 74.296875 97.550781 74.742188 97 74.742188 C 96.449219 74.742188 96 74.296875 96 73.742188 C 96 73.191406 96.449219 72.742188 97 72.742188 C 97.550781 72.742188 98 73.191406 98 73.742188 Z M 98 73.742188 "/>
<path style=" stroke:none;fill-rule:evenodd;fill:rgb(0%,39.215686%,0%);fill-opacity:1;" d="M 100 67.769531 C 100 68.324219 99.550781 68.769531 99 68.769531 C 98.449219 68.769531 98 68.324219 98 67.769531 C 98 67.21875 98.449219 66.769531 99 66.769531 C 99.550781 66.769531 100 67.21875 100 67.769531 Z M 100 67.769531 "/>
<path style=" stroke:none;fill-rule:evenodd;fill:rgb(0%,39.215686%,0%);fill-opacity:1;" d="M 102 62.003906 C 102 62.558594 101.550781 63.003906 101 63.003906 C 100.449219 63.003906 100 62.558594 100 62.003906 C 100 61.453125 100.449219 61.003906 101 61.003906 C 101.550781 61.003906 102 61.453125 102 62.003906 Z M 102 62.003906 "/>
<path style=" stroke:none;fill-rule:evenodd;fill:rgb(0%,39.215686%,0%);fill-opacity:1;" d="M 104 56.679688 C 104 57.230469 103.550781 57.679688 103 57.679688 C 102.449219 57.679688 102 57.230469 102 56.679688 C 102 56.128906 102.449219 55.679688 103 55.679688 C 103.550781 55.679688 104 56.128906 104 56.679688 Z M 104 56.679688 "/>
<path style=" stroke:none;fill-rule:evenodd;fill:rgb(0%,39.215686%,0%);fill-opacity:1;" d="M 106 52.003906 C 106 52.554688 105.550781 53.003906 105 53.003906 C 104.449219 53.003906 104 52.554688 104 52.003906 C 104 51.453125 104.449219 51.003906 105 51.003906 C 105.550781 51.003906 106 51.453125 106 52.003906 Z M 106 52.003906 "/>
<path style=" stroke:none;fill-rule:evenodd;fill:rgb(0%,39.215686%,0%);fill-opacity:1;" d="M 108 48.164062 C 108 48.71875 107.550781 49.164062 107 49.164062 C 106.449219 49.164062 106 48.71875 106 48.164062 C 106 47.613281 106.449219 47.164062 107 47.164062 C 107.550781 47.164062 108 47.613281 108 48.164062 Z M 108 48.164062 "/>
<path style=" stroke:none;fill-rule:evenodd;fill:rgb(0%,39.215686%,0%);fill-opacity:1;" d="M 110 45.316406 C 110 45.867188 109.550781 46.316406 109 46.316406 C 108.449219 46.316406 108 45.867188 108 45.316406 C 108 44.765625 108.449219 44.316406 109 44.316406 C 109.550781 44.316406 110 44.765625 110 45.316406 Z M 110 45.316406 "/>
<path style=" stroke:none;fill-rule:evenodd;fill:rgb(0%,39.215686%,0%);fill-opacity:1;" d="M 112 43.570312 C 112 44.125 111.550781 44.570312 111 44.570312 C 110.449219 44.570312 110 44.125 110 43.570312 C 110 43.019531 110.449219 42.570312 111 42.570312 C 111.550781 42.570312 112 43.019531 112 43.570312 Z M 112 43.570312 "/>
<path style=" stroke:none;fill-rule:evenodd;fill:rgb(0%,39.215686%,0%);fill-opacity:1;" d="M 114 43 C 114 43.550781 113.550781 44 113 44 C 112.449219 44 112 43.550781 112 43 C 112 42.449219 112.449219 42 113 42 C 113.550781 42 114 42.449219 114 43 Z M 114 43 "/>
<path style=" stroke:none;fill-rule:evenodd;fill:rgb(0%,39.215686%,0%);fill-opacity:1;" d="M 116 43.625 C 116 44.175781 115.550781 44.625 115 44.625 C 114.449219 44.625 114 44.175781 114 43.625 C 114 43.074219 114.449219 42.625 115 42.625 C 115.550781 42.625 116 43.074219 116 43.625 Z M 116 43.625 "/>
<path style=" stroke:none;fill-rule:evenodd;fill:rgb(0%,39.215686%,0%);fill-opacity:1;" d="M 118 45.421875 C 118 45.972656 117.550781 46.421875 117 46.421875 C 116.449219 46.421875 116 45.972656 116 45.421875 C 116 44.867188 116.449219 44.421875 117 44.421875 C 117.550781 44.421875 118 44.867188 118 45.421875 Z M 118 45.421875 "/>
<path style=" stroke:none;fill-rule:evenodd;fill:rgb(0%,39.215686%,0%);fill-opacity:1;" d="M 120 48.316406 C 120 48.867188 119.550781 49.316406 119 49.316406 C 118.449219 49.316406 118 48.867188 118 48.316406 C 118 47.761719 118.449219 47.316406 119 47.316406 C 119.550781 47.316406 120 47.761719 120 48.316406 Z M 120 48.316406 "/>
<path style=" stroke:none;fill-rule:evenodd;fill:rgb(0%,39.215686%,0%);fill-opacity:1;" d="M 122 52.195312 C 122 52.746094 121.550781 53.195312 121 53.195312 C 120.449219 53.195312 120 52.746094 120 52.195312 C 120 51.640625 120.449219 51.195312 121 51.195312 C 121.550781 51.195312 122 51.640625 122 52.195312 Z M 122 52.195312 "/>
<path style=" stroke:none;fill-rule:evenodd;fill:rgb(0%,39.215686%,0%);fill-opacity:1;" d="M 124 56.902344 C 124 57.457031 123.550781 57.902344 123 57.902344 C 122.449219 57.902344 122 57.457031 122 56.902344 C 122 56.351562 122.449219 55.902344 123 55.902344 C 123.550781 55.902344 124 56.351562 124 56.902344 Z M 124 56.902344 "/>
<path style=" stroke:none;fill-rule:evenodd;fill:rgb(0%,39.215686%,0%);fill-opacity:1;" d="M 126 62.253906 C 126 62.804688 125.550781 63.253906 125 63.253906 C 124.449219 63.253906 124 62.804688 124 62.253906 C 124 61.699219 124.449219 61.253906 125 61.253906 C 125.550781 61.253906 126 61.699219 126 62.253906 Z M 126 62.253906 "/>
<path style=" stroke:none;fill-rule:evenodd;fill:rgb(0%,39.215686%,0%);fill-opacity:1;" d="M 128 68.03125 C 128 68.585938 127.550781 69.03125 127 69.03125 C 126.449219 69.03125 126 68.585938 126 68.03125 C 126 67.480469 126.449219 67.03125 127 67.03125 C 127.550781 67.03125 128 67.480469 128 68.03125 Z M 128 68.03125 "/>
<path style=" stroke:none;fill-rule:evenodd;fill:rgb(0%,39.215686%,0%);fill-opacity:1;" d="M 130 74.007812 C 130 74.5625 129.550781 75.007812 129 75.007812 C 128.449219 75.007812 128 74.5625 128 74.007812 C 128 73.457031 128.449219 73.007812 129 73.007812 C 129.550781 73.007812 130 73.457031 130 74.007812 Z M 130 74.007812 "/>
<path style=" stroke:none;fill-rule:evenodd;fill:rgb(0%,39.215686%,0%);fill-opacity:1;" d="M 132 79.945312 C 132 80.496094 131.550781 80.945312 131 80.945312 C 130.449219 80.945312 130 80.496094 130 79.945312 C 130 79.394531 130.449219 78.945312 131 78.945312 C 131.550781 78.945312 132 79.394531 132 79.945312 Z M 132 79.945312 "/>
<path style=" stroke:none;fill-rule:evenodd;fill:rgb(0%,39.215686%,0%);fill-opacity:1;" d="M 134 85.605469 C 134 86.15625 133.550781 86.605469 133 86.605469 C 132.449219 86.605469 132 86.15625 132 85.605469 C 132 85.050781 132.449219 84.605469 133 84.605469 C 133.550781 84.605469 134 85.050781 134 85.605469 Z M 134 85.605469 "/>
<path style=" stroke:none;fill-rule:evenodd;fill:rgb(0%,39.215686%,0%);fill-opacity:1;" d="M 136 90.761719 C 136 91.316406 135.550781 91.761719 135 91.761719 C 134.449219 91.761719 134 91.316406 134 90.761719 C 134 90.210938 134.449219 89.761719 135 89.761719 C 135.550781 89.761719 136 90.210938 136 90.761719 Z M 136 90.761719 "/>
<path style=" stroke:none;fill-rule:evenodd;fill:rgb(0%,39.215686%,0%);fill-opacity:1;" d="M 138 95.210938 C 138 95.761719 137.550781 96.210938 137 96.210938 C 136.449219 96.210938 136 95.761719 136 95.210938 C 136 94.660156 136.449219 94.210938 137 94.210938 C 137.550781 94.210938 138 94.660156 138 95.210938 Z M 138 95.210938 "/>
<path style=" stroke:none;fill-rule:evenodd;fill:rgb(0%,39.215686%,0%);fill-opacity:1;" d="M 140 98.773438 C 140 99.328125 139.550781 99.773438 139 99.773438 C 138.449219 99.773438 138 99.328125 138 98.773438 C 138 98.222656 138.449219 97.773438 139 97.773438 C 139.550781 97.773438 140 98.222656 140 98.773438 Z M 140 98.773438 "/>
<path style=" stroke:none;fill-rule:evenodd;fill:rgb(0%,39.215686%,0%);fill-opacity:1;" d="M 142 101.3125 C 142 101.863281 141.550781 102.3125 141 102.3125 C 140.449219 102.3125 140 101.863281 140 101.3125 C 140 100.757812 140.449219 100.3125 141 100.3125 C 141.550781 100.3125 142 100.757812 142 101.3125 Z M 142 101.3125 "/>
<path style=" stroke:none;fill-rule:evenodd;fill:rgb(0%,39.215686%,0%);fill-opacity:1;" d="M 144 102.71875 C 144 103.269531 143.550781 103.71875 143 103.71875 C 142.449219 103.71875 142 103.269531 142 102.71875 C 142 102.164062 142.449219 101.71875 143 101.71875 C 143.550781 101.71875 144 102.164062 144 102.71875 Z M 144 102.71875 "/>
<path style=" stroke:none;fill-rule:evenodd;fill:rgb(0%,39.215686%,0%);fill-opacity:1;" d="M 146 102.941406 C 146 103.492188 145.550781 103.941406 145 103.941406 C 144.449219 103.941406 144 103.492188 144 102.941406 C 144 102.386719 144.449219 101.941406 145 101.941406 C 145.550781 101.941406 146 102.386719 146 102.941406 Z M 146 102.941406 "/>
<path style=" stroke:none;fill-rule:evenodd;fill:rgb(0%,39.215686%,0%);fill-opacity:1;" d="M 148 101.96875 C 148 102.523438 147.550781 102.96875 147 102.96875 C 146.449219 102.96875 146 102.523438 146 101.96875 C 146 101.417969 146.449219 100.96875 147 100.96875 C 147.550781 100.96875 148 101.417969 148 101.96875 Z M 148 101.96875 "/>
<path style=" stroke:none;fill-rule:evenodd;fill:rgb(0%,39.215686%,0%);fill-opacity:1;" d="M 150 99.84375 C 150 100.394531 149.550781 100.84375 149 100.84375 C 148.449219 100.84375 148 100.394531 148 99.84375 C 148 99.292969 148.449219 98.84375 149 98.84375 C 149.550781 98.84375 150 99.292969 150 99.84375 Z M 150 99.84375 "/>
<path style=" stroke:none;fill-rule:evenodd;fill:rgb(0%,39.215686%,0%);fill-opacity:1;" d="M 152 96.648438 C 152 97.199219 151.550781 97.648438 151 97.648438 C 150.449219 97.648438 150 97.199219 150 96.648438 C 150 96.09375 150.449219 95.648438 151 95.648438 C 151.550781 95.648438 152 96.09375 152 96.648438 Z M 152 96.648438 "/>
<path style=" stroke:none;fill-rule:evenodd;fill:rgb(0%,39.215686%,0%);fill-opacity:1;" d="M 154 92.507812 C 154 93.0625 153.550781 93.507812 153 93.507812 C 152.449219 93.507812 152 93.0625 152 92.507812 C 152 91.957031 152.449219 91.507812 153 91.507812 C 153.550781 91.507812 154 91.957031 154 92.507812 Z M 154 92.507812 "/>
<path style=" stroke:none;fill-rule:evenodd;fill:rgb(0%,39.215686%,0%);fill-opacity:1;" d="M 156 87.59375 C 156 88.144531 155.550781 88.59375 155 88.59375 C 154.449219 88.59375 154 88.144531 154 87.59375 C 154 87.039062 154.449219 86.59375 155 86.59375 C 155.550781 86.59375 156 87.039062 156 87.59375 Z M 156 87.59375 "/>
<path style=" stroke:none;fill-rule:evenodd;fill:rgb(0%,39.215686%,0%);fill-opacity:1;" d="M 158 82.09375 C 158 82.644531 157.550781 83.09375 157 83.09375 C 156.449219 83.09375 156 82.644531 156 82.09375 C 156 81.542969 156.449219 81.09375 157 81.09375 C 157.550781 81.09375 158 81.542969 158 82.09375 Z M 158 82.09375 "/>
<path style=" stroke:none;fill-rule:evenodd;fill:rgb(0%,39.215686%,0%);fill-opacity:1;" d="M 160 76.234375 C 160 76.785156 159.550781 77.234375 159 77.234375 C 158.449219 77.234375 158 76.785156 158 76.234375 C 158 75.679688 158.449219 75.234375 159 75.234375 C 159.550781 75.234375 160 75.679688 160 76.234375 Z M 160 76.234375 "/>
<path style=" stroke:none;fill-rule:evenodd;fill:rgb(0%,39.215686%,0%);fill-opacity:1;" d="M 162 70.242188 C 162 70.796875 161.550781 71.242188 161 71.242188 C 160.449219 71.242188 160 70.796875 160 70.242188 C 160 69.691406 160.449219 69.242188 161 69.242188 C 161.550781 69.242188 162 69.691406 162 70.242188 Z M 162 70.242188 "/>
<path style=" stroke:none;fill-rule:evenodd;fill:rgb(0%,39.215686%,0%);fill-opacity:1;" d="M 164 64.363281 C 164 64.914062 163.550781 65.363281 163 65.363281 C 162.449219 65.363281 162 64.914062 162 64.363281 C 162 63.8125 162.449219 63.363281 163 63.363281 C 163.550781 63.363281 164 63.8125 164 64.363281 Z M 164 64.363281 "/>
<path style=" stroke:none;fill-rule:evenodd;fill:rgb(0%,39.215686%,0%);fill-opacity:1;" d="M 166 58.828125 C 166 59.378906 165.550781 59.828125 165 59.828125 C 164.449219 59.828125 164 59.378906 164 58.828125 C 164 58.273438 164.449219 57.828125 165 57.828125 C 165.550781 57.828125 166 58.273438 166 58.828125 Z M 166 58.828125 "/>
<path style=" stroke:none;fill-rule:evenodd;fill:rgb(0%,39.215686%,0%);fill-opacity:1;" d="M 168 53.855469 C 168 54.410156 167.550781 54.855469 167 54.855469 C 166.449219 54.855469 166 54.410156 166 53.855469 C 166 53.304688 166.449219 52.855469 167 52.855469 C 167.550781 52.855469 168 53.304688 168 53.855469 Z M 168 53.855469 "/>
<path style=" stroke:none;fill-rule:evenodd;fill:rgb(0%,39.215686%,0%);fill-opacity:1;" d="M 170 49.648438 C 170 50.203125 169.550781 50.648438 169 50.648438 C 168.449219 50.648438 168 50.203125 168 49.648438 C 168 49.097656 168.449219 48.648438 169 48.648438 C 169.550781 48.648438 170 49.097656 170 49.648438 Z M 170 49.648438 "/>
<path style=" stroke:none;fill-rule:evenodd;fill:rgb(0%,39.215686%,0%);fill-opacity:1;" d="M 172 46.371094 C 172 46.925781 171.550781 47.371094 171 47.371094 C 170.449219 47.371094 170 46.925781 170 46.371094 C 170 45.820312 170.449219 45.371094 171 45.371094 C 171.550781 45.371094 172 45.820312 172 46.371094 Z M 172 46.371094 "/>
<path style=" stroke:none;fill-rule:evenodd;fill:rgb(0%,39.215686%,0%);fill-opacity:1;" d="M 174 44.15625 C 174 44.710938 173.550781 45.15625 173 45.15625 C 172.449219 45.15625 172 44.710938 172 44.15625 C 172 43.605469 172.449219 43.15625 173 43.15625 C 173.550781 43.15625 174 43.605469 174 44.15625 Z M 174 44.15625 "/>
<path style=" stroke:none;fill-rule:evenodd;fill:rgb(0%,39.215686%,0%);fill-opacity:1;" d="M 176 43.09375 C 176 43.644531 175.550781 44.09375 175 44.09375 C 174.449219 44.09375 174 43.644531 174 43.09375 C 174 42.539062 174.449219 42.09375 175 42.09375 C 175.550781 42.09375 176 42.539062 176 43.09375 Z M 176 43.09375 "/>
<path style=" stroke:none;fill-rule:evenodd;fill:rgb(0%,39.215686%,0%);fill-opacity:1;" d="M 178 43.21875 C 178 43.773438 177.550781 44.21875 177 44.21875 C 176.449219 44.21875 176 43.773438 176 43.21875 C 176 42.667969 176.449219 42.21875 177 42.21875 C 177.550781 42.21875 178 42.667969 178 43.21875 Z M 178 43.21875 "/>
<path style=" stroke:none;fill-rule:evenodd;fill:rgb(0%,39.215686%,0%);fill-opacity:1;" d="M 180 44.535156 C 180 45.085938 179.550781 45.535156 179 45.535156 C 178.449219 45.535156 178 45.085938 178 44.535156 C 178 43.980469 178.449219 43.535156 179 43.535156 C 179.550781 43.535156 180 43.980469 180 44.535156 Z M 180 44.535156 "/>
<path style=" stroke:none;fill-rule:evenodd;fill:rgb(0%,39.215686%,0%);fill-opacity:1;" d="M 182 46.984375 C 182 47.535156 181.550781 47.984375 181 47.984375 C 180.449219 47.984375 180 47.535156 180 46.984375 C 180 46.433594 180.449219 45.984375 181 45.984375 C 181.550781 45.984375 182 46.433594 182 46.984375 Z M 182 46.984375 "/>
<path style=" stroke:none;fill-rule:evenodd;fill:rgb(0%,39.215686%,0%);fill-opacity:1;" d="M 184 50.46875 C 184 51.023438 183.550781 51.46875 183 51.46875 C 182.449219 51.46875 182 51.023438 182 50.46875 C 182 49.917969 182.449219 49.46875 183 49.46875 C 183.550781 49.46875 184 49.917969 184 50.46875 Z M 184 50.46875 "/>
<path style=" stroke:none;fill-rule:evenodd;fill:rgb(0%,39.215686%,0%);fill-opacity:1;" d="M 186 54.855469 C 186 55.40625 185.550781 55.855469 185 55.855469 C 184.449219 55.855469 184 55.40625 184 54.855469 C 184 54.300781 184.449219 53.855469 185 53.855469 C 185.550781 53.855469 186 54.300781 186 54.855469 Z M 186 54.855469 "/>
<path style=" stroke:none;fill-rule:evenodd;fill:rgb(0%,39.215686%,0%);fill-opacity:1;" d="M 188 59.964844 C 188 60.515625 187.550781 60.964844 187 60.964844 C 186.449219 60.964844 186 60.515625 186 59.964844 C 186 59.410156 186.449219 58.964844 187 58.964844 C 187.550781 58.964844 188 59.410156 188 59.964844 Z M 188 59.964844 "/>
<path style=" stroke:none;fill-rule:evenodd;fill:rgb(0%,39.215686%,0%);fill-opacity:1;" d="M 190 65.589844 C 190 66.144531 189.550781 66.589844 189 66.589844 C 188.449219 66.589844 188 66.144531 188 65.589844 C 188 65.039062 188.449219 64.589844 189 64.589844 C 189.550781 64.589844 190 65.039062 190 65.589844 Z M 190 65.589844 "/>
<path style=" stroke:none;fill-rule:evenodd;fill:rgb(0%,39.215686%,0%);fill-opacity:1;" d="M 192 71.515625 C 192 72.066406 191.550781 72.515625 191 72.515625 C 190.449219 72.515625 190 72.066406 190 71.515625 C 190 70.960938 190.449219 70.515625 191 70.515625 C 191.550781 70.515625 192 70.960938 192 71.515625 Z M 192 71.515625 "/>
<path style=" stroke:none;fill-rule:evenodd;fill:rgb(0%,39.215686%,0%);fill-opacity:1;" d="M 194 77.496094 C 194 78.046875 193.550781 78.496094 193 78.496094 C 192.449219 78.496094 192 78.046875 192 77.496094 C 192 76.945312 192.449219 76.496094 193 76.496094 C 193.550781 76.496094 194 76.945312 194 77.496094 Z M 194 77.496094 "/>
<path style=" stroke:none;fill-rule:evenodd;fill:rgb(0%,39.215686%,0%);fill-opacity:1;" d="M 196 83.300781 C 196 83.851562 195.550781 84.300781 195 84.300781 C 194.449219 84.300781 194 83.851562 194 83.300781 C 194 82.746094 194.449219 82.300781 195 82.300781 C 195.550781 82.300781 196 82.746094 196 83.300781 Z M 196 83.300781 "/>
<path style=" stroke:none;fill-rule:evenodd;fill:rgb(0%,39.215686%,0%);fill-opacity:1;" d="M 198 88.691406 C 198 89.246094 197.550781 89.691406 197 89.691406 C 196.449219 89.691406 196 89.246094 196 88.691406 C 196 88.140625 196.449219 87.691406 197 87.691406 C 197.550781 87.691406 198 88.140625 198 88.691406 Z M 198 88.691406 "/>
<path style=" stroke:none;fill-rule:evenodd;fill:rgb(0%,39.215686%,0%);fill-opacity:1;" d="M 200 93.457031 C 200 94.011719 199.550781 94.457031 199 94.457031 C 198.449219 94.457031 198 94.011719 198 93.457031 C 198 92.90625 198.449219 92.457031 199 92.457031 C 199.550781 92.457031 200 92.90625 200 93.457031 Z M 200 93.457031 "/>
<path style=" stroke:none;fill-rule:evenodd;fill:rgb(0%,39.215686%,0%);fill-opacity:1;" d="M 202 97.410156 C 202 97.960938 201.550781 98.410156 201 98.410156 C 200.449219 98.410156 200 97.960938 200 97.410156 C 200 96.859375 200.449219 96.410156 201 96.410156 C 201.550781 96.410156 202 96.859375 202 97.410156 Z M 202 97.410156 "/>
<g clip-path="url(#clip2)" clip-rule="nonzero">
<path style=" stroke:none;fill-rule:evenodd;fill:rgb(0%,39.215686%,0%);fill-opacity:1;" d="M 204 100.386719 C 204 100.941406 203.550781 101.386719 203 101.386719 C 202.449219 101.386719 202 100.941406 202 100.386719 C 202 99.835938 202.449219 99.386719 203 99.386719 C 203.550781 99.386719 204 99.835938 204 100.386719 Z M 204 100.386719 "/>
</g>
</g>
</svg>
