<?xml version="1.0" encoding="UTF-8"?>
<svg xmlns="http://www.w3.org/2000/svg" xmlns:xlink="http://www.w3.org/1999/xlink" width="206" height="206" viewBox="0 0 206 206" version="1.1">
<defs>
<clipPath id="clip1">
  <path d="M 3 3 L 203 3 L 203 203 L 3 203 Z M 3 3 "/>
</clipPath>
</defs>
<g id="surface305">
<path style=" stroke:none;fill-rule:nonzero;fill:rgb(100%,100%,100%);fill-opacity:1;" d="M 3 3 C 3 3 203 3 203 3 C 203 3 203 203 203 203 C 203 203 3 203 3 203 C 3 203 3 3 3 3 Z M 3 3 "/>
<g clip-path="url(#clip1)" clip-rule="nonzero">
<path style="fill:none;stroke-width:2;stroke-linecap:round;stroke-linejoin:round;stroke:rgb(0%,0%,0%);stroke-opacity:1;stroke-miterlimit:10;" d="M 3 3 C 3 3 203 3 203 3 C 203 3 203 203 203 203 C 203 203 3 203 3 203 C 3 203 3 3 3 3 Z M 3 3 "/>
</g>
<path style=" stroke:none;fill-rule:evenodd;fill:rgb(0%,0%,100%);fill-opacity:1;" d="M 25.601562 92.199219 C 25.601562 92.753906 25.152344 93.199219 24.601562 93.199219 C 24.046875 93.199219 23.601562 92.753906 23.601562 92.199219 C 23.601562 91.648438 24.046875 91.199219 24.601562 91.199219 C 25.152344 91.199219 25.601562 91.648438 25.601562 92.199219 Z M 25.601562 92.199219 "/>
<path style=" stroke:none;fill-rule:evenodd;fill:rgb(0%,0%,100%);fill-opacity:1;" d="M 27.199219 91.398438 C 27.199219 91.953125 26.753906 92.398438 26.199219 92.398438 C 25.648438 92.398438 25.199219 91.953125 25.199219 91.398438 C 25.199219 90.847656 25.648438 90.398438 26.199219 90.398438 C 26.753906 90.398438 27.199219 90.847656 27.199219 91.398438 Z M 27.199219 91.398438 "/>
<path style=" stroke:none;fill-rule:evenodd;fill:rgb(0%,0%,100%);fill-opacity:1;" d="M 28.800781 90.601562 C 28.800781 91.152344 28.351562 91.601562 27.800781 91.601562 C 27.246094 91.601562 26.800781 91.152344 26.800781 90.601562 C 26.800781 90.046875 27.246094 89.601562 27.800781 89.601562 C 28.351562 89.601562 28.800781 90.046875 28.800781 90.601562 Z M 28.800781 90.601562 "/>
<path style=" stroke:none;fill-rule:evenodd;fill:rgb(0%,0%,100%);fill-opacity:1;" d="M 30.398438 89.800781 C 30.398438 90.351562 29.953125 90.800781 29.398438 90.800781 C 28.847656 90.800781 28.398438 90.351562 28.398438 89.800781 C 28.398438 89.246094 28.847656 88.800781 29.398438 88.800781 C 29.953125 88.800781 30.398438 89.246094 30.398438 89.800781 Z M 30.398438 89.800781 "/>
<path style=" stroke:none;fill-rule:evenodd;fill:rgb(0%,0%,100%);fill-opacity:1;" d="M 32 89 C 32 89.550781 31.550781 90 31 90 C 30.449219 90 30 89.550781 30 89 C 30 88.449219 30.449219 88 31 88 C 31.550781 88 32 88.449219 32 89 Z M 32 89 "/>
<path style=" stroke:none;fill-rule:evenodd;fill:rgb(0%,0%,100%);fill-opacity:1;" d="M 33.601562 88.199219 C 33.601562 88.753906 33.152344 89.199219 32.601562 89.199219 C 32.046875 89.199219 31.601562 88.753906 31.601562 88.199219 C 31.601562 87.648438 32.046875 87.199219 32.601562 87.199219 C 33.152344 87.199219 33.601562 87.648438 33.601562 88.199219 Z M 33.601562 88.199219 "/>
<path style=" stroke:none;fill-rule:evenodd;fill:rgb(0%,0%,100%);fill-opacity:1;" d="M 35.199219 87.398438 C 35.199219 87.953125 34.753906 88.398438 34.199219 88.398438 C 33.648438 88.398438 33.199219 87.953125 33.199219 87.398438 C 33.199219 86.847656 33.648438 86.398438 34.199219 86.398438 C 34.753906 86.398438 35.199219 86.847656 35.199219 87.398438 Z M 35.199219 87.398438 "/>
<path style=" stroke:none;fill-rule:evenodd;fill:rgb(0%,0%,100%);fill-opacity:1;" d="M 36.800781 86.601562 C 36.800781 87.152344 36.351562 87.601562 35.800781 87.601562 C 35.246094 87.601562 34.800781 87.152344 34.800781 86.601562 C 34.800781 86.046875 35.246094 85.601562 35.800781 85.601562 C 36.351562 85.601562 36.800781 86.046875 36.800781 86.601562 Z M 36.800781 86.601562 "/>
<path style=" stroke:none;fill-rule:evenodd;fill:rgb(0%,0%,100%);fill-opacity:1;" d="M 38.398438 85.800781 C 38.398438 86.351562 37.953125 86.800781 37.398438 86.800781 C 36.847656 86.800781 36.398438 86.351562 36.398438 85.800781 C 36.398438 85.246094 36.847656 84.800781 37.398438 84.800781 C 37.953125 84.800781 38.398438 85.246094 38.398438 85.800781 Z M 38.398438 85.800781 "/>
<path style=" stroke:none;fill-rule:evenodd;fill:rgb(0%,0%,100%);fill-opacity:1;" d="M 40 85 C 40 85.550781 39.550781 86 39 86 C 38.449219 86 38 85.550781 38 85 C 38 84.449219 38.449219 84 39 84 C 39.550781 84 40 84.449219 40 85 Z M 40 85 "/>
<path style=" stroke:none;fill-rule:evenodd;fill:rgb(0%,0%,100%);fill-opacity:1;" d="M 41.601562 84.199219 C 41.601562 84.753906 41.152344 85.199219 40.601562 85.199219 C 40.046875 85.199219 39.601562 84.753906 39.601562 84.199219 C 39.601562 83.648438 40.046875 83.199219 40.601562 83.199219 C 41.152344 83.199219 41.601562 83.648438 41.601562 84.199219 Z M 41.601562 84.199219 "/>
<path style=" stroke:none;fill-rule:evenodd;fill:rgb(0%,0%,100%);fill-opacity:1;" d="M 43.199219 83.398438 C 43.199219 83.953125 42.753906 84.398438 42.199219 84.398438 C 41.648438 84.398438 41.199219 83.953125 41.199219 83.398438 C 41.199219 82.847656 41.648438 82.398438 42.199219 82.398438 C 42.753906 82.398438 43.199219 82.847656 43.199219 83.398438 Z M 43.199219 83.398438 "/>
<path style=" stroke:none;fill-rule:evenodd;fill:rgb(0%,0%,100%);fill-opacity:1;" d="M 44.800781 82.601562 C 44.800781 83.152344 44.351562 83.601562 43.800781 83.601562 C 43.246094 83.601562 42.800781 83.152344 42.800781 82.601562 C 42.800781 82.046875 43.246094 81.601562 43.800781 81.601562 C 44.351562 81.601562 44.800781 82.046875 44.800781 82.601562 Z M 44.800781 82.601562 "/>
<path style=" stroke:none;fill-rule:evenodd;fill:rgb(0%,0%,100%);fill-opacity:1;" d="M 46.398438 81.800781 C 46.398438 82.351562 45.953125 82.800781 45.398438 82.800781 C 44.847656 82.800781 44.398438 82.351562 44.398438 81.800781 C 44.398438 81.246094 44.847656 80.800781 45.398438 80.800781 C 45.953125 80.800781 46.398438 81.246094 46.398438 81.800781 Z M 46.398438 81.800781 "/>
<path style=" stroke:none;fill-rule:evenodd;fill:rgb(0%,0%,100%);fill-opacity:1;" d="M 48 81 C 48 81.550781 47.550781 82 47 82 C 46.449219 82 46 81.550781 46 81 C 46 80.449219 46.449219 80 47 80 C 47.550781 80 48 80.449219 48 81 Z M 48 81 "/>
<path style=" stroke:none;fill-rule:evenodd;fill:rgb(0%,0%,100%);fill-opacity:1;" d="M 49.601562 80.199219 C 49.601562 80.753906 49.152344 81.199219 48.601562 81.199219 C 48.046875 81.199219 47.601562 80.753906 47.601562 80.199219 C 47.601562 79.648438 48.046875 79.199219 48.601562 79.199219 C 49.152344 79.199219 49.601562 79.648438 49.601562 80.199219 Z M 49.601562 80.199219 "/>
<path style=" stroke:none;fill-rule:evenodd;fill:rgb(0%,0%,100%);fill-opacity:1;" d="M 51.199219 79.398438 C 51.199219 79.953125 50.753906 80.398438 50.199219 80.398438 C 49.648438 80.398438 49.199219 79.953125 49.199219 79.398438 C 49.199219 78.847656 49.648438 78.398438 50.199219 78.398438 C 50.753906 78.398438 51.199219 78.847656 51.199219 79.398438 Z M 51.199219 79.398438 "/>
<path style=" stroke:none;fill-rule:evenodd;fill:rgb(0%,0%,100%);fill-opacity:1;" d="M 52.800781 78.601562 C 52.800781 79.152344 52.351562 79.601562 51.800781 79.601562 C 51.246094 79.601562 50.800781 79.152344 50.800781 78.601562 C 50.800781 78.046875 51.246094 77.601562 51.800781 77.601562 C 52.351562 77.601562 52.800781 78.046875 52.800781 78.601562 Z M 52.800781 78.601562 "/>
<path style=" stroke:none;fill-rule:evenodd;fill:rgb(0%,0%,100%);fill-opacity:1;" d="M 54.398438 77.800781 C 54.398438 78.351562 53.953125 78.800781 53.398438 78.800781 C 52.847656 78.800781 52.398438 78.351562 52.398438 77.800781 C 52.398438 77.246094 52.847656 76.800781 53.398438 76.800781 C 53.953125 76.800781 54.398438 77.246094 54.398438 77.800781 Z M 54.398438 77.800781 "/>
<path style=" stroke:none;fill-rule:evenodd;fill:rgb(0%,0%,100%);fill-opacity:1;" d="M 56 77 C 56 77.550781 55.550781 78 55 78 C 54.449219 78 54 77.550781 54 77 C 54 76.449219 54.449219 76 55 76 C 55.550781 76 56 76.449219 56 77 Z M 56 77 "/>
<path style=" stroke:none;fill-rule:evenodd;fill:rgb(0%,0%,100%);fill-opacity:1;" d="M 57.601562 76.199219 C 57.601562 76.753906 57.152344 77.199219 56.601562 77.199219 C 56.046875 77.199219 55.601562 76.753906 55.601562 76.199219 C 55.601562 75.648438 56.046875 75.199219 56.601562 75.199219 C 57.152344 75.199219 57.601562 75.648438 57.601562 76.199219 Z M 57.601562 76.199219 "/>
<path style=" stroke:none;fill-rule:evenodd;fill:rgb(0%,0%,100%);fill-opacity:1;" d="M 59.199219 75.398438 C 59.199219 75.953125 58.753906 76.398438 58.199219 76.398438 C 57.648438 76.398438 57.199219 75.953125 57.199219 75.398438 C 57.199219 74.847656 57.648438 74.398438 58.199219 74.398438 C 58.753906 74.398438 59.199219 74.847656 59.199219 75.398438 Z M 59.199219 75.398438 "/>
<path style=" stroke:none;fill-rule:evenodd;fill:rgb(0%,0%,100%);fill-opacity:1;" d="M 60.800781 74.601562 C 60.800781 75.152344 60.351562 75.601562 59.800781 75.601562 C 59.246094 75.601562 58.800781 75.152344 58.800781 74.601562 C 58.800781 74.046875 59.246094 73.601562 59.800781 73.601562 C 60.351562 73.601562 60.800781 74.046875 60.800781 74.601562 Z M 60.800781 74.601562 "/>
<path style=" stroke:none;fill-rule:evenodd;fill:rgb(0%,0%,100%);fill-opacity:1;" d="M 62.398438 73.800781 C 62.398438 74.351562 61.953125 74.800781 61.398438 74.800781 C 60.847656 74.800781 60.398438 74.351562 60.398438 73.800781 C 60.398438 73.246094 60.847656 72.800781 61.398438 72.800781 C 61.953125 72.800781 62.398438 73.246094 62.398438 73.800781 Z M 62.398438 73.800781 "/>
<path style=" stroke:none;fill-rule:evenodd;fill:rgb(0%,0%,100%);fill-opacity:1;" d="M 64 73 C 64 73.550781 63.550781 74 63 74 C 62.449219 74 62 73.550781 62 73 C 62 72.449219 62.449219 72 63 72 C 63.550781 72 64 72.449219 64 73 Z M 64 73 "/>
<path style=" stroke:none;fill-rule:evenodd;fill:rgb(0%,0%,100%);fill-opacity:1;" d="M 65.601562 72.199219 C 65.601562 72.753906 65.152344 73.199219 64.601562 73.199219 C 64.046875 73.199219 63.601562 72.753906 63.601562 72.199219 C 63.601562 71.648438 64.046875 71.199219 64.601562 71.199219 C 65.152344 71.199219 65.601562 71.648438 65.601562 72.199219 Z M 65.601562 72.199219 "/>
<path style=" stroke:none;fill-rule:evenodd;fill:rgb(0%,0%,100%);fill-opacity:1;" d="M 67.199219 71.398438 C 67.199219 71.953125 66.753906 72.398438 66.199219 72.398438 C 65.648438 72.398438 65.199219 71.953125 65.199219 71.398438 C 65.199219 70.847656 65.648438 70.398438 66.199219 70.398438 C 66.753906 70.398438 67.199219 70.847656 67.199219 71.398438 Z M 67.199219 71.398438 "/>
<path style=" stroke:none;fill-rule:evenodd;fill:rgb(0%,0%,100%);fill-opacity:1;" d="M 68.800781 70.601562 C 68.800781 71.152344 68.351562 71.601562 67.800781 71.601562 C 67.246094 71.601562 66.800781 71.152344 66.800781 70.601562 C 66.800781 70.046875 67.246094 69.601562 67.800781 69.601562 C 68.351562 69.601562 68.800781 70.046875 68.800781 70.601562 Z M 68.800781 70.601562 "/>
<path style=" stroke:none;fill-rule:evenodd;fill:rgb(0%,0%,100%);fill-opacity:1;" d="M 70.398438 69.800781 C 70.398438 70.351562 69.953125 70.800781 69.398438 70.800781 C 68.847656 70.800781 68.398438 70.351562 68.398438 69.800781 C 68.398438 69.246094 68.847656 68.800781 69.398438 68.800781 C 69.953125 68.800781 70.398438 69.246094 70.398438 69.800781 Z M 70.398438 69.800781 "/>
<path style=" stroke:none;fill-rule:evenodd;fill:rgb(0%,0%,100%);fill-opacity:1;" d="M 72 69 C 72 69.550781 71.550781 70 71 70 C 70.449219 70 70 69.550781 70 69 C 70 68.449219 70.449219 68 71 68 C 71.550781 68 72 68.449219 72 69 Z M 72 69 "/>
<path style=" stroke:none;fill-rule:evenodd;fill:rgb(0%,0%,100%);fill-opacity:1;" d="M 73.601562 68.199219 C 73.601562 68.753906 73.152344 69.199219 72.601562 69.199219 C 72.046875 69.199219 71.601562 68.753906 71.601562 68.199219 C 71.601562 67.648438 72.046875 67.199219 72.601562 67.199219 C 73.152344 67.199219 73.601562 67.648438 73.601562 68.199219 Z M 73.601562 68.199219 "/>
<path style=" stroke:none;fill-rule:evenodd;fill:rgb(0%,0%,100%);fill-opacity:1;" d="M 75.199219 67.398438 C 75.199219 67.953125 74.753906 68.398438 74.199219 68.398438 C 73.648438 68.398438 73.199219 67.953125 73.199219 67.398438 C 73.199219 66.847656 73.648438 66.398438 74.199219 66.398438 C 74.753906 66.398438 75.199219 66.847656 75.199219 67.398438 Z M 75.199219 67.398438 "/>
<path style=" stroke:none;fill-rule:evenodd;fill:rgb(0%,0%,100%);fill-opacity:1;" d="M 76.800781 66.601562 C 76.800781 67.152344 76.351562 67.601562 75.800781 67.601562 C 75.246094 67.601562 74.800781 67.152344 74.800781 66.601562 C 74.800781 66.046875 75.246094 65.601562 75.800781 65.601562 C 76.351562 65.601562 76.800781 66.046875 76.800781 66.601562 Z M 76.800781 66.601562 "/>
<path style=" stroke:none;fill-rule:evenodd;fill:rgb(0%,0%,100%);fill-opacity:1;" d="M 78.398438 65.800781 C 78.398438 66.351562 77.953125 66.800781 77.398438 66.800781 C 76.847656 66.800781 76.398438 66.351562 76.398438 65.800781 C 76.398438 65.246094 76.847656 64.800781 77.398438 64.800781 C 77.953125 64.800781 78.398438 65.246094 78.398438 65.800781 Z M 78.398438 65.800781 "/>
<path style=" stroke:none;fill-rule:evenodd;fill:rgb(0%,0%,100%);fill-opacity:1;" d="M 80 65 C 80 65.550781 79.550781 66 79 66 C 78.449219 66 78 65.550781 78 65 C 78 64.449219 78.449219 64 79 64 C 79.550781 64 80 64.449219 80 65 Z M 80 65 "/>
<path style=" stroke:none;fill-rule:evenodd;fill:rgb(0%,0%,100%);fill-opacity:1;" d="M 81.601562 64.199219 C 81.601562 64.753906 81.152344 65.199219 80.601562 65.199219 C 80.046875 65.199219 79.601562 64.753906 79.601562 64.199219 C 79.601562 63.648438 80.046875 63.199219 80.601562 63.199219 C 81.152344 63.199219 81.601562 63.648438 81.601562 64.199219 Z M 81.601562 64.199219 "/>
<path style=" stroke:none;fill-rule:evenodd;fill:rgb(0%,0%,100%);fill-opacity:1;" d="M 83.199219 63.398438 C 83.199219 63.953125 82.753906 64.398438 82.199219 64.398438 C 81.648438 64.398438 81.199219 63.953125 81.199219 63.398438 C 81.199219 62.847656 81.648438 62.398438 82.199219 62.398438 C 82.753906 62.398438 83.199219 62.847656 83.199219 63.398438 Z M 83.199219 63.398438 "/>
<path style=" stroke:none;fill-rule:evenodd;fill:rgb(0%,0%,100%);fill-opacity:1;" d="M 84.800781 62.601562 C 84.800781 63.152344 84.351562 63.601562 83.800781 63.601562 C 83.246094 63.601562 82.800781 63.152344 82.800781 62.601562 C 82.800781 62.046875 83.246094 61.601562 83.800781 61.601562 C 84.351562 61.601562 84.800781 62.046875 84.800781 62.601562 Z M 84.800781 62.601562 "/>
<path style=" stroke:none;fill-rule:evenodd;fill:rgb(0%,0%,100%);fill-opacity:1;" d="M 86.398438 61.800781 C 86.398438 62.351562 85.953125 62.800781 85.398438 62.800781 C 84.847656 62.800781 84.398438 62.351562 84.398438 61.800781 C 84.398438 61.246094 84.847656 60.800781 85.398438 60.800781 C 85.953125 60.800781 86.398438 61.246094 86.398438 61.800781 Z M 86.398438 61.800781 "/>
<path style=" stroke:none;fill-rule:evenodd;fill:rgb(0%,0%,100%);fill-opacity:1;" d="M 88 61 C 88 61.550781 87.550781 62 87 62 C 86.449219 62 86 61.550781 86 61 C 86 60.449219 86.449219 60 87 60 C 87.550781 60 88 60.449219 88 61 Z M 88 61 "/>
<path style=" stroke:none;fill-rule:evenodd;fill:rgb(0%,0%,100%);fill-opacity:1;" d="M 89.601562 60.199219 C 89.601562 60.753906 89.152344 61.199219 88.601562 61.199219 C 88.046875 61.199219 87.601562 60.753906 87.601562 60.199219 C 87.601562 59.648438 88.046875 59.199219 88.601562 59.199219 C 89.152344 59.199219 89.601562 59.648438 89.601562 60.199219 Z M 89.601562 60.199219 "/>
<path style=" stroke:none;fill-rule:evenodd;fill:rgb(0%,0%,100%);fill-opacity:1;" d="M 91.199219 59.398438 C 91.199219 59.953125 90.753906 60.398438 90.199219 60.398438 C 89.648438 60.398438 89.199219 59.953125 89.199219 59.398438 C 89.199219 58.847656 89.648438 58.398438 90.199219 58.398438 C 90.753906 58.398438 91.199219 58.847656 91.199219 59.398438 Z M 91.199219 59.398438 "/>
<path style=" stroke:none;fill-rule:evenodd;fill:rgb(0%,0%,100%);fill-opacity:1;" d="M 92.800781 58.601562 C 92.800781 59.152344 92.351562 59.601562 91.800781 59.601562 C 91.246094 59.601562 90.800781 59.152344 90.800781 58.601562 C 90.800781 58.046875 91.246094 57.601562 91.800781 57.601562 C 92.351562 57.601562 92.800781 58.046875 92.800781 58.601562 Z M 92.800781 58.601562 "/>
<path style=" stroke:none;fill-rule:evenodd;fill:rgb(0%,0%,100%);fill-opacity:1;" d="M 94.398438 57.800781 C 94.398438 58.351562 93.953125 58.800781 93.398438 58.800781 C 92.847656 58.800781 92.398438 58.351562 92.398438 57.800781 C 92.398438 57.246094 92.847656 56.800781 93.398438 56.800781 C 93.953125 56.800781 94.398438 57.246094 94.398438 57.800781 Z M 94.398438 57.800781 "/>
<path style=" stroke:none;fill-rule:evenodd;fill:rgb(0%,0%,100%);fill-opacity:1;" d="M 96 57 C 96 57.550781 95.550781 58 95 58 C 94.449219 58 94 57.550781 94 57 C 94 56.449219 94.449219 56 95 56 C 95.550781 56 96 56.449219 96 57 Z M 96 57 "/>
<path style=" stroke:none;fill-rule:evenodd;fill:rgb(0%,0%,100%);fill-opacity:1;" d="M 97.601562 56.199219 C 97.601562 56.753906 97.152344 57.199219 96.601562 57.199219 C 96.046875 57.199219 95.601562 56.753906 95.601562 56.199219 C 95.601562 55.648438 96.046875 55.199219 96.601562 55.199219 C 97.152344 55.199219 97.601562 55.648438 97.601562 56.199219 Z M 97.601562 56.199219 "/>
<path style=" stroke:none;fill-rule:evenodd;fill:rgb(0%,0%,100%);fill-opacity:1;" d="M 99.199219 55.398438 C 99.199219 55.953125 98.753906 56.398438 98.199219 56.398438 C 97.648438 56.398438 97.199219 55.953125 97.199219 55.398438 C 97.199219 54.847656 97.648438 54.398438 98.199219 54.398438 C 98.753906 54.398438 99.199219 54.847656 99.199219 55.398438 Z M 99.199219 55.398438 "/>
<path style=" stroke:none;fill-rule:evenodd;fill:rgb(0%,0%,100%);fill-opacity:1;" d="M 100.800781 54.601562 C 100.800781 55.152344 100.351562 55.601562 99.800781 55.601562 C 99.246094 55.601562 98.800781 55.152344 98.800781 54.601562 C 98.800781 54.046875 99.246094 53.601562 99.800781 53.601562 C 100.351562 53.601562 100.800781 54.046875 100.800781 54.601562 Z M 100.800781 54.601562 "/>
<path style=" stroke:none;fill-rule:evenodd;fill:rgb(0%,0%,100%);fill-opacity:1;" d="M 102.398438 53.800781 C 102.398438 54.351562 101.953125 54.800781 101.398438 54.800781 C 100.847656 54.800781 100.398438 54.351562 100.398438 53.800781 C 100.398438 53.246094 100.847656 52.800781 101.398438 52.800781 C 101.953125 52.800781 102.398438 53.246094 102.398438 53.800781 Z M 102.398438 53.800781 "/>
<path style=" stroke:none;fill-rule:evenodd;fill:rgb(0%,0%,100%);fill-opacity:1;" d="M 104 53 C 104 53.550781 103.550781 54 103 54 C 102.449219 54 102 53.550781 102 53 C 102 52.449219 102.449219 52 103 52 C 103.550781 52 104 52.449219 104 53 Z M 104 53 "/>
<path style=" stroke:none;fill-rule:evenodd;fill:rgb(0%,0%,100%);fill-opacity:1;" d="M 105.601562 52.199219 C 105.601562 52.753906 105.152344 53.199219 104.601562 53.199219 C 104.046875 53.199219 103.601562 52.753906 103.601562 52.199219 C 103.601562 51.648438 104.046875 51.199219 104.601562 51.199219 C 105.152344 51.199219 105.601562 51.648438 105.601562 52.199219 Z M 105.601562 52.199219 "/>
<path style=" stroke:none;fill-rule:evenodd;fill:rgb(0%,0%,100%);fill-opacity:1;" d="M 107.199219 51.398438 C 107.199219 51.953125 106.753906 52.398438 106.199219 52.398438 C 105.648438 52.398438 105.199219 51.953125 105.199219 51.398438 C 105.199219 50.847656 105.648438 50.398438 106.199219 50.398438 C 106.753906 50.398438 107.199219 50.847656 107.199219 51.398438 Z M 107.199219 51.398438 "/>
<path style=" stroke:none;fill-rule:evenodd;fill:rgb(0%,0%,100%);fill-opacity:1;" d="M 108.800781 50.601562 C 108.800781 51.152344 108.351562 51.601562 107.800781 51.601562 C 107.246094 51.601562 106.800781 51.152344 106.800781 50.601562 C 106.800781 50.046875 107.246094 49.601562 107.800781 49.601562 C 108.351562 49.601562 108.800781 50.046875 108.800781 50.601562 Z M 108.800781 50.601562 "/>
<path style=" stroke:none;fill-rule:evenodd;fill:rgb(0%,0%,100%);fill-opacity:1;" d="M 110.398438 49.800781 C 110.398438 50.351562 109.953125 50.800781 109.398438 50.800781 C 108.847656 50.800781 108.398438 50.351562 108.398438 49.800781 C 108.398438 49.246094 108.847656 48.800781 109.398438 48.800781 C 109.953125 48.800781 110.398438 49.246094 110.398438 49.800781 Z M 110.398438 49.800781 "/>
<path style=" stroke:none;fill-rule:evenodd;fill:rgb(0%,0%,100%);fill-opacity:1;" d="M 112 49 C 112 49.550781 111.550781 50 111 50 C 110.449219 50 110 49.550781 110 49 C 110 48.449219 110.449219 48 111 48 C 111.550781 48 112 48.449219 112 49 Z M 112 49 "/>
<path style=" stroke:none;fill-rule:evenodd;fill:rgb(0%,0%,100%);fill-opacity:1;" d="M 113.601562 48.199219 C 113.601562 48.753906 113.152344 49.199219 112.601562 49.199219 C 112.046875 49.199219 111.601562 48.753906 111.601562 48.199219 C 111.601562 47.648438 112.046875 47.199219 112.601562 47.199219 C 113.152344 47.199219 113.601562 47.648438 113.601562 48.199219 Z M 113.601562 48.199219 "/>
<path style=" stroke:none;fill-rule:evenodd;fill:rgb(0%,0%,100%);fill-opacity:1;" d="M 115.199219 47.398438 C 115.199219 47.953125 114.753906 48.398438 114.199219 48.398438 C 113.648438 48.398438 113.199219 47.953125 113.199219 47.398438 C 113.199219 46.847656 113.648438 46.398438 114.199219 46.398438 C 114.753906 46.398438 115.199219 46.847656 115.199219 47.398438 Z M 115.199219 47.398438 "/>
<path style=" stroke:none;fill-rule:evenodd;fill:rgb(0%,0%,100%);fill-opacity:1;" d="M 116.800781 46.601562 C 116.800781 47.152344 116.351562 47.601562 115.800781 47.601562 C 115.246094 47.601562 114.800781 47.152344 114.800781 46.601562 C 114.800781 46.046875 115.246094 45.601562 115.800781 45.601562 C 116.351562 45.601562 116.800781 46.046875 116.800781 46.601562 Z M 116.800781 46.601562 "/>
<path style=" stroke:none;fill-rule:evenodd;fill:rgb(0%,0%,100%);fill-opacity:1;" d="M 118.398438 45.800781 C 118.398438 46.351562 117.953125 46.800781 117.398438 46.800781 C 116.847656 46.800781 116.398438 46.351562 116.398438 45.800781 C 116.398438 45.246094 116.847656 44.800781 117.398438 44.800781 C 117.953125 44.800781 118.398438 45.246094 118.398438 45.800781 Z M 118.398438 45.800781 "/>
<path style=" stroke:none;fill-rule:evenodd;fill:rgb(0%,0%,100%);fill-opacity:1;" d="M 120 45 C 120 45.550781 119.550781 46 119 46 C 118.449219 46 118 45.550781 118 45 C 118 44.449219 118.449219 44 119 44 C 119.550781 44 120 44.449219 120 45 Z M 120 45 "/>
<path style=" stroke:none;fill-rule:evenodd;fill:rgb(0%,0%,100%);fill-opacity:1;" d="M 121.601562 44.199219 C 121.601562 44.753906 121.152344 45.199219 120.601562 45.199219 C 120.046875 45.199219 119.601562 44.753906 119.601562 44.199219 C 119.601562 43.648438 120.046875 43.199219 120.601562 43.199219 C 121.152344 43.199219 121.601562 43.648438 121.601562 44.199219 Z M 121.601562 44.199219 "/>
<path style=" stroke:none;fill-rule:evenodd;fill:rgb(0%,0%,100%);fill-opacity:1;" d="M 123.199219 43.398438 C 123.199219 43.953125 122.753906 44.398438 122.199219 44.398438 C 121.648438 44.398438 121.199219 43.953125 121.199219 43.398438 C 121.199219 42.847656 121.648438 42.398438 122.199219 42.398438 C 122.753906 42.398438 123.199219 42.847656 123.199219 43.398438 Z M 123.199219 43.398438 "/>
<path style=" stroke:none;fill-rule:evenodd;fill:rgb(0%,0%,100%);fill-opacity:1;" d="M 124.800781 42.601562 C 124.800781 43.152344 124.351562 43.601562 123.800781 43.601562 C 123.246094 43.601562 122.800781 43.152344 122.800781 42.601562 C 122.800781 42.046875 123.246094 41.601562 123.800781 41.601562 C 124.351562 41.601562 124.800781 42.046875 124.800781 42.601562 Z M 124.800781 42.601562 "/>
<path style=" stroke:none;fill-rule:evenodd;fill:rgb(0%,0%,100%);fill-opacity:1;" d="M 126.398438 41.800781 C 126.398438 42.351562 125.953125 42.800781 125.398438 42.800781 C 124.847656 42.800781 124.398438 42.351562 124.398438 41.800781 C 124.398438 41.246094 124.847656 40.800781 125.398438 40.800781 C 125.953125 40.800781 126.398438 41.246094 126.398438 41.800781 Z M 126.398438 41.800781 "/>
<path style=" stroke:none;fill-rule:evenodd;fill:rgb(0%,0%,100%);fill-opacity:1;" d="M 128 41 C 128 41.550781 127.550781 42 127 42 C 126.449219 42 126 41.550781 126 41 C 126 40.449219 126.449219 40 127 40 C 127.550781 40 128 40.449219 128 41 Z M 128 41 "/>
<path style=" stroke:none;fill-rule:evenodd;fill:rgb(0%,0%,100%);fill-opacity:1;" d="M 129.601562 40.199219 C 129.601562 40.753906 129.152344 41.199219 128.601562 41.199219 C 128.046875 41.199219 127.601562 40.753906 127.601562 40.199219 C 127.601562 39.648438 128.046875 39.199219 128.601562 39.199219 C 129.152344 39.199219 129.601562 39.648438 129.601562 40.199219 Z M 129.601562 40.199219 "/>
<path style=" stroke:none;fill-rule:evenodd;fill:rgb(0%,0%,100%);fill-opacity:1;" d="M 131.199219 39.398438 C 131.199219 39.953125 130.753906 40.398438 130.199219 40.398438 C 129.648438 40.398438 129.199219 39.953125 129.199219 39.398438 C 129.199219 38.847656 129.648438 38.398438 130.199219 38.398438 C 130.753906 38.398438 131.199219 38.847656 131.199219 39.398438 Z M 131.199219 39.398438 "/>
<path style=" stroke:none;fill-rule:evenodd;fill:rgb(0%,0%,100%);fill-opacity:1;" d="M 132.800781 38.601562 C 132.800781 39.152344 132.351562 39.601562 131.800781 39.601562 C 131.246094 39.601562 130.800781 39.152344 130.800781 38.601562 C 130.800781 38.046875 131.246094 37.601562 131.800781 37.601562 C 132.351562 37.601562 132.800781 38.046875 132.800781 38.601562 Z M 132.800781 38.601562 "/>
<path style=" stroke:none;fill-rule:evenodd;fill:rgb(0%,0%,100%);fill-opacity:1;" d="M 134.398438 37.800781 C 134.398438 38.351562 133.953125 38.800781 133.398438 38.800781 C 132.847656 38.800781 132.398438 38.351562 132.398438 37.800781 C 132.398438 37.246094 132.847656 36.800781 133.398438 36.800781 C 133.953125 36.800781 134.398438 37.246094 134.398438 37.800781 Z M 134.398438 37.800781 "/>
<path style=" stroke:none;fill-rule:evenodd;fill:rgb(0%,0%,100%);fill-opacity:1;" d="M 136 37 C 136 37.550781 135.550781 38 135 38 C 134.449219 38 134 37.550781 134 37 C 134 36.449219 134.449219 36 135 36 C 135.550781 36 136 36.449219 136 37 Z M 136 37 "/>
<path style=" stroke:none;fill-rule:evenodd;fill:rgb(0%,0%,100%);fill-opacity:1;" d="M 137.601562 36.199219 C 137.601562 36.753906 137.152344 37.199219 136.601562 37.199219 C 136.046875 37.199219 135.601562 36.753906 135.601562 36.199219 C 135.601562 35.648438 136.046875 35.199219 136.601562 35.199219 C 137.152344 35.199219 137.601562 35.648438 137.601562 36.199219 Z M 137.601562 36.199219 "/>
<path style=" stroke:none;fill-rule:evenodd;fill:rgb(0%,0%,100%);fill-opacity:1;" d="M 139.199219 35.398438 C 139.199219 35.953125 138.753906 36.398438 138.199219 36.398438 C 137.648438 36.398438 137.199219 35.953125 137.199219 35.398438 C 137.199219 34.847656 137.648438 34.398438 138.199219 34.398438 C 138.753906 34.398438 139.199219 34.847656 139.199219 35.398438 Z M 139.199219 35.398438 "/>
<path style=" stroke:none;fill-rule:evenodd;fill:rgb(0%,0%,100%);fill-opacity:1;" d="M 140.800781 34.601562 C 140.800781 35.152344 140.351562 35.601562 139.800781 35.601562 C 139.246094 35.601562 138.800781 35.152344 138.800781 34.601562 C 138.800781 34.046875 139.246094 33.601562 139.800781 33.601562 C 140.351562 33.601562 140.800781 34.046875 140.800781 34.601562 Z M 140.800781 34.601562 "/>
<path style=" stroke:none;fill-rule:evenodd;fill:rgb(0%,0%,100%);fill-opacity:1;" d="M 142.398438 33.800781 C 142.398438 34.351562 141.953125 34.800781 141.398438 34.800781 C 140.847656 34.800781 140.398438 34.351562 140.398438 33.800781 C 140.398438 33.246094 140.847656 32.800781 141.398438 32.800781 C 141.953125 32.800781 142.398438 33.246094 142.398438 33.800781 Z M 142.398438 33.800781 "/>
<path style=" stroke:none;fill-rule:evenodd;fill:rgb(0%,0%,100%);fill-opacity:1;" d="M 144 33 C 144 33.550781 143.550781 34 143 34 C 142.449219 34 142 33.550781 142 33 C 142 32.449219 142.449219 32 143 32 C 143.550781 32 144 32.449219 144 33 Z M 144 33 "/>
<path style=" stroke:none;fill-rule:evenodd;fill:rgb(0%,0%,100%);fill-opacity:1;" d="M 145.601562 32.199219 C 145.601562 32.753906 145.152344 33.199219 144.601562 33.199219 C 144.046875 33.199219 143.601562 32.753906 143.601562 32.199219 C 143.601562 31.648438 144.046875 31.199219 144.601562 31.199219 C 145.152344 31.199219 145.601562 31.648438 145.601562 32.199219 Z M 145.601562 32.199219 "/>
<path style=" stroke:none;fill-rule:evenodd;fill:rgb(0%,0%,100%);fill-opacity:1;" d="M 147.199219 31.398438 C 147.199219 31.953125 146.753906 32.398438 146.199219 32.398438 C 145.648438 32.398438 145.199219 31.953125 145.199219 31.398438 C 145.199219 30.847656 145.648438 30.398438 146.199219 30.398438 C 146.753906 30.398438 147.199219 30.847656 147.199219 31.398438 Z M 147.199219 31.398438 "/>
<path style=" stroke:none;fill-rule:evenodd;fill:rgb(0%,0%,100%);fill-opacity:1;" d="M 148.800781 30.601562 C 148.800781 31.152344 148.351562 31.601562 147.800781 31.601562 C 147.246094 31.601562 146.800781 31.152344 146.800781 30.601562 C 146.800781 30.046875 147.246094 29.601562 147.800781 29.601562 C 148.351562 29.601562 148.800781 30.046875 148.800781 30.601562 Z M 148.800781 30.601562 "/>
<path style=" stroke:none;fill-rule:evenodd;fill:rgb(0%,0%,100%);fill-opacity:1;" d="M 150.398438 29.800781 C 150.398438 30.351562 149.953125 30.800781 149.398438 30.800781 C 148.847656 30.800781 148.398438 30.351562 148.398438 29.800781 C 148.398438 29.246094 148.847656 28.800781 149.398438 28.800781 C 149.953125 28.800781 150.398438 29.246094 150.398438 29.800781 Z M 150.398438 29.800781 "/>
<path style=" stroke:none;fill-rule:evenodd;fill:rgb(0%,0%,100%);fill-opacity:1;" d="M 152 29 C 152 29.550781 151.550781 30 151 30 C 150.449219 30 150 29.550781 150 29 C 150 28.449219 150.449219 28 151 28 C 151.550781 28 152 28.449219 152 29 Z M 152 29 "/>
<path style=" stroke:none;fill-rule:evenodd;fill:rgb(0%,0%,100%);fill-opacity:1;" d="M 153.601562 28.199219 C 153.601562 28.753906 153.152344 29.199219 152.601562 29.199219 C 152.046875 29.199219 151.601562 28.753906 151.601562 28.199219 C 151.601562 27.648438 152.046875 27.199219 152.601562 27.199219 C 153.152344 27.199219 153.601562 27.648438 153.601562 28.199219 Z M 153.601562 28.199219 "/>
<path style=" stroke:none;fill-rule:evenodd;fill:rgb(0%,0%,100%);fill-opacity:1;" d="M 155.199219 27.398438 C 155.199219 27.953125 154.753906 28.398438 154.199219 28.398438 C 153.648438 28.398438 153.199219 27.953125 153.199219 27.398438 C 153.199219 26.847656 153.648438 26.398438 154.199219 26.398438 C 154.753906 26.398438 155.199219 26.847656 155.199219 27.398438 Z M 155.199219 27.398438 "/>
<path style=" stroke:none;fill-rule:evenodd;fill:rgb(0%,0%,100%);fill-opacity:1;" d="M 156.800781 26.601562 C 156.800781 27.152344 156.351562 27.601562 155.800781 27.601562 C 155.246094 27.601562 154.800781 27.152344 154.800781 26.601562 C 154.800781 26.046875 155.246094 25.601562 155.800781 25.601562 C 156.351562 25.601562 156.800781 26.046875 156.800781 26.601562 Z M 156.800781 26.601562 "/>
<path style=" stroke:none;fill-rule:evenodd;fill:rgb(0%,0%,100%);fill-opacity:1;" d="M 158.398438 25.800781 C 158.398438 26.351562 157.953125 26.800781 157.398438 26.800781 C 156.847656 26.800781 156.398438 26.351562 156.398438 25.800781 C 156.398438 25.246094 156.847656 24.800781 157.398438 24.800781 C 157.953125 24.800781 158.398438 25.246094 158.398438 25.800781 Z M 158.398438 25.800781 "/>
<path style=" stroke:none;fill-rule:evenodd;fill:rgb(0%,0%,100%);fill-opacity:1;" d="M 160 25 C 160 25.550781 159.550781 26 159 26 C 158.449219 26 158 25.550781 158 25 C 158 24.449219 158.449219 24 159 24 C 159.550781 24 160 24.449219 160 25 Z M 160 25 "/>
<path style=" stroke:none;fill-rule:evenodd;fill:rgb(0%,0%,100%);fill-opacity:1;" d="M 161.601562 24.199219 C 161.601562 24.753906 161.152344 25.199219 160.601562 25.199219 C 160.046875 25.199219 159.601562 24.753906 159.601562 24.199219 C 159.601562 23.648438 160.046875 23.199219 160.601562 23.199219 C 161.152344 23.199219 161.601562 23.648438 161.601562 24.199219 Z M 161.601562 24.199219 "/>
<path style=" stroke:none;fill-rule:evenodd;fill:rgb(0%,0%,100%);fill-opacity:1;" d="M 163.199219 23.398438 C 163.199219 23.953125 162.753906 24.398438 162.199219 24.398438 C 161.648438 24.398438 161.199219 23.953125 161.199219 23.398438 C 161.199219 22.847656 161.648438 22.398438 162.199219 22.398438 C 162.753906 22.398438 163.199219 22.847656 163.199219 23.398438 Z M 163.199219 23.398438 "/>
<path style=" stroke:none;fill-rule:evenodd;fill:rgb(0%,0%,100%);fill-opacity:1;" d="M 164.800781 22.601562 C 164.800781 23.152344 164.351562 23.601562 163.800781 23.601562 C 163.246094 23.601562 162.800781 23.152344 162.800781 22.601562 C 162.800781 22.046875 163.246094 21.601562 163.800781 21.601562 C 164.351562 21.601562 164.800781 22.046875 164.800781 22.601562 Z M 164.800781 22.601562 "/>
<path style=" stroke:none;fill-rule:evenodd;fill:rgb(0%,0%,100%);fill-opacity:1;" d="M 166.398438 21.800781 C 166.398438 22.351562 165.953125 22.800781 165.398438 22.800781 C 164.847656 22.800781 164.398438 22.351562 164.398438 21.800781 C 164.398438 21.246094 164.847656 20.800781 165.398438 20.800781 C 165.953125 20.800781 166.398438 21.246094 166.398438 21.800781 Z M 166.398438 21.800781 "/>
<path style=" stroke:none;fill-rule:evenodd;fill:rgb(0%,0%,100%);fill-opacity:1;" d="M 168 21 C 168 21.550781 167.550781 22 167 22 C 166.449219 22 166 21.550781 166 21 C 166 20.449219 166.449219 20 167 20 C 167.550781 20 168 20.449219 168 21 Z M 168 21 "/>
<path style=" stroke:none;fill-rule:evenodd;fill:rgb(0%,0%,100%);fill-opacity:1;" d="M 169.601562 20.199219 C 169.601562 20.753906 169.152344 21.199219 168.601562 21.199219 C 168.046875 21.199219 167.601562 20.753906 167.601562 20.199219 C 167.601562 19.648438 168.046875 19.199219 168.601562 19.199219 C 169.152344 19.199219 169.601562 19.648438 169.601562 20.199219 Z M 169.601562 20.199219 "/>
<path style=" stroke:none;fill-rule:evenodd;fill:rgb(0%,0%,100%);fill-opacity:1;" d="M 171.199219 19.398438 C 171.199219 19.953125 170.753906 20.398438 170.199219 20.398438 C 169.648438 20.398438 169.199219 19.953125 169.199219 19.398438 C 169.199219 18.847656 169.648438 18.398438 170.199219 18.398438 C 170.753906 18.398438 171.199219 18.847656 171.199219 19.398438 Z M 171.199219 19.398438 "/>
<path style=" stroke:none;fill-rule:evenodd;fill:rgb(0%,0%,100%);fill-opacity:1;" d="M 172.800781 18.601562 C 172.800781 19.152344 172.351562 19.601562 171.800781 19.601562 C 171.246094 19.601562 170.800781 19.152344 170.800781 18.601562 C 170.800781 18.046875 171.246094 17.601562 171.800781 17.601562 C 172.351562 17.601562 172.800781 18.046875 172.800781 18.601562 Z M 172.800781 18.601562 "/>
<path style=" stroke:none;fill-rule:evenodd;fill:rgb(0%,0%,100%);fill-opacity:1;" d="M 174.398438 17.800781 C 174.398438 18.351562 173.953125 18.800781 173.398438 18.800781 C 172.847656 18.800781 172.398438 18.351562 172.398438 17.800781 C 172.398438 17.246094 172.847656 16.800781 173.398438 16.800781 C 173.953125 16.800781 174.398438 17.246094 174.398438 17.800781 Z M 174.398438 17.800781 "/>
<path style=" stroke:none;fill-rule:evenodd;fill:rgb(0%,0%,100%);fill-opacity:1;" d="M 176 17 C 176 17.550781 175.550781 18 175 18 C 174.449219 18 174 17.550781 174 17 C 174 16.449219 174.449219 16 175 16 C 175.550781 16 176 16.449219 176 17 Z M 176 17 "/>
<path style=" stroke:none;fill-rule:evenodd;fill:rgb(0%,0%,100%);fill-opacity:1;" d="M 177.601562 16.199219 C 177.601562 16.753906 177.152344 17.199219 176.601562 17.199219 C 176.046875 17.199219 175.601562 16.753906 175.601562 16.199219 C 175.601562 15.648438 176.046875 15.199219 176.601562 15.199219 C 177.152344 15.199219 177.601562 15.648438 177.601562 16.199219 Z M 177.601562 16.199219 "/>
<path style=" stroke:none;fill-rule:evenodd;fill:rgb(0%,0%,100%);fill-opacity:1;" d="M 179.199219 15.398438 C 179.199219 15.953125 178.753906 16.398438 178.199219 16.398438 C 177.648438 16.398438 177.199219 15.953125 177.199219 15.398438 C 177.199219 14.847656 177.648438 14.398438 178.199219 14.398438 C 178.753906 14.398438 179.199219 14.847656 179.199219 15.398438 Z M 179.199219 15.398438 "/>
<path style=" stroke:none;fill-rule:evenodd;fill:rgb(0%,0%,100%);fill-opacity:1;" d="M 180.800781 14.601562 C 180.800781 15.152344 180.351562 15.601562 179.800781 15.601562 C 179.246094 15.601562 178.800781 15.152344 178.800781 14.601562 C 178.800781 14.046875 179.246094 13.601562 179.800781 13.601562 C 180.351562 13.601562 180.800781 14.046875 180.800781 14.601562 Z M 180.800781 14.601562 "/>
<path style=" stroke:none;fill-rule:evenodd;fill:rgb(0%,0%,100%);fill-opacity:1;" d="M 182.398438 13.800781 C 182.398438 14.351562 181.953125 14.800781 181.398438 14.800781 C 180.847656 14.800781 180.398438 14.351562 180.398438 13.800781 C 180.398438 13.246094 180.847656 12.800781 181.398438 12.800781 C 181.953125 12.800781 182.398438 13.246094 182.398438 13.800781 Z M 182.398438 13.800781 "/>
<path style=" stroke:none;fill-rule:evenodd;fill:rgb(0%,0%,100%);fill-opacity:1;" d="M 184 13 C 184 13.550781 183.550781 14 183 14 C 182.449219 14 182 13.550781 182 13 C 182 12.449219 182.449219 12 183 12 C 183.550781 12 184 12.449219 184 13 Z M 184 13 "/>
</g>
</svg>
