<?xml version="1.0" encoding="UTF-8"?>
<svg xmlns="http://www.w3.org/2000/svg" xmlns:xlink="http://www.w3.org/1999/xlink" width="206" height="206" viewBox="0 0 206 206" version="1.1">
<defs>
<clipPath id="clip1">
  <path d="M 3 3 L 203 3 L 203 203 L 3 203 Z M 3 3 "/>
</clipPath>
<clipPath id="clip2">
  <path d="M 12 3 L 14 3 L 14 4 L 12 4 Z M 12 3 "/>
</clipPath>
</defs>
<g id="surface311">
<path style=" stroke:none;fill-rule:nonzero;fill:rgb(100%,100%,100%);fill-opacity:1;" d="M 3 3 C 3 3 203 3 203 3 C 203 3 203 203 203 203 C 203 203 3 203 3 203 C 3 203 3 3 3 3 Z M 3 3 "/>
<g clip-path="url(#clip1)" clip-rule="nonzero">
<path style="fill:none;stroke-width:2;stroke-linecap:round;stroke-linejoin:round;stroke:rgb(0%,0%,0%);stroke-opacity:1;stroke-miterlimit:10;" d="M 3 3 C 3 3 203 3 203 3 C 203 3 203 203 203 203 C 203 203 3 203 3 203 C 3 203 3 3 3 3 Z M 3 3 "/>
</g>
<path style=" stroke:none;fill-rule:evenodd;fill:rgb(100%,0%,0%);fill-opacity:1;" d="M 33.800781 201 C 33.800781 201.550781 33.351562 202 32.800781 202 C 32.246094 202 31.800781 201.550781 31.800781 201 C 31.800781 200.449219 32.246094 200 32.800781 200 C 33.351562 200 33.800781 200.449219 33.800781 201 Z M 33.800781 201 "/>
<path style=" stroke:none;fill-rule:evenodd;fill:rgb(100%,0%,0%);fill-opacity:1;" d="M 33.601562 199 C 33.601562 199.550781 33.152344 200 32.601562 200 C 32.046875 200 31.601562 199.550781 31.601562 199 C 31.601562 198.449219 32.046875 198 32.601562 198 C 33.152344 198 33.601562 198.449219 33.601562 199 Z M 33.601562 199 "/>
<path style=" stroke:none;fill-rule:evenodd;fill:rgb(100%,0%,0%);fill-opacity:1;" d="M 33.398438 197 C 33.398438 197.550781 32.953125 198 32.398438 198 C 31.847656 198 31.398438 197.550781 31.398438 197 C 31.398438 196.449219 31.847656 196 32.398438 196 C 32.953125 196 33.398438 196.449219 33.398438 197 Z M 33.398438 197 "/>
<path style=" stroke:none;fill-rule:evenodd;fill:rgb(100%,0%,0%);fill-opacity:1;" d="M 33.199219 195 C 33.199219 195.550781 32.753906 196 32.199219 196 C 31.648438 196 31.199219 195.550781 31.199219 195 C 31.199219 194.449219 31.648438 194 32.199219 194 C 32.753906 194 33.199219 194.449219 33.199219 195 Z M 33.199219 195 "/>
<path style=" stroke:none;fill-rule:evenodd;fill:rgb(100%,0%,0%);fill-opacity:1;" d="M 33 193 C 33 193.550781 32.550781 194 32 194 C 31.449219 194 31 193.550781 31 193 C 31 192.449219 31.449219 192 32 192 C 32.550781 192 33 192.449219 33 193 Z M 33 193 "/>
<path style=" stroke:none;fill-rule:evenodd;fill:rgb(100%,0%,0%);fill-opacity:1;" d="M 32.800781 191 C 32.800781 191.550781 32.351562 192 31.800781 192 C 31.246094 192 30.800781 191.550781 30.800781 191 C 30.800781 190.449219 31.246094 190 31.800781 190 C 32.351562 190 32.800781 190.449219 32.800781 191 Z M 32.800781 191 "/>
<path style=" stroke:none;fill-rule:evenodd;fill:rgb(100%,0%,0%);fill-opacity:1;" d="M 32.601562 189 C 32.601562 189.550781 32.152344 190 31.601562 190 C 31.046875 190 30.601562 189.550781 30.601562 189 C 30.601562 188.449219 31.046875 188 31.601562 188 C 32.152344 188 32.601562 188.449219 32.601562 189 Z M 32.601562 189 "/>
<path style=" stroke:none;fill-rule:evenodd;fill:rgb(100%,0%,0%);fill-opacity:1;" d="M 32.398438 187 C 32.398438 187.550781 31.953125 188 31.398438 188 C 30.847656 188 30.398438 187.550781 30.398438 187 C 30.398438 186.449219 30.847656 186 31.398438 186 C 31.953125 186 32.398438 186.449219 32.398438 187 Z M 32.398438 187 "/>
<path style=" stroke:none;fill-rule:evenodd;fill:rgb(100%,0%,0%);fill-opacity:1;" d="M 32.199219 185 C 32.199219 185.550781 31.753906 186 31.199219 186 C 30.648438 186 30.199219 185.550781 30.199219 185 C 30.199219 184.449219 30.648438 184 31.199219 184 C 31.753906 184 32.199219 184.449219 32.199219 185 Z M 32.199219 185 "/>
<path style=" stroke:none;fill-rule:evenodd;fill:rgb(100%,0%,0%);fill-opacity:1;" d="M 32 183 C 32 183.550781 31.550781 184 31 184 C 30.449219 184 30 183.550781 30 183 C 30 182.449219 30.449219 182 31 182 C 31.550781 182 32 182.449219 32 183 Z M 32 183 "/>
<path style=" stroke:none;fill-rule:evenodd;fill:rgb(100%,0%,0%);fill-opacity:1;" d="M 31.800781 181 C 31.800781 181.550781 31.351562 182 30.800781 182 C 30.246094 182 29.800781 181.550781 29.800781 181 C 29.800781 180.449219 30.246094 180 30.800781 180 C 31.351562 180 31.800781 180.449219 31.800781 181 Z M 31.800781 181 "/>
<path style=" stroke:none;fill-rule:evenodd;fill:rgb(100%,0%,0%);fill-opacity:1;" d="M 31.601562 179 C 31.601562 179.550781 31.152344 180 30.601562 180 C 30.046875 180 29.601562 179.550781 29.601562 179 C 29.601562 178.449219 30.046875 178 30.601562 178 C 31.152344 178 31.601562 178.449219 31.601562 179 Z M 31.601562 179 "/>
<path style=" stroke:none;fill-rule:evenodd;fill:rgb(100%,0%,0%);fill-opacity:1;" d="M 31.398438 177 C 31.398438 177.550781 30.953125 178 30.398438 178 C 29.847656 178 29.398438 177.550781 29.398438 177 C 29.398438 176.449219 29.847656 176 30.398438 176 C 30.953125 176 31.398438 176.449219 31.398438 177 Z M 31.398438 177 "/>
<path style=" stroke:none;fill-rule:evenodd;fill:rgb(100%,0%,0%);fill-opacity:1;" d="M 31.199219 175 C 31.199219 175.550781 30.753906 176 30.199219 176 C 29.648438 176 29.199219 175.550781 29.199219 175 C 29.199219 174.449219 29.648438 174 30.199219 174 C 30.753906 174 31.199219 174.449219 31.199219 175 Z M 31.199219 175 "/>
<path style=" stroke:none;fill-rule:evenodd;fill:rgb(100%,0%,0%);fill-opacity:1;" d="M 31 173 C 31 173.550781 30.550781 174 30 174 C 29.449219 174 29 173.550781 29 173 C 29 172.449219 29.449219 172 30 172 C 30.550781 172 31 172.449219 31 173 Z M 31 173 "/>
<path style=" stroke:none;fill-rule:evenodd;fill:rgb(100%,0%,0%);fill-opacity:1;" d="M 30.800781 171 C 30.800781 171.550781 30.351562 172 29.800781 172 C 29.246094 172 28.800781 171.550781 28.800781 171 C 28.800781 170.449219 29.246094 170 29.800781 170 C 30.351562 170 30.800781 170.449219 30.800781 171 Z M 30.800781 171 "/>
<path style=" stroke:none;fill-rule:evenodd;fill:rgb(100%,0%,0%);fill-opacity:1;" d="M 30.601562 169 C 30.601562 169.550781 30.152344 170 29.601562 170 C 29.046875 170 28.601562 169.550781 28.601562 169 C 28.601562 168.449219 29.046875 168 29.601562 168 C 30.152344 168 30.601562 168.449219 30.601562 169 Z M 30.601562 169 "/>
<path style=" stroke:none;fill-rule:evenodd;fill:rgb(100%,0%,0%);fill-opacity:1;" d="M 30.398438 167 C 30.398438 167.550781 29.953125 168 29.398438 168 C 28.847656 168 28.398438 167.550781 28.398438 167 C 28.398438 166.449219 28.847656 166 29.398438 166 C 29.953125 166 30.398438 166.449219 30.398438 167 Z M 30.398438 167 "/>
<path style=" stroke:none;fill-rule:evenodd;fill:rgb(100%,0%,0%);fill-opacity:1;" d="M 30.199219 165 C 30.199219 165.550781 29.753906 166 29.199219 166 C 28.648438 166 28.199219 165.550781 28.199219 165 C 28.199219 164.449219 28.648438 164 29.199219 164 C 29.753906 164 30.199219 164.449219 30.199219 165 Z M 30.199219 165 "/>
<path style=" stroke:none;fill-rule:evenodd;fill:rgb(100%,0%,0%);fill-opacity:1;" d="M 30 163 C 30 163.550781 29.550781 164 29 164 C 28.449219 164 28 163.550781 28 163 C 28 162.449219 28.449219 162 29 162 C 29.550781 162 30 162.449219 30 163 Z M 30 163 "/>
<path style=" stroke:none;fill-rule:evenodd;fill:rgb(100%,0%,0%);fill-opacity:1;" d="M 29.800781 161 C 29.800781 161.550781 29.351562 162 28.800781 162 C 28.246094 162 27.800781 161.550781 27.800781 161 C 27.800781 160.449219 28.246094 160 28.800781 160 C 29.351562 160 29.800781 160.449219 29.800781 161 Z M 29.800781 161 "/>
<path style=" stroke:none;fill-rule:evenodd;fill:rgb(100%,0%,0%);fill-opacity:1;" d="M 29.601562 159 C 29.601562 159.550781 29.152344 160 28.601562 160 C 28.046875 160 27.601562 159.550781 27.601562 159 C 27.601562 158.449219 28.046875 158 28.601562 158 C 29.152344 158 29.601562 158.449219 29.601562 159 Z M 29.601562 159 "/>
<path style=" stroke:none;fill-rule:evenodd;fill:rgb(100%,0%,0%);fill-opacity:1;" d="M 29.398438 157 C 29.398438 157.550781 28.953125 158 28.398438 158 C 27.847656 158 27.398438 157.550781 27.398438 157 C 27.398438 156.449219 27.847656 156 28.398438 156 C 28.953125 156 29.398438 156.449219 29.398438 157 Z M 29.398438 157 "/>
<path style=" stroke:none;fill-rule:evenodd;fill:rgb(100%,0%,0%);fill-opacity:1;" d="M 29.199219 155 C 29.199219 155.550781 28.753906 156 28.199219 156 C 27.648438 156 27.199219 155.550781 27.199219 155 C 27.199219 154.449219 27.648438 154 28.199219 154 C 28.753906 154 29.199219 154.449219 29.199219 155 Z M 29.199219 155 "/>
<path style=" stroke:none;fill-rule:evenodd;fill:rgb(100%,0%,0%);fill-opacity:1;" d="M 29 153 C 29 153.550781 28.550781 154 28 154 C 27.449219 154 27 153.550781 27 153 C 27 152.449219 27.449219 152 28 152 C 28.550781 152 29 152.449219 29 153 Z M 29 153 "/>
<path style=" stroke:none;fill-rule:evenodd;fill:rgb(100%,0%,0%);fill-opacity:1;" d="M 28.800781 151 C 28.800781 151.550781 28.351562 152 27.800781 152 C 27.246094 152 26.800781 151.550781 26.800781 151 C 26.800781 150.449219 27.246094 150 27.800781 150 C 28.351562 150 28.800781 150.449219 28.800781 151 Z M 28.800781 151 "/>
<path style=" stroke:none;fill-rule:evenodd;fill:rgb(100%,0%,0%);fill-opacity:1;" d="M 28.601562 149 C 28.601562 149.550781 28.152344 150 27.601562 150 C 27.046875 150 26.601562 149.550781 26.601562 149 C 26.601562 148.449219 27.046875 148 27.601562 148 C 28.152344 148 28.601562 148.449219 28.601562 149 Z M 28.601562 149 "/>
<path style=" stroke:none;fill-rule:evenodd;fill:rgb(100%,0%,0%);fill-opacity:1;" d="M 28.398438 147 C 28.398438 147.550781 27.953125 148 27.398438 148 C 26.847656 148 26.398438 147.550781 26.398438 147 C 26.398438 146.449219 26.847656 146 27.398438 146 C 27.953125 146 28.398438 146.449219 28.398438 147 Z M 28.398438 147 "/>
<path style=" stroke:none;fill-rule:evenodd;fill:rgb(100%,0%,0%);fill-opacity:1;" d="M 28.199219 145 C 28.199219 145.550781 27.753906 146 27.199219 146 C 26.648438 146 26.199219 145.550781 26.199219 145 C 26.199219 144.449219 26.648438 144 27.199219 144 C 27.753906 144 28.199219 144.449219 28.199219 145 Z M 28.199219 145 "/>
<path style=" stroke:none;fill-rule:evenodd;fill:rgb(100%,0%,0%);fill-opacity:1;" d="M 28 143 C 28 143.550781 27.550781 144 27 144 C 26.449219 144 26 143.550781 26 143 C 26 142.449219 26.449219 142 27 142 C 27.550781 142 28 142.449219 28 143 Z M 28 143 "/>
<path style=" stroke:none;fill-rule:evenodd;fill:rgb(100%,0%,0%);fill-opacity:1;" d="M 27.800781 141 C 27.800781 141.550781 27.351562 142 26.800781 142 C 26.246094 142 25.800781 141.550781 25.800781 141 C 25.800781 140.449219 26.246094 140 26.800781 140 C 27.351562 140 27.800781 140.449219 27.800781 141 Z M 27.800781 141 "/>
<path style=" stroke:none;fill-rule:evenodd;fill:rgb(100%,0%,0%);fill-opacity:1;" d="M 27.601562 139 C 27.601562 139.550781 27.152344 140 26.601562 140 C 26.046875 140 25.601562 139.550781 25.601562 139 C 25.601562 138.449219 26.046875 138 26.601562 138 C 27.152344 138 27.601562 138.449219 27.601562 139 Z M 27.601562 139 "/>
<path style=" stroke:none;fill-rule:evenodd;fill:rgb(100%,0%,0%);fill-opacity:1;" d="M 27.398438 137 C 27.398438 137.550781 26.953125 138 26.398438 138 C 25.847656 138 25.398438 137.550781 25.398438 137 C 25.398438 136.449219 25.847656 136 26.398438 136 C 26.953125 136 27.398438 136.449219 27.398438 137 Z M 27.398438 137 "/>
<path style=" stroke:none;fill-rule:evenodd;fill:rgb(100%,0%,0%);fill-opacity:1;" d="M 27.199219 135 C 27.199219 135.550781 26.753906 136 26.199219 136 C 25.648438 136 25.199219 135.550781 25.199219 135 C 25.199219 134.449219 25.648438 134 26.199219 134 C 26.753906 134 27.199219 134.449219 27.199219 135 Z M 27.199219 135 "/>
<path style=" stroke:none;fill-rule:evenodd;fill:rgb(100%,0%,0%);fill-opacity:1;" d="M 27 133 C 27 133.550781 26.550781 134 26 134 C 25.449219 134 25 133.550781 25 133 C 25 132.449219 25.449219 132 26 132 C 26.550781 132 27 132.449219 27 133 Z M 27 133 "/>
<path style=" stroke:none;fill-rule:evenodd;fill:rgb(100%,0%,0%);fill-opacity:1;" d="M 26.800781 131 C 26.800781 131.550781 26.351562 132 25.800781 132 C 25.246094 132 24.800781 131.550781 24.800781 131 C 24.800781 130.449219 25.246094 130 25.800781 130 C 26.351562 130 26.800781 130.449219 26.800781 131 Z M 26.800781 131 "/>
<path style=" stroke:none;fill-rule:evenodd;fill:rgb(100%,0%,0%);fill-opacity:1;" d="M 26.601562 129 C 26.601562 129.550781 26.152344 130 25.601562 130 C 25.046875 130 24.601562 129.550781 24.601562 129 C 24.601562 128.449219 25.046875 128 25.601562 128 C 26.152344 128 26.601562 128.449219 26.601562 129 Z M 26.601562 129 "/>
<path style=" stroke:none;fill-rule:evenodd;fill:rgb(100%,0%,0%);fill-opacity:1;" d="M 26.398438 127 C 26.398438 127.550781 25.953125 128 25.398438 128 C 24.847656 128 24.398438 127.550781 24.398438 127 C 24.398438 126.449219 24.847656 126 25.398438 126 C 25.953125 126 26.398438 126.449219 26.398438 127 Z M 26.398438 127 "/>
<path style=" stroke:none;fill-rule:evenodd;fill:rgb(100%,0%,0%);fill-opacity:1;" d="M 26.199219 125 C 26.199219 125.550781 25.753906 126 25.199219 126 C 24.648438 126 24.199219 125.550781 24.199219 125 C 24.199219 124.449219 24.648438 124 25.199219 124 C 25.753906 124 26.199219 124.449219 26.199219 125 Z M 26.199219 125 "/>
<path style=" stroke:none;fill-rule:evenodd;fill:rgb(100%,0%,0%);fill-opacity:1;" d="M 26 123 C 26 123.550781 25.550781 124 25 124 C 24.449219 124 24 123.550781 24 123 C 24 122.449219 24.449219 122 25 122 C 25.550781 122 26 122.449219 26 123 Z M 26 123 "/>
<path style=" stroke:none;fill-rule:evenodd;fill:rgb(100%,0%,0%);fill-opacity:1;" d="M 25.800781 121 C 25.800781 121.550781 25.351562 122 24.800781 122 C 24.246094 122 23.800781 121.550781 23.800781 121 C 23.800781 120.449219 24.246094 120 24.800781 120 C 25.351562 120 25.800781 120.449219 25.800781 121 Z M 25.800781 121 "/>
<path style=" stroke:none;fill-rule:evenodd;fill:rgb(100%,0%,0%);fill-opacity:1;" d="M 25.601562 119 C 25.601562 119.550781 25.152344 120 24.601562 120 C 24.046875 120 23.601562 119.550781 23.601562 119 C 23.601562 118.449219 24.046875 118 24.601562 118 C 25.152344 118 25.601562 118.449219 25.601562 119 Z M 25.601562 119 "/>
<path style=" stroke:none;fill-rule:evenodd;fill:rgb(100%,0%,0%);fill-opacity:1;" d="M 25.398438 117 C 25.398438 117.550781 24.953125 118 24.398438 118 C 23.847656 118 23.398438 117.550781 23.398438 117 C 23.398438 116.449219 23.847656 116 24.398438 116 C 24.953125 116 25.398438 116.449219 25.398438 117 Z M 25.398438 117 "/>
<path style=" stroke:none;fill-rule:evenodd;fill:rgb(100%,0%,0%);fill-opacity:1;" d="M 25.199219 115 C 25.199219 115.550781 24.753906 116 24.199219 116 C 23.648438 116 23.199219 115.550781 23.199219 115 C 23.199219 114.449219 23.648438 114 24.199219 114 C 24.753906 114 25.199219 114.449219 25.199219 115 Z M 25.199219 115 "/>
<path style=" stroke:none;fill-rule:evenodd;fill:rgb(100%,0%,0%);fill-opacity:1;" d="M 25 113 C 25 113.550781 24.550781 114 24 114 C 23.449219 114 23 113.550781 23 113 C 23 112.449219 23.449219 112 24 112 C 24.550781 112 25 112.449219 25 113 Z M 25 113 "/>
<path style=" stroke:none;fill-rule:evenodd;fill:rgb(100%,0%,0%);fill-opacity:1;" d="M 24.800781 111 C 24.800781 111.550781 24.351562 112 23.800781 112 C 23.246094 112 22.800781 111.550781 22.800781 111 C 22.800781 110.449219 23.246094 110 23.800781 110 C 24.351562 110 24.800781 110.449219 24.800781 111 Z M 24.800781 111 "/>
<path style=" stroke:none;fill-rule:evenodd;fill:rgb(100%,0%,0%);fill-opacity:1;" d="M 24.601562 109 C 24.601562 109.550781 24.152344 110 23.601562 110 C 23.046875 110 22.601562 109.550781 22.601562 109 C 22.601562 108.449219 23.046875 108 23.601562 108 C 24.152344 108 24.601562 108.449219 24.601562 109 Z M 24.601562 109 "/>
<path style=" stroke:none;fill-rule:evenodd;fill:rgb(100%,0%,0%);fill-opacity:1;" d="M 24.398438 107 C 24.398438 107.550781 23.953125 108 23.398438 108 C 22.847656 108 22.398438 107.550781 22.398438 107 C 22.398438 106.449219 22.847656 106 23.398438 106 C 23.953125 106 24.398438 106.449219 24.398438 107 Z M 24.398438 107 "/>
<path style=" stroke:none;fill-rule:evenodd;fill:rgb(100%,0%,0%);fill-opacity:1;" d="M 24.199219 105 C 24.199219 105.550781 23.753906 106 23.199219 106 C 22.648438 106 22.199219 105.550781 22.199219 105 C 22.199219 104.449219 22.648438 104 23.199219 104 C 23.753906 104 24.199219 104.449219 24.199219 105 Z M 24.199219 105 "/>
<path style=" stroke:none;fill-rule:evenodd;fill:rgb(100%,0%,0%);fill-opacity:1;" d="M 24 103 C 24 103.550781 23.550781 104 23 104 C 22.449219 104 22 103.550781 22 103 C 22 102.449219 22.449219 102 23 102 C 23.550781 102 24 102.449219 24 103 Z M 24 103 "/>
<path style=" stroke:none;fill-rule:evenodd;fill:rgb(100%,0%,0%);fill-opacity:1;" d="M 23.800781 101 C 23.800781 101.550781 23.351562 102 22.800781 102 C 22.246094 102 21.800781 101.550781 21.800781 101 C 21.800781 100.449219 22.246094 100 22.800781 100 C 23.351562 100 23.800781 100.449219 23.800781 101 Z M 23.800781 101 "/>
<path style=" stroke:none;fill-rule:evenodd;fill:rgb(100%,0%,0%);fill-opacity:1;" d="M 23.601562 99 C 23.601562 99.550781 23.152344 100 22.601562 100 C 22.046875 100 21.601562 99.550781 21.601562 99 C 21.601562 98.449219 22.046875 98 22.601562 98 C 23.152344 98 23.601562 98.449219 23.601562 99 Z M 23.601562 99 "/>
<path style=" stroke:none;fill-rule:evenodd;fill:rgb(100%,0%,0%);fill-opacity:1;" d="M 23.398438 97 C 23.398438 97.550781 22.953125 98 22.398438 98 C 21.847656 98 21.398438 97.550781 21.398438 97 C 21.398438 96.449219 21.847656 96 22.398438 96 C 22.953125 96 23.398438 96.449219 23.398438 97 Z M 23.398438 97 "/>
<path style=" stroke:none;fill-rule:evenodd;fill:rgb(100%,0%,0%);fill-opacity:1;" d="M 23.199219 95 C 23.199219 95.550781 22.753906 96 22.199219 96 C 21.648438 96 21.199219 95.550781 21.199219 95 C 21.199219 94.449219 21.648438 94 22.199219 94 C 22.753906 94 23.199219 94.449219 23.199219 95 Z M 23.199219 95 "/>
<path style=" stroke:none;fill-rule:evenodd;fill:rgb(100%,0%,0%);fill-opacity:1;" d="M 23 93 C 23 93.550781 22.550781 94 22 94 C 21.449219 94 21 93.550781 21 93 C 21 92.449219 21.449219 92 22 92 C 22.550781 92 23 92.449219 23 93 Z M 23 93 "/>
<path style=" stroke:none;fill-rule:evenodd;fill:rgb(100%,0%,0%);fill-opacity:1;" d="M 22.800781 91 C 22.800781 91.550781 22.351562 92 21.800781 92 C 21.246094 92 20.800781 91.550781 20.800781 91 C 20.800781 90.449219 21.246094 90 21.800781 90 C 22.351562 90 22.800781 90.449219 22.800781 91 Z M 22.800781 91 "/>
<path style=" stroke:none;fill-rule:evenodd;fill:rgb(100%,0%,0%);fill-opacity:1;" d="M 22.601562 89 C 22.601562 89.550781 22.152344 90 21.601562 90 C 21.046875 90 20.601562 89.550781 20.601562 89 C 20.601562 88.449219 21.046875 88 21.601562 88 C 22.152344 88 22.601562 88.449219 22.601562 89 Z M 22.601562 89 "/>
<path style=" stroke:none;fill-rule:evenodd;fill:rgb(100%,0%,0%);fill-opacity:1;" d="M 22.398438 87 C 22.398438 87.550781 21.953125 88 21.398438 88 C 20.847656 88 20.398438 87.550781 20.398438 87 C 20.398438 86.449219 20.847656 86 21.398438 86 C 21.953125 86 22.398438 86.449219 22.398438 87 Z M 22.398438 87 "/>
<path style=" stroke:none;fill-rule:evenodd;fill:rgb(100%,0%,0%);fill-opacity:1;" d="M 22.199219 85 C 22.199219 85.550781 21.753906 86 21.199219 86 C 20.648438 86 20.199219 85.550781 20.199219 85 C 20.199219 84.449219 20.648438 84 21.199219 84 C 21.753906 84 22.199219 84.449219 22.199219 85 Z M 22.199219 85 "/>
<path style=" stroke:none;fill-rule:evenodd;fill:rgb(100%,0%,0%);fill-opacity:1;" d="M 22 83 C 22 83.550781 21.550781 84 21 84 C 20.449219 84 20 83.550781 20 83 C 20 82.449219 20.449219 82 21 82 C 21.550781 82 22 82.449219 22 83 Z M 22 83 "/>
<path style=" stroke:none;fill-rule:evenodd;fill:rgb(100%,0%,0%);fill-opacity:1;" d="M 21.800781 81 C 21.800781 81.550781 21.351562 82 20.800781 82 C 20.246094 82 19.800781 81.550781 19.800781 81 C 19.800781 80.449219 20.246094 80 20.800781 80 C 21.351562 80 21.800781 80.449219 21.800781 81 Z M 21.800781 81 "/>
<path style=" stroke:none;fill-rule:evenodd;fill:rgb(100%,0%,0%);fill-opacity:1;" d="M 21.601562 79 C 21.601562 79.550781 21.152344 80 20.601562 80 C 20.046875 80 19.601562 79.550781 19.601562 79 C 19.601562 78.449219 20.046875 78 20.601562 78 C 21.152344 78 21.601562 78.449219 21.601562 79 Z M 21.601562 79 "/>
<path style=" stroke:none;fill-rule:evenodd;fill:rgb(100%,0%,0%);fill-opacity:1;" d="M 21.398438 77 C 21.398438 77.550781 20.953125 78 20.398438 78 C 19.847656 78 19.398438 77.550781 19.398438 77 C 19.398438 76.449219 19.847656 76 20.398438 76 C 20.953125 76 21.398438 76.449219 21.398438 77 Z M 21.398438 77 "/>
<path style=" stroke:none;fill-rule:evenodd;fill:rgb(100%,0%,0%);fill-opacity:1;" d="M 21.199219 75 C 21.199219 75.550781 20.753906 76 20.199219 76 C 19.648438 76 19.199219 75.550781 19.199219 75 C 19.199219 74.449219 19.648438 74 20.199219 74 C 20.753906 74 21.199219 74.449219 21.199219 75 Z M 21.199219 75 "/>
<path style=" stroke:none;fill-rule:evenodd;fill:rgb(100%,0%,0%);fill-opacity:1;" d="M 21 73 C 21 73.550781 20.550781 74 20 74 C 19.449219 74 19 73.550781 19 73 C 19 72.449219 19.449219 72 20 72 C 20.550781 72 21 72.449219 21 73 Z M 21 73 "/>
<path style=" stroke:none;fill-rule:evenodd;fill:rgb(100%,0%,0%);fill-opacity:1;" d="M 20.800781 71 C 20.800781 71.550781 20.351562 72 19.800781 72 C 19.246094 72 18.800781 71.550781 18.800781 71 C 18.800781 70.449219 19.246094 70 19.800781 70 C 20.351562 70 20.800781 70.449219 20.800781 71 Z M 20.800781 71 "/>
<path style=" stroke:none;fill-rule:evenodd;fill:rgb(100%,0%,0%);fill-opacity:1;" d="M 20.601562 69 C 20.601562 69.550781 20.152344 70 19.601562 70 C 19.046875 70 18.601562 69.550781 18.601562 69 C 18.601562 68.449219 19.046875 68 19.601562 68 C 20.152344 68 20.601562 68.449219 20.601562 69 Z M 20.601562 69 "/>
<path style=" stroke:none;fill-rule:evenodd;fill:rgb(100%,0%,0%);fill-opacity:1;" d="M 20.398438 67 C 20.398438 67.550781 19.953125 68 19.398438 68 C 18.847656 68 18.398438 67.550781 18.398438 67 C 18.398438 66.449219 18.847656 66 19.398438 66 C 19.953125 66 20.398438 66.449219 20.398438 67 Z M 20.398438 67 "/>
<path style=" stroke:none;fill-rule:evenodd;fill:rgb(100%,0%,0%);fill-opacity:1;" d="M 20.199219 65 C 20.199219 65.550781 19.753906 66 19.199219 66 C 18.648438 66 18.199219 65.550781 18.199219 65 C 18.199219 64.449219 18.648438 64 19.199219 64 C 19.753906 64 20.199219 64.449219 20.199219 65 Z M 20.199219 65 "/>
<path style=" stroke:none;fill-rule:evenodd;fill:rgb(100%,0%,0%);fill-opacity:1;" d="M 20 63 C 20 63.550781 19.550781 64 19 64 C 18.449219 64 18 63.550781 18 63 C 18 62.449219 18.449219 62 19 62 C 19.550781 62 20 62.449219 20 63 Z M 20 63 "/>
<path style=" stroke:none;fill-rule:evenodd;fill:rgb(100%,0%,0%);fill-opacity:1;" d="M 19.800781 61 C 19.800781 61.550781 19.351562 62 18.800781 62 C 18.246094 62 17.800781 61.550781 17.800781 61 C 17.800781 60.449219 18.246094 60 18.800781 60 C 19.351562 60 19.800781 60.449219 19.800781 61 Z M 19.800781 61 "/>
<path style=" stroke:none;fill-rule:evenodd;fill:rgb(100%,0%,0%);fill-opacity:1;" d="M 19.601562 59 C 19.601562 59.550781 19.152344 60 18.601562 60 C 18.046875 60 17.601562 59.550781 17.601562 59 C 17.601562 58.449219 18.046875 58 18.601562 58 C 19.152344 58 19.601562 58.449219 19.601562 59 Z M 19.601562 59 "/>
<path style=" stroke:none;fill-rule:evenodd;fill:rgb(100%,0%,0%);fill-opacity:1;" d="M 19.398438 57 C 19.398438 57.550781 18.953125 58 18.398438 58 C 17.847656 58 17.398438 57.550781 17.398438 57 C 17.398438 56.449219 17.847656 56 18.398438 56 C 18.953125 56 19.398438 56.449219 19.398438 57 Z M 19.398438 57 "/>
<path style=" stroke:none;fill-rule:evenodd;fill:rgb(100%,0%,0%);fill-opacity:1;" d="M 19.199219 55 C 19.199219 55.550781 18.753906 56 18.199219 56 C 17.648438 56 17.199219 55.550781 17.199219 55 C 17.199219 54.449219 17.648438 54 18.199219 54 C 18.753906 54 19.199219 54.449219 19.199219 55 Z M 19.199219 55 "/>
<path style=" stroke:none;fill-rule:evenodd;fill:rgb(100%,0%,0%);fill-opacity:1;" d="M 19 53 C 19 53.550781 18.550781 54 18 54 C 17.449219 54 17 53.550781 17 53 C 17 52.449219 17.449219 52 18 52 C 18.550781 52 19 52.449219 19 53 Z M 19 53 "/>
<path style=" stroke:none;fill-rule:evenodd;fill:rgb(100%,0%,0%);fill-opacity:1;" d="M 18.800781 51 C 18.800781 51.550781 18.351562 52 17.800781 52 C 17.246094 52 16.800781 51.550781 16.800781 51 C 16.800781 50.449219 17.246094 50 17.800781 50 C 18.351562 50 18.800781 50.449219 18.800781 51 Z M 18.800781 51 "/>
<path style=" stroke:none;fill-rule:evenodd;fill:rgb(100%,0%,0%);fill-opacity:1;" d="M 18.601562 49 C 18.601562 49.550781 18.152344 50 17.601562 50 C 17.046875 50 16.601562 49.550781 16.601562 49 C 16.601562 48.449219 17.046875 48 17.601562 48 C 18.152344 48 18.601562 48.449219 18.601562 49 Z M 18.601562 49 "/>
<path style=" stroke:none;fill-rule:evenodd;fill:rgb(100%,0%,0%);fill-opacity:1;" d="M 18.398438 47 C 18.398438 47.550781 17.953125 48 17.398438 48 C 16.847656 48 16.398438 47.550781 16.398438 47 C 16.398438 46.449219 16.847656 46 17.398438 46 C 17.953125 46 18.398438 46.449219 18.398438 47 Z M 18.398438 47 "/>
<path style=" stroke:none;fill-rule:evenodd;fill:rgb(100%,0%,0%);fill-opacity:1;" d="M 18.199219 45 C 18.199219 45.550781 17.753906 46 17.199219 46 C 16.648438 46 16.199219 45.550781 16.199219 45 C 16.199219 44.449219 16.648438 44 17.199219 44 C 17.753906 44 18.199219 44.449219 18.199219 45 Z M 18.199219 45 "/>
<path style=" stroke:none;fill-rule:evenodd;fill:rgb(100%,0%,0%);fill-opacity:1;" d="M 18 43 C 18 43.550781 17.550781 44 17 44 C 16.449219 44 16 43.550781 16 43 C 16 42.449219 16.449219 42 17 42 C 17.550781 42 18 42.449219 18 43 Z M 18 43 "/>
<path style=" stroke:none;fill-rule:evenodd;fill:rgb(100%,0%,0%);fill-opacity:1;" d="M 17.800781 41 C 17.800781 41.550781 17.351562 42 16.800781 42 C 16.246094 42 15.800781 41.550781 15.800781 41 C 15.800781 40.449219 16.246094 40 16.800781 40 C 17.351562 40 17.800781 40.449219 17.800781 41 Z M 17.800781 41 "/>
<path style=" stroke:none;fill-rule:evenodd;fill:rgb(100%,0%,0%);fill-opacity:1;" d="M 17.601562 39 C 17.601562 39.550781 17.152344 40 16.601562 40 C 16.046875 40 15.601562 39.550781 15.601562 39 C 15.601562 38.449219 16.046875 38 16.601562 38 C 17.152344 38 17.601562 38.449219 17.601562 39 Z M 17.601562 39 "/>
<path style=" stroke:none;fill-rule:evenodd;fill:rgb(100%,0%,0%);fill-opacity:1;" d="M 17.398438 37 C 17.398438 37.550781 16.953125 38 16.398438 38 C 15.847656 38 15.398438 37.550781 15.398438 37 C 15.398438 36.449219 15.847656 36 16.398438 36 C 16.953125 36 17.398438 36.449219 17.398438 37 Z M 17.398438 37 "/>
<path style=" stroke:none;fill-rule:evenodd;fill:rgb(100%,0%,0%);fill-opacity:1;" d="M 17.199219 35 C 17.199219 35.550781 16.753906 36 16.199219 36 C 15.648438 36 15.199219 35.550781 15.199219 35 C 15.199219 34.449219 15.648438 34 16.199219 34 C 16.753906 34 17.199219 34.449219 17.199219 35 Z M 17.199219 35 "/>
<path style=" stroke:none;fill-rule:evenodd;fill:rgb(100%,0%,0%);fill-opacity:1;" d="M 17 33 C 17 33.550781 16.550781 34 16 34 C 15.449219 34 15 33.550781 15 33 C 15 32.449219 15.449219 32 16 32 C 16.550781 32 17 32.449219 17 33 Z M 17 33 "/>
<path style=" stroke:none;fill-rule:evenodd;fill:rgb(100%,0%,0%);fill-opacity:1;" d="M 16.800781 31 C 16.800781 31.550781 16.351562 32 15.800781 32 C 15.246094 32 14.800781 31.550781 14.800781 31 C 14.800781 30.449219 15.246094 30 15.800781 30 C 16.351562 30 16.800781 30.449219 16.800781 31 Z M 16.800781 31 "/>
<path style=" stroke:none;fill-rule:evenodd;fill:rgb(100%,0%,0%);fill-opacity:1;" d="M 16.601562 29 C 16.601562 29.550781 16.152344 30 15.601562 30 C 15.046875 30 14.601562 29.550781 14.601562 29 C 14.601562 28.449219 15.046875 28 15.601562 28 C 16.152344 28 16.601562 28.449219 16.601562 29 Z M 16.601562 29 "/>
<path style=" stroke:none;fill-rule:evenodd;fill:rgb(100%,0%,0%);fill-opacity:1;" d="M 16.398438 27 C 16.398438 27.550781 15.953125 28 15.398438 28 C 14.847656 28 14.398438 27.550781 14.398438 27 C 14.398438 26.449219 14.847656 26 15.398438 26 C 15.953125 26 16.398438 26.449219 16.398438 27 Z M 16.398438 27 "/>
<path style=" stroke:none;fill-rule:evenodd;fill:rgb(100%,0%,0%);fill-opacity:1;" d="M 16.199219 25 C 16.199219 25.550781 15.753906 26 15.199219 26 C 14.648438 26 14.199219 25.550781 14.199219 25 C 14.199219 24.449219 14.648438 24 15.199219 24 C 15.753906 24 16.199219 24.449219 16.199219 25 Z M 16.199219 25 "/>
<path style=" stroke:none;fill-rule:evenodd;fill:rgb(100%,0%,0%);fill-opacity:1;" d="M 16 23 C 16 23.550781 15.550781 24 15 24 C 14.449219 24 14 23.550781 14 23 C 14 22.449219 14.449219 22 15 22 C 15.550781 22 16 22.449219 16 23 Z M 16 23 "/>
<path style=" stroke:none;fill-rule:evenodd;fill:rgb(100%,0%,0%);fill-opacity:1;" d="M 15.800781 21 C 15.800781 21.550781 15.351562 22 14.800781 22 C 14.246094 22 13.800781 21.550781 13.800781 21 C 13.800781 20.449219 14.246094 20 14.800781 20 C 15.351562 20 15.800781 20.449219 15.800781 21 Z M 15.800781 21 "/>
<path style=" stroke:none;fill-rule:evenodd;fill:rgb(100%,0%,0%);fill-opacity:1;" d="M 15.601562 19 C 15.601562 19.550781 15.152344 20 14.601562 20 C 14.046875 20 13.601562 19.550781 13.601562 19 C 13.601562 18.449219 14.046875 18 14.601562 18 C 15.152344 18 15.601562 18.449219 15.601562 19 Z M 15.601562 19 "/>
<path style=" stroke:none;fill-rule:evenodd;fill:rgb(100%,0%,0%);fill-opacity:1;" d="M 15.398438 17 C 15.398438 17.550781 14.953125 18 14.398438 18 C 13.847656 18 13.398438 17.550781 13.398438 17 C 13.398438 16.449219 13.847656 16 14.398438 16 C 14.953125 16 15.398438 16.449219 15.398438 17 Z M 15.398438 17 "/>
<path style=" stroke:none;fill-rule:evenodd;fill:rgb(100%,0%,0%);fill-opacity:1;" d="M 15.199219 15 C 15.199219 15.550781 14.753906 16 14.199219 16 C 13.648438 16 13.199219 15.550781 13.199219 15 C 13.199219 14.449219 13.648438 14 14.199219 14 C 14.753906 14 15.199219 14.449219 15.199219 15 Z M 15.199219 15 "/>
<path style=" stroke:none;fill-rule:evenodd;fill:rgb(100%,0%,0%);fill-opacity:1;" d="M 15 13 C 15 13.550781 14.550781 14 14 14 C 13.449219 14 13 13.550781 13 13 C 13 12.449219 13.449219 12 14 12 C 14.550781 12 15 12.449219 15 13 Z M 15 13 "/>
<path style=" stroke:none;fill-rule:evenodd;fill:rgb(100%,0%,0%);fill-opacity:1;" d="M 14.800781 11 C 14.800781 11.550781 14.351562 12 13.800781 12 C 13.246094 12 12.800781 11.550781 12.800781 11 C 12.800781 10.449219 13.246094 10 13.800781 10 C 14.351562 10 14.800781 10.449219 14.800781 11 Z M 14.800781 11 "/>
<path style=" stroke:none;fill-rule:evenodd;fill:rgb(100%,0%,0%);fill-opacity:1;" d="M 14.601562 9 C 14.601562 9.550781 14.152344 10 13.601562 10 C 13.046875 10 12.601562 9.550781 12.601562 9 C 12.601562 8.449219 13.046875 8 13.601562 8 C 14.152344 8 14.601562 8.449219 14.601562 9 Z M 14.601562 9 "/>
<path style=" stroke:none;fill-rule:evenodd;fill:rgb(100%,0%,0%);fill-opacity:1;" d="M 14.398438 7 C 14.398438 7.550781 13.953125 8 13.398438 8 C 12.847656 8 12.398438 7.550781 12.398438 7 C 12.398438 6.449219 12.847656 6 13.398438 6 C 13.953125 6 14.398438 6.449219 14.398438 7 Z M 14.398438 7 "/>
<path style=" stroke:none;fill-rule:evenodd;fill:rgb(100%,0%,0%);fill-opacity:1;" d="M 14.199219 5 C 14.199219 5.550781 13.753906 6 13.199219 6 C 12.648438 6 12.199219 5.550781 12.199219 5 C 12.199219 4.449219 12.648438 4 13.199219 4 C 13.753906 4 14.199219 4.449219 14.199219 5 Z M 14.199219 5 "/>
<g clip-path="url(#clip2)" clip-rule="nonzero">
<path style=" stroke:none;fill-rule:evenodd;fill:rgb(100%,0%,0%);fill-opacity:1;" d="M 14 3 C 14 3.550781 13.550781 4 13 4 C 12.449219 4 12 3.550781 12 3 C 12 2.449219 12.449219 2 13 2 C 13.550781 2 14 2.449219 14 3 Z M 14 3 "/>
</g>
</g>
</svg>
