<?xml version="1.0" encoding="UTF-8"?>
<svg xmlns="http://www.w3.org/2000/svg" xmlns:xlink="http://www.w3.org/1999/xlink" width="206" height="206" viewBox="0 0 206 206" version="1.1">
<defs>
<clipPath id="clip1">
  <path d="M 3 3 L 203 3 L 203 203 L 3 203 Z M 3 3 "/>
</clipPath>
<clipPath id="clip2">
  <path d="M 202 99 L 203 99 L 203 102 L 202 102 Z M 202 99 "/>
</clipPath>
</defs>
<g id="surface317">
<path style=" stroke:none;fill-rule:nonzero;fill:rgb(100%,100%,100%);fill-opacity:1;" d="M 3 3 C 3 3 203 3 203 3 C 203 3 203 203 203 203 C 203 203 3 203 3 203 C 3 203 3 3 3 3 Z M 3 3 "/>
<g clip-path="url(#clip1)" clip-rule="nonzero">
<path style="fill:none;stroke-width:2;stroke-linecap:round;stroke-linejoin:round;stroke:rgb(0%,0%,0%);stroke-opacity:1;stroke-miterlimit:10;" d="M 3 3 C 3 3 203 3 203 3 C 203 3 203 203 203 203 C 203 203 3 203 3 203 C 3 203 3 3 3 3 Z M 3 3 "/>
</g>
<path style=" stroke:none;fill-rule:evenodd;fill:rgb(0%,29.411765%,100%);fill-opacity:1;" d="M 25.402344 92.066406 C 25.402344 92.621094 24.957031 93.066406 24.402344 93.066406 C 23.851562 93.066406 23.402344 92.621094 23.402344 92.066406 C 23.402344 91.515625 23.851562 91.066406 24.402344 91.066406 C 24.957031 91.066406 25.402344 91.515625 25.402344 92.066406 Z M 25.402344 92.066406 "/>
<path style=" stroke:none;fill-rule:evenodd;fill:rgb(0%,29.411765%,100%);fill-opacity:1;" d="M 26.816406 91.265625 C 26.816406 91.816406 26.367188 92.265625 25.816406 92.265625 C 25.265625 92.265625 24.816406 91.816406 24.816406 91.265625 C 24.816406 90.714844 25.265625 90.265625 25.816406 90.265625 C 26.367188 90.265625 26.816406 90.714844 26.816406 91.265625 Z M 26.816406 91.265625 "/>
<path style=" stroke:none;fill-rule:evenodd;fill:rgb(0%,29.411765%,100%);fill-opacity:1;" d="M 28.234375 90.582031 C 28.234375 91.132812 27.789062 91.582031 27.234375 91.582031 C 26.683594 91.582031 26.234375 91.132812 26.234375 90.582031 C 26.234375 90.027344 26.683594 89.582031 27.234375 89.582031 C 27.789062 89.582031 28.234375 90.027344 28.234375 90.582031 Z M 28.234375 90.582031 "/>
<path style=" stroke:none;fill-rule:evenodd;fill:rgb(0%,29.411765%,100%);fill-opacity:1;" d="M 29.664062 89.988281 C 29.664062 90.542969 29.214844 90.988281 28.664062 90.988281 C 28.113281 90.988281 27.664062 90.542969 27.664062 89.988281 C 27.664062 89.4375 28.113281 88.988281 28.664062 88.988281 C 29.214844 88.988281 29.664062 89.4375 29.664062 89.988281 Z M 29.664062 89.988281 "/>
<path style=" stroke:none;fill-rule:evenodd;fill:rgb(0%,29.411765%,100%);fill-opacity:1;" d="M 31.101562 89.460938 C 31.101562 90.015625 30.652344 90.460938 30.101562 90.460938 C 29.546875 90.460938 29.101562 90.015625 29.101562 89.460938 C 29.101562 88.910156 29.546875 88.460938 30.101562 88.460938 C 30.652344 88.460938 31.101562 88.910156 31.101562 89.460938 Z M 31.101562 89.460938 "/>
<path style=" stroke:none;fill-rule:evenodd;fill:rgb(0%,29.411765%,100%);fill-opacity:1;" d="M 32.542969 88.964844 C 32.542969 89.519531 32.097656 89.964844 31.542969 89.964844 C 30.992188 89.964844 30.542969 89.519531 30.542969 88.964844 C 30.542969 88.414062 30.992188 87.964844 31.542969 87.964844 C 32.097656 87.964844 32.542969 88.414062 32.542969 88.964844 Z M 32.542969 88.964844 "/>
<path style=" stroke:none;fill-rule:evenodd;fill:rgb(0%,29.411765%,100%);fill-opacity:1;" d="M 33.996094 88.460938 C 33.996094 89.015625 33.546875 89.460938 32.996094 89.460938 C 32.445312 89.460938 31.996094 89.015625 31.996094 88.460938 C 31.996094 87.910156 32.445312 87.460938 32.996094 87.460938 C 33.546875 87.460938 33.996094 87.910156 33.996094 88.460938 Z M 33.996094 88.460938 "/>
<path style=" stroke:none;fill-rule:evenodd;fill:rgb(0%,29.411765%,100%);fill-opacity:1;" d="M 35.457031 87.910156 C 35.457031 88.464844 35.007812 88.910156 34.457031 88.910156 C 33.902344 88.910156 33.457031 88.464844 33.457031 87.910156 C 33.457031 87.359375 33.902344 86.910156 34.457031 86.910156 C 35.007812 86.910156 35.457031 87.359375 35.457031 87.910156 Z M 35.457031 87.910156 "/>
<path style=" stroke:none;fill-rule:evenodd;fill:rgb(0%,29.411765%,100%);fill-opacity:1;" d="M 36.925781 87.277344 C 36.925781 87.828125 36.476562 88.277344 35.925781 88.277344 C 35.371094 88.277344 34.925781 87.828125 34.925781 87.277344 C 34.925781 86.726562 35.371094 86.277344 35.925781 86.277344 C 36.476562 86.277344 36.925781 86.726562 36.925781 87.277344 Z M 36.925781 87.277344 "/>
<path style=" stroke:none;fill-rule:evenodd;fill:rgb(0%,29.411765%,100%);fill-opacity:1;" d="M 38.398438 86.527344 C 38.398438 87.082031 37.953125 87.527344 37.398438 87.527344 C 36.847656 87.527344 36.398438 87.082031 36.398438 86.527344 C 36.398438 85.976562 36.847656 85.527344 37.398438 85.527344 C 37.953125 85.527344 38.398438 85.976562 38.398438 86.527344 Z M 38.398438 86.527344 "/>
<path style=" stroke:none;fill-rule:evenodd;fill:rgb(0%,29.411765%,100%);fill-opacity:1;" d="M 39.882812 85.636719 C 39.882812 86.1875 39.4375 86.636719 38.882812 86.636719 C 38.332031 86.636719 37.882812 86.1875 37.882812 85.636719 C 37.882812 85.082031 38.332031 84.636719 38.882812 84.636719 C 39.4375 84.636719 39.882812 85.082031 39.882812 85.636719 Z M 39.882812 85.636719 "/>
<path style=" stroke:none;fill-rule:evenodd;fill:rgb(0%,29.411765%,100%);fill-opacity:1;" d="M 41.375 84.582031 C 41.375 85.136719 40.929688 85.582031 40.375 85.582031 C 39.824219 85.582031 39.375 85.136719 39.375 84.582031 C 39.375 84.03125 39.824219 83.582031 40.375 83.582031 C 40.929688 83.582031 41.375 84.03125 41.375 84.582031 Z M 41.375 84.582031 "/>
<path style=" stroke:none;fill-rule:evenodd;fill:rgb(0%,29.411765%,100%);fill-opacity:1;" d="M 42.875 83.363281 C 42.875 83.914062 42.429688 84.363281 41.875 84.363281 C 41.324219 84.363281 40.875 83.914062 40.875 83.363281 C 40.875 82.808594 41.324219 82.363281 41.875 82.363281 C 42.429688 82.363281 42.875 82.808594 42.875 83.363281 Z M 42.875 83.363281 "/>
<path style=" stroke:none;fill-rule:evenodd;fill:rgb(0%,29.411765%,100%);fill-opacity:1;" d="M 44.382812 81.976562 C 44.382812 82.527344 43.9375 82.976562 43.382812 82.976562 C 42.832031 82.976562 42.382812 82.527344 42.382812 81.976562 C 42.382812 81.421875 42.832031 80.976562 43.382812 80.976562 C 43.9375 80.976562 44.382812 81.421875 44.382812 81.976562 Z M 44.382812 81.976562 "/>
<path style=" stroke:none;fill-rule:evenodd;fill:rgb(0%,29.411765%,100%);fill-opacity:1;" d="M 45.898438 80.433594 C 45.898438 80.988281 45.453125 81.433594 44.898438 81.433594 C 44.347656 81.433594 43.898438 80.988281 43.898438 80.433594 C 43.898438 79.882812 44.347656 79.433594 44.898438 79.433594 C 45.453125 79.433594 45.898438 79.882812 45.898438 80.433594 Z M 45.898438 80.433594 "/>
<path style=" stroke:none;fill-rule:evenodd;fill:rgb(0%,29.411765%,100%);fill-opacity:1;" d="M 47.425781 78.769531 C 47.425781 79.320312 46.976562 79.769531 46.425781 79.769531 C 45.871094 79.769531 45.425781 79.320312 45.425781 78.769531 C 45.425781 78.214844 45.871094 77.769531 46.425781 77.769531 C 46.976562 77.769531 47.425781 78.214844 47.425781 78.769531 Z M 47.425781 78.769531 "/>
<path style=" stroke:none;fill-rule:evenodd;fill:rgb(0%,29.411765%,100%);fill-opacity:1;" d="M 48.957031 77.007812 C 48.957031 77.5625 48.507812 78.007812 47.957031 78.007812 C 47.402344 78.007812 46.957031 77.5625 46.957031 77.007812 C 46.957031 76.457031 47.402344 76.007812 47.957031 76.007812 C 48.507812 76.007812 48.957031 76.457031 48.957031 77.007812 Z M 48.957031 77.007812 "/>
<path style=" stroke:none;fill-rule:evenodd;fill:rgb(0%,29.411765%,100%);fill-opacity:1;" d="M 50.496094 75.203125 C 50.496094 75.753906 50.046875 76.203125 49.496094 76.203125 C 48.945312 76.203125 48.496094 75.753906 48.496094 75.203125 C 48.496094 74.648438 48.945312 74.203125 49.496094 74.203125 C 50.046875 74.203125 50.496094 74.648438 50.496094 75.203125 Z M 50.496094 75.203125 "/>
<path style=" stroke:none;fill-rule:evenodd;fill:rgb(0%,29.411765%,100%);fill-opacity:1;" d="M 52.042969 73.402344 C 52.042969 73.953125 51.597656 74.402344 51.042969 74.402344 C 50.492188 74.402344 50.042969 73.953125 50.042969 73.402344 C 50.042969 72.847656 50.492188 72.402344 51.042969 72.402344 C 51.597656 72.402344 52.042969 72.847656 52.042969 73.402344 Z M 52.042969 73.402344 "/>
<path style=" stroke:none;fill-rule:evenodd;fill:rgb(0%,29.411765%,100%);fill-opacity:1;" d="M 53.601562 71.660156 C 53.601562 72.210938 53.152344 72.660156 52.601562 72.660156 C 52.046875 72.660156 51.601562 72.210938 51.601562 71.660156 C 51.601562 71.105469 52.046875 70.660156 52.601562 70.660156 C 53.152344 70.660156 53.601562 71.105469 53.601562 71.660156 Z M 53.601562 71.660156 "/>
<path style=" stroke:none;fill-rule:evenodd;fill:rgb(0%,29.411765%,100%);fill-opacity:1;" d="M 55.164062 70.035156 C 55.164062 70.589844 54.714844 71.035156 54.164062 71.035156 C 53.613281 71.035156 53.164062 70.589844 53.164062 70.035156 C 53.164062 69.484375 53.613281 69.035156 54.164062 69.035156 C 54.714844 69.035156 55.164062 69.484375 55.164062 70.035156 Z M 55.164062 70.035156 "/>
<path style=" stroke:none;fill-rule:evenodd;fill:rgb(0%,29.411765%,100%);fill-opacity:1;" d="M 56.734375 68.589844 C 56.734375 69.144531 56.289062 69.589844 55.734375 69.589844 C 55.183594 69.589844 54.734375 69.144531 54.734375 68.589844 C 54.734375 68.039062 55.183594 67.589844 55.734375 67.589844 C 56.289062 67.589844 56.734375 68.039062 56.734375 68.589844 Z M 56.734375 68.589844 "/>
<path style=" stroke:none;fill-rule:evenodd;fill:rgb(0%,29.411765%,100%);fill-opacity:1;" d="M 58.316406 67.375 C 58.316406 67.929688 57.867188 68.375 57.316406 68.375 C 56.765625 68.375 56.316406 67.929688 56.316406 67.375 C 56.316406 66.824219 56.765625 66.375 57.316406 66.375 C 57.867188 66.375 58.316406 66.824219 58.316406 67.375 Z M 58.316406 67.375 "/>
<path style=" stroke:none;fill-rule:evenodd;fill:rgb(0%,29.411765%,100%);fill-opacity:1;" d="M 59.902344 66.4375 C 59.902344 66.988281 59.457031 67.4375 58.902344 67.4375 C 58.351562 67.4375 57.902344 66.988281 57.902344 66.4375 C 57.902344 65.882812 58.351562 65.4375 58.902344 65.4375 C 59.457031 65.4375 59.902344 65.882812 59.902344 66.4375 Z M 59.902344 66.4375 "/>
<path style=" stroke:none;fill-rule:evenodd;fill:rgb(0%,29.411765%,100%);fill-opacity:1;" d="M 61.5 65.808594 C 61.5 66.359375 61.050781 66.808594 60.5 66.808594 C 59.949219 66.808594 59.5 66.359375 59.5 65.808594 C 59.5 65.253906 59.949219 64.808594 60.5 64.808594 C 61.050781 64.808594 61.5 65.253906 61.5 65.808594 Z M 61.5 65.808594 "/>
<path style=" stroke:none;fill-rule:evenodd;fill:rgb(0%,29.411765%,100%);fill-opacity:1;" d="M 63.105469 65.515625 C 63.105469 66.070312 62.65625 66.515625 62.105469 66.515625 C 61.550781 66.515625 61.105469 66.070312 61.105469 65.515625 C 61.105469 64.964844 61.550781 64.515625 62.105469 64.515625 C 62.65625 64.515625 63.105469 64.964844 63.105469 65.515625 Z M 63.105469 65.515625 "/>
<path style=" stroke:none;fill-rule:evenodd;fill:rgb(0%,29.411765%,100%);fill-opacity:1;" d="M 64.714844 65.574219 C 64.714844 66.125 64.269531 66.574219 63.714844 66.574219 C 63.164062 66.574219 62.714844 66.125 62.714844 65.574219 C 62.714844 65.019531 63.164062 64.574219 63.714844 64.574219 C 64.269531 64.574219 64.714844 65.019531 64.714844 65.574219 Z M 64.714844 65.574219 "/>
<path style=" stroke:none;fill-rule:evenodd;fill:rgb(0%,29.411765%,100%);fill-opacity:1;" d="M 66.335938 65.96875 C 66.335938 66.523438 65.886719 66.96875 65.335938 66.96875 C 64.785156 66.96875 64.335938 66.523438 64.335938 65.96875 C 64.335938 65.417969 64.785156 64.96875 65.335938 64.96875 C 65.886719 64.96875 66.335938 65.417969 66.335938 65.96875 Z M 66.335938 65.96875 "/>
<path style=" stroke:none;fill-rule:evenodd;fill:rgb(0%,29.411765%,100%);fill-opacity:1;" d="M 67.964844 66.6875 C 67.964844 67.238281 67.515625 67.6875 66.964844 67.6875 C 66.410156 67.6875 65.964844 67.238281 65.964844 66.6875 C 65.964844 66.132812 66.410156 65.6875 66.964844 65.6875 C 67.515625 65.6875 67.964844 66.132812 67.964844 66.6875 Z M 67.964844 66.6875 "/>
<path style=" stroke:none;fill-rule:evenodd;fill:rgb(0%,29.411765%,100%);fill-opacity:1;" d="M 69.601562 67.683594 C 69.601562 68.238281 69.152344 68.683594 68.601562 68.683594 C 68.046875 68.683594 67.601562 68.238281 67.601562 67.683594 C 67.601562 67.132812 68.046875 66.683594 68.601562 66.683594 C 69.152344 66.683594 69.601562 67.132812 69.601562 67.683594 Z M 69.601562 67.683594 "/>
<path style=" stroke:none;fill-rule:evenodd;fill:rgb(0%,29.411765%,100%);fill-opacity:1;" d="M 71.242188 68.914062 C 71.242188 69.46875 70.796875 69.914062 70.242188 69.914062 C 69.691406 69.914062 69.242188 69.46875 69.242188 68.914062 C 69.242188 68.363281 69.691406 67.914062 70.242188 67.914062 C 70.796875 67.914062 71.242188 68.363281 71.242188 68.914062 Z M 71.242188 68.914062 "/>
<path style=" stroke:none;fill-rule:evenodd;fill:rgb(0%,29.411765%,100%);fill-opacity:1;" d="M 72.894531 70.3125 C 72.894531 70.863281 72.449219 71.3125 71.894531 71.3125 C 71.34375 71.3125 70.894531 70.863281 70.894531 70.3125 C 70.894531 69.757812 71.34375 69.3125 71.894531 69.3125 C 72.449219 69.3125 72.894531 69.757812 72.894531 70.3125 Z M 72.894531 70.3125 "/>
<path style=" stroke:none;fill-rule:evenodd;fill:rgb(0%,29.411765%,100%);fill-opacity:1;" d="M 74.554688 71.796875 C 74.554688 72.347656 74.109375 72.796875 73.554688 72.796875 C 73.003906 72.796875 72.554688 72.347656 72.554688 71.796875 C 72.554688 71.242188 73.003906 70.796875 73.554688 70.796875 C 74.109375 70.796875 74.554688 71.242188 74.554688 71.796875 Z M 74.554688 71.796875 "/>
<path style=" stroke:none;fill-rule:evenodd;fill:rgb(0%,29.411765%,100%);fill-opacity:1;" d="M 76.222656 73.289062 C 76.222656 73.839844 75.777344 74.289062 75.222656 74.289062 C 74.671875 74.289062 74.222656 73.839844 74.222656 73.289062 C 74.222656 72.734375 74.671875 72.289062 75.222656 72.289062 C 75.777344 72.289062 76.222656 72.734375 76.222656 73.289062 Z M 76.222656 73.289062 "/>
<path style=" stroke:none;fill-rule:evenodd;fill:rgb(0%,29.411765%,100%);fill-opacity:1;" d="M 77.898438 74.699219 C 77.898438 75.25 77.453125 75.699219 76.898438 75.699219 C 76.347656 75.699219 75.898438 75.25 75.898438 74.699219 C 75.898438 74.144531 76.347656 73.699219 76.898438 73.699219 C 77.453125 73.699219 77.898438 74.144531 77.898438 74.699219 Z M 77.898438 74.699219 "/>
<path style=" stroke:none;fill-rule:evenodd;fill:rgb(0%,29.411765%,100%);fill-opacity:1;" d="M 79.585938 75.941406 C 79.585938 76.492188 79.136719 76.941406 78.585938 76.941406 C 78.03125 76.941406 77.585938 76.492188 77.585938 75.941406 C 77.585938 75.386719 78.03125 74.941406 78.585938 74.941406 C 79.136719 74.941406 79.585938 75.386719 79.585938 75.941406 Z M 79.585938 75.941406 "/>
<path style=" stroke:none;fill-rule:evenodd;fill:rgb(0%,29.411765%,100%);fill-opacity:1;" d="M 81.277344 76.925781 C 81.277344 77.480469 80.828125 77.925781 80.277344 77.925781 C 79.722656 77.925781 79.277344 77.480469 79.277344 76.925781 C 79.277344 76.375 79.722656 75.925781 80.277344 75.925781 C 80.828125 75.925781 81.277344 76.375 81.277344 76.925781 Z M 81.277344 76.925781 "/>
<path style=" stroke:none;fill-rule:evenodd;fill:rgb(0%,29.411765%,100%);fill-opacity:1;" d="M 82.976562 77.585938 C 82.976562 78.136719 82.527344 78.585938 81.976562 78.585938 C 81.421875 78.585938 80.976562 78.136719 80.976562 77.585938 C 80.976562 77.035156 81.421875 76.585938 81.976562 76.585938 C 82.527344 76.585938 82.976562 77.035156 82.976562 77.585938 Z M 82.976562 77.585938 "/>
<path style=" stroke:none;fill-rule:evenodd;fill:rgb(0%,29.411765%,100%);fill-opacity:1;" d="M 84.683594 77.851562 C 84.683594 78.402344 84.234375 78.851562 83.683594 78.851562 C 83.132812 78.851562 82.683594 78.402344 82.683594 77.851562 C 82.683594 77.296875 83.132812 76.851562 83.683594 76.851562 C 84.234375 76.851562 84.683594 77.296875 84.683594 77.851562 Z M 84.683594 77.851562 "/>
<path style=" stroke:none;fill-rule:evenodd;fill:rgb(0%,29.411765%,100%);fill-opacity:1;" d="M 86.398438 77.671875 C 86.398438 78.222656 85.953125 78.671875 85.398438 78.671875 C 84.847656 78.671875 84.398438 78.222656 84.398438 77.671875 C 84.398438 77.121094 84.847656 76.671875 85.398438 76.671875 C 85.953125 76.671875 86.398438 77.121094 86.398438 77.671875 Z M 86.398438 77.671875 "/>
<path style=" stroke:none;fill-rule:evenodd;fill:rgb(0%,29.411765%,100%);fill-opacity:1;" d="M 88.125 77.019531 C 88.125 77.570312 87.675781 78.019531 87.125 78.019531 C 86.570312 78.019531 86.125 77.570312 86.125 77.019531 C 86.125 76.464844 86.570312 76.019531 87.125 76.019531 C 87.675781 76.019531 88.125 76.464844 88.125 77.019531 Z M 88.125 77.019531 "/>
<path style=" stroke:none;fill-rule:evenodd;fill:rgb(0%,29.411765%,100%);fill-opacity:1;" d="M 89.855469 75.878906 C 89.855469 76.433594 89.410156 76.878906 88.855469 76.878906 C 88.304688 76.878906 87.855469 76.433594 87.855469 75.878906 C 87.855469 75.328125 88.304688 74.878906 88.855469 74.878906 C 89.410156 74.878906 89.855469 75.328125 89.855469 75.878906 Z M 89.855469 75.878906 "/>
<path style=" stroke:none;fill-rule:evenodd;fill:rgb(0%,29.411765%,100%);fill-opacity:1;" d="M 91.597656 74.265625 C 91.597656 74.816406 91.148438 75.265625 90.597656 75.265625 C 90.042969 75.265625 89.597656 74.816406 89.597656 74.265625 C 89.597656 73.714844 90.042969 73.265625 90.597656 73.265625 C 91.148438 73.265625 91.597656 73.714844 91.597656 74.265625 Z M 91.597656 74.265625 "/>
<path style=" stroke:none;fill-rule:evenodd;fill:rgb(0%,29.411765%,100%);fill-opacity:1;" d="M 93.34375 72.207031 C 93.34375 72.761719 92.894531 73.207031 92.34375 73.207031 C 91.792969 73.207031 91.34375 72.761719 91.34375 72.207031 C 91.34375 71.65625 91.792969 71.207031 92.34375 71.207031 C 92.894531 71.207031 93.34375 71.65625 93.34375 72.207031 Z M 93.34375 72.207031 "/>
<path style=" stroke:none;fill-rule:evenodd;fill:rgb(0%,29.411765%,100%);fill-opacity:1;" d="M 95.101562 69.761719 C 95.101562 70.316406 94.652344 70.761719 94.101562 70.761719 C 93.546875 70.761719 93.101562 70.316406 93.101562 69.761719 C 93.101562 69.210938 93.546875 68.761719 94.101562 68.761719 C 94.652344 68.761719 95.101562 69.210938 95.101562 69.761719 Z M 95.101562 69.761719 "/>
<path style=" stroke:none;fill-rule:evenodd;fill:rgb(0%,29.411765%,100%);fill-opacity:1;" d="M 96.863281 67.003906 C 96.863281 67.554688 96.417969 68.003906 95.863281 68.003906 C 95.3125 68.003906 94.863281 67.554688 94.863281 67.003906 C 94.863281 66.453125 95.3125 66.003906 95.863281 66.003906 C 96.417969 66.003906 96.863281 66.453125 96.863281 67.003906 Z M 96.863281 67.003906 "/>
<path style=" stroke:none;fill-rule:evenodd;fill:rgb(0%,29.411765%,100%);fill-opacity:1;" d="M 98.636719 64.019531 C 98.636719 64.574219 98.1875 65.019531 97.636719 65.019531 C 97.082031 65.019531 96.636719 64.574219 96.636719 64.019531 C 96.636719 63.46875 97.082031 63.019531 97.636719 63.019531 C 98.1875 63.019531 98.636719 63.46875 98.636719 64.019531 Z M 98.636719 64.019531 "/>
<path style=" stroke:none;fill-rule:evenodd;fill:rgb(0%,29.411765%,100%);fill-opacity:1;" d="M 100.414062 60.921875 C 100.414062 61.472656 99.96875 61.921875 99.414062 61.921875 C 98.863281 61.921875 98.414062 61.472656 98.414062 60.921875 C 98.414062 60.371094 98.863281 59.921875 99.414062 59.921875 C 99.96875 59.921875 100.414062 60.371094 100.414062 60.921875 Z M 100.414062 60.921875 "/>
<path style=" stroke:none;fill-rule:evenodd;fill:rgb(0%,29.411765%,100%);fill-opacity:1;" d="M 102.203125 57.820312 C 102.203125 58.371094 101.757812 58.820312 101.203125 58.820312 C 100.652344 58.820312 100.203125 58.371094 100.203125 57.820312 C 100.203125 57.269531 100.652344 56.820312 101.203125 56.820312 C 101.757812 56.820312 102.203125 57.269531 102.203125 57.820312 Z M 102.203125 57.820312 "/>
<path style=" stroke:none;fill-rule:evenodd;fill:rgb(0%,29.411765%,100%);fill-opacity:1;" d="M 104 54.839844 C 104 55.390625 103.550781 55.839844 103 55.839844 C 102.449219 55.839844 102 55.390625 102 54.839844 C 102 54.289062 102.449219 53.839844 103 53.839844 C 103.550781 53.839844 104 54.289062 104 54.839844 Z M 104 54.839844 "/>
<path style=" stroke:none;fill-rule:evenodd;fill:rgb(0%,29.411765%,100%);fill-opacity:1;" d="M 105.804688 52.101562 C 105.804688 52.652344 105.355469 53.101562 104.804688 53.101562 C 104.25 53.101562 103.804688 52.652344 103.804688 52.101562 C 103.804688 51.546875 104.25 51.101562 104.804688 51.101562 C 105.355469 51.101562 105.804688 51.546875 105.804688 52.101562 Z M 105.804688 52.101562 "/>
<path style=" stroke:none;fill-rule:evenodd;fill:rgb(0%,29.411765%,100%);fill-opacity:1;" d="M 107.617188 49.71875 C 107.617188 50.269531 107.167969 50.71875 106.617188 50.71875 C 106.0625 50.71875 105.617188 50.269531 105.617188 49.71875 C 105.617188 49.164062 106.0625 48.71875 106.617188 48.71875 C 107.167969 48.71875 107.617188 49.164062 107.617188 49.71875 Z M 107.617188 49.71875 "/>
<path style=" stroke:none;fill-rule:evenodd;fill:rgb(0%,29.411765%,100%);fill-opacity:1;" d="M 109.4375 47.800781 C 109.4375 48.351562 108.988281 48.800781 108.4375 48.800781 C 107.882812 48.800781 107.4375 48.351562 107.4375 47.800781 C 107.4375 47.246094 107.882812 46.800781 108.4375 46.800781 C 108.988281 46.800781 109.4375 47.246094 109.4375 47.800781 Z M 109.4375 47.800781 "/>
<path style=" stroke:none;fill-rule:evenodd;fill:rgb(0%,29.411765%,100%);fill-opacity:1;" d="M 111.265625 46.4375 C 111.265625 46.988281 110.816406 47.4375 110.265625 47.4375 C 109.710938 47.4375 109.265625 46.988281 109.265625 46.4375 C 109.265625 45.882812 109.710938 45.4375 110.265625 45.4375 C 110.816406 45.4375 111.265625 45.882812 111.265625 46.4375 Z M 111.265625 46.4375 "/>
<path style=" stroke:none;fill-rule:evenodd;fill:rgb(0%,29.411765%,100%);fill-opacity:1;" d="M 113.101562 45.699219 C 113.101562 46.253906 112.652344 46.699219 112.101562 46.699219 C 111.546875 46.699219 111.101562 46.253906 111.101562 45.699219 C 111.101562 45.148438 111.546875 44.699219 112.101562 44.699219 C 112.652344 44.699219 113.101562 45.148438 113.101562 45.699219 Z M 113.101562 45.699219 "/>
<path style=" stroke:none;fill-rule:evenodd;fill:rgb(0%,29.411765%,100%);fill-opacity:1;" d="M 114.945312 45.636719 C 114.945312 46.191406 114.496094 46.636719 113.945312 46.636719 C 113.390625 46.636719 112.945312 46.191406 112.945312 45.636719 C 112.945312 45.085938 113.390625 44.636719 113.945312 44.636719 C 114.496094 44.636719 114.945312 45.085938 114.945312 45.636719 Z M 114.945312 45.636719 "/>
<path style=" stroke:none;fill-rule:evenodd;fill:rgb(0%,29.411765%,100%);fill-opacity:1;" d="M 116.796875 46.269531 C 116.796875 46.824219 116.347656 47.269531 115.796875 47.269531 C 115.242188 47.269531 114.796875 46.824219 114.796875 46.269531 C 114.796875 45.71875 115.242188 45.269531 115.796875 45.269531 C 116.347656 45.269531 116.796875 45.71875 116.796875 46.269531 Z M 116.796875 46.269531 "/>
<path style=" stroke:none;fill-rule:evenodd;fill:rgb(0%,29.411765%,100%);fill-opacity:1;" d="M 118.65625 47.59375 C 118.65625 48.148438 118.207031 48.59375 117.65625 48.59375 C 117.105469 48.59375 116.65625 48.148438 116.65625 47.59375 C 116.65625 47.042969 117.105469 46.59375 117.65625 46.59375 C 118.207031 46.59375 118.65625 47.042969 118.65625 47.59375 Z M 118.65625 47.59375 "/>
<path style=" stroke:none;fill-rule:evenodd;fill:rgb(0%,29.411765%,100%);fill-opacity:1;" d="M 120.523438 49.574219 C 120.523438 50.125 120.078125 50.574219 119.523438 50.574219 C 118.972656 50.574219 118.523438 50.125 118.523438 49.574219 C 118.523438 49.019531 118.972656 48.574219 119.523438 48.574219 C 120.078125 48.574219 120.523438 49.019531 120.523438 49.574219 Z M 120.523438 49.574219 "/>
<path style=" stroke:none;fill-rule:evenodd;fill:rgb(0%,29.411765%,100%);fill-opacity:1;" d="M 122.398438 52.140625 C 122.398438 52.695312 121.953125 53.140625 121.398438 53.140625 C 120.847656 53.140625 120.398438 52.695312 120.398438 52.140625 C 120.398438 51.589844 120.847656 51.140625 121.398438 51.140625 C 121.953125 51.140625 122.398438 51.589844 122.398438 52.140625 Z M 122.398438 52.140625 "/>
<path style=" stroke:none;fill-rule:evenodd;fill:rgb(0%,29.411765%,100%);fill-opacity:1;" d="M 124.285156 55.210938 C 124.285156 55.765625 123.835938 56.210938 123.285156 56.210938 C 122.730469 56.210938 122.285156 55.765625 122.285156 55.210938 C 122.285156 54.660156 122.730469 54.210938 123.285156 54.210938 C 123.835938 54.210938 124.285156 54.660156 124.285156 55.210938 Z M 124.285156 55.210938 "/>
<path style=" stroke:none;fill-rule:evenodd;fill:rgb(0%,29.411765%,100%);fill-opacity:1;" d="M 126.175781 58.671875 C 126.175781 59.222656 125.726562 59.671875 125.175781 59.671875 C 124.625 59.671875 124.175781 59.222656 124.175781 58.671875 C 124.175781 58.121094 124.625 57.671875 125.175781 57.671875 C 125.726562 57.671875 126.175781 58.121094 126.175781 58.671875 Z M 126.175781 58.671875 "/>
<path style=" stroke:none;fill-rule:evenodd;fill:rgb(0%,29.411765%,100%);fill-opacity:1;" d="M 128.074219 62.386719 C 128.074219 62.941406 127.628906 63.386719 127.074219 63.386719 C 126.523438 63.386719 126.074219 62.941406 126.074219 62.386719 C 126.074219 61.835938 126.523438 61.386719 127.074219 61.386719 C 127.628906 61.386719 128.074219 61.835938 128.074219 62.386719 Z M 128.074219 62.386719 "/>
<path style=" stroke:none;fill-rule:evenodd;fill:rgb(0%,29.411765%,100%);fill-opacity:1;" d="M 129.984375 66.214844 C 129.984375 66.765625 129.535156 67.214844 128.984375 67.214844 C 128.433594 67.214844 127.984375 66.765625 127.984375 66.214844 C 127.984375 65.660156 128.433594 65.214844 128.984375 65.214844 C 129.535156 65.214844 129.984375 65.660156 129.984375 66.214844 Z M 129.984375 66.214844 "/>
<path style=" stroke:none;fill-rule:evenodd;fill:rgb(0%,29.411765%,100%);fill-opacity:1;" d="M 131.898438 69.992188 C 131.898438 70.546875 131.453125 70.992188 130.898438 70.992188 C 130.347656 70.992188 129.898438 70.546875 129.898438 69.992188 C 129.898438 69.441406 130.347656 68.992188 130.898438 68.992188 C 131.453125 68.992188 131.898438 69.441406 131.898438 69.992188 Z M 131.898438 69.992188 "/>
<path style=" stroke:none;fill-rule:evenodd;fill:rgb(0%,29.411765%,100%);fill-opacity:1;" d="M 133.824219 73.570312 C 133.824219 74.125 133.375 74.570312 132.824219 74.570312 C 132.273438 74.570312 131.824219 74.125 131.824219 73.570312 C 131.824219 73.019531 132.273438 72.570312 132.824219 72.570312 C 133.375 72.570312 133.824219 73.019531 133.824219 73.570312 Z M 133.824219 73.570312 "/>
<path style=" stroke:none;fill-rule:evenodd;fill:rgb(0%,29.411765%,100%);fill-opacity:1;" d="M 135.757812 76.792969 C 135.757812 77.347656 135.308594 77.792969 134.757812 77.792969 C 134.203125 77.792969 133.757812 77.347656 133.757812 76.792969 C 133.757812 76.242188 134.203125 75.792969 134.757812 75.792969 C 135.308594 75.792969 135.757812 76.242188 135.757812 76.792969 Z M 135.757812 76.792969 "/>
<path style=" stroke:none;fill-rule:evenodd;fill:rgb(0%,29.411765%,100%);fill-opacity:1;" d="M 137.695312 79.519531 C 137.695312 80.070312 137.25 80.519531 136.695312 80.519531 C 136.144531 80.519531 135.695312 80.070312 135.695312 79.519531 C 135.695312 78.964844 136.144531 78.519531 136.695312 78.519531 C 137.25 78.519531 137.695312 78.964844 137.695312 79.519531 Z M 137.695312 79.519531 "/>
<path style=" stroke:none;fill-rule:evenodd;fill:rgb(0%,29.411765%,100%);fill-opacity:1;" d="M 139.644531 81.621094 C 139.644531 82.175781 139.195312 82.621094 138.644531 82.621094 C 138.089844 82.621094 137.644531 82.175781 137.644531 81.621094 C 137.644531 81.070312 138.089844 80.621094 138.644531 80.621094 C 139.195312 80.621094 139.644531 81.070312 139.644531 81.621094 Z M 139.644531 81.621094 "/>
<path style=" stroke:none;fill-rule:evenodd;fill:rgb(0%,29.411765%,100%);fill-opacity:1;" d="M 141.601562 83.003906 C 141.601562 83.554688 141.152344 84.003906 140.601562 84.003906 C 140.046875 84.003906 139.601562 83.554688 139.601562 83.003906 C 139.601562 82.449219 140.046875 82.003906 140.601562 82.003906 C 141.152344 82.003906 141.601562 82.449219 141.601562 83.003906 Z M 141.601562 83.003906 "/>
<path style=" stroke:none;fill-rule:evenodd;fill:rgb(0%,29.411765%,100%);fill-opacity:1;" d="M 143.5625 83.585938 C 143.5625 84.136719 143.117188 84.585938 142.5625 84.585938 C 142.011719 84.585938 141.5625 84.136719 141.5625 83.585938 C 141.5625 83.035156 142.011719 82.585938 142.5625 82.585938 C 143.117188 82.585938 143.5625 83.035156 143.5625 83.585938 Z M 143.5625 83.585938 "/>
<path style=" stroke:none;fill-rule:evenodd;fill:rgb(0%,29.411765%,100%);fill-opacity:1;" d="M 145.535156 83.332031 C 145.535156 83.882812 145.089844 84.332031 144.535156 84.332031 C 143.984375 84.332031 143.535156 83.882812 143.535156 83.332031 C 143.535156 82.777344 143.984375 82.332031 144.535156 82.332031 C 145.089844 82.332031 145.535156 82.777344 145.535156 83.332031 Z M 145.535156 83.332031 "/>
<path style=" stroke:none;fill-rule:evenodd;fill:rgb(0%,29.411765%,100%);fill-opacity:1;" d="M 147.515625 82.226562 C 147.515625 82.78125 147.066406 83.226562 146.515625 83.226562 C 145.964844 83.226562 145.515625 82.78125 145.515625 82.226562 C 145.515625 81.675781 145.964844 81.226562 146.515625 81.226562 C 147.066406 81.226562 147.515625 81.675781 147.515625 82.226562 Z M 147.515625 82.226562 "/>
<path style=" stroke:none;fill-rule:evenodd;fill:rgb(0%,29.411765%,100%);fill-opacity:1;" d="M 149.503906 80.308594 C 149.503906 80.859375 149.054688 81.308594 148.503906 81.308594 C 147.953125 81.308594 147.503906 80.859375 147.503906 80.308594 C 147.503906 79.753906 147.953125 79.308594 148.503906 79.308594 C 149.054688 79.308594 149.503906 79.753906 149.503906 80.308594 Z M 149.503906 80.308594 "/>
<path style=" stroke:none;fill-rule:evenodd;fill:rgb(0%,29.411765%,100%);fill-opacity:1;" d="M 151.5 77.632812 C 151.5 78.183594 151.050781 78.632812 150.5 78.632812 C 149.949219 78.632812 149.5 78.183594 149.5 77.632812 C 149.5 77.078125 149.949219 76.632812 150.5 76.632812 C 151.050781 76.632812 151.5 77.078125 151.5 77.632812 Z M 151.5 77.632812 "/>
<path style=" stroke:none;fill-rule:evenodd;fill:rgb(0%,29.411765%,100%);fill-opacity:1;" d="M 153.503906 74.296875 C 153.503906 74.851562 153.054688 75.296875 152.503906 75.296875 C 151.953125 75.296875 151.503906 74.851562 151.503906 74.296875 C 151.503906 73.746094 151.953125 73.296875 152.503906 73.296875 C 153.054688 73.296875 153.503906 73.746094 153.503906 74.296875 Z M 153.503906 74.296875 "/>
<path style=" stroke:none;fill-rule:evenodd;fill:rgb(0%,29.411765%,100%);fill-opacity:1;" d="M 155.515625 70.433594 C 155.515625 70.984375 155.066406 71.433594 154.515625 71.433594 C 153.964844 71.433594 153.515625 70.984375 153.515625 70.433594 C 153.515625 69.882812 153.964844 69.433594 154.515625 69.433594 C 155.066406 69.433594 155.515625 69.882812 155.515625 70.433594 Z M 155.515625 70.433594 "/>
<path style=" stroke:none;fill-rule:evenodd;fill:rgb(0%,29.411765%,100%);fill-opacity:1;" d="M 157.535156 66.195312 C 157.535156 66.746094 157.089844 67.195312 156.535156 67.195312 C 155.984375 67.195312 155.535156 66.746094 155.535156 66.195312 C 155.535156 65.640625 155.984375 65.195312 156.535156 65.195312 C 157.089844 65.195312 157.535156 65.640625 157.535156 66.195312 Z M 157.535156 66.195312 "/>
<path style=" stroke:none;fill-rule:evenodd;fill:rgb(0%,29.411765%,100%);fill-opacity:1;" d="M 159.5625 61.75 C 159.5625 62.300781 159.117188 62.75 158.5625 62.75 C 158.011719 62.75 157.5625 62.300781 157.5625 61.75 C 157.5625 61.199219 158.011719 60.75 158.5625 60.75 C 159.117188 60.75 159.5625 61.199219 159.5625 61.75 Z M 159.5625 61.75 "/>
<path style=" stroke:none;fill-rule:evenodd;fill:rgb(0%,29.411765%,100%);fill-opacity:1;" d="M 161.601562 57.289062 C 161.601562 57.84375 161.152344 58.289062 160.601562 58.289062 C 160.046875 58.289062 159.601562 57.84375 159.601562 57.289062 C 159.601562 56.738281 160.046875 56.289062 160.601562 56.289062 C 161.152344 56.289062 161.601562 56.738281 161.601562 57.289062 Z M 161.601562 57.289062 "/>
<path style=" stroke:none;fill-rule:evenodd;fill:rgb(0%,29.411765%,100%);fill-opacity:1;" d="M 163.644531 53.007812 C 163.644531 53.558594 163.195312 54.007812 162.644531 54.007812 C 162.089844 54.007812 161.644531 53.558594 161.644531 53.007812 C 161.644531 52.457031 162.089844 52.007812 162.644531 52.007812 C 163.195312 52.007812 163.644531 52.457031 163.644531 53.007812 Z M 163.644531 53.007812 "/>
<path style=" stroke:none;fill-rule:evenodd;fill:rgb(0%,29.411765%,100%);fill-opacity:1;" d="M 165.695312 49.09375 C 165.695312 49.648438 165.25 50.09375 164.695312 50.09375 C 164.144531 50.09375 163.695312 49.648438 163.695312 49.09375 C 163.695312 48.542969 164.144531 48.09375 164.695312 48.09375 C 165.25 48.09375 165.695312 48.542969 165.695312 49.09375 Z M 165.695312 49.09375 "/>
<path style=" stroke:none;fill-rule:evenodd;fill:rgb(0%,29.411765%,100%);fill-opacity:1;" d="M 167.757812 45.730469 C 167.757812 46.285156 167.308594 46.730469 166.757812 46.730469 C 166.203125 46.730469 165.757812 46.285156 165.757812 45.730469 C 165.757812 45.179688 166.203125 44.730469 166.757812 44.730469 C 167.308594 44.730469 167.757812 45.179688 167.757812 45.730469 Z M 167.757812 45.730469 "/>
<path style=" stroke:none;fill-rule:evenodd;fill:rgb(0%,29.411765%,100%);fill-opacity:1;" d="M 169.824219 43.082031 C 169.824219 43.632812 169.375 44.082031 168.824219 44.082031 C 168.273438 44.082031 167.824219 43.632812 167.824219 43.082031 C 167.824219 42.527344 168.273438 42.082031 168.824219 42.082031 C 169.375 42.082031 169.824219 42.527344 169.824219 43.082031 Z M 169.824219 43.082031 "/>
<path style=" stroke:none;fill-rule:evenodd;fill:rgb(0%,29.411765%,100%);fill-opacity:1;" d="M 171.898438 41.285156 C 171.898438 41.835938 171.453125 42.285156 170.898438 42.285156 C 170.347656 42.285156 169.898438 41.835938 169.898438 41.285156 C 169.898438 40.730469 170.347656 40.285156 170.898438 40.285156 C 171.453125 40.285156 171.898438 40.730469 171.898438 41.285156 Z M 171.898438 41.285156 "/>
<path style=" stroke:none;fill-rule:evenodd;fill:rgb(0%,29.411765%,100%);fill-opacity:1;" d="M 173.984375 40.449219 C 173.984375 41 173.535156 41.449219 172.984375 41.449219 C 172.433594 41.449219 171.984375 41 171.984375 40.449219 C 171.984375 39.894531 172.433594 39.449219 172.984375 39.449219 C 173.535156 39.449219 173.984375 39.894531 173.984375 40.449219 Z M 173.984375 40.449219 "/>
<path style=" stroke:none;fill-rule:evenodd;fill:rgb(0%,29.411765%,100%);fill-opacity:1;" d="M 176.074219 40.644531 C 176.074219 41.195312 175.628906 41.644531 175.074219 41.644531 C 174.523438 41.644531 174.074219 41.195312 174.074219 40.644531 C 174.074219 40.089844 174.523438 39.644531 175.074219 39.644531 C 175.628906 39.644531 176.074219 40.089844 176.074219 40.644531 Z M 176.074219 40.644531 "/>
<path style=" stroke:none;fill-rule:evenodd;fill:rgb(0%,29.411765%,100%);fill-opacity:1;" d="M 178.175781 41.902344 C 178.175781 42.453125 177.726562 42.902344 177.175781 42.902344 C 176.625 42.902344 176.175781 42.453125 176.175781 41.902344 C 176.175781 41.351562 176.625 40.902344 177.175781 40.902344 C 177.726562 40.902344 178.175781 41.351562 178.175781 41.902344 Z M 178.175781 41.902344 "/>
<path style=" stroke:none;fill-rule:evenodd;fill:rgb(0%,29.411765%,100%);fill-opacity:1;" d="M 180.285156 44.214844 C 180.285156 44.765625 179.835938 45.214844 179.285156 45.214844 C 178.730469 45.214844 178.285156 44.765625 178.285156 44.214844 C 178.285156 43.660156 178.730469 43.214844 179.285156 43.214844 C 179.835938 43.214844 180.285156 43.660156 180.285156 44.214844 Z M 180.285156 44.214844 "/>
<path style=" stroke:none;fill-rule:evenodd;fill:rgb(0%,29.411765%,100%);fill-opacity:1;" d="M 182.398438 47.523438 C 182.398438 48.074219 181.953125 48.523438 181.398438 48.523438 C 180.847656 48.523438 180.398438 48.074219 180.398438 47.523438 C 180.398438 46.972656 180.847656 46.523438 181.398438 46.523438 C 181.953125 46.523438 182.398438 46.972656 182.398438 47.523438 Z M 182.398438 47.523438 "/>
<path style=" stroke:none;fill-rule:evenodd;fill:rgb(0%,29.411765%,100%);fill-opacity:1;" d="M 184.523438 51.734375 C 184.523438 52.289062 184.078125 52.734375 183.523438 52.734375 C 182.972656 52.734375 182.523438 52.289062 182.523438 51.734375 C 182.523438 51.183594 182.972656 50.734375 183.523438 50.734375 C 184.078125 50.734375 184.523438 51.183594 184.523438 51.734375 Z M 184.523438 51.734375 "/>
<path style=" stroke:none;fill-rule:evenodd;fill:rgb(0%,29.411765%,100%);fill-opacity:1;" d="M 186.65625 56.71875 C 186.65625 57.269531 186.207031 57.71875 185.65625 57.71875 C 185.105469 57.71875 184.65625 57.269531 184.65625 56.71875 C 184.65625 56.164062 185.105469 55.71875 185.65625 55.71875 C 186.207031 55.71875 186.65625 56.164062 186.65625 56.71875 Z M 186.65625 56.71875 "/>
<path style=" stroke:none;fill-rule:evenodd;fill:rgb(0%,29.411765%,100%);fill-opacity:1;" d="M 188.796875 62.300781 C 188.796875 62.855469 188.347656 63.300781 187.796875 63.300781 C 187.242188 63.300781 186.796875 62.855469 186.796875 62.300781 C 186.796875 61.75 187.242188 61.300781 187.796875 61.300781 C 188.347656 61.300781 188.796875 61.75 188.796875 62.300781 Z M 188.796875 62.300781 "/>
<path style=" stroke:none;fill-rule:evenodd;fill:rgb(0%,29.411765%,100%);fill-opacity:1;" d="M 190.945312 68.292969 C 190.945312 68.84375 190.496094 69.292969 189.945312 69.292969 C 189.390625 69.292969 188.945312 68.84375 188.945312 68.292969 C 188.945312 67.738281 189.390625 67.292969 189.945312 67.292969 C 190.496094 67.292969 190.945312 67.738281 190.945312 68.292969 Z M 190.945312 68.292969 "/>
<path style=" stroke:none;fill-rule:evenodd;fill:rgb(0%,29.411765%,100%);fill-opacity:1;" d="M 193.101562 74.472656 C 193.101562 75.023438 192.652344 75.472656 192.101562 75.472656 C 191.546875 75.472656 191.101562 75.023438 191.101562 74.472656 C 191.101562 73.917969 191.546875 73.472656 192.101562 73.472656 C 192.652344 73.472656 193.101562 73.917969 193.101562 74.472656 Z M 193.101562 74.472656 "/>
<path style=" stroke:none;fill-rule:evenodd;fill:rgb(0%,29.411765%,100%);fill-opacity:1;" d="M 195.265625 80.617188 C 195.265625 81.167969 194.816406 81.617188 194.265625 81.617188 C 193.710938 81.617188 193.265625 81.167969 193.265625 80.617188 C 193.265625 80.0625 193.710938 79.617188 194.265625 79.617188 C 194.816406 79.617188 195.265625 80.0625 195.265625 80.617188 Z M 195.265625 80.617188 "/>
<path style=" stroke:none;fill-rule:evenodd;fill:rgb(0%,29.411765%,100%);fill-opacity:1;" d="M 197.4375 86.492188 C 197.4375 87.046875 196.988281 87.492188 196.4375 87.492188 C 195.882812 87.492188 195.4375 87.046875 195.4375 86.492188 C 195.4375 85.941406 195.882812 85.492188 196.4375 85.492188 C 196.988281 85.492188 197.4375 85.941406 197.4375 86.492188 Z M 197.4375 86.492188 "/>
<path style=" stroke:none;fill-rule:evenodd;fill:rgb(0%,29.411765%,100%);fill-opacity:1;" d="M 199.617188 91.882812 C 199.617188 92.433594 199.167969 92.882812 198.617188 92.882812 C 198.0625 92.882812 197.617188 92.433594 197.617188 91.882812 C 197.617188 91.328125 198.0625 90.882812 198.617188 90.882812 C 199.167969 90.882812 199.617188 91.328125 199.617188 91.882812 Z M 199.617188 91.882812 "/>
<path style=" stroke:none;fill-rule:evenodd;fill:rgb(0%,29.411765%,100%);fill-opacity:1;" d="M 201.804688 96.574219 C 201.804688 97.125 201.355469 97.574219 200.804688 97.574219 C 200.25 97.574219 199.804688 97.125 199.804688 96.574219 C 199.804688 96.023438 200.25 95.574219 200.804688 95.574219 C 201.355469 95.574219 201.804688 96.023438 201.804688 96.574219 Z M 201.804688 96.574219 "/>
<g clip-path="url(#clip2)" clip-rule="nonzero">
<path style=" stroke:none;fill-rule:evenodd;fill:rgb(0%,29.411765%,100%);fill-opacity:1;" d="M 204 100.386719 C 204 100.941406 203.550781 101.386719 203 101.386719 C 202.449219 101.386719 202 100.941406 202 100.386719 C 202 99.835938 202.449219 99.386719 203 99.386719 C 203.550781 99.386719 204 99.835938 204 100.386719 Z M 204 100.386719 "/>
</g>
</g>
</svg>
