<?xml version="1.0" encoding="UTF-8"?>
<svg xmlns="http://www.w3.org/2000/svg" xmlns:xlink="http://www.w3.org/1999/xlink" width="206" height="206" viewBox="0 0 206 206" version="1.1">
<defs>
<clipPath id="clip1">
  <path d="M 3 3 L 203 3 L 203 203 L 3 203 Z M 3 3 "/>
</clipPath>
<clipPath id="clip2">
  <path d="M 202 99 L 203 99 L 203 102 L 202 102 Z M 202 99 "/>
</clipPath>
</defs>
<g id="surface329">
<path style=" stroke:none;fill-rule:nonzero;fill:rgb(100%,100%,100%);fill-opacity:1;" d="M 3 3 C 3 3 203 3 203 3 C 203 3 203 203 203 203 C 203 203 3 203 3 203 C 3 203 3 3 3 3 Z M 3 3 "/>
<g clip-path="url(#clip1)" clip-rule="nonzero">
<path style="fill:none;stroke-width:2;stroke-linecap:round;stroke-linejoin:round;stroke:rgb(0%,0%,0%);stroke-opacity:1;stroke-miterlimit:10;" d="M 3 3 C 3 3 203 3 203 3 C 203 3 203 203 203 203 C 203 203 3 203 3 203 C 3 203 3 3 3 3 Z M 3 3 "/>
</g>
<path style=" stroke:none;fill-rule:evenodd;fill:rgb(100%,29.411765%,0%);fill-opacity:1;" d="M 33.523438 199.78125 C 33.523438 200.332031 33.074219 200.78125 32.523438 200.78125 C 31.96875 200.78125 31.523438 200.332031 31.523438 199.78125 C 31.523438 199.226562 31.96875 198.78125 32.523438 198.78125 C 33.074219 198.78125 33.523438 199.226562 33.523438 199.78125 Z M 33.523438 199.78125 "/>
<path style=" stroke:none;fill-rule:evenodd;fill:rgb(100%,29.411765%,0%);fill-opacity:1;" d="M 33.089844 196.714844 C 33.089844 197.265625 32.640625 197.714844 32.089844 197.714844 C 31.535156 197.714844 31.089844 197.265625 31.089844 196.714844 C 31.089844 196.160156 31.535156 195.714844 32.089844 195.714844 C 32.640625 195.714844 33.089844 196.160156 33.089844 196.714844 Z M 33.089844 196.714844 "/>
<path style=" stroke:none;fill-rule:evenodd;fill:rgb(100%,29.411765%,0%);fill-opacity:1;" d="M 32.699219 193.789062 C 32.699219 194.339844 32.25 194.789062 31.699219 194.789062 C 31.144531 194.789062 30.699219 194.339844 30.699219 193.789062 C 30.699219 193.234375 31.144531 192.789062 31.699219 192.789062 C 32.25 192.789062 32.699219 193.234375 32.699219 193.789062 Z M 32.699219 193.789062 "/>
<path style=" stroke:none;fill-rule:evenodd;fill:rgb(100%,29.411765%,0%);fill-opacity:1;" d="M 32.351562 190.980469 C 32.351562 191.53125 31.902344 191.980469 31.351562 191.980469 C 30.800781 191.980469 30.351562 191.53125 30.351562 190.980469 C 30.351562 190.429688 30.800781 189.980469 31.351562 189.980469 C 31.902344 189.980469 32.351562 190.429688 32.351562 190.980469 Z M 32.351562 190.980469 "/>
<path style=" stroke:none;fill-rule:evenodd;fill:rgb(100%,29.411765%,0%);fill-opacity:1;" d="M 32.050781 188.261719 C 32.050781 188.816406 31.601562 189.261719 31.050781 189.261719 C 30.496094 189.261719 30.050781 188.816406 30.050781 188.261719 C 30.050781 187.710938 30.496094 187.261719 31.050781 187.261719 C 31.601562 187.261719 32.050781 187.710938 32.050781 188.261719 Z M 32.050781 188.261719 "/>
<path style=" stroke:none;fill-rule:evenodd;fill:rgb(100%,29.411765%,0%);fill-opacity:1;" d="M 31.792969 185.597656 C 31.792969 186.148438 31.34375 186.597656 30.792969 186.597656 C 30.238281 186.597656 29.792969 186.148438 29.792969 185.597656 C 29.792969 185.046875 30.238281 184.597656 30.792969 184.597656 C 31.34375 184.597656 31.792969 185.046875 31.792969 185.597656 Z M 31.792969 185.597656 "/>
<path style=" stroke:none;fill-rule:evenodd;fill:rgb(100%,29.411765%,0%);fill-opacity:1;" d="M 31.578125 182.949219 C 31.578125 183.5 31.128906 183.949219 30.578125 183.949219 C 30.027344 183.949219 29.578125 183.5 29.578125 182.949219 C 29.578125 182.398438 30.027344 181.949219 30.578125 181.949219 C 31.128906 181.949219 31.578125 182.398438 31.578125 182.949219 Z M 31.578125 182.949219 "/>
<path style=" stroke:none;fill-rule:evenodd;fill:rgb(100%,29.411765%,0%);fill-opacity:1;" d="M 31.40625 180.277344 C 31.40625 180.832031 30.960938 181.277344 30.40625 181.277344 C 29.855469 181.277344 29.40625 180.832031 29.40625 180.277344 C 29.40625 179.726562 29.855469 179.277344 30.40625 179.277344 C 30.960938 179.277344 31.40625 179.726562 31.40625 180.277344 Z M 31.40625 180.277344 "/>
<path style=" stroke:none;fill-rule:evenodd;fill:rgb(100%,29.411765%,0%);fill-opacity:1;" d="M 31.28125 177.550781 C 31.28125 178.101562 30.835938 178.550781 30.28125 178.550781 C 29.730469 178.550781 29.28125 178.101562 29.28125 177.550781 C 29.28125 176.996094 29.730469 176.550781 30.28125 176.550781 C 30.835938 176.550781 31.28125 176.996094 31.28125 177.550781 Z M 31.28125 177.550781 "/>
<path style=" stroke:none;fill-rule:evenodd;fill:rgb(100%,29.411765%,0%);fill-opacity:1;" d="M 31.199219 174.726562 C 31.199219 175.28125 30.753906 175.726562 30.199219 175.726562 C 29.648438 175.726562 29.199219 175.28125 29.199219 174.726562 C 29.199219 174.175781 29.648438 173.726562 30.199219 173.726562 C 30.753906 173.726562 31.199219 174.175781 31.199219 174.726562 Z M 31.199219 174.726562 "/>
<path style=" stroke:none;fill-rule:evenodd;fill:rgb(100%,29.411765%,0%);fill-opacity:1;" d="M 31.160156 171.789062 C 31.160156 172.339844 30.714844 172.789062 30.160156 172.789062 C 29.609375 172.789062 29.160156 172.339844 29.160156 171.789062 C 29.160156 171.234375 29.609375 170.789062 30.160156 170.789062 C 30.714844 170.789062 31.160156 171.234375 31.160156 171.789062 Z M 31.160156 171.789062 "/>
<path style=" stroke:none;fill-rule:evenodd;fill:rgb(100%,29.411765%,0%);fill-opacity:1;" d="M 31.167969 168.710938 C 31.167969 169.265625 30.71875 169.710938 30.167969 169.710938 C 29.617188 169.710938 29.167969 169.265625 29.167969 168.710938 C 29.167969 168.160156 29.617188 167.710938 30.167969 167.710938 C 30.71875 167.710938 31.167969 168.160156 31.167969 168.710938 Z M 31.167969 168.710938 "/>
<path style=" stroke:none;fill-rule:evenodd;fill:rgb(100%,29.411765%,0%);fill-opacity:1;" d="M 31.21875 165.492188 C 31.21875 166.042969 30.769531 166.492188 30.21875 166.492188 C 29.664062 166.492188 29.21875 166.042969 29.21875 165.492188 C 29.21875 164.9375 29.664062 164.492188 30.21875 164.492188 C 30.769531 164.492188 31.21875 164.9375 31.21875 165.492188 Z M 31.21875 165.492188 "/>
<path style=" stroke:none;fill-rule:evenodd;fill:rgb(100%,29.411765%,0%);fill-opacity:1;" d="M 31.3125 162.125 C 31.3125 162.679688 30.863281 163.125 30.3125 163.125 C 29.757812 163.125 29.3125 162.679688 29.3125 162.125 C 29.3125 161.574219 29.757812 161.125 30.3125 161.125 C 30.863281 161.125 31.3125 161.574219 31.3125 162.125 Z M 31.3125 162.125 "/>
<path style=" stroke:none;fill-rule:evenodd;fill:rgb(100%,29.411765%,0%);fill-opacity:1;" d="M 31.449219 158.636719 C 31.449219 159.1875 31.003906 159.636719 30.449219 159.636719 C 29.898438 159.636719 29.449219 159.1875 29.449219 158.636719 C 29.449219 158.082031 29.898438 157.636719 30.449219 157.636719 C 31.003906 157.636719 31.449219 158.082031 31.449219 158.636719 Z M 31.449219 158.636719 "/>
<path style=" stroke:none;fill-rule:evenodd;fill:rgb(100%,29.411765%,0%);fill-opacity:1;" d="M 31.632812 155.039062 C 31.632812 155.59375 31.183594 156.039062 30.632812 156.039062 C 30.078125 156.039062 29.632812 155.59375 29.632812 155.039062 C 29.632812 154.488281 30.078125 154.039062 30.632812 154.039062 C 31.183594 154.039062 31.632812 154.488281 31.632812 155.039062 Z M 31.632812 155.039062 "/>
<path style=" stroke:none;fill-rule:evenodd;fill:rgb(100%,29.411765%,0%);fill-opacity:1;" d="M 31.859375 151.375 C 31.859375 151.929688 31.410156 152.375 30.859375 152.375 C 30.304688 152.375 29.859375 151.929688 29.859375 151.375 C 29.859375 150.824219 30.304688 150.375 30.859375 150.375 C 31.410156 150.375 31.859375 150.824219 31.859375 151.375 Z M 31.859375 151.375 "/>
<path style=" stroke:none;fill-rule:evenodd;fill:rgb(100%,29.411765%,0%);fill-opacity:1;" d="M 32.128906 147.691406 C 32.128906 148.242188 31.679688 148.691406 31.128906 148.691406 C 30.574219 148.691406 30.128906 148.242188 30.128906 147.691406 C 30.128906 147.136719 30.574219 146.691406 31.128906 146.691406 C 31.679688 146.691406 32.128906 147.136719 32.128906 147.691406 Z M 32.128906 147.691406 "/>
<path style=" stroke:none;fill-rule:evenodd;fill:rgb(100%,29.411765%,0%);fill-opacity:1;" d="M 32.441406 144.03125 C 32.441406 144.585938 31.996094 145.03125 31.441406 145.03125 C 30.890625 145.03125 30.441406 144.585938 30.441406 144.03125 C 30.441406 143.480469 30.890625 143.03125 31.441406 143.03125 C 31.996094 143.03125 32.441406 143.480469 32.441406 144.03125 Z M 32.441406 144.03125 "/>
<path style=" stroke:none;fill-rule:evenodd;fill:rgb(100%,29.411765%,0%);fill-opacity:1;" d="M 32.800781 140.460938 C 32.800781 141.011719 32.351562 141.460938 31.800781 141.460938 C 31.246094 141.460938 30.800781 141.011719 30.800781 140.460938 C 30.800781 139.90625 31.246094 139.460938 31.800781 139.460938 C 32.351562 139.460938 32.800781 139.90625 32.800781 140.460938 Z M 32.800781 140.460938 "/>
<path style=" stroke:none;fill-rule:evenodd;fill:rgb(100%,29.411765%,0%);fill-opacity:1;" d="M 33.203125 137.027344 C 33.203125 137.582031 32.753906 138.027344 32.203125 138.027344 C 31.648438 138.027344 31.203125 137.582031 31.203125 137.027344 C 31.203125 136.476562 31.648438 136.027344 32.203125 136.027344 C 32.753906 136.027344 33.203125 136.476562 33.203125 137.027344 Z M 33.203125 137.027344 "/>
<path style=" stroke:none;fill-rule:evenodd;fill:rgb(100%,29.411765%,0%);fill-opacity:1;" d="M 33.648438 133.800781 C 33.648438 134.351562 33.199219 134.800781 32.648438 134.800781 C 32.097656 134.800781 31.648438 134.351562 31.648438 133.800781 C 31.648438 133.246094 32.097656 132.800781 32.648438 132.800781 C 33.199219 132.800781 33.648438 133.246094 33.648438 133.800781 Z M 33.648438 133.800781 "/>
<path style=" stroke:none;fill-rule:evenodd;fill:rgb(100%,29.411765%,0%);fill-opacity:1;" d="M 34.136719 130.824219 C 34.136719 131.375 33.691406 131.824219 33.136719 131.824219 C 32.585938 131.824219 32.136719 131.375 32.136719 130.824219 C 32.136719 130.269531 32.585938 129.824219 33.136719 129.824219 C 33.691406 129.824219 34.136719 130.269531 34.136719 130.824219 Z M 34.136719 130.824219 "/>
<path style=" stroke:none;fill-rule:evenodd;fill:rgb(100%,29.411765%,0%);fill-opacity:1;" d="M 34.671875 128.148438 C 34.671875 128.699219 34.222656 129.148438 33.671875 129.148438 C 33.121094 129.148438 32.671875 128.699219 32.671875 128.148438 C 32.671875 127.59375 33.121094 127.148438 33.671875 127.148438 C 34.222656 127.148438 34.671875 127.59375 34.671875 128.148438 Z M 34.671875 128.148438 "/>
<path style=" stroke:none;fill-rule:evenodd;fill:rgb(100%,29.411765%,0%);fill-opacity:1;" d="M 35.25 125.808594 C 35.25 126.359375 34.800781 126.808594 34.25 126.808594 C 33.699219 126.808594 33.25 126.359375 33.25 125.808594 C 33.25 125.253906 33.699219 124.808594 34.25 124.808594 C 34.800781 124.808594 35.25 125.253906 35.25 125.808594 Z M 35.25 125.808594 "/>
<path style=" stroke:none;fill-rule:evenodd;fill:rgb(100%,29.411765%,0%);fill-opacity:1;" d="M 35.871094 123.828125 C 35.871094 124.382812 35.425781 124.828125 34.871094 124.828125 C 34.320312 124.828125 33.871094 124.382812 33.871094 123.828125 C 33.871094 123.277344 34.320312 122.828125 34.871094 122.828125 C 35.425781 122.828125 35.871094 123.277344 35.871094 123.828125 Z M 35.871094 123.828125 "/>
<path style=" stroke:none;fill-rule:evenodd;fill:rgb(100%,29.411765%,0%);fill-opacity:1;" d="M 36.539062 122.21875 C 36.539062 122.773438 36.089844 123.21875 35.539062 123.21875 C 34.984375 123.21875 34.539062 122.773438 34.539062 122.21875 C 34.539062 121.667969 34.984375 121.21875 35.539062 121.21875 C 36.089844 121.21875 36.539062 121.667969 36.539062 122.21875 Z M 36.539062 122.21875 "/>
<path style=" stroke:none;fill-rule:evenodd;fill:rgb(100%,29.411765%,0%);fill-opacity:1;" d="M 37.246094 120.976562 C 37.246094 121.53125 36.800781 121.976562 36.246094 121.976562 C 35.695312 121.976562 35.246094 121.53125 35.246094 120.976562 C 35.246094 120.425781 35.695312 119.976562 36.246094 119.976562 C 36.800781 119.976562 37.246094 120.425781 37.246094 120.976562 Z M 37.246094 120.976562 "/>
<path style=" stroke:none;fill-rule:evenodd;fill:rgb(100%,29.411765%,0%);fill-opacity:1;" d="M 38.003906 120.078125 C 38.003906 120.628906 37.554688 121.078125 37.003906 121.078125 C 36.449219 121.078125 36.003906 120.628906 36.003906 120.078125 C 36.003906 119.527344 36.449219 119.078125 37.003906 119.078125 C 37.554688 119.078125 38.003906 119.527344 38.003906 120.078125 Z M 38.003906 120.078125 "/>
<path style=" stroke:none;fill-rule:evenodd;fill:rgb(100%,29.411765%,0%);fill-opacity:1;" d="M 38.800781 119.484375 C 38.800781 120.039062 38.351562 120.484375 37.800781 120.484375 C 37.246094 120.484375 36.800781 120.039062 36.800781 119.484375 C 36.800781 118.933594 37.246094 118.484375 37.800781 118.484375 C 38.351562 118.484375 38.800781 118.933594 38.800781 119.484375 Z M 38.800781 119.484375 "/>
<path style=" stroke:none;fill-rule:evenodd;fill:rgb(100%,29.411765%,0%);fill-opacity:1;" d="M 39.640625 119.148438 C 39.640625 119.699219 39.195312 120.148438 38.640625 120.148438 C 38.089844 120.148438 37.640625 119.699219 37.640625 119.148438 C 37.640625 118.59375 38.089844 118.148438 38.640625 118.148438 C 39.195312 118.148438 39.640625 118.59375 39.640625 119.148438 Z M 39.640625 119.148438 "/>
<path style=" stroke:none;fill-rule:evenodd;fill:rgb(100%,29.411765%,0%);fill-opacity:1;" d="M 40.527344 119 C 40.527344 119.550781 40.082031 120 39.527344 120 C 38.976562 120 38.527344 119.550781 38.527344 119 C 38.527344 118.445312 38.976562 118 39.527344 118 C 40.082031 118 40.527344 118.445312 40.527344 119 Z M 40.527344 119 "/>
<path style=" stroke:none;fill-rule:evenodd;fill:rgb(100%,29.411765%,0%);fill-opacity:1;" d="M 41.457031 118.964844 C 41.457031 119.515625 41.011719 119.964844 40.457031 119.964844 C 39.90625 119.964844 39.457031 119.515625 39.457031 118.964844 C 39.457031 118.410156 39.90625 117.964844 40.457031 117.964844 C 41.011719 117.964844 41.457031 118.410156 41.457031 118.964844 Z M 41.457031 118.964844 "/>
<path style=" stroke:none;fill-rule:evenodd;fill:rgb(100%,29.411765%,0%);fill-opacity:1;" d="M 42.433594 118.960938 C 42.433594 119.511719 41.984375 119.960938 41.433594 119.960938 C 40.878906 119.960938 40.433594 119.511719 40.433594 118.960938 C 40.433594 118.40625 40.878906 117.960938 41.433594 117.960938 C 41.984375 117.960938 42.433594 118.40625 42.433594 118.960938 Z M 42.433594 118.960938 "/>
<path style=" stroke:none;fill-rule:evenodd;fill:rgb(100%,29.411765%,0%);fill-opacity:1;" d="M 43.449219 118.898438 C 43.449219 119.449219 43.003906 119.898438 42.449219 119.898438 C 41.898438 119.898438 41.449219 119.449219 41.449219 118.898438 C 41.449219 118.347656 41.898438 117.898438 42.449219 117.898438 C 43.003906 117.898438 43.449219 118.347656 43.449219 118.898438 Z M 43.449219 118.898438 "/>
<path style=" stroke:none;fill-rule:evenodd;fill:rgb(100%,29.411765%,0%);fill-opacity:1;" d="M 44.511719 118.691406 C 44.511719 119.242188 44.0625 119.691406 43.511719 119.691406 C 42.960938 119.691406 42.511719 119.242188 42.511719 118.691406 C 42.511719 118.140625 42.960938 117.691406 43.511719 117.691406 C 44.0625 117.691406 44.511719 118.140625 44.511719 118.691406 Z M 44.511719 118.691406 "/>
<path style=" stroke:none;fill-rule:evenodd;fill:rgb(100%,29.411765%,0%);fill-opacity:1;" d="M 45.617188 118.253906 C 45.617188 118.808594 45.171875 119.253906 44.617188 119.253906 C 44.066406 119.253906 43.617188 118.808594 43.617188 118.253906 C 43.617188 117.703125 44.066406 117.253906 44.617188 117.253906 C 45.171875 117.253906 45.617188 117.703125 45.617188 118.253906 Z M 45.617188 118.253906 "/>
<path style=" stroke:none;fill-rule:evenodd;fill:rgb(100%,29.411765%,0%);fill-opacity:1;" d="M 46.769531 117.515625 C 46.769531 118.066406 46.320312 118.515625 45.769531 118.515625 C 45.214844 118.515625 44.769531 118.066406 44.769531 117.515625 C 44.769531 116.960938 45.214844 116.515625 45.769531 116.515625 C 46.320312 116.515625 46.769531 116.960938 46.769531 117.515625 Z M 46.769531 117.515625 "/>
<path style=" stroke:none;fill-rule:evenodd;fill:rgb(100%,29.411765%,0%);fill-opacity:1;" d="M 47.960938 116.402344 C 47.960938 116.957031 47.515625 117.402344 46.960938 117.402344 C 46.410156 117.402344 45.960938 116.957031 45.960938 116.402344 C 45.960938 115.851562 46.410156 115.402344 46.960938 115.402344 C 47.515625 115.402344 47.960938 115.851562 47.960938 116.402344 Z M 47.960938 116.402344 "/>
<path style=" stroke:none;fill-rule:evenodd;fill:rgb(100%,29.411765%,0%);fill-opacity:1;" d="M 49.199219 114.871094 C 49.199219 115.425781 48.753906 115.871094 48.199219 115.871094 C 47.648438 115.871094 47.199219 115.425781 47.199219 114.871094 C 47.199219 114.320312 47.648438 113.871094 48.199219 113.871094 C 48.753906 113.871094 49.199219 114.320312 49.199219 114.871094 Z M 49.199219 114.871094 "/>
<path style=" stroke:none;fill-rule:evenodd;fill:rgb(100%,29.411765%,0%);fill-opacity:1;" d="M 50.480469 112.890625 C 50.480469 113.441406 50.035156 113.890625 49.480469 113.890625 C 48.929688 113.890625 48.480469 113.441406 48.480469 112.890625 C 48.480469 112.339844 48.929688 111.890625 49.480469 111.890625 C 50.035156 111.890625 50.480469 112.339844 50.480469 112.890625 Z M 50.480469 112.890625 "/>
<path style=" stroke:none;fill-rule:evenodd;fill:rgb(100%,29.411765%,0%);fill-opacity:1;" d="M 51.808594 110.449219 C 51.808594 111 51.359375 111.449219 50.808594 111.449219 C 50.253906 111.449219 49.808594 111 49.808594 110.449219 C 49.808594 109.894531 50.253906 109.449219 50.808594 109.449219 C 51.359375 109.449219 51.808594 109.894531 51.808594 110.449219 Z M 51.808594 110.449219 "/>
<path style=" stroke:none;fill-rule:evenodd;fill:rgb(100%,29.411765%,0%);fill-opacity:1;" d="M 53.179688 107.554688 C 53.179688 108.105469 52.730469 108.554688 52.179688 108.554688 C 51.625 108.554688 51.179688 108.105469 51.179688 107.554688 C 51.179688 107 51.625 106.554688 52.179688 106.554688 C 52.730469 106.554688 53.179688 107 53.179688 107.554688 Z M 53.179688 107.554688 "/>
<path style=" stroke:none;fill-rule:evenodd;fill:rgb(100%,29.411765%,0%);fill-opacity:1;" d="M 54.59375 104.242188 C 54.59375 104.792969 54.144531 105.242188 53.59375 105.242188 C 53.039062 105.242188 52.59375 104.792969 52.59375 104.242188 C 52.59375 103.6875 53.039062 103.242188 53.59375 103.242188 C 54.144531 103.242188 54.59375 103.6875 54.59375 104.242188 Z M 54.59375 104.242188 "/>
<path style=" stroke:none;fill-rule:evenodd;fill:rgb(100%,29.411765%,0%);fill-opacity:1;" d="M 56.050781 100.5625 C 56.050781 101.117188 55.601562 101.5625 55.050781 101.5625 C 54.496094 101.5625 54.050781 101.117188 54.050781 100.5625 C 54.050781 100.011719 54.496094 99.5625 55.050781 99.5625 C 55.601562 99.5625 56.050781 100.011719 56.050781 100.5625 Z M 56.050781 100.5625 "/>
<path style=" stroke:none;fill-rule:evenodd;fill:rgb(100%,29.411765%,0%);fill-opacity:1;" d="M 57.550781 96.597656 C 57.550781 97.148438 57.105469 97.597656 56.550781 97.597656 C 56 97.597656 55.550781 97.148438 55.550781 96.597656 C 55.550781 96.042969 56 95.597656 56.550781 95.597656 C 57.105469 95.597656 57.550781 96.042969 57.550781 96.597656 Z M 57.550781 96.597656 "/>
<path style=" stroke:none;fill-rule:evenodd;fill:rgb(100%,29.411765%,0%);fill-opacity:1;" d="M 59.097656 92.429688 C 59.097656 92.980469 58.648438 93.429688 58.097656 93.429688 C 57.546875 93.429688 57.097656 92.980469 57.097656 92.429688 C 57.097656 91.878906 57.546875 91.429688 58.097656 91.429688 C 58.648438 91.429688 59.097656 91.878906 59.097656 92.429688 Z M 59.097656 92.429688 "/>
<path style=" stroke:none;fill-rule:evenodd;fill:rgb(100%,29.411765%,0%);fill-opacity:1;" d="M 60.6875 88.167969 C 60.6875 88.722656 60.242188 89.167969 59.6875 89.167969 C 59.136719 89.167969 58.6875 88.722656 58.6875 88.167969 C 58.6875 87.617188 59.136719 87.167969 59.6875 87.167969 C 60.242188 87.167969 60.6875 87.617188 60.6875 88.167969 Z M 60.6875 88.167969 "/>
<path style=" stroke:none;fill-rule:evenodd;fill:rgb(100%,29.411765%,0%);fill-opacity:1;" d="M 62.320312 83.933594 C 62.320312 84.484375 61.875 84.933594 61.320312 84.933594 C 60.769531 84.933594 60.320312 84.484375 60.320312 83.933594 C 60.320312 83.378906 60.769531 82.933594 61.320312 82.933594 C 61.875 82.933594 62.320312 83.378906 62.320312 83.933594 Z M 62.320312 83.933594 "/>
<path style=" stroke:none;fill-rule:evenodd;fill:rgb(100%,29.411765%,0%);fill-opacity:1;" d="M 64 79.839844 C 64 80.390625 63.550781 80.839844 63 80.839844 C 62.449219 80.839844 62 80.390625 62 79.839844 C 62 79.289062 62.449219 78.839844 63 78.839844 C 63.550781 78.839844 64 79.289062 64 79.839844 Z M 64 79.839844 "/>
<path style=" stroke:none;fill-rule:evenodd;fill:rgb(100%,29.411765%,0%);fill-opacity:1;" d="M 65.722656 76.011719 C 65.722656 76.5625 65.273438 77.011719 64.722656 77.011719 C 64.167969 77.011719 63.722656 76.5625 63.722656 76.011719 C 63.722656 75.460938 64.167969 75.011719 64.722656 75.011719 C 65.273438 75.011719 65.722656 75.460938 65.722656 76.011719 Z M 65.722656 76.011719 "/>
<path style=" stroke:none;fill-rule:evenodd;fill:rgb(100%,29.411765%,0%);fill-opacity:1;" d="M 67.488281 72.566406 C 67.488281 73.117188 67.039062 73.566406 66.488281 73.566406 C 65.9375 73.566406 65.488281 73.117188 65.488281 72.566406 C 65.488281 72.011719 65.9375 71.566406 66.488281 71.566406 C 67.039062 71.566406 67.488281 72.011719 67.488281 72.566406 Z M 67.488281 72.566406 "/>
<path style=" stroke:none;fill-rule:evenodd;fill:rgb(100%,29.411765%,0%);fill-opacity:1;" d="M 69.296875 69.609375 C 69.296875 70.160156 68.851562 70.609375 68.296875 70.609375 C 67.746094 70.609375 67.296875 70.160156 67.296875 69.609375 C 67.296875 69.054688 67.746094 68.609375 68.296875 68.609375 C 68.851562 68.609375 69.296875 69.054688 69.296875 69.609375 Z M 69.296875 69.609375 "/>
<path style=" stroke:none;fill-rule:evenodd;fill:rgb(100%,29.411765%,0%);fill-opacity:1;" d="M 71.152344 67.230469 C 71.152344 67.78125 70.703125 68.230469 70.152344 68.230469 C 69.601562 68.230469 69.152344 67.78125 69.152344 67.230469 C 69.152344 66.675781 69.601562 66.230469 70.152344 66.230469 C 70.703125 66.230469 71.152344 66.675781 71.152344 67.230469 Z M 71.152344 67.230469 "/>
<path style=" stroke:none;fill-rule:evenodd;fill:rgb(100%,29.411765%,0%);fill-opacity:1;" d="M 73.050781 65.5 C 73.050781 66.050781 72.601562 66.5 72.050781 66.5 C 71.496094 66.5 71.050781 66.050781 71.050781 65.5 C 71.050781 64.949219 71.496094 64.5 72.050781 64.5 C 72.601562 64.5 73.050781 64.949219 73.050781 65.5 Z M 73.050781 65.5 "/>
<path style=" stroke:none;fill-rule:evenodd;fill:rgb(100%,29.411765%,0%);fill-opacity:1;" d="M 74.992188 64.46875 C 74.992188 65.023438 74.542969 65.46875 73.992188 65.46875 C 73.441406 65.46875 72.992188 65.023438 72.992188 64.46875 C 72.992188 63.917969 73.441406 63.46875 73.992188 63.46875 C 74.542969 63.46875 74.992188 63.917969 74.992188 64.46875 Z M 74.992188 64.46875 "/>
<path style=" stroke:none;fill-rule:evenodd;fill:rgb(100%,29.411765%,0%);fill-opacity:1;" d="M 76.976562 64.160156 C 76.976562 64.710938 76.53125 65.160156 75.976562 65.160156 C 75.425781 65.160156 74.976562 64.710938 74.976562 64.160156 C 74.976562 63.605469 75.425781 63.160156 75.976562 63.160156 C 76.53125 63.160156 76.976562 63.605469 76.976562 64.160156 Z M 76.976562 64.160156 "/>
<path style=" stroke:none;fill-rule:evenodd;fill:rgb(100%,29.411765%,0%);fill-opacity:1;" d="M 79.007812 64.5625 C 79.007812 65.113281 78.558594 65.5625 78.007812 65.5625 C 77.457031 65.5625 77.007812 65.113281 77.007812 64.5625 C 77.007812 64.011719 77.457031 63.5625 78.007812 63.5625 C 78.558594 63.5625 79.007812 64.011719 79.007812 64.5625 Z M 79.007812 64.5625 "/>
<path style=" stroke:none;fill-rule:evenodd;fill:rgb(100%,29.411765%,0%);fill-opacity:1;" d="M 81.082031 65.644531 C 81.082031 66.195312 80.632812 66.644531 80.082031 66.644531 C 79.53125 66.644531 79.082031 66.195312 79.082031 65.644531 C 79.082031 65.09375 79.53125 64.644531 80.082031 64.644531 C 80.632812 64.644531 81.082031 65.09375 81.082031 65.644531 Z M 81.082031 65.644531 "/>
<path style=" stroke:none;fill-rule:evenodd;fill:rgb(100%,29.411765%,0%);fill-opacity:1;" d="M 83.199219 67.339844 C 83.199219 67.894531 82.753906 68.339844 82.199219 68.339844 C 81.648438 68.339844 81.199219 67.894531 81.199219 67.339844 C 81.199219 66.789062 81.648438 66.339844 82.199219 66.339844 C 82.753906 66.339844 83.199219 66.789062 83.199219 67.339844 Z M 83.199219 67.339844 "/>
<path style=" stroke:none;fill-rule:evenodd;fill:rgb(100%,29.411765%,0%);fill-opacity:1;" d="M 85.363281 69.5625 C 85.363281 70.117188 84.914062 70.5625 84.363281 70.5625 C 83.808594 70.5625 83.363281 70.117188 83.363281 69.5625 C 83.363281 69.011719 83.808594 68.5625 84.363281 68.5625 C 84.914062 68.5625 85.363281 69.011719 85.363281 69.5625 Z M 85.363281 69.5625 "/>
<path style=" stroke:none;fill-rule:evenodd;fill:rgb(100%,29.411765%,0%);fill-opacity:1;" d="M 87.566406 72.199219 C 87.566406 72.753906 87.121094 73.199219 86.566406 73.199219 C 86.015625 73.199219 85.566406 72.753906 85.566406 72.199219 C 85.566406 71.648438 86.015625 71.199219 86.566406 71.199219 C 87.121094 71.199219 87.566406 71.648438 87.566406 72.199219 Z M 87.566406 72.199219 "/>
<path style=" stroke:none;fill-rule:evenodd;fill:rgb(100%,29.411765%,0%);fill-opacity:1;" d="M 89.816406 75.117188 C 89.816406 75.667969 89.371094 76.117188 88.816406 76.117188 C 88.265625 76.117188 87.816406 75.667969 87.816406 75.117188 C 87.816406 74.5625 88.265625 74.117188 88.816406 74.117188 C 89.371094 74.117188 89.816406 74.5625 89.816406 75.117188 Z M 89.816406 75.117188 "/>
<path style=" stroke:none;fill-rule:evenodd;fill:rgb(100%,29.411765%,0%);fill-opacity:1;" d="M 92.113281 78.164062 C 92.113281 78.71875 91.664062 79.164062 91.113281 79.164062 C 90.558594 79.164062 90.113281 78.71875 90.113281 78.164062 C 90.113281 77.613281 90.558594 77.164062 91.113281 77.164062 C 91.664062 77.164062 92.113281 77.613281 92.113281 78.164062 Z M 92.113281 78.164062 "/>
<path style=" stroke:none;fill-rule:evenodd;fill:rgb(100%,29.411765%,0%);fill-opacity:1;" d="M 94.449219 81.191406 C 94.449219 81.746094 94.003906 82.191406 93.449219 82.191406 C 92.898438 82.191406 92.449219 81.746094 92.449219 81.191406 C 92.449219 80.640625 92.898438 80.191406 93.449219 80.191406 C 94.003906 80.191406 94.449219 80.640625 94.449219 81.191406 Z M 94.449219 81.191406 "/>
<path style=" stroke:none;fill-rule:evenodd;fill:rgb(100%,29.411765%,0%);fill-opacity:1;" d="M 96.832031 84.042969 C 96.832031 84.59375 96.382812 85.042969 95.832031 85.042969 C 95.28125 85.042969 94.832031 84.59375 94.832031 84.042969 C 94.832031 83.492188 95.28125 83.042969 95.832031 83.042969 C 96.382812 83.042969 96.832031 83.492188 96.832031 84.042969 Z M 96.832031 84.042969 "/>
<path style=" stroke:none;fill-rule:evenodd;fill:rgb(100%,29.411765%,0%);fill-opacity:1;" d="M 99.257812 86.5625 C 99.257812 87.113281 98.808594 87.5625 98.257812 87.5625 C 97.707031 87.5625 97.257812 87.113281 97.257812 86.5625 C 97.257812 86.007812 97.707031 85.5625 98.257812 85.5625 C 98.808594 85.5625 99.257812 86.007812 99.257812 86.5625 Z M 99.257812 86.5625 "/>
<path style=" stroke:none;fill-rule:evenodd;fill:rgb(100%,29.411765%,0%);fill-opacity:1;" d="M 101.726562 88.605469 C 101.726562 89.160156 101.28125 89.605469 100.726562 89.605469 C 100.175781 89.605469 99.726562 89.160156 99.726562 88.605469 C 99.726562 88.054688 100.175781 87.605469 100.726562 87.605469 C 101.28125 87.605469 101.726562 88.054688 101.726562 88.605469 Z M 101.726562 88.605469 "/>
<path style=" stroke:none;fill-rule:evenodd;fill:rgb(100%,29.411765%,0%);fill-opacity:1;" d="M 104.242188 90.054688 C 104.242188 90.605469 103.792969 91.054688 103.242188 91.054688 C 102.691406 91.054688 102.242188 90.605469 102.242188 90.054688 C 102.242188 89.503906 102.691406 89.054688 103.242188 89.054688 C 103.792969 89.054688 104.242188 89.503906 104.242188 90.054688 Z M 104.242188 90.054688 "/>
<path style=" stroke:none;fill-rule:evenodd;fill:rgb(100%,29.411765%,0%);fill-opacity:1;" d="M 106.800781 90.804688 C 106.800781 91.355469 106.351562 91.804688 105.800781 91.804688 C 105.246094 91.804688 104.800781 91.355469 104.800781 90.804688 C 104.800781 90.25 105.246094 89.804688 105.800781 89.804688 C 106.351562 89.804688 106.800781 90.25 106.800781 90.804688 Z M 106.800781 90.804688 "/>
<path style=" stroke:none;fill-rule:evenodd;fill:rgb(100%,29.411765%,0%);fill-opacity:1;" d="M 109.402344 90.777344 C 109.402344 91.332031 108.953125 91.777344 108.402344 91.777344 C 107.851562 91.777344 107.402344 91.332031 107.402344 90.777344 C 107.402344 90.226562 107.851562 89.777344 108.402344 89.777344 C 108.953125 89.777344 109.402344 90.226562 109.402344 90.777344 Z M 109.402344 90.777344 "/>
<path style=" stroke:none;fill-rule:evenodd;fill:rgb(100%,29.411765%,0%);fill-opacity:1;" d="M 112.046875 89.9375 C 112.046875 90.492188 111.601562 90.9375 111.046875 90.9375 C 110.496094 90.9375 110.046875 90.492188 110.046875 89.9375 C 110.046875 89.386719 110.496094 88.9375 111.046875 88.9375 C 111.601562 88.9375 112.046875 89.386719 112.046875 89.9375 Z M 112.046875 89.9375 "/>
<path style=" stroke:none;fill-rule:evenodd;fill:rgb(100%,29.411765%,0%);fill-opacity:1;" d="M 114.738281 88.277344 C 114.738281 88.828125 114.289062 89.277344 113.738281 89.277344 C 113.1875 89.277344 112.738281 88.828125 112.738281 88.277344 C 112.738281 87.722656 113.1875 87.277344 113.738281 87.277344 C 114.289062 87.277344 114.738281 87.722656 114.738281 88.277344 Z M 114.738281 88.277344 "/>
<path style=" stroke:none;fill-rule:evenodd;fill:rgb(100%,29.411765%,0%);fill-opacity:1;" d="M 117.472656 85.820312 C 117.472656 86.371094 117.023438 86.820312 116.472656 86.820312 C 115.917969 86.820312 115.472656 86.371094 115.472656 85.820312 C 115.472656 85.265625 115.917969 84.820312 116.472656 84.820312 C 117.023438 84.820312 117.472656 85.265625 117.472656 85.820312 Z M 117.472656 85.820312 "/>
<path style=" stroke:none;fill-rule:evenodd;fill:rgb(100%,29.411765%,0%);fill-opacity:1;" d="M 120.25 82.632812 C 120.25 83.183594 119.800781 83.632812 119.25 83.632812 C 118.699219 83.632812 118.25 83.183594 118.25 82.632812 C 118.25 82.078125 118.699219 81.632812 119.25 81.632812 C 119.800781 81.632812 120.25 82.078125 120.25 82.632812 Z M 120.25 82.632812 "/>
<path style=" stroke:none;fill-rule:evenodd;fill:rgb(100%,29.411765%,0%);fill-opacity:1;" d="M 123.070312 78.808594 C 123.070312 79.363281 122.625 79.808594 122.070312 79.808594 C 121.519531 79.808594 121.070312 79.363281 121.070312 78.808594 C 121.070312 78.257812 121.519531 77.808594 122.070312 77.808594 C 122.625 77.808594 123.070312 78.257812 123.070312 78.808594 Z M 123.070312 78.808594 "/>
<path style=" stroke:none;fill-rule:evenodd;fill:rgb(100%,29.411765%,0%);fill-opacity:1;" d="M 125.9375 74.480469 C 125.9375 75.035156 125.492188 75.480469 124.9375 75.480469 C 124.386719 75.480469 123.9375 75.035156 123.9375 74.480469 C 123.9375 73.929688 124.386719 73.480469 124.9375 73.480469 C 125.492188 73.480469 125.9375 73.929688 125.9375 74.480469 Z M 125.9375 74.480469 "/>
<path style=" stroke:none;fill-rule:evenodd;fill:rgb(100%,29.411765%,0%);fill-opacity:1;" d="M 128.847656 69.800781 C 128.847656 70.355469 128.398438 70.800781 127.847656 70.800781 C 127.296875 70.800781 126.847656 70.355469 126.847656 69.800781 C 126.847656 69.25 127.296875 68.800781 127.847656 68.800781 C 128.398438 68.800781 128.847656 69.25 128.847656 69.800781 Z M 128.847656 69.800781 "/>
<path style=" stroke:none;fill-rule:evenodd;fill:rgb(100%,29.411765%,0%);fill-opacity:1;" d="M 131.800781 64.941406 C 131.800781 65.492188 131.355469 65.941406 130.800781 65.941406 C 130.25 65.941406 129.800781 65.492188 129.800781 64.941406 C 129.800781 64.390625 130.25 63.941406 130.800781 63.941406 C 131.355469 63.941406 131.800781 64.390625 131.800781 64.941406 Z M 131.800781 64.941406 "/>
<path style=" stroke:none;fill-rule:evenodd;fill:rgb(100%,29.411765%,0%);fill-opacity:1;" d="M 134.800781 60.089844 C 134.800781 60.644531 134.351562 61.089844 133.800781 61.089844 C 133.246094 61.089844 132.800781 60.644531 132.800781 60.089844 C 132.800781 59.539062 133.246094 59.089844 133.800781 59.089844 C 134.351562 59.089844 134.800781 59.539062 134.800781 60.089844 Z M 134.800781 60.089844 "/>
<path style=" stroke:none;fill-rule:evenodd;fill:rgb(100%,29.411765%,0%);fill-opacity:1;" d="M 137.84375 55.441406 C 137.84375 55.992188 137.394531 56.441406 136.84375 56.441406 C 136.289062 56.441406 135.84375 55.992188 135.84375 55.441406 C 135.84375 54.886719 136.289062 54.441406 136.84375 54.441406 C 137.394531 54.441406 137.84375 54.886719 137.84375 55.441406 Z M 137.84375 55.441406 "/>
<path style=" stroke:none;fill-rule:evenodd;fill:rgb(100%,29.411765%,0%);fill-opacity:1;" d="M 140.929688 51.183594 C 140.929688 51.734375 140.480469 52.183594 139.929688 52.183594 C 139.375 52.183594 138.929688 51.734375 138.929688 51.183594 C 138.929688 50.628906 139.375 50.183594 139.929688 50.183594 C 140.480469 50.183594 140.929688 50.628906 140.929688 51.183594 Z M 140.929688 51.183594 "/>
<path style=" stroke:none;fill-rule:evenodd;fill:rgb(100%,29.411765%,0%);fill-opacity:1;" d="M 144.058594 47.5 C 144.058594 48.050781 143.609375 48.5 143.058594 48.5 C 142.503906 48.5 142.058594 48.050781 142.058594 47.5 C 142.058594 46.945312 142.503906 46.5 143.058594 46.5 C 143.609375 46.5 144.058594 46.945312 144.058594 47.5 Z M 144.058594 47.5 "/>
<path style=" stroke:none;fill-rule:evenodd;fill:rgb(100%,29.411765%,0%);fill-opacity:1;" d="M 147.230469 44.554688 C 147.230469 45.105469 146.785156 45.554688 146.230469 45.554688 C 145.679688 45.554688 145.230469 45.105469 145.230469 44.554688 C 145.230469 44 145.679688 43.554688 146.230469 43.554688 C 146.785156 43.554688 147.230469 44 147.230469 44.554688 Z M 147.230469 44.554688 "/>
<path style=" stroke:none;fill-rule:evenodd;fill:rgb(100%,29.411765%,0%);fill-opacity:1;" d="M 150.449219 42.484375 C 150.449219 43.035156 150.003906 43.484375 149.449219 43.484375 C 148.898438 43.484375 148.449219 43.035156 148.449219 42.484375 C 148.449219 41.933594 148.898438 41.484375 149.449219 41.484375 C 150.003906 41.484375 150.449219 41.933594 150.449219 42.484375 Z M 150.449219 42.484375 "/>
<path style=" stroke:none;fill-rule:evenodd;fill:rgb(100%,29.411765%,0%);fill-opacity:1;" d="M 153.710938 41.398438 C 153.710938 41.953125 153.265625 42.398438 152.710938 42.398438 C 152.160156 42.398438 151.710938 41.953125 151.710938 41.398438 C 151.710938 40.847656 152.160156 40.398438 152.710938 40.398438 C 153.265625 40.398438 153.710938 40.847656 153.710938 41.398438 Z M 153.710938 41.398438 "/>
<path style=" stroke:none;fill-rule:evenodd;fill:rgb(100%,29.411765%,0%);fill-opacity:1;" d="M 157.019531 41.371094 C 157.019531 41.925781 156.570312 42.371094 156.019531 42.371094 C 155.464844 42.371094 155.019531 41.925781 155.019531 41.371094 C 155.019531 40.820312 155.464844 40.371094 156.019531 40.371094 C 156.570312 40.371094 157.019531 40.820312 157.019531 41.371094 Z M 157.019531 41.371094 "/>
<path style=" stroke:none;fill-rule:evenodd;fill:rgb(100%,29.411765%,0%);fill-opacity:1;" d="M 160.367188 42.429688 C 160.367188 42.984375 159.921875 43.429688 159.367188 43.429688 C 158.816406 43.429688 158.367188 42.984375 158.367188 42.429688 C 158.367188 41.878906 158.816406 41.429688 159.367188 41.429688 C 159.921875 41.429688 160.367188 41.878906 160.367188 42.429688 Z M 160.367188 42.429688 "/>
<path style=" stroke:none;fill-rule:evenodd;fill:rgb(100%,29.411765%,0%);fill-opacity:1;" d="M 163.761719 44.566406 C 163.761719 45.117188 163.3125 45.566406 162.761719 45.566406 C 162.210938 45.566406 161.761719 45.117188 161.761719 44.566406 C 161.761719 44.011719 162.210938 43.566406 162.761719 43.566406 C 163.3125 43.566406 163.761719 44.011719 163.761719 44.566406 Z M 163.761719 44.566406 "/>
<path style=" stroke:none;fill-rule:evenodd;fill:rgb(100%,29.411765%,0%);fill-opacity:1;" d="M 167.199219 47.722656 C 167.199219 48.277344 166.753906 48.722656 166.199219 48.722656 C 165.648438 48.722656 165.199219 48.277344 165.199219 47.722656 C 165.199219 47.171875 165.648438 46.722656 166.199219 46.722656 C 166.753906 46.722656 167.199219 47.171875 167.199219 47.722656 Z M 167.199219 47.722656 "/>
<path style=" stroke:none;fill-rule:evenodd;fill:rgb(100%,29.411765%,0%);fill-opacity:1;" d="M 170.683594 51.808594 C 170.683594 52.359375 170.234375 52.808594 169.683594 52.808594 C 169.128906 52.808594 168.683594 52.359375 168.683594 51.808594 C 168.683594 51.253906 169.128906 50.808594 169.683594 50.808594 C 170.234375 50.808594 170.683594 51.253906 170.683594 51.808594 Z M 170.683594 51.808594 "/>
<path style=" stroke:none;fill-rule:evenodd;fill:rgb(100%,29.411765%,0%);fill-opacity:1;" d="M 174.207031 56.6875 C 174.207031 57.238281 173.761719 57.6875 173.207031 57.6875 C 172.65625 57.6875 172.207031 57.238281 172.207031 56.6875 C 172.207031 56.132812 172.65625 55.6875 173.207031 55.6875 C 173.761719 55.6875 174.207031 56.132812 174.207031 56.6875 Z M 174.207031 56.6875 "/>
<path style=" stroke:none;fill-rule:evenodd;fill:rgb(100%,29.411765%,0%);fill-opacity:1;" d="M 177.777344 62.1875 C 177.777344 62.742188 177.332031 63.1875 176.777344 63.1875 C 176.226562 63.1875 175.777344 62.742188 175.777344 62.1875 C 175.777344 61.636719 176.226562 61.1875 176.777344 61.1875 C 177.332031 61.1875 177.777344 61.636719 177.777344 62.1875 Z M 177.777344 62.1875 "/>
<path style=" stroke:none;fill-rule:evenodd;fill:rgb(100%,29.411765%,0%);fill-opacity:1;" d="M 181.390625 68.125 C 181.390625 68.675781 180.945312 69.125 180.390625 69.125 C 179.839844 69.125 179.390625 68.675781 179.390625 68.125 C 179.390625 67.570312 179.839844 67.125 180.390625 67.125 C 180.945312 67.125 181.390625 67.570312 181.390625 68.125 Z M 181.390625 68.125 "/>
<path style=" stroke:none;fill-rule:evenodd;fill:rgb(100%,29.411765%,0%);fill-opacity:1;" d="M 185.050781 74.273438 C 185.050781 74.824219 184.601562 75.273438 184.050781 75.273438 C 183.496094 75.273438 183.050781 74.824219 183.050781 74.273438 C 183.050781 73.71875 183.496094 73.273438 184.050781 73.273438 C 184.601562 73.273438 185.050781 73.71875 185.050781 74.273438 Z M 185.050781 74.273438 "/>
<path style=" stroke:none;fill-rule:evenodd;fill:rgb(100%,29.411765%,0%);fill-opacity:1;" d="M 188.753906 80.40625 C 188.753906 80.960938 188.304688 81.40625 187.753906 81.40625 C 187.199219 81.40625 186.753906 80.960938 186.753906 80.40625 C 186.753906 79.855469 187.199219 79.40625 187.753906 79.40625 C 188.304688 79.40625 188.753906 79.855469 188.753906 80.40625 Z M 188.753906 80.40625 "/>
<path style=" stroke:none;fill-rule:evenodd;fill:rgb(100%,29.411765%,0%);fill-opacity:1;" d="M 192.496094 86.300781 C 192.496094 86.851562 192.050781 87.300781 191.496094 87.300781 C 190.945312 87.300781 190.496094 86.851562 190.496094 86.300781 C 190.496094 85.75 190.945312 85.300781 191.496094 85.300781 C 192.050781 85.300781 192.496094 85.75 192.496094 86.300781 Z M 192.496094 86.300781 "/>
<path style=" stroke:none;fill-rule:evenodd;fill:rgb(100%,29.411765%,0%);fill-opacity:1;" d="M 196.289062 91.730469 C 196.289062 92.28125 195.839844 92.730469 195.289062 92.730469 C 194.734375 92.730469 194.289062 92.28125 194.289062 91.730469 C 194.289062 91.175781 194.734375 90.730469 195.289062 90.730469 C 195.839844 90.730469 196.289062 91.175781 196.289062 91.730469 Z M 196.289062 91.730469 "/>
<path style=" stroke:none;fill-rule:evenodd;fill:rgb(100%,29.411765%,0%);fill-opacity:1;" d="M 200.121094 96.484375 C 200.121094 97.039062 199.675781 97.484375 199.121094 97.484375 C 198.570312 97.484375 198.121094 97.039062 198.121094 96.484375 C 198.121094 95.933594 198.570312 95.484375 199.121094 95.484375 C 199.675781 95.484375 200.121094 95.933594 200.121094 96.484375 Z M 200.121094 96.484375 "/>
<g clip-path="url(#clip2)" clip-rule="nonzero">
<path style=" stroke:none;fill-rule:evenodd;fill:rgb(100%,29.411765%,0%);fill-opacity:1;" d="M 204 100.386719 C 204 100.941406 203.550781 101.386719 203 101.386719 C 202.449219 101.386719 202 100.941406 202 100.386719 C 202 99.835938 202.449219 99.386719 203 99.386719 C 203.550781 99.386719 204 99.835938 204 100.386719 Z M 204 100.386719 "/>
</g>
</g>
</svg>
