<?xml version="1.0" encoding="UTF-8"?>
<svg xmlns="http://www.w3.org/2000/svg" xmlns:xlink="http://www.w3.org/1999/xlink" width="274" height="216" viewBox="0 0 274 216" version="1.1">
<g id="surface203">
<path style="fill:none;stroke-width:1;stroke-linecap:round;stroke-linejoin:miter;stroke:rgb(0%,0%,0%);stroke-opacity:1;stroke-miterlimit:10;" d="M 179.5 170.5 C 179.5 193.5 159.5 213.5 136.5 213.5 C 113.5 213.5 94.5 193.5 94.5 170.5 C 94.5 147.5 113.5 128.5 136.5 128.5 C 159.5 128.5 179.5 147.5 179.5 170.5 Z M 179.5 170.5 "/>
<path style="fill:none;stroke-width:1;stroke-linecap:round;stroke-linejoin:miter;stroke:rgb(0%,0%,0%);stroke-opacity:1;stroke-miterlimit:10;" d="M 3.5 88.5 C 3.5 88.5 270.5 88.5 270.5 88.5 C 270.5 88.5 270.5 128.5 270.5 128.5 C 270.5 128.5 3.5 128.5 3.5 128.5 C 3.5 128.5 3.5 88.5 3.5 88.5 Z M 3.5 88.5 "/>
<path style="fill:none;stroke-width:1;stroke-linecap:round;stroke-linejoin:miter;stroke:rgb(0%,0%,0%);stroke-opacity:1;stroke-miterlimit:10;" d="M 179.5 45.5 C 179.5 68.5 159.5 88.5 136.5 88.5 C 113.5 88.5 94.5 68.5 94.5 45.5 C 94.5 22.5 113.5 3.5 136.5 3.5 C 159.5 3.5 179.5 22.5 179.5 45.5 Z M 179.5 45.5 "/>
</g>
</svg>
