<?xml version="1.0" encoding="UTF-8"?>
<svg xmlns="http://www.w3.org/2000/svg" xmlns:xlink="http://www.w3.org/1999/xlink" width="106" height="106" viewBox="0 0 106 106" version="1.1">
<g id="surface488">
<path style=" stroke:none;fill-rule:evenodd;fill:rgb(100%,100%,0%);fill-opacity:1;" d="M 103 53 C 103 80.613281 80.613281 103 53 103 C 25.386719 103 3 80.613281 3 53 C 3 25.386719 25.386719 3 53 3 C 80.613281 3 103 25.386719 103 53 Z M 103 53 "/>
<path style=" stroke:none;fill-rule:nonzero;fill:rgb(0%,0%,100%);fill-opacity:1;" d="M 43 52.484375 C 43 52.484375 63 52.484375 63 52.484375 C 63 52.484375 63 92.484375 63 92.484375 C 63 92.484375 43 92.484375 43 92.484375 C 43 92.484375 43 52.484375 43 52.484375 Z M 43 52.484375 "/>
<path style=" stroke:none;fill-rule:nonzero;fill:rgb(0%,0%,100%);fill-opacity:1;" d="M 30.5 52.484375 C 30.5 52.484375 75.5 52.484375 75.5 52.484375 C 75.5 52.484375 53 13.515625 53 13.515625 C 53 13.515625 30.5 52.484375 30.5 52.484375 Z M 30.5 52.484375 "/>
</g>
</svg>
