<?xml version="1.0" encoding="UTF-8"?>
<svg xmlns="http://www.w3.org/2000/svg" xmlns:xlink="http://www.w3.org/1999/xlink" width="206" height="206" viewBox="0 0 206 206" version="1.1">
<g id="surface245">
<path style=" stroke:none;fill-rule:evenodd;fill:rgb(100%,100%,0%);fill-opacity:1;" d="M 203 153 C 203 180.613281 180.613281 203 153 203 C 125.386719 203 103 180.613281 103 153 C 103 125.386719 125.386719 103 153 103 C 180.613281 103 203 125.386719 203 153 Z M 203 153 "/>
<path style=" stroke:none;fill-rule:nonzero;fill:rgb(0%,0%,100%);fill-opacity:1;" d="M 143 152.484375 C 143 152.484375 163 152.484375 163 152.484375 C 163 152.484375 163 192.484375 163 192.484375 C 163 192.484375 143 192.484375 143 192.484375 C 143 192.484375 143 152.484375 143 152.484375 Z M 143 152.484375 "/>
<path style=" stroke:none;fill-rule:nonzero;fill:rgb(0%,0%,100%);fill-opacity:1;" d="M 130.5 152.484375 C 130.5 152.484375 175.5 152.484375 175.5 152.484375 C 175.5 152.484375 153 113.515625 153 113.515625 C 153 113.515625 130.5 152.484375 130.5 152.484375 Z M 130.5 152.484375 "/>
<path style=" stroke:none;fill-rule:evenodd;fill:rgb(100%,0%,0%);fill-opacity:1;" d="M 103 153 C 103 180.613281 80.613281 203 53 203 C 25.386719 203 3 180.613281 3 153 C 3 125.386719 25.386719 103 53 103 C 80.613281 103 103 125.386719 103 153 Z M 103 153 "/>
<path style=" stroke:none;fill-rule:nonzero;fill:rgb(0%,39.215686%,0%);fill-opacity:1;" d="M 53.515625 143 C 53.515625 143 53.515625 163 53.515625 163 C 53.515625 163 13.515625 163 13.515625 163 C 13.515625 163 13.515625 143 13.515625 143 C 13.515625 143 53.515625 143 53.515625 143 Z M 53.515625 143 "/>
<path style=" stroke:none;fill-rule:nonzero;fill:rgb(0%,39.215686%,0%);fill-opacity:1;" d="M 53.515625 130.5 C 53.515625 130.5 53.515625 175.5 53.515625 175.5 C 53.515625 175.5 92.484375 153 92.484375 153 C 92.484375 153 53.515625 130.5 53.515625 130.5 Z M 53.515625 130.5 "/>
<path style=" stroke:none;fill-rule:evenodd;fill:rgb(0%,39.215686%,0%);fill-opacity:1;" d="M 203 53 C 203 80.613281 180.613281 103 153 103 C 125.386719 103 103 80.613281 103 53 C 103 25.386719 125.386719 3 153 3 C 180.613281 3 203 25.386719 203 53 Z M 203 53 "/>
<path style=" stroke:none;fill-rule:nonzero;fill:rgb(100%,0%,0%);fill-opacity:1;" d="M 152.484375 63 C 152.484375 63 152.484375 43 152.484375 43 C 152.484375 43 192.484375 43 192.484375 43 C 192.484375 43 192.484375 63 192.484375 63 C 192.484375 63 152.484375 63 152.484375 63 Z M 152.484375 63 "/>
<path style=" stroke:none;fill-rule:nonzero;fill:rgb(100%,0%,0%);fill-opacity:1;" d="M 152.484375 75.5 C 152.484375 75.5 152.484375 30.5 152.484375 30.5 C 152.484375 30.5 113.515625 53 113.515625 53 C 113.515625 53 152.484375 75.5 152.484375 75.5 Z M 152.484375 75.5 "/>
<path style=" stroke:none;fill-rule:evenodd;fill:rgb(0%,0%,100%);fill-opacity:1;" d="M 103 53 C 103 80.613281 80.613281 103 53 103 C 25.386719 103 3 80.613281 3 53 C 3 25.386719 25.386719 3 53 3 C 80.613281 3 103 25.386719 103 53 Z M 103 53 "/>
<path style=" stroke:none;fill-rule:nonzero;fill:rgb(100%,100%,0%);fill-opacity:1;" d="M 63 53.515625 C 63 53.515625 43 53.515625 43 53.515625 C 43 53.515625 43 13.515625 43 13.515625 C 43 13.515625 63 13.515625 63 13.515625 C 63 13.515625 63 53.515625 63 53.515625 Z M 63 53.515625 "/>
<path style=" stroke:none;fill-rule:nonzero;fill:rgb(100%,100%,0%);fill-opacity:1;" d="M 75.5 53.515625 C 75.5 53.515625 30.5 53.515625 30.5 53.515625 C 30.5 53.515625 53 92.484375 53 92.484375 C 53 92.484375 75.5 53.515625 75.5 53.515625 Z M 75.5 53.515625 "/>
</g>
</svg>
